G04 EAGLE Gerber RS-274X export*
G75*
%MOMM*%
%FSLAX34Y34*%
%LPD*%
%INBottom Copper*%
%IPPOS*%
%AMOC8*
5,1,8,0,0,1.08239X$1,22.5*%
G01*
%ADD10C,0.152400*%
%ADD11R,1.168400X1.600200*%
%ADD12P,1.649562X8X292.500000*%
%ADD13C,1.725000*%
%ADD14C,1.524000*%
%ADD15C,0.711200*%
%ADD16C,5.842000*%
%ADD17C,1.006400*%
%ADD18C,0.254000*%
%ADD19C,0.203200*%
%ADD20C,0.508000*%
%ADD21C,0.762000*%
%ADD22C,0.406400*%

G36*
X668459Y3190D02*
X668459Y3190D01*
X668550Y3198D01*
X668580Y3210D01*
X668612Y3215D01*
X668693Y3258D01*
X668777Y3294D01*
X668809Y3320D01*
X668829Y3331D01*
X668852Y3354D01*
X668908Y3399D01*
X796601Y131092D01*
X796654Y131166D01*
X796714Y131236D01*
X796726Y131266D01*
X796745Y131292D01*
X796772Y131379D01*
X796806Y131464D01*
X796810Y131505D01*
X796817Y131527D01*
X796816Y131559D01*
X796824Y131631D01*
X796824Y799294D01*
X796816Y799345D01*
X796817Y799396D01*
X796789Y799511D01*
X796785Y799537D01*
X796780Y799545D01*
X796777Y799559D01*
X796516Y800264D01*
X796511Y800272D01*
X796510Y800280D01*
X796451Y800378D01*
X796394Y800478D01*
X796388Y800484D01*
X796383Y800491D01*
X796297Y800565D01*
X796211Y800642D01*
X796203Y800645D01*
X796197Y800651D01*
X796090Y800694D01*
X795984Y800739D01*
X795976Y800740D01*
X795968Y800743D01*
X795802Y800761D01*
X750000Y800761D01*
X749980Y800758D01*
X749961Y800760D01*
X749859Y800738D01*
X749757Y800722D01*
X749740Y800712D01*
X749720Y800708D01*
X749631Y800655D01*
X749540Y800606D01*
X749526Y800592D01*
X749509Y800582D01*
X749442Y800503D01*
X749371Y800428D01*
X749362Y800410D01*
X749349Y800395D01*
X749310Y800299D01*
X749267Y800205D01*
X749265Y800185D01*
X749257Y800167D01*
X749239Y800000D01*
X749239Y150315D01*
X663036Y64038D01*
X650560Y51561D01*
X349893Y51561D01*
X324600Y200153D01*
X324575Y200228D01*
X324558Y200305D01*
X324535Y200343D01*
X324521Y200385D01*
X324472Y200448D01*
X324432Y200516D01*
X324398Y200545D01*
X324371Y200580D01*
X324305Y200624D01*
X324245Y200676D01*
X324203Y200693D01*
X324166Y200717D01*
X324090Y200738D01*
X324017Y200768D01*
X323958Y200774D01*
X323929Y200782D01*
X323902Y200781D01*
X323850Y200786D01*
X255588Y200786D01*
X255497Y200772D01*
X255407Y200764D01*
X255377Y200752D01*
X255345Y200747D01*
X255264Y200704D01*
X255180Y200668D01*
X255148Y200642D01*
X255127Y200631D01*
X255105Y200608D01*
X255049Y200563D01*
X236222Y181736D01*
X111090Y181736D01*
X111019Y181725D01*
X110948Y181723D01*
X110899Y181705D01*
X110847Y181697D01*
X110784Y181663D01*
X110717Y181638D01*
X110676Y181606D01*
X110630Y181581D01*
X110581Y181530D01*
X110525Y181485D01*
X110496Y181441D01*
X110461Y181403D01*
X110430Y181338D01*
X110392Y181278D01*
X110379Y181227D01*
X110357Y181180D01*
X110349Y181109D01*
X110332Y181039D01*
X110336Y180987D01*
X110330Y180936D01*
X110345Y180865D01*
X110351Y180794D01*
X110371Y180746D01*
X110382Y180695D01*
X110419Y180634D01*
X110447Y180568D01*
X110492Y180512D01*
X110508Y180484D01*
X110526Y180469D01*
X110552Y180437D01*
X112777Y178212D01*
X112777Y174213D01*
X112139Y173576D01*
X112128Y173560D01*
X112112Y173547D01*
X112056Y173460D01*
X111996Y173376D01*
X111990Y173357D01*
X111979Y173340D01*
X111954Y173240D01*
X111923Y173141D01*
X111924Y173121D01*
X111919Y173102D01*
X111927Y172999D01*
X111930Y172895D01*
X111937Y172876D01*
X111938Y172857D01*
X111979Y172762D01*
X112014Y172664D01*
X112027Y172648D01*
X112035Y172630D01*
X112139Y172499D01*
X112777Y171862D01*
X112777Y167863D01*
X112139Y167226D01*
X112128Y167210D01*
X112112Y167197D01*
X112056Y167110D01*
X111996Y167026D01*
X111990Y167007D01*
X111979Y166990D01*
X111954Y166890D01*
X111923Y166791D01*
X111924Y166771D01*
X111919Y166752D01*
X111927Y166649D01*
X111930Y166545D01*
X111937Y166526D01*
X111938Y166506D01*
X111979Y166412D01*
X112014Y166314D01*
X112027Y166298D01*
X112035Y166280D01*
X112139Y166149D01*
X112777Y165512D01*
X112777Y161513D01*
X109949Y158686D01*
X105951Y158686D01*
X103123Y161513D01*
X103123Y165512D01*
X103761Y166149D01*
X103772Y166165D01*
X103788Y166178D01*
X103844Y166265D01*
X103904Y166349D01*
X103910Y166368D01*
X103921Y166385D01*
X103946Y166485D01*
X103977Y166584D01*
X103976Y166604D01*
X103981Y166623D01*
X103973Y166726D01*
X103970Y166830D01*
X103963Y166849D01*
X103962Y166868D01*
X103921Y166963D01*
X103886Y167061D01*
X103873Y167077D01*
X103865Y167095D01*
X103761Y167226D01*
X103123Y167863D01*
X103123Y171862D01*
X103761Y172499D01*
X103772Y172515D01*
X103788Y172528D01*
X103844Y172615D01*
X103904Y172699D01*
X103910Y172718D01*
X103921Y172735D01*
X103946Y172835D01*
X103977Y172934D01*
X103976Y172954D01*
X103981Y172973D01*
X103973Y173076D01*
X103970Y173180D01*
X103963Y173199D01*
X103962Y173219D01*
X103921Y173313D01*
X103886Y173411D01*
X103873Y173427D01*
X103865Y173445D01*
X103761Y173576D01*
X103123Y174213D01*
X103123Y178212D01*
X105348Y180437D01*
X105390Y180495D01*
X105439Y180547D01*
X105461Y180594D01*
X105492Y180636D01*
X105513Y180705D01*
X105543Y180770D01*
X105549Y180822D01*
X105564Y180872D01*
X105562Y180943D01*
X105570Y181014D01*
X105559Y181065D01*
X105558Y181117D01*
X105533Y181185D01*
X105518Y181255D01*
X105491Y181299D01*
X105473Y181348D01*
X105428Y181404D01*
X105392Y181466D01*
X105352Y181500D01*
X105320Y181540D01*
X105259Y181579D01*
X105205Y181626D01*
X105156Y181645D01*
X105113Y181673D01*
X105043Y181691D01*
X104977Y181718D01*
X104905Y181726D01*
X104874Y181734D01*
X104851Y181732D01*
X104810Y181736D01*
X51113Y181736D01*
X49176Y183653D01*
X51559Y507682D01*
X92390Y548514D01*
X161925Y548514D01*
X161945Y548517D01*
X161964Y548515D01*
X162066Y548537D01*
X162168Y548554D01*
X162185Y548563D01*
X162205Y548567D01*
X162294Y548620D01*
X162385Y548669D01*
X162399Y548683D01*
X162416Y548693D01*
X162483Y548772D01*
X162555Y548847D01*
X162563Y548865D01*
X162576Y548880D01*
X162615Y548976D01*
X162658Y549070D01*
X162660Y549090D01*
X162668Y549108D01*
X162686Y549275D01*
X162686Y619125D01*
X162683Y619145D01*
X162685Y619164D01*
X162663Y619266D01*
X162647Y619368D01*
X162637Y619385D01*
X162633Y619405D01*
X162580Y619494D01*
X162531Y619585D01*
X162517Y619599D01*
X162507Y619616D01*
X162428Y619683D01*
X162353Y619755D01*
X162335Y619763D01*
X162320Y619776D01*
X162224Y619815D01*
X162130Y619858D01*
X162110Y619860D01*
X162092Y619868D01*
X161925Y619886D01*
X111624Y619886D01*
X50761Y759783D01*
X50761Y800000D01*
X50758Y800020D01*
X50760Y800039D01*
X50738Y800141D01*
X50722Y800243D01*
X50712Y800260D01*
X50708Y800280D01*
X50655Y800369D01*
X50606Y800460D01*
X50592Y800474D01*
X50582Y800491D01*
X50503Y800558D01*
X50428Y800630D01*
X50410Y800638D01*
X50395Y800651D01*
X50299Y800690D01*
X50205Y800733D01*
X50185Y800735D01*
X50167Y800743D01*
X50000Y800761D01*
X4198Y800761D01*
X4190Y800760D01*
X4182Y800761D01*
X4069Y800740D01*
X3956Y800722D01*
X3948Y800718D01*
X3940Y800716D01*
X3840Y800660D01*
X3738Y800606D01*
X3732Y800600D01*
X3725Y800596D01*
X3648Y800511D01*
X3569Y800428D01*
X3565Y800420D01*
X3560Y800414D01*
X3484Y800264D01*
X3223Y799559D01*
X3213Y799509D01*
X3194Y799461D01*
X3181Y799344D01*
X3176Y799317D01*
X3177Y799308D01*
X3176Y799294D01*
X3176Y131631D01*
X3190Y131541D01*
X3198Y131450D01*
X3210Y131420D01*
X3215Y131388D01*
X3258Y131307D01*
X3294Y131223D01*
X3320Y131191D01*
X3331Y131171D01*
X3354Y131148D01*
X3399Y131092D01*
X131092Y3399D01*
X131166Y3346D01*
X131236Y3286D01*
X131266Y3274D01*
X131292Y3255D01*
X131379Y3228D01*
X131464Y3194D01*
X131505Y3190D01*
X131527Y3183D01*
X131559Y3184D01*
X131631Y3176D01*
X668369Y3176D01*
X668459Y3190D01*
G37*
%LPC*%
G36*
X51213Y634959D02*
X51213Y634959D01*
X44214Y637858D01*
X38858Y643214D01*
X35959Y650213D01*
X35959Y657787D01*
X38858Y664786D01*
X44214Y670142D01*
X51213Y673041D01*
X58787Y673041D01*
X65786Y670142D01*
X71142Y664786D01*
X74041Y657787D01*
X74041Y650213D01*
X71142Y643214D01*
X65786Y637858D01*
X58787Y634959D01*
X51213Y634959D01*
G37*
%LPD*%
D10*
X733126Y905637D02*
X727703Y905637D01*
X724991Y908349D01*
X724991Y913772D01*
X727703Y916484D01*
X733126Y916484D01*
X735838Y913772D01*
X735838Y908349D01*
X733126Y905637D01*
X716755Y905637D02*
X711332Y905637D01*
X716755Y905637D02*
X719466Y908349D01*
X719466Y913772D01*
X716755Y916484D01*
X711332Y916484D01*
X708620Y913772D01*
X708620Y911060D01*
X719466Y911060D01*
X703095Y921907D02*
X700383Y921907D01*
X700383Y905637D01*
X697672Y905637D02*
X703095Y905637D01*
X692181Y900214D02*
X692181Y916484D01*
X684046Y916484D01*
X681334Y913772D01*
X681334Y908349D01*
X684046Y905637D01*
X692181Y905637D01*
X675809Y905637D02*
X675809Y916484D01*
X670386Y916484D02*
X675809Y911060D01*
X670386Y916484D02*
X667674Y916484D01*
X662166Y916484D02*
X659454Y916484D01*
X659454Y905637D01*
X656743Y905637D02*
X662166Y905637D01*
X659454Y921907D02*
X659454Y924619D01*
X651252Y916484D02*
X651252Y905637D01*
X651252Y916484D02*
X643117Y916484D01*
X640405Y913772D01*
X640405Y905637D01*
X634880Y916484D02*
X624033Y916484D01*
X634880Y905637D01*
X624033Y905637D01*
X618508Y905637D02*
X618508Y908349D01*
X615797Y908349D01*
X615797Y905637D01*
X618508Y905637D01*
X607611Y905637D02*
X602188Y905637D01*
X599476Y908349D01*
X599476Y913772D01*
X602188Y916484D01*
X607611Y916484D01*
X610323Y913772D01*
X610323Y908349D01*
X607611Y905637D01*
X593951Y905637D02*
X593951Y916484D01*
X588528Y916484D02*
X593951Y911060D01*
X588528Y916484D02*
X585816Y916484D01*
X574885Y900214D02*
X572173Y900214D01*
X569462Y902925D01*
X569462Y916484D01*
X577597Y916484D01*
X580308Y913772D01*
X580308Y908349D01*
X577597Y905637D01*
X569462Y905637D01*
X539430Y921907D02*
X536718Y919195D01*
X539430Y921907D02*
X544853Y921907D01*
X547565Y919195D01*
X547565Y908349D01*
X544853Y905637D01*
X539430Y905637D01*
X536718Y908349D01*
X536718Y913772D01*
X542142Y913772D01*
X531193Y921907D02*
X520347Y921907D01*
X531193Y921907D02*
X531193Y905637D01*
X520347Y905637D01*
X525770Y913772D02*
X531193Y913772D01*
X514822Y921907D02*
X514822Y905637D01*
X509399Y911060D01*
X503975Y905637D01*
X503975Y921907D01*
X498450Y905637D02*
X493027Y905637D01*
X495739Y905637D02*
X495739Y921907D01*
X498450Y921907D02*
X493027Y921907D01*
X482113Y921907D02*
X482113Y905637D01*
X487536Y921907D02*
X476689Y921907D01*
X465741Y921907D02*
X465741Y905637D01*
X471164Y921907D02*
X460318Y921907D01*
X454793Y921907D02*
X443946Y921907D01*
X454793Y921907D02*
X454793Y905637D01*
X443946Y905637D01*
X449370Y913772D02*
X454793Y913772D01*
X438421Y905637D02*
X438421Y921907D01*
X430286Y921907D01*
X427575Y919195D01*
X427575Y913772D01*
X430286Y911060D01*
X438421Y911060D01*
X432998Y911060D02*
X427575Y905637D01*
X422050Y905637D02*
X422050Y921907D01*
X413915Y921907D01*
X411203Y919195D01*
X411203Y916484D01*
X413915Y913772D01*
X411203Y911060D01*
X411203Y908349D01*
X413915Y905637D01*
X422050Y905637D01*
X422050Y913772D02*
X413915Y913772D01*
X402967Y921907D02*
X397543Y921907D01*
X402967Y921907D02*
X405678Y919195D01*
X405678Y908349D01*
X402967Y905637D01*
X397543Y905637D01*
X394832Y908349D01*
X394832Y919195D01*
X397543Y921907D01*
X389307Y921907D02*
X378460Y905637D01*
X389307Y905637D02*
X378460Y921907D01*
X356563Y921907D02*
X356563Y905637D01*
X356563Y921907D02*
X348429Y921907D01*
X345717Y919195D01*
X345717Y913772D01*
X348429Y911060D01*
X356563Y911060D01*
X351140Y911060D02*
X345717Y905637D01*
X340192Y908349D02*
X340192Y919195D01*
X337480Y921907D01*
X332057Y921907D01*
X329345Y919195D01*
X329345Y908349D01*
X332057Y905637D01*
X337480Y905637D01*
X340192Y908349D01*
X329345Y919195D01*
X323820Y908349D02*
X323820Y905637D01*
X323820Y908349D02*
X321109Y908349D01*
X321109Y905637D01*
X323820Y905637D01*
X315635Y908349D02*
X315635Y919195D01*
X312923Y921907D01*
X307500Y921907D01*
X304788Y919195D01*
X304788Y908349D01*
X307500Y905637D01*
X312923Y905637D01*
X315635Y908349D01*
X304788Y919195D01*
X299263Y908349D02*
X299263Y905637D01*
X299263Y908349D02*
X296551Y908349D01*
X296551Y905637D01*
X299263Y905637D01*
X291077Y916484D02*
X285654Y921907D01*
X285654Y905637D01*
X291077Y905637D02*
X280231Y905637D01*
D11*
X354648Y620713D03*
X369888Y620713D03*
X385128Y620713D03*
D12*
X430213Y523875D03*
X404813Y523875D03*
X430213Y498475D03*
X404813Y498475D03*
X430213Y473075D03*
X404813Y473075D03*
X430213Y447675D03*
X404813Y447675D03*
X430213Y422275D03*
X404813Y422275D03*
X430213Y396875D03*
X404813Y396875D03*
D13*
X251500Y785000D03*
X251500Y810000D03*
X251500Y835000D03*
X251500Y860000D03*
X288500Y785000D03*
X288500Y810000D03*
X288500Y835000D03*
X288500Y860000D03*
X323500Y785000D03*
X323500Y810000D03*
X323500Y835000D03*
X323500Y860000D03*
X348500Y785000D03*
X348500Y810000D03*
X348500Y835000D03*
X348500Y860000D03*
X373500Y785000D03*
X373500Y810000D03*
X373500Y835000D03*
X373500Y860000D03*
X398500Y785000D03*
X398500Y810000D03*
X398500Y835000D03*
X398500Y860000D03*
X423500Y785000D03*
X423500Y810000D03*
X423500Y835000D03*
X423500Y860000D03*
X448500Y785000D03*
X448500Y810000D03*
X448500Y835000D03*
X448500Y860000D03*
X473500Y785000D03*
X473500Y810000D03*
X473500Y835000D03*
X473500Y860000D03*
X498500Y785000D03*
X498500Y810000D03*
X498500Y835000D03*
X498500Y860000D03*
X523500Y785000D03*
X523500Y810000D03*
X523500Y835000D03*
X523500Y860000D03*
X548500Y785000D03*
X548500Y810000D03*
X548500Y835000D03*
X548500Y860000D03*
D14*
X361950Y280670D02*
X361950Y265430D01*
X387350Y265430D02*
X387350Y280670D01*
X412750Y280670D02*
X412750Y265430D01*
X438150Y265430D02*
X438150Y280670D01*
X361950Y102870D02*
X361950Y87630D01*
X387350Y87630D02*
X387350Y102870D01*
X412750Y102870D02*
X412750Y87630D01*
X438150Y87630D02*
X438150Y102870D01*
D15*
X290513Y554038D03*
X306388Y592138D03*
X349250Y496888D03*
X247650Y406400D03*
X323850Y315913D03*
X249238Y581025D03*
X339725Y581025D03*
X223838Y534988D03*
X215900Y404813D03*
X200025Y295275D03*
X200025Y285750D03*
X200025Y304800D03*
X231775Y428625D03*
X412750Y587375D03*
X317500Y642938D03*
X285750Y642938D03*
X285750Y649288D03*
X317500Y649288D03*
X349250Y638175D03*
X285750Y655638D03*
X317500Y655638D03*
X412750Y593725D03*
X412750Y600075D03*
X223838Y523875D03*
X320675Y387350D03*
X704850Y168275D03*
X449263Y481013D03*
X508000Y517525D03*
X693738Y458788D03*
X550863Y293688D03*
X450850Y396875D03*
X458788Y449263D03*
X482600Y439738D03*
X663575Y395288D03*
X638175Y407988D03*
X641350Y295275D03*
X561975Y590550D03*
X612775Y584200D03*
X612775Y590550D03*
X663575Y584200D03*
X663575Y590550D03*
X652463Y498475D03*
X561975Y571500D03*
X654050Y479425D03*
X598488Y515938D03*
X582613Y519113D03*
X612775Y571500D03*
X703263Y666750D03*
X696913Y666750D03*
X652463Y492125D03*
X509588Y500063D03*
X527050Y517525D03*
X527050Y481013D03*
X636541Y365172D03*
X663575Y571500D03*
X219075Y361950D03*
X290513Y706438D03*
X290513Y712788D03*
X290513Y719138D03*
X317500Y719138D03*
X317500Y712788D03*
X317500Y706438D03*
X349250Y706438D03*
X349250Y712788D03*
X349250Y719138D03*
X376238Y703263D03*
X376238Y696913D03*
X652463Y376238D03*
D16*
X74000Y733000D03*
X726000Y733000D03*
X667000Y106000D03*
X133000Y106000D03*
D17*
X15875Y781050D03*
X34925Y781050D03*
X34925Y762000D03*
X15875Y762000D03*
X15875Y742950D03*
X34925Y742950D03*
X34925Y723900D03*
X15875Y723900D03*
X15875Y704850D03*
X34925Y704850D03*
X34925Y685800D03*
X15875Y685800D03*
X15875Y666750D03*
X31750Y666750D03*
X30163Y647700D03*
X15875Y647700D03*
X15875Y628650D03*
X34925Y628650D03*
X34925Y609600D03*
X15875Y609600D03*
X15875Y590550D03*
X34925Y590550D03*
X34925Y571500D03*
X15875Y571500D03*
X15875Y552450D03*
X34925Y552450D03*
X34925Y533400D03*
X15875Y533400D03*
X15875Y514350D03*
X34925Y514350D03*
X34925Y495300D03*
X15875Y495300D03*
X15875Y476250D03*
X34925Y476250D03*
X34925Y457200D03*
X15875Y457200D03*
X15875Y438150D03*
X34925Y438150D03*
X34925Y419100D03*
X15875Y419100D03*
X15875Y400050D03*
X34925Y400050D03*
X34925Y381000D03*
X15875Y381000D03*
X15875Y361950D03*
X34925Y361950D03*
X34925Y342900D03*
X15875Y342900D03*
X15875Y323850D03*
X34925Y323850D03*
X34925Y304800D03*
X15875Y304800D03*
X15875Y285750D03*
X34925Y285750D03*
X34925Y266700D03*
X15875Y266700D03*
X15875Y247650D03*
X34925Y247650D03*
X34925Y228600D03*
X15875Y228600D03*
X15875Y209550D03*
X34925Y209550D03*
X34925Y190500D03*
X15875Y190500D03*
X765175Y781050D03*
X784225Y762000D03*
X765175Y762000D03*
X765175Y742950D03*
X784225Y742950D03*
X784225Y723900D03*
X765175Y723900D03*
X765175Y704850D03*
X784225Y704850D03*
X784225Y685800D03*
X765175Y685800D03*
X765175Y666750D03*
X784225Y666750D03*
X784225Y647700D03*
X765175Y647700D03*
X765175Y628650D03*
X784225Y628650D03*
X784225Y609600D03*
X765175Y609600D03*
X765175Y590550D03*
X784225Y590550D03*
X784225Y571500D03*
X765175Y571500D03*
X765175Y552450D03*
X784225Y552450D03*
X784225Y533400D03*
X765175Y533400D03*
X765175Y514350D03*
X784225Y514350D03*
X784225Y495300D03*
X765175Y495300D03*
X765175Y476250D03*
X784225Y476250D03*
X784225Y457200D03*
X765175Y457200D03*
X765175Y438150D03*
X784225Y438150D03*
X784225Y419100D03*
X765175Y419100D03*
X765175Y400050D03*
X784225Y400050D03*
X784225Y381000D03*
X765175Y381000D03*
X765175Y361950D03*
X784225Y361950D03*
X784225Y342900D03*
X765175Y342900D03*
X765175Y323850D03*
X784225Y323850D03*
X784225Y304800D03*
X765175Y304800D03*
X765175Y285750D03*
X784225Y285750D03*
X784225Y266700D03*
X765175Y266700D03*
X765175Y247650D03*
X784225Y247650D03*
X784225Y228600D03*
X765175Y228600D03*
X765175Y209550D03*
X784225Y209550D03*
X784225Y190500D03*
X765175Y190500D03*
X152400Y34925D03*
X152400Y15875D03*
X171450Y15875D03*
X171450Y34925D03*
X190500Y34925D03*
X190500Y15875D03*
X209550Y15875D03*
X209550Y34925D03*
X228600Y34925D03*
X228600Y15875D03*
X247650Y15875D03*
X247650Y34925D03*
X266700Y34925D03*
X266700Y15875D03*
X285750Y15875D03*
X285750Y34925D03*
X304800Y34925D03*
X304800Y15875D03*
X323850Y15875D03*
X323850Y34925D03*
X342900Y34925D03*
X342900Y15875D03*
X361950Y15875D03*
X361950Y34925D03*
X381000Y34925D03*
X381000Y15875D03*
X400050Y15875D03*
X400050Y34925D03*
X419100Y34925D03*
X419100Y15875D03*
X438150Y15875D03*
X438150Y34925D03*
X457200Y34925D03*
X457200Y15875D03*
X476250Y15875D03*
X476250Y34925D03*
X495300Y34925D03*
X495300Y15875D03*
X514350Y15875D03*
X514350Y34925D03*
X533400Y34925D03*
X533400Y15875D03*
X552450Y15875D03*
X552450Y34925D03*
X571500Y34925D03*
X571500Y15875D03*
X590550Y15875D03*
X590550Y34925D03*
X609600Y34925D03*
X609600Y15875D03*
X628650Y15875D03*
X628650Y34925D03*
X647700Y34925D03*
X647700Y15875D03*
X15875Y171450D03*
X34925Y171450D03*
X34925Y152400D03*
X15875Y152400D03*
X765175Y171450D03*
X784225Y171450D03*
X784225Y152400D03*
X765175Y152400D03*
X44450Y133350D03*
X57150Y120650D03*
X69850Y107950D03*
X82550Y95250D03*
X95250Y82550D03*
X107950Y69850D03*
X120650Y57150D03*
X136525Y44450D03*
X666750Y44450D03*
X679450Y57150D03*
X692150Y69850D03*
X704850Y82550D03*
X717550Y95250D03*
X730250Y107950D03*
X742950Y120650D03*
X755650Y136525D03*
X679450Y31750D03*
X692150Y44450D03*
X704850Y57150D03*
X717550Y69850D03*
X730250Y82550D03*
X742950Y95250D03*
X755650Y107950D03*
X768350Y123825D03*
X781050Y136525D03*
X666750Y19050D03*
X31750Y120650D03*
X44450Y107950D03*
X57150Y95250D03*
X69850Y82550D03*
X82550Y69850D03*
X95250Y57150D03*
X107950Y44450D03*
X123825Y31750D03*
X136525Y19050D03*
X19050Y133350D03*
D15*
X588963Y571500D03*
X628650Y479425D03*
X638175Y571500D03*
X536575Y571500D03*
D17*
X784225Y781050D03*
D15*
X461963Y703263D03*
X461963Y696913D03*
X461963Y690563D03*
X469900Y644525D03*
X469900Y631825D03*
X469900Y638175D03*
X406400Y141288D03*
X366713Y493713D03*
X501650Y311150D03*
X515938Y296863D03*
X457200Y254000D03*
X519113Y258763D03*
X479425Y254000D03*
X501650Y295275D03*
X461963Y234950D03*
X612775Y228600D03*
X477838Y188913D03*
X477838Y177800D03*
X479425Y165100D03*
X561975Y173038D03*
X511175Y147638D03*
X576263Y149225D03*
X600075Y198438D03*
X544513Y239713D03*
X460375Y152400D03*
X249238Y592138D03*
X255588Y592138D03*
X257175Y658813D03*
X257175Y652463D03*
X561975Y584200D03*
X619125Y257175D03*
X635000Y241300D03*
X681038Y522288D03*
X704850Y568325D03*
X369888Y530225D03*
X449263Y298450D03*
X230188Y388938D03*
X512763Y203200D03*
X317500Y315913D03*
X330200Y315913D03*
X566738Y261938D03*
X519113Y222250D03*
X500063Y598488D03*
X215900Y415925D03*
X342900Y474663D03*
X319088Y447675D03*
X346075Y360363D03*
X390525Y369888D03*
X346075Y325438D03*
X403225Y311150D03*
X263525Y444500D03*
X360363Y479425D03*
X382588Y444500D03*
X509588Y598488D03*
X511175Y569913D03*
X492125Y569913D03*
X479425Y569913D03*
X523875Y569913D03*
X561975Y292100D03*
D17*
X263525Y127000D03*
X276225Y127000D03*
X288925Y127000D03*
X301625Y127000D03*
X314325Y127000D03*
X263525Y139700D03*
X263525Y152400D03*
X263525Y165100D03*
X263525Y177800D03*
X263525Y190500D03*
X276225Y139700D03*
X276225Y152400D03*
X276225Y165100D03*
X276225Y177800D03*
X276225Y190500D03*
X288925Y190500D03*
X288925Y177800D03*
X288925Y165100D03*
X288925Y152400D03*
X288925Y139700D03*
X301625Y139700D03*
X301625Y152400D03*
X301625Y165100D03*
X301625Y177800D03*
X301625Y190500D03*
X314325Y190500D03*
X314325Y177800D03*
X314325Y165100D03*
X314325Y152400D03*
X314325Y139700D03*
D15*
X117475Y593725D03*
X127000Y593725D03*
X117475Y584200D03*
X117475Y574675D03*
X127000Y574675D03*
X127000Y584200D03*
X136525Y593725D03*
X146050Y593725D03*
X155575Y593725D03*
X155575Y584200D03*
X146050Y584200D03*
X146050Y574675D03*
X155575Y574675D03*
X136525Y584200D03*
X136525Y574675D03*
X123825Y679450D03*
X117475Y679450D03*
X149225Y679450D03*
X155575Y679450D03*
X93663Y601663D03*
X319088Y303213D03*
D17*
X98425Y300038D03*
X98425Y312738D03*
X85725Y300038D03*
X73025Y300038D03*
X85725Y312738D03*
X73025Y312738D03*
X161925Y198438D03*
X161925Y211138D03*
X150813Y198438D03*
X139700Y198438D03*
X150813Y211138D03*
X139700Y211138D03*
D15*
X230188Y268288D03*
X111919Y638175D03*
X84138Y530225D03*
X177800Y568325D03*
X161131Y638175D03*
X561524Y89989D03*
X561524Y76519D03*
X574994Y76519D03*
X574994Y89989D03*
X495300Y85725D03*
X498475Y69850D03*
X498475Y58738D03*
X203200Y590550D03*
X209550Y590550D03*
X63500Y546100D03*
X69850Y546100D03*
X209550Y479425D03*
X322263Y511175D03*
X265113Y517525D03*
X322263Y503238D03*
X354013Y623888D03*
D18*
X354648Y620713D01*
D15*
X311150Y387350D03*
X266700Y350838D03*
X703263Y623888D03*
X696913Y630238D03*
X696913Y611188D03*
X703263Y611188D03*
X696913Y623888D03*
X703263Y630238D03*
X223838Y501650D03*
X393700Y141288D03*
X107950Y163513D03*
X107950Y176213D03*
X107950Y169863D03*
X603250Y219075D03*
X620713Y236538D03*
X579438Y182563D03*
X354013Y617538D03*
X703263Y617538D03*
X696913Y617538D03*
X230188Y379413D03*
X558800Y203200D03*
X512763Y173038D03*
X461963Y222250D03*
X328613Y447675D03*
X377825Y369888D03*
X328613Y428625D03*
X338138Y419100D03*
X306388Y415925D03*
X315913Y406400D03*
X328613Y396875D03*
X350838Y409575D03*
X296863Y441325D03*
X490538Y598488D03*
X449263Y322263D03*
X198438Y271463D03*
X204788Y271463D03*
X211138Y271463D03*
X211138Y265113D03*
X204788Y265113D03*
X198438Y265113D03*
X198438Y258763D03*
X204788Y258763D03*
X211138Y258763D03*
X211138Y252413D03*
X211138Y246063D03*
X204788Y246063D03*
X204788Y252413D03*
X198438Y252413D03*
X198438Y246063D03*
X211138Y239713D03*
X204788Y239713D03*
X198438Y239713D03*
X690563Y396875D03*
X690563Y368300D03*
X217488Y239713D03*
X217488Y246063D03*
X217488Y252413D03*
X217488Y258763D03*
X217488Y265113D03*
X217488Y271463D03*
X647700Y207963D03*
X692150Y168275D03*
X647700Y171450D03*
D10*
X657225Y161925D01*
X685800Y161925D01*
X692150Y168275D01*
D15*
X282575Y579438D03*
X277813Y361950D03*
D19*
X282575Y552450D02*
X282575Y579438D01*
X282575Y552450D02*
X288925Y546100D01*
X293688Y546100D01*
X298450Y550863D01*
X303213Y550863D01*
X309563Y544513D01*
X309563Y527050D01*
X295275Y512763D01*
X288925Y512763D01*
X276225Y500063D01*
X276225Y363538D01*
X277813Y361950D01*
D15*
X366713Y504825D03*
D10*
X344488Y527050D02*
X309563Y527050D01*
X344488Y527050D02*
X366713Y504825D01*
D15*
X279400Y534988D03*
D19*
X279400Y542925D01*
X265113Y557213D01*
X250825Y557213D01*
X242888Y565150D01*
X242888Y604838D01*
X225425Y622300D01*
X225425Y869950D01*
X239713Y884238D01*
X342900Y884238D01*
X360363Y866775D01*
X360363Y846863D01*
X348500Y835000D01*
D15*
X265113Y592138D03*
D19*
X230188Y627063D01*
X230188Y868363D01*
X241300Y879475D01*
X329025Y879475D01*
X348500Y860000D01*
D15*
X274638Y592138D03*
D19*
X234950Y631825D01*
X234950Y866775D01*
X242888Y874713D01*
X308788Y874713D01*
X323500Y860000D01*
D15*
X261938Y544513D03*
X234950Y577850D03*
D19*
X238125Y581025D01*
X238125Y600075D01*
X220663Y617538D01*
X220663Y871538D01*
X238125Y889000D01*
X344500Y889000D01*
X373500Y860000D01*
D15*
X352425Y444500D03*
X284163Y498475D03*
D10*
X352425Y484188D02*
X352425Y444500D01*
X352425Y484188D02*
X341313Y495300D01*
X341313Y503238D01*
X327025Y517525D01*
X307975Y517525D01*
X298450Y508000D01*
X293688Y508000D01*
X284163Y498475D01*
D15*
X215900Y557213D03*
D19*
X274638Y520700D02*
X274638Y517525D01*
X274638Y520700D02*
X238125Y557213D01*
X215900Y557213D01*
D15*
X274638Y517525D03*
X249238Y642938D03*
X249238Y636588D03*
D20*
X249238Y665163D01*
D21*
X249238Y745738D01*
X288500Y785000D01*
D15*
X268288Y536575D03*
X290513Y523875D03*
D19*
X280988Y523875D02*
X268288Y536575D01*
X280988Y523875D02*
X290513Y523875D01*
X268288Y536575D02*
X268288Y547688D01*
X263525Y552450D01*
X249238Y552450D01*
X228600Y573088D01*
X228600Y592138D01*
D15*
X311150Y495300D03*
X287338Y463550D03*
D10*
X295275Y471488D01*
X295275Y498475D01*
X298450Y501650D01*
X304800Y501650D01*
X311150Y495300D01*
D15*
X339725Y487363D03*
X293688Y412750D03*
D10*
X280988Y425450D01*
X280988Y476250D01*
X292100Y487363D01*
X292100Y500063D01*
X296863Y504825D01*
X311150Y504825D01*
X328613Y487363D01*
X339725Y487363D01*
D15*
X301625Y495300D03*
X341313Y446088D03*
D10*
X341313Y455613D01*
X301625Y495300D01*
D19*
X287338Y517525D02*
X271463Y501650D01*
X287338Y517525D02*
X293688Y517525D01*
X301625Y525463D01*
X301625Y542925D01*
D15*
X301625Y542925D03*
D19*
X271463Y501650D02*
X271463Y441325D01*
X241300Y409575D01*
X236538Y404813D01*
X228600Y404813D01*
D15*
X228600Y404813D03*
X265113Y382588D03*
D10*
X249238Y398463D01*
X242888Y398463D01*
X236538Y404813D01*
D15*
X228600Y415925D03*
X265113Y458788D03*
X215900Y393700D03*
X265113Y373063D03*
D10*
X244475Y393700D01*
X234950Y393700D01*
X233363Y395288D01*
X227013Y395288D01*
X225425Y393700D01*
X215900Y393700D01*
D19*
X228600Y415925D02*
X239713Y415925D01*
X254000Y430213D01*
X254000Y447675D01*
X265113Y458788D01*
D15*
X638175Y174625D03*
D10*
X606425Y174625D01*
X595313Y163513D01*
X595313Y144463D01*
X571500Y120650D01*
X571500Y115888D01*
D15*
X571500Y115888D03*
X650875Y180975D03*
D10*
X633413Y180975D01*
X630238Y177800D01*
X604838Y177800D01*
X592138Y165100D01*
X592138Y146050D01*
X561975Y115888D01*
D15*
X561975Y115888D03*
X593725Y244475D03*
D10*
X668338Y361950D02*
X674688Y368300D01*
X668338Y361950D02*
X665163Y361950D01*
X628650Y325438D01*
X598488Y325438D01*
X593725Y320675D01*
X593725Y244475D01*
D15*
X674688Y368300D03*
D10*
X585788Y169863D02*
X582613Y169863D01*
X585788Y169863D02*
X598488Y182563D01*
X623888Y182563D01*
X628650Y187325D01*
X628650Y201613D01*
X655638Y228600D01*
X655638Y274638D01*
X736600Y355600D01*
X736600Y669925D01*
X641350Y765175D01*
X641350Y788988D01*
X579438Y850900D01*
X579438Y871538D01*
X558800Y892175D01*
X461963Y892175D01*
X436563Y866775D01*
X436563Y848063D01*
X423500Y835000D01*
D15*
X574675Y161925D03*
D10*
X582613Y169863D01*
D15*
X460375Y165100D03*
X419100Y141288D03*
D10*
X442913Y165100D02*
X460375Y165100D01*
X442913Y165100D02*
X419100Y141288D01*
D15*
X241300Y655638D03*
D10*
X241300Y633413D01*
X276225Y598488D01*
X285750Y598488D01*
X363538Y520700D01*
X387350Y520700D01*
X398463Y509588D01*
X433388Y509588D01*
X482600Y460375D01*
X482600Y455613D01*
X517525Y420688D01*
X517525Y414338D01*
D15*
X517525Y414338D03*
X284163Y604838D03*
D10*
X365125Y523875D01*
X388938Y523875D01*
X400050Y512763D01*
X434975Y512763D01*
X485775Y461963D01*
X485775Y457200D01*
X527050Y415925D01*
D15*
X534988Y415925D03*
D10*
X527050Y415925D01*
D15*
X269875Y655638D03*
X269875Y649288D03*
D22*
X269875Y655638D01*
X277813Y663575D01*
X277813Y720725D01*
X320675Y763588D01*
X328613Y763588D01*
X334963Y769938D01*
X336550Y798513D01*
X348500Y810000D01*
D15*
X371475Y638175D03*
D18*
X379413Y646113D01*
X379413Y677863D01*
X368300Y688975D01*
X368300Y757238D01*
X385763Y774700D01*
X385763Y815975D01*
X379413Y822325D01*
X336175Y822325D01*
X323500Y835000D01*
D15*
X425450Y623888D03*
X425450Y617538D03*
D22*
X425450Y750888D01*
X434975Y760413D01*
X436563Y798063D01*
X448500Y810000D01*
D15*
X665163Y554038D03*
X665163Y547688D03*
X600075Y684213D03*
X593725Y684213D03*
D22*
X660400Y558800D02*
X665163Y554038D01*
X660400Y558800D02*
X650875Y558800D01*
X647700Y561975D01*
X635000Y561975D01*
X628650Y568325D01*
X628650Y649288D01*
X593725Y684213D01*
D15*
X454025Y369888D03*
X568325Y442913D03*
D10*
X488950Y369888D02*
X454025Y369888D01*
X488950Y369888D02*
X520700Y401638D01*
X554038Y401638D01*
X568325Y415925D01*
X568325Y442913D01*
D15*
X442913Y360363D03*
X574675Y433388D03*
D10*
X484188Y360363D02*
X442913Y360363D01*
X484188Y360363D02*
X522288Y398463D01*
X555625Y398463D01*
X574675Y417513D01*
X574675Y433388D01*
D15*
X373063Y574675D03*
D10*
X365125Y574675D01*
X357188Y566738D01*
X357188Y555625D01*
X360363Y552450D01*
X425450Y552450D01*
X447675Y530225D01*
X447675Y514350D01*
X495300Y466725D01*
X495300Y461963D01*
X523875Y433388D01*
D15*
X546100Y423863D03*
D10*
X544513Y423863D01*
X534988Y433388D01*
X523875Y433388D01*
D15*
X441325Y550863D03*
D10*
X441325Y546100D01*
X454025Y533400D01*
X454025Y517525D01*
X501650Y469900D01*
X501650Y465138D01*
X527050Y439738D01*
D15*
X546100Y436563D03*
D10*
X542925Y439738D01*
X527050Y439738D01*
D15*
X363538Y558800D03*
D10*
X366713Y555625D01*
X427038Y555625D01*
X450850Y531813D01*
X450850Y515938D01*
X498475Y468313D01*
X498475Y463550D01*
X525463Y436563D01*
D15*
X552450Y430213D03*
D10*
X542925Y430213D01*
X536575Y436563D01*
X525463Y436563D01*
D15*
X315913Y592138D03*
D10*
X315913Y577850D01*
X347663Y546100D01*
X422275Y546100D01*
X441325Y527050D01*
X441325Y511175D01*
X488950Y463550D01*
X488950Y458788D01*
X523875Y423863D01*
X530225Y423863D01*
D15*
X530225Y423863D03*
X339725Y592138D03*
D10*
X331788Y584200D01*
X331788Y566738D01*
X349250Y549275D01*
X423863Y549275D01*
X444500Y528638D01*
X444500Y512763D01*
X492125Y465138D01*
X492125Y460375D01*
X522288Y430213D01*
X533400Y430213D01*
X539750Y423863D01*
X539750Y420688D01*
X542925Y417513D01*
D15*
X552450Y417513D03*
D10*
X542925Y417513D01*
D15*
X301625Y655638D03*
X301625Y649288D03*
D22*
X301625Y655638D01*
X298450Y658813D01*
X298450Y682625D01*
X304800Y688975D01*
X304800Y722313D01*
X348500Y766013D01*
X348500Y785000D01*
D15*
X333375Y642938D03*
X333375Y636588D03*
D22*
X333375Y642938D01*
X330200Y646113D01*
X330200Y730250D01*
X358775Y758825D01*
X361950Y798513D01*
X373500Y810000D01*
D15*
X557213Y550863D03*
D10*
X546100Y561975D01*
X546100Y742950D01*
X511175Y777875D01*
X511175Y797325D01*
X498500Y810000D01*
D15*
X587375Y238125D03*
D10*
X663575Y365125D02*
X663575Y368300D01*
X663575Y365125D02*
X627063Y328613D01*
X596900Y328613D01*
X587375Y319088D01*
X587375Y238125D01*
D15*
X663575Y368300D03*
X358775Y638175D03*
D18*
X369888Y630238D02*
X369888Y620713D01*
X369888Y630238D02*
X358775Y638175D01*
D15*
X463550Y590550D03*
D10*
X463550Y552450D01*
X473075Y542925D01*
D15*
X536575Y490538D03*
D10*
X473075Y527050D02*
X473075Y542925D01*
X473075Y527050D02*
X509588Y490538D01*
X536575Y490538D01*
D15*
X461963Y652463D03*
D10*
X461963Y598488D01*
X457200Y593725D01*
X457200Y563563D01*
X460375Y560388D01*
X460375Y550863D01*
X469900Y541338D01*
D15*
X536575Y481013D03*
D10*
X469900Y525463D02*
X469900Y541338D01*
X469900Y525463D02*
X508000Y487363D01*
X530225Y487363D01*
X536575Y481013D01*
D15*
X490538Y152400D03*
X717550Y168275D03*
D10*
X490538Y152400D02*
X490538Y119063D01*
X527050Y82550D01*
X539750Y82550D01*
X558800Y101600D01*
X603250Y101600D01*
X650875Y149225D01*
X698500Y149225D01*
X717550Y168275D01*
D15*
X250825Y293688D03*
X258763Y300038D03*
X250825Y287338D03*
X258763Y287338D03*
X387350Y623888D03*
D18*
X385128Y620713D01*
D15*
X250825Y300038D03*
X390525Y668338D03*
X390525Y674688D03*
X390525Y693738D03*
X390525Y700088D03*
X258763Y293688D03*
X387350Y617538D03*
X390525Y649288D03*
X390525Y642938D03*
X474663Y676275D03*
X198438Y695325D03*
X204788Y695325D03*
X211138Y695325D03*
X211138Y688975D03*
X204788Y688975D03*
X198438Y688975D03*
X239713Y287338D03*
X239713Y295275D03*
X239713Y303213D03*
X231775Y295275D03*
X231775Y287338D03*
X231775Y303213D03*
X260350Y361950D03*
X77788Y238125D03*
X77788Y225425D03*
X477838Y403225D03*
X620713Y295275D03*
X706438Y458788D03*
X609600Y523875D03*
X669925Y446088D03*
X573088Y528638D03*
X522288Y473075D03*
X517525Y508000D03*
X468313Y458788D03*
X550863Y306388D03*
X663575Y317500D03*
X663575Y407988D03*
X539750Y552450D03*
X450850Y384175D03*
X646113Y357188D03*
X71438Y225425D03*
X77788Y231775D03*
X71438Y238125D03*
X71438Y231775D03*
X84138Y225425D03*
X84138Y231775D03*
X84138Y238125D03*
X90488Y225425D03*
X90488Y231775D03*
X90488Y238125D03*
X96838Y238125D03*
X96838Y231775D03*
X96838Y225425D03*
X725488Y330200D03*
X704850Y411163D03*
X501650Y425450D03*
D10*
X501650Y431800D01*
X479425Y454025D01*
X479425Y458788D01*
X465138Y473075D01*
X430213Y473075D01*
D15*
X501650Y406400D03*
D10*
X501650Y425450D01*
D15*
X695325Y352425D03*
D10*
X698500Y355600D01*
X698500Y403225D01*
X628650Y473075D01*
X625475Y473075D01*
X622300Y476250D01*
X622300Y479425D01*
X598488Y503238D01*
D15*
X598488Y503238D03*
X450850Y460375D03*
D10*
X450850Y417513D01*
X430213Y396875D01*
D15*
X534988Y93663D03*
X468313Y282575D03*
D10*
X498475Y130175D02*
X534988Y93663D01*
X498475Y130175D02*
X498475Y252413D01*
X468313Y282575D01*
D15*
X523875Y384175D03*
X623888Y334963D03*
D10*
X623888Y344488D01*
X644525Y365125D01*
X644525Y393700D01*
X650875Y400050D01*
X650875Y427038D01*
X625475Y452438D01*
X609600Y452438D01*
X598488Y441325D01*
X598488Y427038D01*
X561975Y390525D01*
X530225Y390525D01*
X523875Y384175D01*
D15*
X639763Y554038D03*
X639763Y547688D03*
X579438Y684213D03*
X573088Y684213D03*
D22*
X633413Y554038D02*
X639763Y554038D01*
X633413Y554038D02*
X622300Y565150D01*
X622300Y635000D01*
X573088Y684213D01*
D15*
X650875Y571500D03*
X646113Y465138D03*
D10*
X650875Y465138D01*
X663575Y477838D01*
X663575Y530225D01*
X673100Y539750D01*
X673100Y555625D01*
X663575Y565150D01*
X657225Y565150D01*
X650875Y571500D01*
D15*
X676275Y571500D03*
X660400Y465138D03*
D10*
X666750Y471488D01*
X666750Y528638D01*
X676275Y538163D01*
X676275Y571500D01*
D15*
X307975Y668338D03*
D10*
X450850Y555625D02*
X450850Y546100D01*
X460375Y536575D01*
X460375Y520700D01*
X508000Y473075D01*
X508000Y468313D01*
X450850Y555625D02*
X444500Y561975D01*
X400050Y561975D01*
X360363Y601663D01*
X323850Y601663D01*
X307975Y617538D01*
X307975Y668338D01*
X508000Y468313D02*
X515938Y460375D01*
X534988Y460375D01*
X552450Y477838D01*
D15*
X552450Y477838D03*
X263525Y668338D03*
D10*
X447675Y554038D02*
X447675Y544513D01*
X457200Y534988D01*
X457200Y519113D01*
X504825Y471488D01*
X504825Y466725D01*
X528638Y442913D01*
X447675Y554038D02*
X442913Y558800D01*
X398463Y558800D01*
X358775Y598488D01*
X300038Y598488D01*
X263525Y635000D01*
X263525Y668338D01*
D15*
X555625Y442913D03*
D10*
X528638Y442913D01*
D15*
X630238Y227013D03*
D10*
X635000Y227013D01*
X642938Y234950D01*
X642938Y280988D01*
X723900Y361950D01*
X723900Y663575D01*
X628650Y758825D02*
X628650Y782638D01*
X566738Y844550D01*
X566738Y865188D01*
X552450Y879475D01*
X498475Y879475D02*
X485775Y866775D01*
X485775Y847275D01*
X473500Y835000D01*
X498475Y879475D02*
X552450Y879475D01*
X628650Y758825D02*
X723900Y663575D01*
D15*
X587375Y195263D03*
D10*
X590550Y192088D01*
X604838Y192088D01*
X646113Y233363D01*
X646113Y279400D01*
X727075Y360363D01*
X727075Y665163D01*
X631825Y760413D02*
X631825Y784225D01*
X569913Y846138D01*
X569913Y866775D01*
X554038Y882650D01*
X490538Y882650D01*
X473500Y865613D02*
X473500Y860000D01*
X473500Y865613D02*
X490538Y882650D01*
X631825Y760413D02*
X727075Y665163D01*
D15*
X561975Y160338D03*
D10*
X563563Y160338D01*
X576263Y173038D01*
X584200Y173038D01*
X596900Y185738D01*
X622300Y185738D01*
X625475Y188913D01*
X625475Y203200D01*
X652463Y230188D01*
X652463Y276225D01*
X733425Y357188D01*
X733425Y668338D01*
X638175Y763588D01*
X638175Y787400D01*
X576263Y849313D01*
X576263Y869950D01*
X557213Y889000D01*
X477500Y889000D01*
X448500Y860000D01*
D15*
X382588Y395288D03*
X384175Y465138D03*
D10*
X376238Y457200D01*
X376238Y401638D01*
X382588Y395288D01*
X595313Y188913D02*
X582613Y176213D01*
X595313Y188913D02*
X614363Y188913D01*
X617538Y192088D01*
X617538Y200025D01*
X649288Y231775D01*
X649288Y277813D02*
X730250Y358775D01*
X730250Y666750D01*
X635000Y762000D01*
X635000Y785813D01*
X573088Y847725D01*
X573088Y868363D01*
X555625Y885825D01*
X479425Y885825D01*
X461963Y868363D01*
X461963Y848463D01*
X448500Y835000D01*
X574675Y176213D02*
X582613Y176213D01*
X574675Y176213D02*
X565150Y166688D01*
X558800Y166688D01*
X550863Y158750D01*
X550863Y150813D01*
D15*
X550863Y150813D03*
X617538Y192088D03*
D10*
X649288Y231775D02*
X649288Y277813D01*
D15*
X228600Y592138D03*
X636588Y258763D03*
D10*
X631825Y263525D01*
X615950Y263525D01*
X612775Y260350D01*
X612775Y254000D01*
X590550Y231775D01*
X584200Y231775D01*
X581025Y234950D01*
X581025Y319088D01*
X641350Y379413D01*
X641350Y395288D01*
X647700Y401638D01*
X647700Y425450D01*
X623888Y449263D01*
X611188Y449263D01*
X601663Y439738D01*
X601663Y425450D01*
X560388Y384175D01*
X533400Y384175D01*
D15*
X533400Y384175D03*
D10*
X674688Y381000D02*
X674688Y412750D01*
X628650Y458788D01*
X582613Y458788D01*
X563563Y477838D01*
X563563Y506413D01*
X536575Y533400D01*
X528638Y533400D01*
D15*
X674688Y381000D03*
X528638Y533400D03*
X600075Y317500D03*
D10*
X604838Y322263D01*
X644525Y322263D01*
X684213Y360363D01*
X684213Y412750D01*
X628650Y468313D01*
X587375Y468313D01*
D15*
X587375Y468313D03*
X641350Y328613D03*
D10*
X646113Y328613D01*
X681038Y361950D01*
X681038Y411163D01*
X627063Y465138D01*
X593725Y465138D01*
X590550Y461963D01*
X584200Y461963D01*
X581025Y465138D01*
X581025Y474663D01*
D15*
X581025Y474663D03*
D10*
X654050Y390525D02*
X663575Y381000D01*
X654050Y390525D02*
X654050Y428625D01*
X627063Y455613D01*
X581025Y455613D01*
X560388Y476250D01*
X560388Y504825D01*
X538163Y527050D01*
D15*
X663575Y381000D03*
X520700Y527050D03*
D10*
X538163Y527050D01*
D15*
X592138Y444500D03*
D10*
X587375Y449263D01*
X565150Y449263D01*
X561975Y446088D01*
X561975Y414338D01*
X552450Y404813D01*
X519113Y404813D01*
X490538Y376238D01*
X425450Y376238D01*
X404813Y396875D01*
X392113Y485775D02*
X404813Y498475D01*
X392113Y485775D02*
X385763Y485775D01*
X363538Y463550D01*
D15*
X363538Y463550D03*
X295275Y425450D03*
D10*
X307975Y438150D01*
X355600Y438150D01*
X373063Y455613D01*
X373063Y463550D01*
X382588Y473075D01*
X404813Y473075D01*
D15*
X520700Y361950D03*
X139700Y542925D03*
D10*
X139700Y534988D01*
X209550Y465138D01*
X209550Y361950D01*
X227013Y344488D01*
X271463Y344488D01*
X280988Y354013D01*
X512763Y354013D01*
X520700Y361950D01*
D15*
X527050Y355600D03*
X127000Y542925D03*
D10*
X206375Y463550D01*
X206375Y360363D01*
X225425Y341313D01*
X273050Y341313D01*
X282575Y350838D01*
X522288Y350838D01*
X527050Y355600D01*
D15*
X381000Y141288D03*
X381000Y230188D03*
X393700Y230188D03*
X406400Y230188D03*
X419100Y230188D03*
X679450Y168275D03*
X692150Y257175D03*
X679450Y257175D03*
X704850Y257175D03*
X717550Y257175D03*
X552450Y487363D03*
X339725Y655638D03*
D10*
X446088Y565150D02*
X454025Y557213D01*
X454025Y547688D01*
X463550Y538163D01*
X463550Y522288D01*
X511175Y474663D01*
X511175Y469900D01*
X446088Y565150D02*
X401638Y565150D01*
X361950Y604838D01*
X346075Y604838D01*
X339725Y611188D01*
X339725Y655638D01*
X511175Y469900D02*
X517525Y463550D01*
X533400Y463550D01*
X546100Y476250D01*
X546100Y481013D02*
X552450Y487363D01*
X546100Y481013D02*
X546100Y476250D01*
D15*
X552450Y496888D03*
X371475Y649288D03*
D10*
X447675Y568325D02*
X457200Y558800D01*
X457200Y549275D01*
X466725Y539750D01*
X466725Y523875D01*
X514350Y476250D01*
X514350Y471488D01*
X447675Y568325D02*
X403225Y568325D01*
X363538Y608013D01*
X347663Y608013D01*
X342900Y612775D01*
X342900Y641350D01*
X350838Y649288D01*
X371475Y649288D01*
X514350Y471488D02*
X519113Y466725D01*
X531813Y466725D01*
X542925Y477838D01*
X542925Y487363D01*
X552450Y496888D01*
D15*
X620713Y436563D03*
D10*
X611188Y436563D01*
X608013Y433388D01*
X608013Y422275D01*
X530225Y344488D01*
X285750Y344488D01*
X276225Y334963D01*
X200025Y334963D01*
X193675Y341313D01*
X146050Y341313D01*
X130175Y357188D01*
X130175Y403225D01*
X103188Y430213D01*
D15*
X103188Y430213D03*
X614363Y430213D03*
D10*
X614363Y423863D01*
X531813Y341313D01*
X287338Y341313D01*
X277813Y331788D01*
X198438Y331788D01*
X192088Y338138D01*
X144463Y338138D01*
X127000Y355600D01*
X127000Y401638D01*
X104775Y423863D01*
X79375Y423863D01*
D15*
X79375Y423863D03*
X620713Y423863D03*
D10*
X619125Y423863D01*
X533400Y338138D01*
X288925Y338138D01*
X279400Y328613D01*
X196850Y328613D01*
X190500Y334963D01*
X142875Y334963D01*
X123825Y354013D01*
X123825Y400050D01*
X111125Y412750D01*
X79375Y412750D01*
D15*
X79375Y412750D03*
X615950Y387350D03*
D10*
X587375Y387350D01*
X534988Y334963D01*
X290513Y334963D01*
X274638Y319088D01*
X265113Y319088D01*
X258763Y325438D01*
X195263Y325438D01*
X188913Y331788D01*
X141288Y331788D01*
X120650Y352425D01*
X120650Y398463D01*
X112713Y406400D01*
X76200Y406400D01*
X73025Y409575D01*
X73025Y463550D01*
X85725Y476250D01*
X85725Y482600D01*
X79375Y488950D01*
D15*
X79375Y488950D03*
X265113Y319088D03*
X609600Y381000D03*
D10*
X585788Y381000D01*
X536575Y331788D01*
X292100Y331788D01*
X282575Y322263D01*
X274638Y312738D01*
X260350Y312738D01*
X254000Y319088D01*
X250825Y322263D01*
X193675Y322263D01*
X187325Y328613D01*
X139700Y328613D01*
X117475Y350838D01*
X117475Y396875D01*
X111125Y403225D01*
X74613Y403225D01*
X69850Y407988D01*
X69850Y469900D01*
X79375Y479425D01*
D15*
X79375Y479425D03*
X254000Y319088D03*
X614363Y442913D03*
D10*
X612775Y442913D01*
X604838Y434975D01*
X604838Y423863D01*
X528638Y347663D01*
X284163Y347663D01*
X274638Y338138D01*
X206375Y338138D01*
X200025Y344488D01*
X147638Y344488D01*
X133350Y358775D01*
X133350Y404813D01*
X109538Y428625D01*
X109538Y433388D01*
X106363Y436563D01*
X80963Y436563D01*
X79375Y434975D01*
D15*
X79375Y434975D03*
X200025Y344488D03*
M02*
