G04 EAGLE Gerber RS-274X export*
G75*
%MOMM*%
%FSLAX34Y34*%
%LPD*%
%IN*%
%IPPOS*%
%AMOC8*
5,1,8,0,0,1.08239X$1,22.5*%
G01*
%ADD10C,0.254000*%


D10*
X0Y130000D02*
X130000Y0D01*
X670000Y0D01*
X800000Y130000D01*
X800000Y800000D01*
X750000Y935000D01*
X50000Y935000D01*
X0Y800000D01*
X0Y130000D01*
X71500Y653460D02*
X71429Y652382D01*
X71288Y651311D01*
X71078Y650251D01*
X70798Y649208D01*
X70451Y648185D01*
X70037Y647187D01*
X69560Y646218D01*
X69019Y645282D01*
X68419Y644384D01*
X67762Y643527D01*
X67049Y642715D01*
X66285Y641951D01*
X65473Y641239D01*
X64616Y640581D01*
X63718Y639981D01*
X62782Y639441D01*
X61813Y638963D01*
X60815Y638549D01*
X59792Y638202D01*
X58749Y637922D01*
X57689Y637712D01*
X56618Y637571D01*
X55540Y637500D01*
X54460Y637500D01*
X53382Y637571D01*
X52311Y637712D01*
X51251Y637922D01*
X50208Y638202D01*
X49185Y638549D01*
X48187Y638963D01*
X47218Y639441D01*
X46282Y639981D01*
X45384Y640581D01*
X44527Y641239D01*
X43715Y641951D01*
X42951Y642715D01*
X42239Y643527D01*
X41581Y644384D01*
X40981Y645282D01*
X40441Y646218D01*
X39963Y647187D01*
X39549Y648185D01*
X39202Y649208D01*
X38922Y650251D01*
X38712Y651311D01*
X38571Y652382D01*
X38500Y653460D01*
X38500Y654540D01*
X38571Y655618D01*
X38712Y656689D01*
X38922Y657749D01*
X39202Y658792D01*
X39549Y659815D01*
X39963Y660813D01*
X40441Y661782D01*
X40981Y662718D01*
X41581Y663616D01*
X42239Y664473D01*
X42951Y665285D01*
X43715Y666049D01*
X44527Y666762D01*
X45384Y667419D01*
X46282Y668019D01*
X47218Y668560D01*
X48187Y669037D01*
X49185Y669451D01*
X50208Y669798D01*
X51251Y670078D01*
X52311Y670288D01*
X53382Y670429D01*
X54460Y670500D01*
X55540Y670500D01*
X56618Y670429D01*
X57689Y670288D01*
X58749Y670078D01*
X59792Y669798D01*
X60815Y669451D01*
X61813Y669037D01*
X62782Y668560D01*
X63718Y668019D01*
X64616Y667419D01*
X65473Y666762D01*
X66285Y666049D01*
X67049Y665285D01*
X67762Y664473D01*
X68419Y663616D01*
X69019Y662718D01*
X69560Y661782D01*
X70037Y660813D01*
X70451Y659815D01*
X70798Y658792D01*
X71078Y657749D01*
X71288Y656689D01*
X71429Y655618D01*
X71500Y654540D01*
X71500Y653460D01*
X632500Y154460D02*
X632429Y153382D01*
X632288Y152311D01*
X632078Y151251D01*
X631798Y150208D01*
X631451Y149185D01*
X631037Y148187D01*
X630560Y147218D01*
X630019Y146282D01*
X629419Y145384D01*
X628762Y144527D01*
X628049Y143715D01*
X627285Y142951D01*
X626473Y142239D01*
X625616Y141581D01*
X624718Y140981D01*
X623782Y140441D01*
X622813Y139963D01*
X621815Y139549D01*
X620792Y139202D01*
X619749Y138922D01*
X618689Y138712D01*
X617618Y138571D01*
X616540Y138500D01*
X615460Y138500D01*
X614382Y138571D01*
X613311Y138712D01*
X612251Y138922D01*
X611208Y139202D01*
X610185Y139549D01*
X609187Y139963D01*
X608218Y140441D01*
X607282Y140981D01*
X606384Y141581D01*
X605527Y142239D01*
X604715Y142951D01*
X603951Y143715D01*
X603239Y144527D01*
X602581Y145384D01*
X601981Y146282D01*
X601441Y147218D01*
X600963Y148187D01*
X600549Y149185D01*
X600202Y150208D01*
X599922Y151251D01*
X599712Y152311D01*
X599571Y153382D01*
X599500Y154460D01*
X599500Y155540D01*
X599571Y156618D01*
X599712Y157689D01*
X599922Y158749D01*
X600202Y159792D01*
X600549Y160815D01*
X600963Y161813D01*
X601441Y162782D01*
X601981Y163718D01*
X602581Y164616D01*
X603239Y165473D01*
X603951Y166285D01*
X604715Y167049D01*
X605527Y167762D01*
X606384Y168419D01*
X607282Y169019D01*
X608218Y169560D01*
X609187Y170037D01*
X610185Y170451D01*
X611208Y170798D01*
X612251Y171078D01*
X613311Y171288D01*
X614382Y171429D01*
X615460Y171500D01*
X616540Y171500D01*
X617618Y171429D01*
X618689Y171288D01*
X619749Y171078D01*
X620792Y170798D01*
X621815Y170451D01*
X622813Y170037D01*
X623782Y169560D01*
X624718Y169019D01*
X625616Y168419D01*
X626473Y167762D01*
X627285Y167049D01*
X628049Y166285D01*
X628762Y165473D01*
X629419Y164616D01*
X630019Y163718D01*
X630560Y162782D01*
X631037Y161813D01*
X631451Y160815D01*
X631798Y159792D01*
X632078Y158749D01*
X632288Y157689D01*
X632429Y156618D01*
X632500Y155540D01*
X632500Y154460D01*
X198000Y774568D02*
X197932Y773706D01*
X197797Y772852D01*
X197595Y772012D01*
X197328Y771190D01*
X196997Y770391D01*
X196605Y769621D01*
X196153Y768884D01*
X195645Y768185D01*
X195084Y767527D01*
X194473Y766916D01*
X193815Y766355D01*
X193116Y765847D01*
X192379Y765395D01*
X191609Y765003D01*
X190810Y764672D01*
X189988Y764405D01*
X189148Y764203D01*
X188294Y764068D01*
X187432Y764000D01*
X186568Y764000D01*
X185706Y764068D01*
X184852Y764203D01*
X184012Y764405D01*
X183190Y764672D01*
X182391Y765003D01*
X181621Y765395D01*
X180884Y765847D01*
X180185Y766355D01*
X179527Y766916D01*
X178916Y767527D01*
X178355Y768185D01*
X177847Y768884D01*
X177395Y769621D01*
X177003Y770391D01*
X176672Y771190D01*
X176405Y772012D01*
X176203Y772852D01*
X176068Y773706D01*
X176000Y774568D01*
X176000Y775432D01*
X176068Y776294D01*
X176203Y777148D01*
X176405Y777988D01*
X176672Y778810D01*
X177003Y779609D01*
X177395Y780379D01*
X177847Y781116D01*
X178355Y781815D01*
X178916Y782473D01*
X179527Y783084D01*
X180185Y783645D01*
X180884Y784153D01*
X181621Y784605D01*
X182391Y784997D01*
X183190Y785328D01*
X184012Y785595D01*
X184852Y785797D01*
X185706Y785932D01*
X186568Y786000D01*
X187432Y786000D01*
X188294Y785932D01*
X189148Y785797D01*
X189988Y785595D01*
X190810Y785328D01*
X191609Y784997D01*
X192379Y784605D01*
X193116Y784153D01*
X193815Y783645D01*
X194473Y783084D01*
X195084Y782473D01*
X195645Y781815D01*
X196153Y781116D01*
X196605Y780379D01*
X196997Y779609D01*
X197328Y778810D01*
X197595Y777988D01*
X197797Y777148D01*
X197932Y776294D01*
X198000Y775432D01*
X198000Y774568D01*
X624000Y774568D02*
X623932Y773706D01*
X623797Y772852D01*
X623595Y772012D01*
X623328Y771190D01*
X622997Y770391D01*
X622605Y769621D01*
X622153Y768884D01*
X621645Y768185D01*
X621084Y767527D01*
X620473Y766916D01*
X619815Y766355D01*
X619116Y765847D01*
X618379Y765395D01*
X617609Y765003D01*
X616810Y764672D01*
X615988Y764405D01*
X615148Y764203D01*
X614294Y764068D01*
X613432Y764000D01*
X612568Y764000D01*
X611706Y764068D01*
X610852Y764203D01*
X610012Y764405D01*
X609190Y764672D01*
X608391Y765003D01*
X607621Y765395D01*
X606884Y765847D01*
X606185Y766355D01*
X605527Y766916D01*
X604916Y767527D01*
X604355Y768185D01*
X603847Y768884D01*
X603395Y769621D01*
X603003Y770391D01*
X602672Y771190D01*
X602405Y772012D01*
X602203Y772852D01*
X602068Y773706D01*
X602000Y774568D01*
X602000Y775432D01*
X602068Y776294D01*
X602203Y777148D01*
X602405Y777988D01*
X602672Y778810D01*
X603003Y779609D01*
X603395Y780379D01*
X603847Y781116D01*
X604355Y781815D01*
X604916Y782473D01*
X605527Y783084D01*
X606185Y783645D01*
X606884Y784153D01*
X607621Y784605D01*
X608391Y784997D01*
X609190Y785328D01*
X610012Y785595D01*
X610852Y785797D01*
X611706Y785932D01*
X612568Y786000D01*
X613432Y786000D01*
X614294Y785932D01*
X615148Y785797D01*
X615988Y785595D01*
X616810Y785328D01*
X617609Y784997D01*
X618379Y784605D01*
X619116Y784153D01*
X619815Y783645D01*
X620473Y783084D01*
X621084Y782473D01*
X621645Y781815D01*
X622153Y781116D01*
X622605Y780379D01*
X622997Y779609D01*
X623328Y778810D01*
X623595Y777988D01*
X623797Y777148D01*
X623932Y776294D01*
X624000Y775432D01*
X624000Y774568D01*
X166000Y812896D02*
X165927Y811689D01*
X165781Y810489D01*
X165563Y809300D01*
X165274Y808127D01*
X164915Y806973D01*
X164486Y805843D01*
X163990Y804741D01*
X163428Y803670D01*
X162803Y802636D01*
X162116Y801641D01*
X161371Y800690D01*
X160569Y799785D01*
X159715Y798931D01*
X158810Y798129D01*
X157859Y797384D01*
X156864Y796697D01*
X155830Y796072D01*
X154759Y795510D01*
X153657Y795014D01*
X152527Y794585D01*
X151373Y794226D01*
X150200Y793937D01*
X149011Y793719D01*
X147811Y793573D01*
X146604Y793500D01*
X145396Y793500D01*
X144189Y793573D01*
X142989Y793719D01*
X141800Y793937D01*
X140627Y794226D01*
X139473Y794585D01*
X138343Y795014D01*
X137241Y795510D01*
X136170Y796072D01*
X135136Y796697D01*
X134141Y797384D01*
X133190Y798129D01*
X132285Y798931D01*
X131431Y799785D01*
X130629Y800690D01*
X129884Y801641D01*
X129197Y802636D01*
X128572Y803670D01*
X128010Y804741D01*
X127514Y805843D01*
X127085Y806973D01*
X126726Y808127D01*
X126437Y809300D01*
X126219Y810489D01*
X126073Y811689D01*
X126000Y812896D01*
X126000Y814104D01*
X126073Y815311D01*
X126219Y816511D01*
X126437Y817700D01*
X126726Y818873D01*
X127085Y820027D01*
X127514Y821157D01*
X128010Y822259D01*
X128572Y823330D01*
X129197Y824364D01*
X129884Y825359D01*
X130629Y826310D01*
X131431Y827215D01*
X132285Y828069D01*
X133190Y828871D01*
X134141Y829616D01*
X135136Y830303D01*
X136170Y830928D01*
X137241Y831490D01*
X138343Y831986D01*
X139473Y832415D01*
X140627Y832774D01*
X141800Y833063D01*
X142989Y833281D01*
X144189Y833427D01*
X145396Y833500D01*
X146604Y833500D01*
X147811Y833427D01*
X149011Y833281D01*
X150200Y833063D01*
X151373Y832774D01*
X152527Y832415D01*
X153657Y831986D01*
X154759Y831490D01*
X155830Y830928D01*
X156864Y830303D01*
X157859Y829616D01*
X158810Y828871D01*
X159715Y828069D01*
X160569Y827215D01*
X161371Y826310D01*
X162116Y825359D01*
X162803Y824364D01*
X163428Y823330D01*
X163990Y822259D01*
X164486Y821157D01*
X164915Y820027D01*
X165274Y818873D01*
X165563Y817700D01*
X165781Y816511D01*
X165927Y815311D01*
X166000Y814104D01*
X166000Y812896D01*
X674000Y812896D02*
X673927Y811689D01*
X673781Y810489D01*
X673563Y809300D01*
X673274Y808127D01*
X672915Y806973D01*
X672486Y805843D01*
X671990Y804741D01*
X671428Y803670D01*
X670803Y802636D01*
X670116Y801641D01*
X669371Y800690D01*
X668569Y799785D01*
X667715Y798931D01*
X666810Y798129D01*
X665859Y797384D01*
X664864Y796697D01*
X663830Y796072D01*
X662759Y795510D01*
X661657Y795014D01*
X660527Y794585D01*
X659373Y794226D01*
X658200Y793937D01*
X657011Y793719D01*
X655811Y793573D01*
X654604Y793500D01*
X653396Y793500D01*
X652189Y793573D01*
X650989Y793719D01*
X649800Y793937D01*
X648627Y794226D01*
X647473Y794585D01*
X646343Y795014D01*
X645241Y795510D01*
X644170Y796072D01*
X643136Y796697D01*
X642141Y797384D01*
X641190Y798129D01*
X640285Y798931D01*
X639431Y799785D01*
X638629Y800690D01*
X637884Y801641D01*
X637197Y802636D01*
X636572Y803670D01*
X636010Y804741D01*
X635514Y805843D01*
X635085Y806973D01*
X634726Y808127D01*
X634437Y809300D01*
X634219Y810489D01*
X634073Y811689D01*
X634000Y812896D01*
X634000Y814104D01*
X634073Y815311D01*
X634219Y816511D01*
X634437Y817700D01*
X634726Y818873D01*
X635085Y820027D01*
X635514Y821157D01*
X636010Y822259D01*
X636572Y823330D01*
X637197Y824364D01*
X637884Y825359D01*
X638629Y826310D01*
X639431Y827215D01*
X640285Y828069D01*
X641190Y828871D01*
X642141Y829616D01*
X643136Y830303D01*
X644170Y830928D01*
X645241Y831490D01*
X646343Y831986D01*
X647473Y832415D01*
X648627Y832774D01*
X649800Y833063D01*
X650989Y833281D01*
X652189Y833427D01*
X653396Y833500D01*
X654604Y833500D01*
X655811Y833427D01*
X657011Y833281D01*
X658200Y833063D01*
X659373Y832774D01*
X660527Y832415D01*
X661657Y831986D01*
X662759Y831490D01*
X663830Y830928D01*
X664864Y830303D01*
X665859Y829616D01*
X666810Y828871D01*
X667715Y828069D01*
X668569Y827215D01*
X669371Y826310D01*
X670116Y825359D01*
X670803Y824364D01*
X671428Y823330D01*
X671990Y822259D01*
X672486Y821157D01*
X672915Y820027D01*
X673274Y818873D01*
X673563Y817700D01*
X673781Y816511D01*
X673927Y815311D01*
X674000Y814104D01*
X674000Y812896D01*
M02*
