G04 EAGLE Gerber RS-274X export*
G75*
%MOMM*%
%FSLAX34Y34*%
%LPD*%
%INCopper Layer 2*%
%IPPOS*%
%AMOC8*
5,1,8,0,0,1.08239X$1,22.5*%
G01*
%ADD10C,1.524000*%
%ADD11C,1.725000*%
%ADD12C,0.711200*%
%ADD13C,4.616000*%
%ADD14C,1.006400*%

G36*
X668351Y3188D02*
X668351Y3188D01*
X668438Y3191D01*
X668491Y3208D01*
X668546Y3216D01*
X668625Y3251D01*
X668709Y3278D01*
X668748Y3306D01*
X668805Y3332D01*
X668918Y3428D01*
X668982Y3473D01*
X796527Y131018D01*
X796579Y131088D01*
X796639Y131152D01*
X796665Y131201D01*
X796698Y131245D01*
X796729Y131327D01*
X796769Y131405D01*
X796777Y131452D01*
X796799Y131511D01*
X796811Y131659D01*
X796824Y131736D01*
X796824Y799249D01*
X796823Y799260D01*
X796824Y799272D01*
X796812Y799332D01*
X796784Y799530D01*
X796767Y799568D01*
X796761Y799601D01*
X748233Y930628D01*
X748223Y930646D01*
X748218Y930666D01*
X748156Y930770D01*
X748098Y930878D01*
X748083Y930893D01*
X748072Y930911D01*
X747984Y930994D01*
X747899Y931081D01*
X747880Y931091D01*
X747865Y931105D01*
X747757Y931161D01*
X747651Y931220D01*
X747631Y931225D01*
X747612Y931235D01*
X747538Y931247D01*
X747374Y931286D01*
X747322Y931283D01*
X747281Y931290D01*
X52719Y931290D01*
X52698Y931287D01*
X52677Y931289D01*
X52558Y931267D01*
X52438Y931250D01*
X52419Y931242D01*
X52398Y931238D01*
X52289Y931184D01*
X52178Y931134D01*
X52162Y931121D01*
X52143Y931111D01*
X52054Y931029D01*
X51961Y930951D01*
X51950Y930933D01*
X51934Y930919D01*
X51897Y930854D01*
X51804Y930714D01*
X51788Y930664D01*
X51767Y930628D01*
X3239Y799601D01*
X3236Y799590D01*
X3231Y799580D01*
X3221Y799520D01*
X3178Y799324D01*
X3181Y799282D01*
X3176Y799249D01*
X3176Y131736D01*
X3188Y131649D01*
X3191Y131562D01*
X3208Y131509D01*
X3216Y131454D01*
X3251Y131375D01*
X3278Y131291D01*
X3306Y131252D01*
X3332Y131195D01*
X3428Y131082D01*
X3473Y131018D01*
X131018Y3473D01*
X131088Y3421D01*
X131152Y3361D01*
X131201Y3335D01*
X131245Y3302D01*
X131327Y3271D01*
X131405Y3231D01*
X131452Y3223D01*
X131511Y3201D01*
X131659Y3189D01*
X131736Y3176D01*
X668264Y3176D01*
X668351Y3188D01*
G37*
%LPC*%
G36*
X141516Y790959D02*
X141516Y790959D01*
X133232Y794391D01*
X126891Y800732D01*
X123459Y809016D01*
X123459Y817984D01*
X126891Y826268D01*
X133232Y832609D01*
X141516Y836041D01*
X150484Y836041D01*
X158768Y832609D01*
X165109Y826268D01*
X168541Y817984D01*
X168541Y809016D01*
X165109Y800732D01*
X158768Y794391D01*
X150484Y790959D01*
X141516Y790959D01*
G37*
%LPD*%
%LPC*%
G36*
X649516Y790959D02*
X649516Y790959D01*
X641232Y794391D01*
X634891Y800732D01*
X631459Y809016D01*
X631459Y817984D01*
X634891Y826268D01*
X641232Y832609D01*
X649516Y836041D01*
X658484Y836041D01*
X666768Y832609D01*
X673109Y826268D01*
X676541Y817984D01*
X676541Y809016D01*
X673109Y800732D01*
X666768Y794391D01*
X658484Y790959D01*
X649516Y790959D01*
G37*
%LPD*%
%LPC*%
G36*
X196438Y234886D02*
X196438Y234886D01*
X193611Y237713D01*
X193611Y241712D01*
X194069Y242170D01*
X194104Y242216D01*
X194146Y242257D01*
X194189Y242330D01*
X194239Y242397D01*
X194260Y242451D01*
X194290Y242502D01*
X194311Y242584D01*
X194341Y242662D01*
X194346Y242721D01*
X194360Y242777D01*
X194357Y242862D01*
X194364Y242946D01*
X194353Y243003D01*
X194351Y243062D01*
X194325Y243142D01*
X194308Y243225D01*
X194281Y243276D01*
X194263Y243332D01*
X194223Y243388D01*
X194177Y243477D01*
X194109Y243549D01*
X194069Y243605D01*
X193611Y244063D01*
X193611Y248062D01*
X194069Y248520D01*
X194104Y248566D01*
X194146Y248607D01*
X194189Y248680D01*
X194239Y248747D01*
X194260Y248801D01*
X194290Y248852D01*
X194311Y248934D01*
X194341Y249012D01*
X194346Y249071D01*
X194360Y249127D01*
X194357Y249212D01*
X194364Y249296D01*
X194353Y249353D01*
X194351Y249412D01*
X194325Y249492D01*
X194308Y249575D01*
X194281Y249626D01*
X194263Y249682D01*
X194223Y249738D01*
X194177Y249827D01*
X194109Y249899D01*
X194069Y249955D01*
X193611Y250413D01*
X193611Y254412D01*
X194069Y254870D01*
X194104Y254916D01*
X194146Y254957D01*
X194189Y255030D01*
X194239Y255097D01*
X194260Y255151D01*
X194290Y255202D01*
X194311Y255284D01*
X194341Y255362D01*
X194346Y255421D01*
X194360Y255477D01*
X194357Y255562D01*
X194364Y255646D01*
X194353Y255703D01*
X194351Y255762D01*
X194325Y255842D01*
X194308Y255925D01*
X194281Y255976D01*
X194263Y256032D01*
X194223Y256088D01*
X194177Y256177D01*
X194109Y256249D01*
X194069Y256305D01*
X193611Y256763D01*
X193611Y260762D01*
X194069Y261220D01*
X194104Y261266D01*
X194146Y261307D01*
X194189Y261380D01*
X194239Y261447D01*
X194260Y261501D01*
X194290Y261552D01*
X194311Y261634D01*
X194341Y261712D01*
X194346Y261771D01*
X194360Y261827D01*
X194357Y261912D01*
X194364Y261996D01*
X194353Y262053D01*
X194351Y262112D01*
X194325Y262192D01*
X194308Y262275D01*
X194281Y262326D01*
X194263Y262382D01*
X194223Y262438D01*
X194177Y262527D01*
X194109Y262599D01*
X194069Y262655D01*
X193611Y263113D01*
X193611Y267112D01*
X194069Y267570D01*
X194104Y267616D01*
X194146Y267657D01*
X194189Y267730D01*
X194239Y267797D01*
X194260Y267851D01*
X194290Y267902D01*
X194311Y267984D01*
X194341Y268062D01*
X194346Y268121D01*
X194360Y268177D01*
X194357Y268262D01*
X194364Y268346D01*
X194353Y268403D01*
X194351Y268462D01*
X194325Y268542D01*
X194308Y268625D01*
X194281Y268676D01*
X194263Y268732D01*
X194223Y268788D01*
X194177Y268877D01*
X194109Y268949D01*
X194069Y269005D01*
X193611Y269463D01*
X193611Y273462D01*
X196438Y276289D01*
X200437Y276289D01*
X200895Y275831D01*
X200941Y275796D01*
X200982Y275754D01*
X201054Y275711D01*
X201122Y275661D01*
X201176Y275640D01*
X201227Y275610D01*
X201308Y275589D01*
X201387Y275559D01*
X201446Y275554D01*
X201502Y275540D01*
X201587Y275543D01*
X201671Y275536D01*
X201728Y275547D01*
X201787Y275549D01*
X201867Y275575D01*
X201949Y275592D01*
X202001Y275619D01*
X202057Y275637D01*
X202113Y275677D01*
X202202Y275723D01*
X202274Y275791D01*
X202330Y275831D01*
X202788Y276289D01*
X206787Y276289D01*
X207245Y275831D01*
X207291Y275796D01*
X207332Y275754D01*
X207404Y275711D01*
X207472Y275661D01*
X207526Y275640D01*
X207577Y275610D01*
X207658Y275589D01*
X207737Y275559D01*
X207796Y275554D01*
X207852Y275540D01*
X207937Y275543D01*
X208021Y275536D01*
X208078Y275547D01*
X208137Y275549D01*
X208217Y275575D01*
X208299Y275592D01*
X208351Y275619D01*
X208407Y275637D01*
X208463Y275677D01*
X208552Y275723D01*
X208624Y275791D01*
X208680Y275831D01*
X209138Y276289D01*
X213137Y276289D01*
X213595Y275831D01*
X213641Y275796D01*
X213682Y275754D01*
X213754Y275711D01*
X213822Y275661D01*
X213876Y275640D01*
X213927Y275610D01*
X214008Y275589D01*
X214087Y275559D01*
X214146Y275554D01*
X214202Y275540D01*
X214287Y275543D01*
X214371Y275536D01*
X214428Y275547D01*
X214487Y275549D01*
X214567Y275575D01*
X214649Y275592D01*
X214701Y275619D01*
X214757Y275637D01*
X214813Y275677D01*
X214902Y275723D01*
X214974Y275791D01*
X215030Y275831D01*
X215488Y276289D01*
X219487Y276289D01*
X222314Y273462D01*
X222314Y269463D01*
X221856Y269005D01*
X221821Y268959D01*
X221779Y268918D01*
X221736Y268845D01*
X221686Y268778D01*
X221665Y268724D01*
X221635Y268673D01*
X221614Y268591D01*
X221584Y268513D01*
X221579Y268454D01*
X221565Y268398D01*
X221568Y268313D01*
X221561Y268229D01*
X221572Y268172D01*
X221574Y268113D01*
X221600Y268033D01*
X221617Y267950D01*
X221644Y267899D01*
X221662Y267843D01*
X221702Y267787D01*
X221748Y267698D01*
X221816Y267626D01*
X221856Y267570D01*
X222314Y267112D01*
X222314Y263113D01*
X221856Y262655D01*
X221821Y262609D01*
X221779Y262568D01*
X221736Y262495D01*
X221686Y262428D01*
X221665Y262374D01*
X221635Y262323D01*
X221614Y262241D01*
X221584Y262163D01*
X221579Y262104D01*
X221565Y262048D01*
X221568Y261963D01*
X221561Y261879D01*
X221572Y261822D01*
X221574Y261763D01*
X221600Y261683D01*
X221617Y261600D01*
X221644Y261549D01*
X221662Y261493D01*
X221702Y261437D01*
X221748Y261348D01*
X221816Y261276D01*
X221856Y261220D01*
X222314Y260762D01*
X222314Y256763D01*
X221856Y256305D01*
X221821Y256259D01*
X221779Y256218D01*
X221736Y256145D01*
X221686Y256078D01*
X221665Y256024D01*
X221635Y255973D01*
X221614Y255891D01*
X221584Y255813D01*
X221579Y255754D01*
X221565Y255698D01*
X221568Y255613D01*
X221561Y255529D01*
X221572Y255472D01*
X221574Y255413D01*
X221600Y255333D01*
X221617Y255250D01*
X221644Y255199D01*
X221662Y255143D01*
X221702Y255087D01*
X221748Y254998D01*
X221816Y254926D01*
X221856Y254870D01*
X222314Y254412D01*
X222314Y250413D01*
X221856Y249955D01*
X221821Y249909D01*
X221779Y249868D01*
X221736Y249795D01*
X221686Y249728D01*
X221665Y249674D01*
X221635Y249623D01*
X221614Y249541D01*
X221584Y249463D01*
X221579Y249404D01*
X221565Y249348D01*
X221568Y249263D01*
X221561Y249179D01*
X221572Y249122D01*
X221574Y249063D01*
X221600Y248983D01*
X221617Y248900D01*
X221644Y248849D01*
X221662Y248793D01*
X221702Y248737D01*
X221748Y248648D01*
X221816Y248576D01*
X221856Y248520D01*
X222314Y248062D01*
X222314Y244063D01*
X221856Y243605D01*
X221821Y243559D01*
X221779Y243518D01*
X221736Y243445D01*
X221686Y243378D01*
X221665Y243324D01*
X221635Y243273D01*
X221614Y243191D01*
X221584Y243113D01*
X221579Y243054D01*
X221565Y242998D01*
X221568Y242913D01*
X221561Y242829D01*
X221572Y242772D01*
X221574Y242713D01*
X221600Y242633D01*
X221617Y242550D01*
X221644Y242499D01*
X221662Y242443D01*
X221702Y242387D01*
X221748Y242298D01*
X221816Y242226D01*
X221856Y242170D01*
X222314Y241712D01*
X222314Y237713D01*
X219487Y234886D01*
X215488Y234886D01*
X215030Y235344D01*
X214984Y235379D01*
X214943Y235421D01*
X214870Y235464D01*
X214803Y235514D01*
X214749Y235535D01*
X214698Y235565D01*
X214616Y235586D01*
X214538Y235616D01*
X214479Y235621D01*
X214423Y235635D01*
X214338Y235632D01*
X214254Y235639D01*
X214197Y235628D01*
X214138Y235626D01*
X214058Y235600D01*
X213975Y235583D01*
X213924Y235556D01*
X213868Y235538D01*
X213812Y235498D01*
X213723Y235452D01*
X213651Y235384D01*
X213595Y235344D01*
X213137Y234886D01*
X209138Y234886D01*
X208680Y235344D01*
X208634Y235379D01*
X208593Y235421D01*
X208521Y235464D01*
X208453Y235514D01*
X208399Y235535D01*
X208348Y235565D01*
X208267Y235586D01*
X208188Y235616D01*
X208129Y235621D01*
X208073Y235635D01*
X207988Y235632D01*
X207904Y235639D01*
X207847Y235628D01*
X207788Y235626D01*
X207708Y235600D01*
X207626Y235583D01*
X207574Y235556D01*
X207518Y235538D01*
X207462Y235498D01*
X207373Y235452D01*
X207301Y235384D01*
X207245Y235344D01*
X206787Y234886D01*
X202788Y234886D01*
X202330Y235344D01*
X202284Y235379D01*
X202243Y235421D01*
X202171Y235464D01*
X202103Y235514D01*
X202049Y235535D01*
X201998Y235565D01*
X201917Y235586D01*
X201838Y235616D01*
X201779Y235621D01*
X201723Y235635D01*
X201638Y235632D01*
X201554Y235639D01*
X201497Y235628D01*
X201438Y235626D01*
X201358Y235600D01*
X201276Y235583D01*
X201224Y235556D01*
X201168Y235538D01*
X201112Y235498D01*
X201023Y235452D01*
X200951Y235384D01*
X200895Y235344D01*
X200437Y234886D01*
X196438Y234886D01*
G37*
%LPD*%
%LPC*%
G36*
X612213Y135959D02*
X612213Y135959D01*
X605214Y138858D01*
X599858Y144214D01*
X596959Y151213D01*
X596959Y158787D01*
X599858Y165786D01*
X605214Y171142D01*
X612213Y174041D01*
X619787Y174041D01*
X626786Y171142D01*
X632142Y165786D01*
X635041Y158787D01*
X635041Y151213D01*
X632142Y144214D01*
X626786Y138858D01*
X619787Y135959D01*
X612213Y135959D01*
G37*
%LPD*%
%LPC*%
G36*
X51213Y634959D02*
X51213Y634959D01*
X44214Y637858D01*
X38858Y643214D01*
X35959Y650213D01*
X35959Y657787D01*
X38858Y664786D01*
X44214Y670142D01*
X51213Y673041D01*
X58787Y673041D01*
X65786Y670142D01*
X71142Y664786D01*
X74041Y657787D01*
X74041Y650213D01*
X71142Y643214D01*
X65786Y637858D01*
X58787Y634959D01*
X51213Y634959D01*
G37*
%LPD*%
%LPC*%
G36*
X229776Y282511D02*
X229776Y282511D01*
X226948Y285338D01*
X226948Y289337D01*
X228200Y290588D01*
X228235Y290635D01*
X228277Y290675D01*
X228320Y290748D01*
X228371Y290816D01*
X228392Y290870D01*
X228421Y290921D01*
X228442Y291002D01*
X228472Y291081D01*
X228477Y291140D01*
X228491Y291196D01*
X228489Y291280D01*
X228496Y291365D01*
X228484Y291422D01*
X228482Y291480D01*
X228456Y291561D01*
X228440Y291643D01*
X228413Y291695D01*
X228395Y291751D01*
X228355Y291807D01*
X228309Y291896D01*
X228240Y291968D01*
X228200Y292024D01*
X226948Y293276D01*
X226948Y297274D01*
X228200Y298526D01*
X228235Y298573D01*
X228277Y298613D01*
X228320Y298686D01*
X228371Y298753D01*
X228392Y298808D01*
X228421Y298858D01*
X228442Y298940D01*
X228472Y299019D01*
X228477Y299077D01*
X228491Y299134D01*
X228489Y299218D01*
X228496Y299302D01*
X228484Y299359D01*
X228482Y299418D01*
X228456Y299498D01*
X228440Y299581D01*
X228413Y299633D01*
X228395Y299688D01*
X228355Y299744D01*
X228309Y299833D01*
X228240Y299906D01*
X228200Y299962D01*
X226948Y301213D01*
X226948Y305212D01*
X229776Y308039D01*
X233774Y308039D01*
X235026Y306788D01*
X235073Y306753D01*
X235113Y306710D01*
X235186Y306667D01*
X235253Y306617D01*
X235308Y306596D01*
X235358Y306566D01*
X235440Y306546D01*
X235519Y306516D01*
X235577Y306511D01*
X235634Y306496D01*
X235718Y306499D01*
X235802Y306492D01*
X235859Y306503D01*
X235918Y306505D01*
X235998Y306531D01*
X236081Y306548D01*
X236133Y306575D01*
X236188Y306593D01*
X236245Y306633D01*
X236333Y306679D01*
X236405Y306748D01*
X236462Y306788D01*
X237713Y308039D01*
X241712Y308039D01*
X244539Y305212D01*
X244539Y303029D01*
X244543Y303000D01*
X244541Y302970D01*
X244563Y302859D01*
X244579Y302747D01*
X244591Y302721D01*
X244597Y302692D01*
X244649Y302591D01*
X244695Y302488D01*
X244714Y302465D01*
X244728Y302439D01*
X244806Y302357D01*
X244879Y302271D01*
X244903Y302255D01*
X244924Y302233D01*
X245021Y302176D01*
X245116Y302113D01*
X245144Y302104D01*
X245169Y302090D01*
X245278Y302062D01*
X245387Y302027D01*
X245416Y302027D01*
X245444Y302020D01*
X245557Y302023D01*
X245671Y302020D01*
X245699Y302028D01*
X245729Y302029D01*
X245836Y302063D01*
X245946Y302092D01*
X245971Y302107D01*
X245999Y302116D01*
X246063Y302162D01*
X246190Y302237D01*
X246233Y302283D01*
X246272Y302311D01*
X248826Y304864D01*
X252824Y304864D01*
X254076Y303613D01*
X254123Y303578D01*
X254163Y303535D01*
X254236Y303492D01*
X254303Y303442D01*
X254358Y303421D01*
X254408Y303391D01*
X254490Y303371D01*
X254569Y303341D01*
X254627Y303336D01*
X254684Y303321D01*
X254768Y303324D01*
X254852Y303317D01*
X254909Y303328D01*
X254968Y303330D01*
X255048Y303356D01*
X255131Y303373D01*
X255183Y303400D01*
X255238Y303418D01*
X255295Y303458D01*
X255383Y303504D01*
X255455Y303573D01*
X255512Y303613D01*
X256763Y304864D01*
X260762Y304864D01*
X263589Y302037D01*
X263589Y298038D01*
X263131Y297580D01*
X263096Y297534D01*
X263054Y297493D01*
X263011Y297421D01*
X262961Y297353D01*
X262940Y297299D01*
X262910Y297248D01*
X262889Y297167D01*
X262859Y297088D01*
X262854Y297029D01*
X262840Y296973D01*
X262843Y296888D01*
X262836Y296804D01*
X262847Y296747D01*
X262849Y296688D01*
X262875Y296608D01*
X262892Y296526D01*
X262919Y296474D01*
X262937Y296418D01*
X262977Y296362D01*
X263023Y296273D01*
X263091Y296201D01*
X263131Y296145D01*
X263589Y295687D01*
X263589Y291688D01*
X263131Y291230D01*
X263096Y291184D01*
X263054Y291143D01*
X263011Y291070D01*
X262961Y291003D01*
X262940Y290949D01*
X262910Y290898D01*
X262889Y290816D01*
X262859Y290738D01*
X262854Y290679D01*
X262840Y290623D01*
X262843Y290538D01*
X262836Y290454D01*
X262847Y290397D01*
X262849Y290338D01*
X262875Y290258D01*
X262892Y290175D01*
X262919Y290124D01*
X262937Y290068D01*
X262977Y290012D01*
X263023Y289923D01*
X263066Y289878D01*
X263079Y289856D01*
X263106Y289830D01*
X263131Y289795D01*
X263589Y289337D01*
X263589Y285338D01*
X260762Y282511D01*
X256763Y282511D01*
X255512Y283762D01*
X255465Y283797D01*
X255425Y283840D01*
X255352Y283883D01*
X255284Y283933D01*
X255230Y283954D01*
X255179Y283984D01*
X255098Y284004D01*
X255019Y284034D01*
X254960Y284039D01*
X254904Y284054D01*
X254820Y284051D01*
X254735Y284058D01*
X254678Y284047D01*
X254620Y284045D01*
X254539Y284019D01*
X254457Y284002D01*
X254405Y283975D01*
X254349Y283957D01*
X254293Y283917D01*
X254204Y283871D01*
X254132Y283802D01*
X254076Y283762D01*
X252824Y282511D01*
X248826Y282511D01*
X245987Y285350D01*
X245940Y285385D01*
X245900Y285427D01*
X245827Y285470D01*
X245759Y285521D01*
X245705Y285542D01*
X245654Y285571D01*
X245573Y285592D01*
X245494Y285622D01*
X245435Y285627D01*
X245379Y285641D01*
X245295Y285639D01*
X245211Y285646D01*
X245153Y285634D01*
X245095Y285632D01*
X245014Y285606D01*
X244932Y285590D01*
X244880Y285563D01*
X244824Y285545D01*
X244768Y285505D01*
X244679Y285459D01*
X244607Y285390D01*
X244551Y285350D01*
X241712Y282511D01*
X237713Y282511D01*
X236462Y283762D01*
X236415Y283797D01*
X236375Y283840D01*
X236302Y283883D01*
X236234Y283933D01*
X236180Y283954D01*
X236129Y283984D01*
X236048Y284004D01*
X235969Y284034D01*
X235910Y284039D01*
X235854Y284054D01*
X235770Y284051D01*
X235686Y284058D01*
X235628Y284047D01*
X235570Y284045D01*
X235489Y284019D01*
X235407Y284002D01*
X235355Y283975D01*
X235299Y283957D01*
X235243Y283917D01*
X235154Y283871D01*
X235082Y283802D01*
X235026Y283762D01*
X233774Y282511D01*
X229776Y282511D01*
G37*
%LPD*%
%LPC*%
G36*
X69438Y220598D02*
X69438Y220598D01*
X66611Y223426D01*
X66611Y227424D01*
X67069Y227882D01*
X67104Y227929D01*
X67146Y227969D01*
X67189Y228042D01*
X67239Y228109D01*
X67260Y228164D01*
X67290Y228214D01*
X67311Y228296D01*
X67341Y228375D01*
X67346Y228433D01*
X67360Y228490D01*
X67357Y228574D01*
X67364Y228658D01*
X67353Y228716D01*
X67351Y228774D01*
X67325Y228854D01*
X67308Y228937D01*
X67281Y228989D01*
X67263Y229045D01*
X67223Y229101D01*
X67177Y229189D01*
X67109Y229262D01*
X67069Y229318D01*
X66611Y229776D01*
X66611Y233774D01*
X67069Y234232D01*
X67104Y234279D01*
X67146Y234319D01*
X67189Y234392D01*
X67239Y234459D01*
X67260Y234514D01*
X67290Y234564D01*
X67311Y234646D01*
X67341Y234725D01*
X67346Y234783D01*
X67360Y234840D01*
X67357Y234924D01*
X67364Y235008D01*
X67353Y235066D01*
X67351Y235124D01*
X67325Y235204D01*
X67308Y235287D01*
X67281Y235339D01*
X67263Y235395D01*
X67223Y235451D01*
X67177Y235539D01*
X67109Y235612D01*
X67069Y235668D01*
X66611Y236126D01*
X66611Y240124D01*
X69438Y242952D01*
X73437Y242952D01*
X73895Y242494D01*
X73941Y242459D01*
X73982Y242416D01*
X74054Y242374D01*
X74122Y242323D01*
X74176Y242302D01*
X74227Y242273D01*
X74308Y242252D01*
X74387Y242222D01*
X74446Y242217D01*
X74502Y242203D01*
X74587Y242205D01*
X74671Y242198D01*
X74728Y242210D01*
X74787Y242212D01*
X74867Y242238D01*
X74949Y242254D01*
X75001Y242281D01*
X75057Y242299D01*
X75113Y242339D01*
X75202Y242385D01*
X75274Y242454D01*
X75330Y242494D01*
X75788Y242952D01*
X79787Y242952D01*
X80245Y242494D01*
X80291Y242459D01*
X80332Y242416D01*
X80405Y242374D01*
X80472Y242323D01*
X80526Y242302D01*
X80577Y242273D01*
X80659Y242252D01*
X80737Y242222D01*
X80796Y242217D01*
X80852Y242203D01*
X80937Y242205D01*
X81021Y242198D01*
X81078Y242210D01*
X81137Y242212D01*
X81217Y242238D01*
X81300Y242254D01*
X81351Y242281D01*
X81407Y242299D01*
X81463Y242339D01*
X81552Y242385D01*
X81624Y242454D01*
X81680Y242494D01*
X82138Y242952D01*
X86137Y242952D01*
X86595Y242494D01*
X86641Y242459D01*
X86682Y242416D01*
X86754Y242374D01*
X86822Y242323D01*
X86876Y242302D01*
X86927Y242273D01*
X87008Y242252D01*
X87087Y242222D01*
X87146Y242217D01*
X87202Y242203D01*
X87287Y242205D01*
X87371Y242198D01*
X87428Y242210D01*
X87487Y242212D01*
X87567Y242238D01*
X87649Y242254D01*
X87701Y242281D01*
X87757Y242299D01*
X87813Y242339D01*
X87902Y242385D01*
X87974Y242454D01*
X88030Y242494D01*
X88488Y242952D01*
X92487Y242952D01*
X92945Y242494D01*
X92991Y242459D01*
X93032Y242416D01*
X93104Y242374D01*
X93172Y242323D01*
X93226Y242302D01*
X93277Y242273D01*
X93358Y242252D01*
X93437Y242222D01*
X93496Y242217D01*
X93552Y242203D01*
X93637Y242205D01*
X93721Y242198D01*
X93778Y242210D01*
X93837Y242212D01*
X93917Y242238D01*
X93999Y242254D01*
X94051Y242281D01*
X94107Y242299D01*
X94163Y242339D01*
X94252Y242385D01*
X94324Y242454D01*
X94380Y242494D01*
X94838Y242952D01*
X98837Y242952D01*
X101664Y240124D01*
X101664Y236126D01*
X101206Y235668D01*
X101171Y235621D01*
X101129Y235581D01*
X101086Y235508D01*
X101036Y235441D01*
X101015Y235386D01*
X100985Y235336D01*
X100964Y235254D01*
X100934Y235175D01*
X100929Y235117D01*
X100915Y235060D01*
X100918Y234976D01*
X100911Y234892D01*
X100922Y234834D01*
X100924Y234776D01*
X100950Y234696D01*
X100967Y234613D01*
X100994Y234561D01*
X101012Y234505D01*
X101052Y234449D01*
X101098Y234361D01*
X101166Y234288D01*
X101206Y234232D01*
X101664Y233774D01*
X101664Y229776D01*
X101206Y229318D01*
X101171Y229271D01*
X101129Y229231D01*
X101086Y229158D01*
X101036Y229091D01*
X101015Y229036D01*
X100985Y228986D01*
X100964Y228904D01*
X100934Y228825D01*
X100929Y228767D01*
X100915Y228710D01*
X100918Y228626D01*
X100911Y228542D01*
X100922Y228484D01*
X100924Y228426D01*
X100950Y228346D01*
X100967Y228263D01*
X100994Y228211D01*
X101012Y228155D01*
X101052Y228099D01*
X101098Y228011D01*
X101160Y227945D01*
X101172Y227925D01*
X101184Y227914D01*
X101206Y227882D01*
X101664Y227424D01*
X101664Y223426D01*
X98837Y220598D01*
X94838Y220598D01*
X94380Y221056D01*
X94334Y221091D01*
X94293Y221134D01*
X94220Y221176D01*
X94153Y221227D01*
X94099Y221248D01*
X94048Y221277D01*
X93966Y221298D01*
X93888Y221328D01*
X93829Y221333D01*
X93773Y221347D01*
X93688Y221345D01*
X93604Y221352D01*
X93547Y221340D01*
X93488Y221338D01*
X93408Y221312D01*
X93325Y221296D01*
X93274Y221269D01*
X93218Y221251D01*
X93162Y221211D01*
X93073Y221165D01*
X93001Y221096D01*
X92945Y221056D01*
X92487Y220598D01*
X88488Y220598D01*
X88030Y221056D01*
X87984Y221091D01*
X87943Y221134D01*
X87870Y221176D01*
X87803Y221227D01*
X87749Y221248D01*
X87698Y221277D01*
X87616Y221298D01*
X87538Y221328D01*
X87479Y221333D01*
X87423Y221347D01*
X87338Y221345D01*
X87254Y221352D01*
X87197Y221340D01*
X87138Y221338D01*
X87058Y221312D01*
X86975Y221296D01*
X86924Y221269D01*
X86868Y221251D01*
X86812Y221211D01*
X86723Y221165D01*
X86651Y221096D01*
X86595Y221056D01*
X86137Y220598D01*
X82138Y220598D01*
X81680Y221056D01*
X81634Y221091D01*
X81593Y221134D01*
X81521Y221176D01*
X81453Y221227D01*
X81399Y221248D01*
X81348Y221277D01*
X81267Y221298D01*
X81188Y221328D01*
X81129Y221333D01*
X81073Y221347D01*
X80988Y221345D01*
X80904Y221352D01*
X80847Y221340D01*
X80788Y221338D01*
X80708Y221312D01*
X80626Y221296D01*
X80574Y221269D01*
X80518Y221251D01*
X80462Y221211D01*
X80373Y221165D01*
X80301Y221096D01*
X80245Y221056D01*
X79787Y220598D01*
X75788Y220598D01*
X75330Y221056D01*
X75284Y221091D01*
X75243Y221134D01*
X75170Y221176D01*
X75103Y221227D01*
X75049Y221248D01*
X74998Y221277D01*
X74916Y221298D01*
X74838Y221328D01*
X74779Y221333D01*
X74723Y221347D01*
X74638Y221345D01*
X74554Y221352D01*
X74497Y221340D01*
X74438Y221338D01*
X74358Y221312D01*
X74275Y221296D01*
X74224Y221269D01*
X74168Y221251D01*
X74112Y221211D01*
X74023Y221165D01*
X73951Y221096D01*
X73895Y221056D01*
X73437Y220598D01*
X69438Y220598D01*
G37*
%LPD*%
%LPC*%
G36*
X184307Y761459D02*
X184307Y761459D01*
X179330Y763521D01*
X175521Y767330D01*
X173459Y772307D01*
X173459Y777693D01*
X175521Y782670D01*
X179330Y786479D01*
X184307Y788541D01*
X189693Y788541D01*
X194670Y786479D01*
X198479Y782670D01*
X200541Y777693D01*
X200541Y772307D01*
X198479Y767330D01*
X194670Y763521D01*
X189693Y761459D01*
X184307Y761459D01*
G37*
%LPD*%
%LPC*%
G36*
X610307Y761459D02*
X610307Y761459D01*
X605330Y763521D01*
X601521Y767330D01*
X599459Y772307D01*
X599459Y777693D01*
X601521Y782670D01*
X605330Y786479D01*
X610307Y788541D01*
X615693Y788541D01*
X620670Y786479D01*
X624479Y782670D01*
X626541Y777693D01*
X626541Y772307D01*
X624479Y767330D01*
X620670Y763521D01*
X615693Y761459D01*
X610307Y761459D01*
G37*
%LPD*%
%LPC*%
G36*
X694913Y606361D02*
X694913Y606361D01*
X692086Y609188D01*
X692086Y613187D01*
X692544Y613645D01*
X692559Y613665D01*
X692577Y613681D01*
X692594Y613706D01*
X692621Y613732D01*
X692664Y613804D01*
X692714Y613872D01*
X692728Y613906D01*
X692735Y613917D01*
X692741Y613936D01*
X692765Y613977D01*
X692786Y614058D01*
X692816Y614137D01*
X692820Y614185D01*
X692821Y614188D01*
X692821Y614197D01*
X692835Y614252D01*
X692832Y614337D01*
X692839Y614421D01*
X692828Y614478D01*
X692826Y614537D01*
X692800Y614617D01*
X692783Y614699D01*
X692756Y614751D01*
X692738Y614807D01*
X692698Y614863D01*
X692652Y614952D01*
X692584Y615024D01*
X692544Y615080D01*
X692086Y615538D01*
X692086Y619537D01*
X692544Y619995D01*
X692579Y620041D01*
X692621Y620082D01*
X692664Y620155D01*
X692714Y620222D01*
X692735Y620276D01*
X692765Y620327D01*
X692786Y620409D01*
X692816Y620487D01*
X692821Y620546D01*
X692835Y620602D01*
X692832Y620687D01*
X692839Y620771D01*
X692828Y620828D01*
X692826Y620887D01*
X692800Y620967D01*
X692783Y621050D01*
X692756Y621101D01*
X692738Y621157D01*
X692698Y621213D01*
X692652Y621302D01*
X692584Y621374D01*
X692544Y621430D01*
X692086Y621888D01*
X692086Y625887D01*
X692544Y626345D01*
X692579Y626391D01*
X692621Y626432D01*
X692664Y626505D01*
X692714Y626572D01*
X692735Y626626D01*
X692765Y626677D01*
X692786Y626759D01*
X692816Y626837D01*
X692821Y626896D01*
X692835Y626952D01*
X692832Y627037D01*
X692839Y627121D01*
X692828Y627178D01*
X692826Y627237D01*
X692800Y627317D01*
X692783Y627400D01*
X692756Y627451D01*
X692738Y627507D01*
X692698Y627563D01*
X692652Y627652D01*
X692584Y627724D01*
X692544Y627780D01*
X692086Y628238D01*
X692086Y632237D01*
X694913Y635064D01*
X698912Y635064D01*
X699370Y634606D01*
X699416Y634571D01*
X699457Y634529D01*
X699529Y634486D01*
X699597Y634436D01*
X699651Y634415D01*
X699702Y634385D01*
X699783Y634364D01*
X699862Y634334D01*
X699921Y634329D01*
X699977Y634315D01*
X700062Y634318D01*
X700146Y634311D01*
X700203Y634322D01*
X700262Y634324D01*
X700342Y634350D01*
X700424Y634367D01*
X700476Y634394D01*
X700532Y634412D01*
X700588Y634452D01*
X700677Y634498D01*
X700749Y634566D01*
X700805Y634606D01*
X701263Y635064D01*
X705262Y635064D01*
X708089Y632237D01*
X708089Y628238D01*
X707631Y627780D01*
X707596Y627734D01*
X707554Y627693D01*
X707511Y627620D01*
X707461Y627553D01*
X707440Y627499D01*
X707410Y627448D01*
X707389Y627366D01*
X707359Y627288D01*
X707354Y627229D01*
X707340Y627173D01*
X707343Y627088D01*
X707336Y627004D01*
X707347Y626947D01*
X707349Y626888D01*
X707375Y626808D01*
X707392Y626725D01*
X707419Y626674D01*
X707437Y626618D01*
X707477Y626562D01*
X707523Y626473D01*
X707591Y626401D01*
X707631Y626345D01*
X708089Y625887D01*
X708089Y621888D01*
X707631Y621430D01*
X707596Y621384D01*
X707554Y621343D01*
X707511Y621271D01*
X707461Y621203D01*
X707440Y621149D01*
X707410Y621098D01*
X707389Y621017D01*
X707359Y620938D01*
X707354Y620879D01*
X707340Y620823D01*
X707343Y620738D01*
X707336Y620654D01*
X707347Y620597D01*
X707349Y620538D01*
X707375Y620458D01*
X707392Y620376D01*
X707419Y620324D01*
X707437Y620268D01*
X707477Y620212D01*
X707523Y620123D01*
X707591Y620051D01*
X707631Y619995D01*
X708089Y619537D01*
X708089Y615538D01*
X707631Y615080D01*
X707596Y615034D01*
X707554Y614993D01*
X707511Y614920D01*
X707461Y614853D01*
X707440Y614799D01*
X707410Y614748D01*
X707389Y614666D01*
X707359Y614588D01*
X707354Y614529D01*
X707340Y614473D01*
X707343Y614388D01*
X707336Y614304D01*
X707347Y614247D01*
X707347Y614240D01*
X707348Y614238D01*
X707349Y614188D01*
X707375Y614108D01*
X707392Y614025D01*
X707415Y613981D01*
X707419Y613965D01*
X707424Y613955D01*
X707437Y613918D01*
X707477Y613862D01*
X707523Y613773D01*
X707550Y613745D01*
X707564Y613720D01*
X707604Y613683D01*
X707631Y613645D01*
X708089Y613187D01*
X708089Y609188D01*
X705262Y606361D01*
X701263Y606361D01*
X700805Y606819D01*
X700759Y606854D01*
X700718Y606896D01*
X700645Y606939D01*
X700578Y606989D01*
X700524Y607010D01*
X700473Y607040D01*
X700391Y607061D01*
X700313Y607091D01*
X700254Y607096D01*
X700198Y607110D01*
X700113Y607107D01*
X700029Y607114D01*
X699972Y607103D01*
X699913Y607101D01*
X699833Y607075D01*
X699750Y607058D01*
X699699Y607031D01*
X699643Y607013D01*
X699587Y606973D01*
X699498Y606927D01*
X699426Y606859D01*
X699370Y606819D01*
X698912Y606361D01*
X694913Y606361D01*
G37*
%LPD*%
%LPC*%
G36*
X550451Y412686D02*
X550451Y412686D01*
X547623Y415513D01*
X547623Y418021D01*
X547615Y418078D01*
X547617Y418137D01*
X547595Y418218D01*
X547583Y418302D01*
X547560Y418355D01*
X547545Y418412D01*
X547502Y418484D01*
X547467Y418561D01*
X547429Y418606D01*
X547400Y418656D01*
X547338Y418714D01*
X547284Y418778D01*
X547235Y418811D01*
X547192Y418851D01*
X547117Y418889D01*
X547047Y418936D01*
X546991Y418954D01*
X546939Y418980D01*
X546871Y418992D01*
X546776Y419022D01*
X546676Y419024D01*
X546608Y419036D01*
X544101Y419036D01*
X541273Y421863D01*
X541273Y425862D01*
X544101Y428689D01*
X546608Y428689D01*
X546666Y428697D01*
X546724Y428696D01*
X546806Y428717D01*
X546890Y428729D01*
X546943Y428753D01*
X546999Y428768D01*
X547072Y428811D01*
X547149Y428845D01*
X547194Y428883D01*
X547244Y428913D01*
X547302Y428975D01*
X547366Y429029D01*
X547398Y429078D01*
X547438Y429120D01*
X547477Y429195D01*
X547524Y429266D01*
X547541Y429321D01*
X547568Y429373D01*
X547579Y429441D01*
X547609Y429537D01*
X547612Y429636D01*
X547623Y429704D01*
X547623Y430721D01*
X547615Y430778D01*
X547617Y430837D01*
X547595Y430918D01*
X547583Y431002D01*
X547560Y431055D01*
X547545Y431112D01*
X547502Y431184D01*
X547467Y431261D01*
X547429Y431306D01*
X547400Y431356D01*
X547338Y431414D01*
X547284Y431478D01*
X547235Y431511D01*
X547192Y431551D01*
X547117Y431589D01*
X547047Y431636D01*
X546991Y431654D01*
X546939Y431680D01*
X546871Y431692D01*
X546776Y431722D01*
X546676Y431724D01*
X546608Y431736D01*
X544101Y431736D01*
X541273Y434563D01*
X541273Y438562D01*
X544101Y441389D01*
X548099Y441389D01*
X549065Y440423D01*
X549089Y440406D01*
X549108Y440383D01*
X549202Y440321D01*
X549292Y440252D01*
X549320Y440242D01*
X549344Y440226D01*
X549452Y440192D01*
X549558Y440151D01*
X549587Y440149D01*
X549615Y440140D01*
X549729Y440137D01*
X549841Y440128D01*
X549870Y440133D01*
X549899Y440133D01*
X550009Y440161D01*
X550120Y440184D01*
X550146Y440197D01*
X550174Y440205D01*
X550272Y440262D01*
X550372Y440315D01*
X550394Y440335D01*
X550419Y440350D01*
X550496Y440432D01*
X550578Y440510D01*
X550593Y440536D01*
X550613Y440557D01*
X550665Y440658D01*
X550722Y440756D01*
X550729Y440784D01*
X550743Y440810D01*
X550756Y440888D01*
X550792Y441031D01*
X550790Y441094D01*
X550798Y441141D01*
X550798Y444912D01*
X553626Y447739D01*
X557624Y447739D01*
X560452Y444912D01*
X560452Y440913D01*
X557624Y438086D01*
X553626Y438086D01*
X552660Y439052D01*
X552636Y439069D01*
X552617Y439092D01*
X552523Y439154D01*
X552433Y439223D01*
X552405Y439233D01*
X552381Y439249D01*
X552273Y439283D01*
X552167Y439324D01*
X552138Y439326D01*
X552110Y439335D01*
X551996Y439338D01*
X551884Y439347D01*
X551855Y439342D01*
X551826Y439342D01*
X551716Y439314D01*
X551605Y439291D01*
X551579Y439278D01*
X551551Y439270D01*
X551453Y439213D01*
X551353Y439160D01*
X551331Y439140D01*
X551306Y439125D01*
X551229Y439043D01*
X551147Y438965D01*
X551132Y438939D01*
X551112Y438918D01*
X551060Y438817D01*
X551003Y438719D01*
X550996Y438691D01*
X550982Y438665D01*
X550969Y438587D01*
X550933Y438444D01*
X550935Y438381D01*
X550927Y438334D01*
X550927Y436054D01*
X550935Y435997D01*
X550933Y435938D01*
X550955Y435857D01*
X550967Y435773D01*
X550990Y435720D01*
X551005Y435663D01*
X551048Y435591D01*
X551083Y435514D01*
X551121Y435469D01*
X551150Y435419D01*
X551212Y435361D01*
X551266Y435297D01*
X551315Y435264D01*
X551358Y435224D01*
X551433Y435186D01*
X551503Y435139D01*
X551559Y435121D01*
X551611Y435095D01*
X551679Y435083D01*
X551774Y435053D01*
X551874Y435051D01*
X551942Y435039D01*
X554449Y435039D01*
X557277Y432212D01*
X557277Y428213D01*
X554449Y425386D01*
X551942Y425386D01*
X551884Y425378D01*
X551826Y425379D01*
X551744Y425358D01*
X551660Y425346D01*
X551607Y425322D01*
X551551Y425307D01*
X551478Y425264D01*
X551401Y425230D01*
X551356Y425192D01*
X551306Y425162D01*
X551248Y425100D01*
X551184Y425046D01*
X551152Y424997D01*
X551112Y424955D01*
X551073Y424880D01*
X551026Y424809D01*
X551009Y424754D01*
X550982Y424702D01*
X550971Y424634D01*
X550941Y424538D01*
X550938Y424439D01*
X550927Y424371D01*
X550927Y423354D01*
X550935Y423297D01*
X550933Y423238D01*
X550955Y423157D01*
X550967Y423073D01*
X550990Y423020D01*
X551005Y422963D01*
X551048Y422891D01*
X551083Y422814D01*
X551121Y422769D01*
X551150Y422719D01*
X551212Y422661D01*
X551266Y422597D01*
X551315Y422564D01*
X551358Y422524D01*
X551433Y422486D01*
X551503Y422439D01*
X551559Y422421D01*
X551611Y422395D01*
X551679Y422383D01*
X551774Y422353D01*
X551874Y422351D01*
X551942Y422339D01*
X554449Y422339D01*
X557277Y419512D01*
X557277Y415513D01*
X554449Y412686D01*
X550451Y412686D01*
G37*
%LPD*%
%LPC*%
G36*
X196438Y684148D02*
X196438Y684148D01*
X193611Y686976D01*
X193611Y690974D01*
X194069Y691432D01*
X194104Y691479D01*
X194146Y691519D01*
X194189Y691592D01*
X194239Y691659D01*
X194260Y691714D01*
X194290Y691764D01*
X194311Y691846D01*
X194341Y691925D01*
X194346Y691983D01*
X194360Y692040D01*
X194357Y692124D01*
X194364Y692208D01*
X194353Y692266D01*
X194351Y692324D01*
X194325Y692404D01*
X194308Y692487D01*
X194281Y692539D01*
X194263Y692595D01*
X194223Y692651D01*
X194177Y692739D01*
X194109Y692812D01*
X194069Y692868D01*
X193611Y693326D01*
X193611Y697324D01*
X196438Y700152D01*
X200437Y700152D01*
X200895Y699694D01*
X200941Y699659D01*
X200982Y699616D01*
X201054Y699574D01*
X201122Y699523D01*
X201176Y699502D01*
X201227Y699473D01*
X201308Y699452D01*
X201387Y699422D01*
X201446Y699417D01*
X201502Y699403D01*
X201587Y699405D01*
X201671Y699398D01*
X201728Y699410D01*
X201787Y699412D01*
X201867Y699438D01*
X201949Y699454D01*
X202001Y699481D01*
X202057Y699499D01*
X202113Y699539D01*
X202202Y699585D01*
X202274Y699654D01*
X202330Y699694D01*
X202788Y700152D01*
X206787Y700152D01*
X207245Y699694D01*
X207291Y699659D01*
X207332Y699616D01*
X207404Y699574D01*
X207472Y699523D01*
X207526Y699502D01*
X207577Y699473D01*
X207658Y699452D01*
X207737Y699422D01*
X207796Y699417D01*
X207852Y699403D01*
X207937Y699405D01*
X208021Y699398D01*
X208078Y699410D01*
X208137Y699412D01*
X208217Y699438D01*
X208299Y699454D01*
X208351Y699481D01*
X208407Y699499D01*
X208463Y699539D01*
X208552Y699585D01*
X208624Y699654D01*
X208680Y699694D01*
X209138Y700152D01*
X213137Y700152D01*
X215964Y697324D01*
X215964Y693326D01*
X215506Y692868D01*
X215471Y692821D01*
X215429Y692781D01*
X215386Y692708D01*
X215336Y692641D01*
X215315Y692586D01*
X215285Y692536D01*
X215264Y692454D01*
X215234Y692375D01*
X215229Y692317D01*
X215215Y692260D01*
X215218Y692176D01*
X215211Y692092D01*
X215222Y692034D01*
X215224Y691976D01*
X215250Y691896D01*
X215267Y691813D01*
X215294Y691761D01*
X215312Y691705D01*
X215352Y691649D01*
X215398Y691561D01*
X215466Y691488D01*
X215506Y691432D01*
X215964Y690974D01*
X215964Y686976D01*
X213137Y684148D01*
X209138Y684148D01*
X208680Y684606D01*
X208634Y684641D01*
X208593Y684684D01*
X208521Y684726D01*
X208453Y684777D01*
X208399Y684798D01*
X208348Y684827D01*
X208267Y684848D01*
X208188Y684878D01*
X208129Y684883D01*
X208073Y684897D01*
X207988Y684895D01*
X207904Y684902D01*
X207847Y684890D01*
X207788Y684888D01*
X207708Y684862D01*
X207626Y684846D01*
X207574Y684819D01*
X207518Y684801D01*
X207462Y684761D01*
X207373Y684715D01*
X207301Y684646D01*
X207245Y684606D01*
X206787Y684148D01*
X202788Y684148D01*
X202330Y684606D01*
X202284Y684641D01*
X202243Y684684D01*
X202171Y684726D01*
X202103Y684777D01*
X202049Y684798D01*
X201998Y684827D01*
X201917Y684848D01*
X201838Y684878D01*
X201779Y684883D01*
X201723Y684897D01*
X201638Y684895D01*
X201554Y684902D01*
X201497Y684890D01*
X201438Y684888D01*
X201358Y684862D01*
X201276Y684846D01*
X201224Y684819D01*
X201168Y684801D01*
X201112Y684761D01*
X201023Y684715D01*
X200951Y684646D01*
X200895Y684606D01*
X200437Y684148D01*
X196438Y684148D01*
G37*
%LPD*%
%LPC*%
G36*
X421532Y800104D02*
X421532Y800104D01*
X417894Y801611D01*
X415111Y804394D01*
X413604Y808032D01*
X413604Y811968D01*
X415111Y815606D01*
X417894Y818389D01*
X421532Y819896D01*
X425468Y819896D01*
X429106Y818389D01*
X431889Y815606D01*
X433396Y811968D01*
X433396Y808032D01*
X431889Y804394D01*
X429106Y801611D01*
X425468Y800104D01*
X421532Y800104D01*
G37*
%LPD*%
%LPC*%
G36*
X249532Y850104D02*
X249532Y850104D01*
X245894Y851611D01*
X243111Y854394D01*
X241604Y858032D01*
X241604Y861968D01*
X243111Y865606D01*
X245894Y868389D01*
X249532Y869896D01*
X253468Y869896D01*
X257106Y868389D01*
X259889Y865606D01*
X261396Y861968D01*
X261396Y858032D01*
X259889Y854394D01*
X257106Y851611D01*
X253468Y850104D01*
X249532Y850104D01*
G37*
%LPD*%
%LPC*%
G36*
X396532Y800104D02*
X396532Y800104D01*
X392894Y801611D01*
X390111Y804394D01*
X388604Y808032D01*
X388604Y811968D01*
X390111Y815606D01*
X392894Y818389D01*
X396532Y819896D01*
X400468Y819896D01*
X404106Y818389D01*
X406889Y815606D01*
X408396Y811968D01*
X408396Y808032D01*
X406889Y804394D01*
X404106Y801611D01*
X400468Y800104D01*
X396532Y800104D01*
G37*
%LPD*%
%LPC*%
G36*
X371532Y800104D02*
X371532Y800104D01*
X367894Y801611D01*
X365111Y804394D01*
X363604Y808032D01*
X363604Y811968D01*
X365111Y815606D01*
X367894Y818389D01*
X371532Y819896D01*
X375468Y819896D01*
X379106Y818389D01*
X381889Y815606D01*
X383396Y811968D01*
X383396Y808032D01*
X381889Y804394D01*
X379106Y801611D01*
X375468Y800104D01*
X371532Y800104D01*
G37*
%LPD*%
%LPC*%
G36*
X346532Y800104D02*
X346532Y800104D01*
X342894Y801611D01*
X340111Y804394D01*
X338604Y808032D01*
X338604Y811968D01*
X340111Y815606D01*
X342894Y818389D01*
X346532Y819896D01*
X350468Y819896D01*
X354106Y818389D01*
X356889Y815606D01*
X358396Y811968D01*
X358396Y808032D01*
X356889Y804394D01*
X354106Y801611D01*
X350468Y800104D01*
X346532Y800104D01*
G37*
%LPD*%
%LPC*%
G36*
X321532Y800104D02*
X321532Y800104D01*
X317894Y801611D01*
X315111Y804394D01*
X313604Y808032D01*
X313604Y811968D01*
X315111Y815606D01*
X317894Y818389D01*
X321532Y819896D01*
X325468Y819896D01*
X329106Y818389D01*
X331889Y815606D01*
X333396Y811968D01*
X333396Y808032D01*
X331889Y804394D01*
X329106Y801611D01*
X325468Y800104D01*
X321532Y800104D01*
G37*
%LPD*%
%LPC*%
G36*
X286532Y800104D02*
X286532Y800104D01*
X282894Y801611D01*
X280111Y804394D01*
X278604Y808032D01*
X278604Y811968D01*
X280111Y815606D01*
X282894Y818389D01*
X286532Y819896D01*
X290468Y819896D01*
X294106Y818389D01*
X296889Y815606D01*
X298396Y811968D01*
X298396Y808032D01*
X296889Y804394D01*
X294106Y801611D01*
X290468Y800104D01*
X286532Y800104D01*
G37*
%LPD*%
%LPC*%
G36*
X371532Y775104D02*
X371532Y775104D01*
X367894Y776611D01*
X365111Y779394D01*
X363604Y783032D01*
X363604Y786968D01*
X365111Y790606D01*
X367894Y793389D01*
X371532Y794896D01*
X375468Y794896D01*
X379106Y793389D01*
X381889Y790606D01*
X383396Y786968D01*
X383396Y783032D01*
X381889Y779394D01*
X379106Y776611D01*
X375468Y775104D01*
X371532Y775104D01*
G37*
%LPD*%
%LPC*%
G36*
X421532Y775104D02*
X421532Y775104D01*
X417894Y776611D01*
X415111Y779394D01*
X413604Y783032D01*
X413604Y786968D01*
X415111Y790606D01*
X417894Y793389D01*
X421532Y794896D01*
X425468Y794896D01*
X429106Y793389D01*
X431889Y790606D01*
X433396Y786968D01*
X433396Y783032D01*
X431889Y779394D01*
X429106Y776611D01*
X425468Y775104D01*
X421532Y775104D01*
G37*
%LPD*%
%LPC*%
G36*
X521532Y775104D02*
X521532Y775104D01*
X517894Y776611D01*
X515111Y779394D01*
X513604Y783032D01*
X513604Y786968D01*
X515111Y790606D01*
X517894Y793389D01*
X521532Y794896D01*
X525468Y794896D01*
X529106Y793389D01*
X531889Y790606D01*
X533396Y786968D01*
X533396Y783032D01*
X531889Y779394D01*
X529106Y776611D01*
X525468Y775104D01*
X521532Y775104D01*
G37*
%LPD*%
%LPC*%
G36*
X496532Y775104D02*
X496532Y775104D01*
X492894Y776611D01*
X490111Y779394D01*
X488604Y783032D01*
X488604Y786968D01*
X490111Y790606D01*
X492894Y793389D01*
X496532Y794896D01*
X500468Y794896D01*
X504106Y793389D01*
X506889Y790606D01*
X508396Y786968D01*
X508396Y783032D01*
X506889Y779394D01*
X504106Y776611D01*
X500468Y775104D01*
X496532Y775104D01*
G37*
%LPD*%
%LPC*%
G36*
X471532Y775104D02*
X471532Y775104D01*
X467894Y776611D01*
X465111Y779394D01*
X463604Y783032D01*
X463604Y786968D01*
X465111Y790606D01*
X467894Y793389D01*
X471532Y794896D01*
X475468Y794896D01*
X479106Y793389D01*
X481889Y790606D01*
X483396Y786968D01*
X483396Y783032D01*
X481889Y779394D01*
X479106Y776611D01*
X475468Y775104D01*
X471532Y775104D01*
G37*
%LPD*%
%LPC*%
G36*
X546532Y775104D02*
X546532Y775104D01*
X542894Y776611D01*
X540111Y779394D01*
X538604Y783032D01*
X538604Y786968D01*
X540111Y790606D01*
X542894Y793389D01*
X546532Y794896D01*
X550468Y794896D01*
X554106Y793389D01*
X556889Y790606D01*
X558396Y786968D01*
X558396Y783032D01*
X556889Y779394D01*
X554106Y776611D01*
X550468Y775104D01*
X546532Y775104D01*
G37*
%LPD*%
%LPC*%
G36*
X446532Y775104D02*
X446532Y775104D01*
X442894Y776611D01*
X440111Y779394D01*
X438604Y783032D01*
X438604Y786968D01*
X440111Y790606D01*
X442894Y793389D01*
X446532Y794896D01*
X450468Y794896D01*
X454106Y793389D01*
X456889Y790606D01*
X458396Y786968D01*
X458396Y783032D01*
X456889Y779394D01*
X454106Y776611D01*
X450468Y775104D01*
X446532Y775104D01*
G37*
%LPD*%
%LPC*%
G36*
X396532Y775104D02*
X396532Y775104D01*
X392894Y776611D01*
X390111Y779394D01*
X388604Y783032D01*
X388604Y786968D01*
X390111Y790606D01*
X392894Y793389D01*
X396532Y794896D01*
X400468Y794896D01*
X404106Y793389D01*
X406889Y790606D01*
X408396Y786968D01*
X408396Y783032D01*
X406889Y779394D01*
X404106Y776611D01*
X400468Y775104D01*
X396532Y775104D01*
G37*
%LPD*%
%LPC*%
G36*
X346532Y775104D02*
X346532Y775104D01*
X342894Y776611D01*
X340111Y779394D01*
X338604Y783032D01*
X338604Y786968D01*
X340111Y790606D01*
X342894Y793389D01*
X346532Y794896D01*
X350468Y794896D01*
X354106Y793389D01*
X356889Y790606D01*
X358396Y786968D01*
X358396Y783032D01*
X356889Y779394D01*
X354106Y776611D01*
X350468Y775104D01*
X346532Y775104D01*
G37*
%LPD*%
%LPC*%
G36*
X321532Y775104D02*
X321532Y775104D01*
X317894Y776611D01*
X315111Y779394D01*
X313604Y783032D01*
X313604Y786968D01*
X315111Y790606D01*
X317894Y793389D01*
X321532Y794896D01*
X325468Y794896D01*
X329106Y793389D01*
X331889Y790606D01*
X333396Y786968D01*
X333396Y783032D01*
X331889Y779394D01*
X329106Y776611D01*
X325468Y775104D01*
X321532Y775104D01*
G37*
%LPD*%
%LPC*%
G36*
X286532Y775104D02*
X286532Y775104D01*
X282894Y776611D01*
X280111Y779394D01*
X278604Y783032D01*
X278604Y786968D01*
X280111Y790606D01*
X282894Y793389D01*
X286532Y794896D01*
X290468Y794896D01*
X294106Y793389D01*
X296889Y790606D01*
X298396Y786968D01*
X298396Y783032D01*
X296889Y779394D01*
X294106Y776611D01*
X290468Y775104D01*
X286532Y775104D01*
G37*
%LPD*%
%LPC*%
G36*
X496532Y800104D02*
X496532Y800104D01*
X492894Y801611D01*
X490111Y804394D01*
X488604Y808032D01*
X488604Y811968D01*
X490111Y815606D01*
X492894Y818389D01*
X496532Y819896D01*
X500468Y819896D01*
X504106Y818389D01*
X506889Y815606D01*
X508396Y811968D01*
X508396Y808032D01*
X506889Y804394D01*
X504106Y801611D01*
X500468Y800104D01*
X496532Y800104D01*
G37*
%LPD*%
%LPC*%
G36*
X521532Y850104D02*
X521532Y850104D01*
X517894Y851611D01*
X515111Y854394D01*
X513604Y858032D01*
X513604Y861968D01*
X515111Y865606D01*
X517894Y868389D01*
X521532Y869896D01*
X525468Y869896D01*
X529106Y868389D01*
X531889Y865606D01*
X533396Y861968D01*
X533396Y858032D01*
X531889Y854394D01*
X529106Y851611D01*
X525468Y850104D01*
X521532Y850104D01*
G37*
%LPD*%
%LPC*%
G36*
X546532Y850104D02*
X546532Y850104D01*
X542894Y851611D01*
X540111Y854394D01*
X538604Y858032D01*
X538604Y861968D01*
X540111Y865606D01*
X542894Y868389D01*
X546532Y869896D01*
X550468Y869896D01*
X554106Y868389D01*
X556889Y865606D01*
X558396Y861968D01*
X558396Y858032D01*
X556889Y854394D01*
X554106Y851611D01*
X550468Y850104D01*
X546532Y850104D01*
G37*
%LPD*%
%LPC*%
G36*
X496532Y850104D02*
X496532Y850104D01*
X492894Y851611D01*
X490111Y854394D01*
X488604Y858032D01*
X488604Y861968D01*
X490111Y865606D01*
X492894Y868389D01*
X496532Y869896D01*
X500468Y869896D01*
X504106Y868389D01*
X506889Y865606D01*
X508396Y861968D01*
X508396Y858032D01*
X506889Y854394D01*
X504106Y851611D01*
X500468Y850104D01*
X496532Y850104D01*
G37*
%LPD*%
%LPC*%
G36*
X471532Y850104D02*
X471532Y850104D01*
X467894Y851611D01*
X465111Y854394D01*
X463604Y858032D01*
X463604Y861968D01*
X465111Y865606D01*
X467894Y868389D01*
X471532Y869896D01*
X475468Y869896D01*
X479106Y868389D01*
X481889Y865606D01*
X483396Y861968D01*
X483396Y858032D01*
X481889Y854394D01*
X479106Y851611D01*
X475468Y850104D01*
X471532Y850104D01*
G37*
%LPD*%
%LPC*%
G36*
X371532Y850104D02*
X371532Y850104D01*
X367894Y851611D01*
X365111Y854394D01*
X363604Y858032D01*
X363604Y861968D01*
X365111Y865606D01*
X367894Y868389D01*
X371532Y869896D01*
X375468Y869896D01*
X379106Y868389D01*
X381889Y865606D01*
X383396Y861968D01*
X383396Y858032D01*
X381889Y854394D01*
X379106Y851611D01*
X375468Y850104D01*
X371532Y850104D01*
G37*
%LPD*%
%LPC*%
G36*
X421532Y850104D02*
X421532Y850104D01*
X417894Y851611D01*
X415111Y854394D01*
X413604Y858032D01*
X413604Y861968D01*
X415111Y865606D01*
X417894Y868389D01*
X421532Y869896D01*
X425468Y869896D01*
X429106Y868389D01*
X431889Y865606D01*
X433396Y861968D01*
X433396Y858032D01*
X431889Y854394D01*
X429106Y851611D01*
X425468Y850104D01*
X421532Y850104D01*
G37*
%LPD*%
%LPC*%
G36*
X396532Y850104D02*
X396532Y850104D01*
X392894Y851611D01*
X390111Y854394D01*
X388604Y858032D01*
X388604Y861968D01*
X390111Y865606D01*
X392894Y868389D01*
X396532Y869896D01*
X400468Y869896D01*
X404106Y868389D01*
X406889Y865606D01*
X408396Y861968D01*
X408396Y858032D01*
X406889Y854394D01*
X404106Y851611D01*
X400468Y850104D01*
X396532Y850104D01*
G37*
%LPD*%
%LPC*%
G36*
X346532Y850104D02*
X346532Y850104D01*
X342894Y851611D01*
X340111Y854394D01*
X338604Y858032D01*
X338604Y861968D01*
X340111Y865606D01*
X342894Y868389D01*
X346532Y869896D01*
X350468Y869896D01*
X354106Y868389D01*
X356889Y865606D01*
X358396Y861968D01*
X358396Y858032D01*
X356889Y854394D01*
X354106Y851611D01*
X350468Y850104D01*
X346532Y850104D01*
G37*
%LPD*%
%LPC*%
G36*
X471532Y800104D02*
X471532Y800104D01*
X467894Y801611D01*
X465111Y804394D01*
X463604Y808032D01*
X463604Y811968D01*
X465111Y815606D01*
X467894Y818389D01*
X471532Y819896D01*
X475468Y819896D01*
X479106Y818389D01*
X481889Y815606D01*
X483396Y811968D01*
X483396Y808032D01*
X481889Y804394D01*
X479106Y801611D01*
X475468Y800104D01*
X471532Y800104D01*
G37*
%LPD*%
%LPC*%
G36*
X321532Y850104D02*
X321532Y850104D01*
X317894Y851611D01*
X315111Y854394D01*
X313604Y858032D01*
X313604Y861968D01*
X315111Y865606D01*
X317894Y868389D01*
X321532Y869896D01*
X325468Y869896D01*
X329106Y868389D01*
X331889Y865606D01*
X333396Y861968D01*
X333396Y858032D01*
X331889Y854394D01*
X329106Y851611D01*
X325468Y850104D01*
X321532Y850104D01*
G37*
%LPD*%
%LPC*%
G36*
X446532Y850104D02*
X446532Y850104D01*
X442894Y851611D01*
X440111Y854394D01*
X438604Y858032D01*
X438604Y861968D01*
X440111Y865606D01*
X442894Y868389D01*
X446532Y869896D01*
X450468Y869896D01*
X454106Y868389D01*
X456889Y865606D01*
X458396Y861968D01*
X458396Y858032D01*
X456889Y854394D01*
X454106Y851611D01*
X450468Y850104D01*
X446532Y850104D01*
G37*
%LPD*%
%LPC*%
G36*
X371532Y825104D02*
X371532Y825104D01*
X367894Y826611D01*
X365111Y829394D01*
X363604Y833032D01*
X363604Y836968D01*
X365111Y840606D01*
X367894Y843389D01*
X371532Y844896D01*
X375468Y844896D01*
X379106Y843389D01*
X381889Y840606D01*
X383396Y836968D01*
X383396Y833032D01*
X381889Y829394D01*
X379106Y826611D01*
X375468Y825104D01*
X371532Y825104D01*
G37*
%LPD*%
%LPC*%
G36*
X421532Y825104D02*
X421532Y825104D01*
X417894Y826611D01*
X415111Y829394D01*
X413604Y833032D01*
X413604Y836968D01*
X415111Y840606D01*
X417894Y843389D01*
X421532Y844896D01*
X425468Y844896D01*
X429106Y843389D01*
X431889Y840606D01*
X433396Y836968D01*
X433396Y833032D01*
X431889Y829394D01*
X429106Y826611D01*
X425468Y825104D01*
X421532Y825104D01*
G37*
%LPD*%
%LPC*%
G36*
X496532Y825104D02*
X496532Y825104D01*
X492894Y826611D01*
X490111Y829394D01*
X488604Y833032D01*
X488604Y836968D01*
X490111Y840606D01*
X492894Y843389D01*
X496532Y844896D01*
X500468Y844896D01*
X504106Y843389D01*
X506889Y840606D01*
X508396Y836968D01*
X508396Y833032D01*
X506889Y829394D01*
X504106Y826611D01*
X500468Y825104D01*
X496532Y825104D01*
G37*
%LPD*%
%LPC*%
G36*
X346532Y825104D02*
X346532Y825104D01*
X342894Y826611D01*
X340111Y829394D01*
X338604Y833032D01*
X338604Y836968D01*
X340111Y840606D01*
X342894Y843389D01*
X346532Y844896D01*
X350468Y844896D01*
X354106Y843389D01*
X356889Y840606D01*
X358396Y836968D01*
X358396Y833032D01*
X356889Y829394D01*
X354106Y826611D01*
X350468Y825104D01*
X346532Y825104D01*
G37*
%LPD*%
%LPC*%
G36*
X446532Y800104D02*
X446532Y800104D01*
X442894Y801611D01*
X440111Y804394D01*
X438604Y808032D01*
X438604Y811968D01*
X440111Y815606D01*
X442894Y818389D01*
X446532Y819896D01*
X450468Y819896D01*
X454106Y818389D01*
X456889Y815606D01*
X458396Y811968D01*
X458396Y808032D01*
X456889Y804394D01*
X454106Y801611D01*
X450468Y800104D01*
X446532Y800104D01*
G37*
%LPD*%
%LPC*%
G36*
X546532Y800104D02*
X546532Y800104D01*
X542894Y801611D01*
X540111Y804394D01*
X538604Y808032D01*
X538604Y811968D01*
X540111Y815606D01*
X542894Y818389D01*
X546532Y819896D01*
X550468Y819896D01*
X554106Y818389D01*
X556889Y815606D01*
X558396Y811968D01*
X558396Y808032D01*
X556889Y804394D01*
X554106Y801611D01*
X550468Y800104D01*
X546532Y800104D01*
G37*
%LPD*%
%LPC*%
G36*
X521532Y800104D02*
X521532Y800104D01*
X517894Y801611D01*
X515111Y804394D01*
X513604Y808032D01*
X513604Y811968D01*
X515111Y815606D01*
X517894Y818389D01*
X521532Y819896D01*
X525468Y819896D01*
X529106Y818389D01*
X531889Y815606D01*
X533396Y811968D01*
X533396Y808032D01*
X531889Y804394D01*
X529106Y801611D01*
X525468Y800104D01*
X521532Y800104D01*
G37*
%LPD*%
%LPC*%
G36*
X249532Y825104D02*
X249532Y825104D01*
X245894Y826611D01*
X243111Y829394D01*
X241604Y833032D01*
X241604Y836968D01*
X243111Y840606D01*
X245894Y843389D01*
X249532Y844896D01*
X253468Y844896D01*
X257106Y843389D01*
X259889Y840606D01*
X261396Y836968D01*
X261396Y833032D01*
X259889Y829394D01*
X257106Y826611D01*
X253468Y825104D01*
X249532Y825104D01*
G37*
%LPD*%
%LPC*%
G36*
X286532Y825104D02*
X286532Y825104D01*
X282894Y826611D01*
X280111Y829394D01*
X278604Y833032D01*
X278604Y836968D01*
X280111Y840606D01*
X282894Y843389D01*
X286532Y844896D01*
X290468Y844896D01*
X294106Y843389D01*
X296889Y840606D01*
X298396Y836968D01*
X298396Y833032D01*
X296889Y829394D01*
X294106Y826611D01*
X290468Y825104D01*
X286532Y825104D01*
G37*
%LPD*%
%LPC*%
G36*
X521532Y825104D02*
X521532Y825104D01*
X517894Y826611D01*
X515111Y829394D01*
X513604Y833032D01*
X513604Y836968D01*
X515111Y840606D01*
X517894Y843389D01*
X521532Y844896D01*
X525468Y844896D01*
X529106Y843389D01*
X531889Y840606D01*
X533396Y836968D01*
X533396Y833032D01*
X531889Y829394D01*
X529106Y826611D01*
X525468Y825104D01*
X521532Y825104D01*
G37*
%LPD*%
%LPC*%
G36*
X321532Y825104D02*
X321532Y825104D01*
X317894Y826611D01*
X315111Y829394D01*
X313604Y833032D01*
X313604Y836968D01*
X315111Y840606D01*
X317894Y843389D01*
X321532Y844896D01*
X325468Y844896D01*
X329106Y843389D01*
X331889Y840606D01*
X333396Y836968D01*
X333396Y833032D01*
X331889Y829394D01*
X329106Y826611D01*
X325468Y825104D01*
X321532Y825104D01*
G37*
%LPD*%
%LPC*%
G36*
X396532Y825104D02*
X396532Y825104D01*
X392894Y826611D01*
X390111Y829394D01*
X388604Y833032D01*
X388604Y836968D01*
X390111Y840606D01*
X392894Y843389D01*
X396532Y844896D01*
X400468Y844896D01*
X404106Y843389D01*
X406889Y840606D01*
X408396Y836968D01*
X408396Y833032D01*
X406889Y829394D01*
X404106Y826611D01*
X400468Y825104D01*
X396532Y825104D01*
G37*
%LPD*%
%LPC*%
G36*
X446532Y825104D02*
X446532Y825104D01*
X442894Y826611D01*
X440111Y829394D01*
X438604Y833032D01*
X438604Y836968D01*
X440111Y840606D01*
X442894Y843389D01*
X446532Y844896D01*
X450468Y844896D01*
X454106Y843389D01*
X456889Y840606D01*
X458396Y836968D01*
X458396Y833032D01*
X456889Y829394D01*
X454106Y826611D01*
X450468Y825104D01*
X446532Y825104D01*
G37*
%LPD*%
%LPC*%
G36*
X546532Y825104D02*
X546532Y825104D01*
X542894Y826611D01*
X540111Y829394D01*
X538604Y833032D01*
X538604Y836968D01*
X540111Y840606D01*
X542894Y843389D01*
X546532Y844896D01*
X550468Y844896D01*
X554106Y843389D01*
X556889Y840606D01*
X558396Y836968D01*
X558396Y833032D01*
X556889Y829394D01*
X554106Y826611D01*
X550468Y825104D01*
X546532Y825104D01*
G37*
%LPD*%
%LPC*%
G36*
X471532Y825104D02*
X471532Y825104D01*
X467894Y826611D01*
X465111Y829394D01*
X463604Y833032D01*
X463604Y836968D01*
X465111Y840606D01*
X467894Y843389D01*
X471532Y844896D01*
X475468Y844896D01*
X479106Y843389D01*
X481889Y840606D01*
X483396Y836968D01*
X483396Y833032D01*
X481889Y829394D01*
X479106Y826611D01*
X475468Y825104D01*
X471532Y825104D01*
G37*
%LPD*%
%LPC*%
G36*
X618713Y419036D02*
X618713Y419036D01*
X615886Y421863D01*
X615886Y424371D01*
X615878Y424428D01*
X615879Y424487D01*
X615858Y424568D01*
X615846Y424652D01*
X615822Y424705D01*
X615807Y424762D01*
X615764Y424834D01*
X615730Y424911D01*
X615692Y424956D01*
X615662Y425006D01*
X615600Y425064D01*
X615546Y425128D01*
X615497Y425161D01*
X615455Y425201D01*
X615380Y425239D01*
X615309Y425286D01*
X615254Y425304D01*
X615202Y425330D01*
X615134Y425342D01*
X615038Y425372D01*
X614939Y425374D01*
X614871Y425386D01*
X612363Y425386D01*
X609536Y428213D01*
X609536Y432212D01*
X612363Y435039D01*
X614871Y435039D01*
X614928Y435047D01*
X614987Y435046D01*
X615068Y435067D01*
X615152Y435079D01*
X615205Y435103D01*
X615262Y435118D01*
X615334Y435161D01*
X615411Y435195D01*
X615456Y435233D01*
X615506Y435263D01*
X615564Y435325D01*
X615628Y435379D01*
X615661Y435428D01*
X615701Y435470D01*
X615739Y435545D01*
X615786Y435616D01*
X615804Y435671D01*
X615830Y435723D01*
X615842Y435791D01*
X615872Y435887D01*
X615874Y435986D01*
X615886Y436054D01*
X615886Y437071D01*
X615878Y437128D01*
X615879Y437187D01*
X615858Y437268D01*
X615846Y437352D01*
X615822Y437405D01*
X615807Y437462D01*
X615764Y437534D01*
X615730Y437611D01*
X615692Y437656D01*
X615662Y437706D01*
X615600Y437764D01*
X615546Y437828D01*
X615497Y437861D01*
X615455Y437901D01*
X615380Y437939D01*
X615309Y437986D01*
X615254Y438004D01*
X615202Y438030D01*
X615134Y438042D01*
X615038Y438072D01*
X614939Y438074D01*
X614871Y438086D01*
X612363Y438086D01*
X609536Y440913D01*
X609536Y444912D01*
X612363Y447739D01*
X616362Y447739D01*
X619189Y444912D01*
X619189Y442404D01*
X619197Y442347D01*
X619196Y442288D01*
X619217Y442207D01*
X619229Y442123D01*
X619253Y442070D01*
X619268Y442013D01*
X619311Y441941D01*
X619345Y441864D01*
X619383Y441819D01*
X619413Y441769D01*
X619475Y441711D01*
X619529Y441647D01*
X619578Y441614D01*
X619620Y441574D01*
X619695Y441536D01*
X619766Y441489D01*
X619821Y441471D01*
X619873Y441445D01*
X619941Y441433D01*
X620037Y441403D01*
X620136Y441401D01*
X620204Y441389D01*
X622712Y441389D01*
X625539Y438562D01*
X625539Y434563D01*
X622712Y431736D01*
X620204Y431736D01*
X620147Y431728D01*
X620088Y431729D01*
X620007Y431708D01*
X619923Y431696D01*
X619870Y431672D01*
X619813Y431657D01*
X619741Y431614D01*
X619664Y431580D01*
X619619Y431542D01*
X619569Y431512D01*
X619511Y431450D01*
X619447Y431396D01*
X619414Y431347D01*
X619374Y431305D01*
X619336Y431230D01*
X619289Y431159D01*
X619271Y431104D01*
X619245Y431052D01*
X619233Y430984D01*
X619203Y430888D01*
X619201Y430789D01*
X619189Y430721D01*
X619189Y429704D01*
X619197Y429647D01*
X619196Y429588D01*
X619217Y429507D01*
X619229Y429423D01*
X619253Y429370D01*
X619268Y429313D01*
X619311Y429241D01*
X619345Y429164D01*
X619383Y429119D01*
X619413Y429069D01*
X619475Y429011D01*
X619529Y428947D01*
X619578Y428914D01*
X619620Y428874D01*
X619695Y428836D01*
X619766Y428789D01*
X619821Y428771D01*
X619873Y428745D01*
X619941Y428733D01*
X620037Y428703D01*
X620136Y428701D01*
X620204Y428689D01*
X622712Y428689D01*
X625539Y425862D01*
X625539Y421863D01*
X622712Y419036D01*
X618713Y419036D01*
G37*
%LPD*%
%LPC*%
G36*
X385582Y264159D02*
X385582Y264159D01*
X382314Y265513D01*
X379813Y268014D01*
X378459Y271282D01*
X378459Y274818D01*
X379813Y278086D01*
X382314Y280587D01*
X385582Y281941D01*
X389118Y281941D01*
X392386Y280587D01*
X394887Y278086D01*
X396241Y274818D01*
X396241Y271282D01*
X394887Y268014D01*
X392386Y265513D01*
X389118Y264159D01*
X385582Y264159D01*
G37*
%LPD*%
%LPC*%
G36*
X360182Y264159D02*
X360182Y264159D01*
X356914Y265513D01*
X354413Y268014D01*
X353059Y271282D01*
X353059Y274818D01*
X354413Y278086D01*
X356914Y280587D01*
X360182Y281941D01*
X363718Y281941D01*
X366986Y280587D01*
X369487Y278086D01*
X370841Y274818D01*
X370841Y271282D01*
X369487Y268014D01*
X366986Y265513D01*
X363718Y264159D01*
X360182Y264159D01*
G37*
%LPD*%
%LPC*%
G36*
X428444Y438784D02*
X428444Y438784D01*
X425176Y440138D01*
X422675Y442639D01*
X421322Y445907D01*
X421322Y449443D01*
X422675Y452711D01*
X425176Y455212D01*
X428444Y456566D01*
X431981Y456566D01*
X435249Y455212D01*
X437750Y452711D01*
X439103Y449443D01*
X439103Y445907D01*
X437750Y442639D01*
X435249Y440138D01*
X431981Y438784D01*
X428444Y438784D01*
G37*
%LPD*%
%LPC*%
G36*
X403044Y438784D02*
X403044Y438784D01*
X399776Y440138D01*
X397275Y442639D01*
X395922Y445907D01*
X395922Y449443D01*
X397275Y452711D01*
X399776Y455212D01*
X403044Y456566D01*
X406581Y456566D01*
X409849Y455212D01*
X412350Y452711D01*
X413703Y449443D01*
X413703Y445907D01*
X412350Y442639D01*
X409849Y440138D01*
X406581Y438784D01*
X403044Y438784D01*
G37*
%LPD*%
%LPC*%
G36*
X403044Y464184D02*
X403044Y464184D01*
X399776Y465538D01*
X397275Y468039D01*
X395922Y471307D01*
X395922Y474843D01*
X397275Y478111D01*
X399776Y480612D01*
X403044Y481966D01*
X406581Y481966D01*
X409849Y480612D01*
X412350Y478111D01*
X413703Y474843D01*
X413703Y471307D01*
X412350Y468039D01*
X409849Y465538D01*
X406581Y464184D01*
X403044Y464184D01*
G37*
%LPD*%
%LPC*%
G36*
X410982Y264159D02*
X410982Y264159D01*
X407714Y265513D01*
X405213Y268014D01*
X403859Y271282D01*
X403859Y274818D01*
X405213Y278086D01*
X407714Y280587D01*
X410982Y281941D01*
X414518Y281941D01*
X417786Y280587D01*
X420287Y278086D01*
X421641Y274818D01*
X421641Y271282D01*
X420287Y268014D01*
X417786Y265513D01*
X414518Y264159D01*
X410982Y264159D01*
G37*
%LPD*%
%LPC*%
G36*
X428444Y464184D02*
X428444Y464184D01*
X425176Y465538D01*
X422675Y468039D01*
X421322Y471307D01*
X421322Y474843D01*
X422675Y478111D01*
X425176Y480612D01*
X428444Y481966D01*
X431981Y481966D01*
X435249Y480612D01*
X437750Y478111D01*
X439103Y474843D01*
X439103Y471307D01*
X437750Y468039D01*
X435249Y465538D01*
X431981Y464184D01*
X428444Y464184D01*
G37*
%LPD*%
%LPC*%
G36*
X403044Y413384D02*
X403044Y413384D01*
X399776Y414738D01*
X397275Y417239D01*
X395922Y420507D01*
X395922Y424043D01*
X397275Y427311D01*
X399776Y429812D01*
X403044Y431166D01*
X406581Y431166D01*
X409849Y429812D01*
X412350Y427311D01*
X413703Y424043D01*
X413703Y420507D01*
X412350Y417239D01*
X409849Y414738D01*
X406581Y413384D01*
X403044Y413384D01*
G37*
%LPD*%
%LPC*%
G36*
X428444Y413384D02*
X428444Y413384D01*
X425176Y414738D01*
X422675Y417239D01*
X421322Y420507D01*
X421322Y424043D01*
X422675Y427311D01*
X425176Y429812D01*
X428444Y431166D01*
X431981Y431166D01*
X435249Y429812D01*
X437750Y427311D01*
X439103Y424043D01*
X439103Y420507D01*
X437750Y417239D01*
X435249Y414738D01*
X431981Y413384D01*
X428444Y413384D01*
G37*
%LPD*%
%LPC*%
G36*
X403044Y489584D02*
X403044Y489584D01*
X399776Y490938D01*
X397275Y493439D01*
X395922Y496707D01*
X395922Y500243D01*
X397275Y503511D01*
X399776Y506012D01*
X403044Y507366D01*
X406581Y507366D01*
X409849Y506012D01*
X412350Y503511D01*
X413703Y500243D01*
X413703Y496707D01*
X412350Y493439D01*
X409849Y490938D01*
X406581Y489584D01*
X403044Y489584D01*
G37*
%LPD*%
%LPC*%
G36*
X403044Y514984D02*
X403044Y514984D01*
X399776Y516338D01*
X397275Y518839D01*
X395922Y522107D01*
X395922Y525643D01*
X397275Y528911D01*
X399776Y531412D01*
X403044Y532766D01*
X406581Y532766D01*
X409849Y531412D01*
X412350Y528911D01*
X413703Y525643D01*
X413703Y522107D01*
X412350Y518839D01*
X409849Y516338D01*
X406581Y514984D01*
X403044Y514984D01*
G37*
%LPD*%
%LPC*%
G36*
X436382Y86359D02*
X436382Y86359D01*
X433114Y87713D01*
X430613Y90214D01*
X429259Y93482D01*
X429259Y97018D01*
X430613Y100286D01*
X433114Y102787D01*
X436382Y104141D01*
X439918Y104141D01*
X443186Y102787D01*
X445687Y100286D01*
X447041Y97018D01*
X447041Y93482D01*
X445687Y90214D01*
X443186Y87713D01*
X439918Y86359D01*
X436382Y86359D01*
G37*
%LPD*%
%LPC*%
G36*
X410982Y86359D02*
X410982Y86359D01*
X407714Y87713D01*
X405213Y90214D01*
X403859Y93482D01*
X403859Y97018D01*
X405213Y100286D01*
X407714Y102787D01*
X410982Y104141D01*
X414518Y104141D01*
X417786Y102787D01*
X420287Y100286D01*
X421641Y97018D01*
X421641Y93482D01*
X420287Y90214D01*
X417786Y87713D01*
X414518Y86359D01*
X410982Y86359D01*
G37*
%LPD*%
%LPC*%
G36*
X385582Y86359D02*
X385582Y86359D01*
X382314Y87713D01*
X379813Y90214D01*
X378459Y93482D01*
X378459Y97018D01*
X379813Y100286D01*
X382314Y102787D01*
X385582Y104141D01*
X389118Y104141D01*
X392386Y102787D01*
X394887Y100286D01*
X396241Y97018D01*
X396241Y93482D01*
X394887Y90214D01*
X392386Y87713D01*
X389118Y86359D01*
X385582Y86359D01*
G37*
%LPD*%
%LPC*%
G36*
X428444Y387984D02*
X428444Y387984D01*
X425176Y389338D01*
X422675Y391839D01*
X421322Y395107D01*
X421322Y398643D01*
X422675Y401911D01*
X425176Y404412D01*
X428444Y405766D01*
X431981Y405766D01*
X435249Y404412D01*
X437750Y401911D01*
X439103Y398643D01*
X439103Y395107D01*
X437750Y391839D01*
X435249Y389338D01*
X431981Y387984D01*
X428444Y387984D01*
G37*
%LPD*%
%LPC*%
G36*
X403044Y387984D02*
X403044Y387984D01*
X399776Y389338D01*
X397275Y391839D01*
X395922Y395107D01*
X395922Y398643D01*
X397275Y401911D01*
X399776Y404412D01*
X403044Y405766D01*
X406581Y405766D01*
X409849Y404412D01*
X412350Y401911D01*
X413703Y398643D01*
X413703Y395107D01*
X412350Y391839D01*
X409849Y389338D01*
X406581Y387984D01*
X403044Y387984D01*
G37*
%LPD*%
%LPC*%
G36*
X428444Y514984D02*
X428444Y514984D01*
X425176Y516338D01*
X422675Y518839D01*
X421322Y522107D01*
X421322Y525643D01*
X422675Y528911D01*
X425176Y531412D01*
X428444Y532766D01*
X431981Y532766D01*
X435249Y531412D01*
X437750Y528911D01*
X439103Y525643D01*
X439103Y522107D01*
X437750Y518839D01*
X435249Y516338D01*
X431981Y514984D01*
X428444Y514984D01*
G37*
%LPD*%
%LPC*%
G36*
X77376Y407923D02*
X77376Y407923D01*
X74548Y410751D01*
X74548Y414749D01*
X77387Y417588D01*
X77422Y417635D01*
X77465Y417675D01*
X77508Y417748D01*
X77558Y417816D01*
X77579Y417870D01*
X77609Y417921D01*
X77629Y418002D01*
X77659Y418081D01*
X77664Y418140D01*
X77679Y418196D01*
X77676Y418280D01*
X77683Y418365D01*
X77672Y418422D01*
X77670Y418480D01*
X77644Y418561D01*
X77627Y418643D01*
X77600Y418695D01*
X77582Y418751D01*
X77542Y418807D01*
X77496Y418896D01*
X77427Y418968D01*
X77387Y419024D01*
X74548Y421863D01*
X74548Y425862D01*
X77387Y428701D01*
X77422Y428748D01*
X77465Y428788D01*
X77508Y428861D01*
X77558Y428928D01*
X77579Y428983D01*
X77609Y429033D01*
X77629Y429115D01*
X77659Y429194D01*
X77664Y429252D01*
X77679Y429309D01*
X77676Y429393D01*
X77683Y429477D01*
X77672Y429534D01*
X77670Y429593D01*
X77644Y429673D01*
X77627Y429756D01*
X77600Y429808D01*
X77582Y429863D01*
X77542Y429919D01*
X77496Y430008D01*
X77427Y430080D01*
X77387Y430137D01*
X74548Y432976D01*
X74548Y436974D01*
X77376Y439802D01*
X81374Y439802D01*
X84202Y436974D01*
X84202Y432976D01*
X81363Y430137D01*
X81328Y430090D01*
X81285Y430050D01*
X81242Y429977D01*
X81192Y429909D01*
X81171Y429855D01*
X81141Y429804D01*
X81121Y429723D01*
X81091Y429644D01*
X81086Y429585D01*
X81071Y429529D01*
X81074Y429445D01*
X81067Y429360D01*
X81078Y429303D01*
X81080Y429245D01*
X81106Y429164D01*
X81123Y429082D01*
X81150Y429030D01*
X81168Y428974D01*
X81208Y428918D01*
X81254Y428829D01*
X81323Y428757D01*
X81363Y428701D01*
X84202Y425862D01*
X84202Y421863D01*
X81363Y419024D01*
X81328Y418977D01*
X81285Y418937D01*
X81242Y418864D01*
X81192Y418797D01*
X81171Y418742D01*
X81141Y418692D01*
X81121Y418610D01*
X81091Y418531D01*
X81086Y418473D01*
X81071Y418416D01*
X81074Y418332D01*
X81067Y418248D01*
X81078Y418191D01*
X81080Y418132D01*
X81106Y418052D01*
X81123Y417969D01*
X81150Y417917D01*
X81168Y417862D01*
X81208Y417806D01*
X81254Y417717D01*
X81323Y417645D01*
X81363Y417588D01*
X84202Y414749D01*
X84202Y410751D01*
X81374Y407923D01*
X77376Y407923D01*
G37*
%LPD*%
%LPC*%
G36*
X277401Y530161D02*
X277401Y530161D01*
X274573Y532988D01*
X274573Y533584D01*
X274569Y533613D01*
X274572Y533642D01*
X274549Y533753D01*
X274533Y533865D01*
X274521Y533892D01*
X274516Y533921D01*
X274463Y534021D01*
X274417Y534125D01*
X274398Y534147D01*
X274385Y534173D01*
X274307Y534255D01*
X274234Y534342D01*
X274209Y534358D01*
X274189Y534379D01*
X274091Y534436D01*
X273997Y534499D01*
X273969Y534508D01*
X273944Y534523D01*
X273834Y534551D01*
X273726Y534585D01*
X273696Y534586D01*
X273668Y534593D01*
X273555Y534589D01*
X273442Y534592D01*
X273413Y534585D01*
X273384Y534584D01*
X273276Y534549D01*
X273167Y534520D01*
X273141Y534506D01*
X273113Y534496D01*
X273050Y534451D01*
X272922Y534375D01*
X272879Y534330D01*
X272840Y534302D01*
X270287Y531748D01*
X266288Y531748D01*
X263461Y534576D01*
X263461Y538671D01*
X263453Y538728D01*
X263454Y538787D01*
X263433Y538868D01*
X263421Y538952D01*
X263397Y539005D01*
X263382Y539062D01*
X263339Y539134D01*
X263305Y539211D01*
X263267Y539256D01*
X263237Y539306D01*
X263175Y539364D01*
X263121Y539428D01*
X263072Y539461D01*
X263030Y539501D01*
X262955Y539539D01*
X262884Y539586D01*
X262829Y539604D01*
X262777Y539630D01*
X262709Y539642D01*
X262613Y539672D01*
X262514Y539674D01*
X262446Y539686D01*
X259938Y539686D01*
X257111Y542513D01*
X257111Y546512D01*
X259938Y549339D01*
X263937Y549339D01*
X266764Y546512D01*
X266764Y542417D01*
X266772Y542359D01*
X266771Y542301D01*
X266792Y542219D01*
X266804Y542135D01*
X266828Y542082D01*
X266843Y542026D01*
X266886Y541953D01*
X266920Y541876D01*
X266958Y541831D01*
X266988Y541781D01*
X267050Y541723D01*
X267104Y541659D01*
X267153Y541627D01*
X267195Y541587D01*
X267270Y541548D01*
X267341Y541501D01*
X267396Y541484D01*
X267448Y541457D01*
X267516Y541446D01*
X267612Y541416D01*
X267711Y541413D01*
X267779Y541402D01*
X270287Y541402D01*
X273114Y538574D01*
X273114Y537979D01*
X273118Y537950D01*
X273116Y537920D01*
X273138Y537809D01*
X273154Y537697D01*
X273166Y537671D01*
X273172Y537642D01*
X273224Y537541D01*
X273270Y537438D01*
X273289Y537415D01*
X273303Y537389D01*
X273381Y537307D01*
X273454Y537221D01*
X273478Y537205D01*
X273499Y537183D01*
X273596Y537126D01*
X273691Y537063D01*
X273719Y537054D01*
X273744Y537040D01*
X273853Y537012D01*
X273962Y536977D01*
X273991Y536977D01*
X274019Y536970D01*
X274132Y536973D01*
X274246Y536970D01*
X274274Y536978D01*
X274304Y536979D01*
X274411Y537013D01*
X274521Y537042D01*
X274546Y537057D01*
X274574Y537066D01*
X274638Y537112D01*
X274765Y537187D01*
X274808Y537233D01*
X274847Y537261D01*
X277401Y539814D01*
X281399Y539814D01*
X284227Y536987D01*
X284227Y532988D01*
X281399Y530161D01*
X277401Y530161D01*
G37*
%LPD*%
%LPC*%
G36*
X645701Y166623D02*
X645701Y166623D01*
X642873Y169451D01*
X642873Y170046D01*
X642869Y170075D01*
X642872Y170105D01*
X642849Y170216D01*
X642833Y170328D01*
X642821Y170354D01*
X642816Y170383D01*
X642763Y170484D01*
X642717Y170587D01*
X642698Y170610D01*
X642685Y170636D01*
X642607Y170718D01*
X642534Y170804D01*
X642509Y170820D01*
X642489Y170842D01*
X642391Y170899D01*
X642297Y170962D01*
X642269Y170971D01*
X642244Y170985D01*
X642134Y171013D01*
X642026Y171048D01*
X641996Y171048D01*
X641968Y171055D01*
X641855Y171052D01*
X641742Y171055D01*
X641713Y171047D01*
X641684Y171046D01*
X641576Y171012D01*
X641467Y170983D01*
X641441Y170968D01*
X641413Y170959D01*
X641349Y170913D01*
X641222Y170838D01*
X641179Y170792D01*
X641140Y170764D01*
X640174Y169798D01*
X636176Y169798D01*
X633348Y172626D01*
X633348Y176624D01*
X636176Y179452D01*
X640174Y179452D01*
X643002Y176624D01*
X643002Y176029D01*
X643006Y176000D01*
X643003Y175970D01*
X643026Y175859D01*
X643042Y175747D01*
X643054Y175721D01*
X643059Y175692D01*
X643112Y175591D01*
X643158Y175488D01*
X643177Y175465D01*
X643190Y175439D01*
X643268Y175357D01*
X643341Y175271D01*
X643366Y175255D01*
X643386Y175233D01*
X643484Y175176D01*
X643578Y175113D01*
X643606Y175104D01*
X643631Y175090D01*
X643741Y175062D01*
X643849Y175027D01*
X643879Y175027D01*
X643907Y175020D01*
X644020Y175023D01*
X644133Y175020D01*
X644162Y175028D01*
X644191Y175029D01*
X644299Y175063D01*
X644408Y175092D01*
X644434Y175107D01*
X644462Y175116D01*
X644526Y175162D01*
X644653Y175237D01*
X644696Y175283D01*
X644735Y175311D01*
X645701Y176277D01*
X646296Y176277D01*
X646325Y176281D01*
X646355Y176278D01*
X646466Y176301D01*
X646578Y176317D01*
X646604Y176329D01*
X646633Y176334D01*
X646734Y176387D01*
X646837Y176433D01*
X646860Y176452D01*
X646886Y176465D01*
X646968Y176543D01*
X647054Y176616D01*
X647070Y176641D01*
X647092Y176661D01*
X647149Y176759D01*
X647212Y176853D01*
X647221Y176881D01*
X647235Y176906D01*
X647263Y177016D01*
X647298Y177124D01*
X647298Y177154D01*
X647305Y177182D01*
X647302Y177295D01*
X647305Y177408D01*
X647297Y177437D01*
X647296Y177466D01*
X647262Y177574D01*
X647233Y177683D01*
X647218Y177709D01*
X647209Y177737D01*
X647163Y177801D01*
X647088Y177928D01*
X647042Y177971D01*
X647014Y178010D01*
X646048Y178976D01*
X646048Y182974D01*
X648876Y185802D01*
X652874Y185802D01*
X655702Y182974D01*
X655702Y178976D01*
X652874Y176148D01*
X652279Y176148D01*
X652250Y176144D01*
X652220Y176147D01*
X652109Y176124D01*
X651997Y176108D01*
X651971Y176096D01*
X651942Y176091D01*
X651841Y176038D01*
X651738Y175992D01*
X651715Y175973D01*
X651689Y175960D01*
X651607Y175882D01*
X651521Y175809D01*
X651505Y175784D01*
X651483Y175764D01*
X651426Y175666D01*
X651363Y175572D01*
X651354Y175544D01*
X651340Y175519D01*
X651312Y175409D01*
X651277Y175301D01*
X651277Y175271D01*
X651270Y175243D01*
X651273Y175130D01*
X651270Y175017D01*
X651278Y174988D01*
X651279Y174959D01*
X651313Y174851D01*
X651342Y174742D01*
X651357Y174716D01*
X651366Y174688D01*
X651412Y174624D01*
X651487Y174497D01*
X651533Y174454D01*
X651561Y174415D01*
X652527Y173449D01*
X652527Y169451D01*
X649699Y166623D01*
X645701Y166623D01*
G37*
%LPD*%
%LPC*%
G36*
X550451Y473011D02*
X550451Y473011D01*
X547623Y475838D01*
X547623Y479837D01*
X549669Y481882D01*
X549704Y481929D01*
X549746Y481969D01*
X549789Y482042D01*
X549839Y482109D01*
X549860Y482164D01*
X549890Y482214D01*
X549911Y482296D01*
X549941Y482375D01*
X549946Y482433D01*
X549960Y482490D01*
X549957Y482574D01*
X549964Y482658D01*
X549953Y482716D01*
X549951Y482774D01*
X549925Y482854D01*
X549908Y482937D01*
X549881Y482989D01*
X549863Y483045D01*
X549823Y483101D01*
X549777Y483189D01*
X549709Y483262D01*
X549669Y483318D01*
X547623Y485363D01*
X547623Y489362D01*
X549669Y491407D01*
X549704Y491454D01*
X549746Y491494D01*
X549789Y491567D01*
X549839Y491634D01*
X549860Y491689D01*
X549890Y491739D01*
X549911Y491821D01*
X549941Y491900D01*
X549946Y491958D01*
X549960Y492015D01*
X549957Y492099D01*
X549964Y492183D01*
X549953Y492241D01*
X549951Y492299D01*
X549925Y492379D01*
X549908Y492462D01*
X549881Y492514D01*
X549863Y492570D01*
X549823Y492626D01*
X549777Y492714D01*
X549709Y492787D01*
X549669Y492843D01*
X547623Y494888D01*
X547623Y498887D01*
X550451Y501714D01*
X554449Y501714D01*
X557277Y498887D01*
X557277Y494888D01*
X555231Y492843D01*
X555196Y492796D01*
X555154Y492756D01*
X555111Y492683D01*
X555061Y492616D01*
X555040Y492561D01*
X555010Y492511D01*
X554989Y492429D01*
X554959Y492350D01*
X554954Y492292D01*
X554940Y492235D01*
X554943Y492151D01*
X554936Y492067D01*
X554947Y492009D01*
X554949Y491951D01*
X554975Y491871D01*
X554992Y491788D01*
X555019Y491736D01*
X555037Y491680D01*
X555077Y491624D01*
X555123Y491536D01*
X555191Y491463D01*
X555231Y491407D01*
X557277Y489362D01*
X557277Y485363D01*
X555231Y483318D01*
X555196Y483271D01*
X555154Y483231D01*
X555111Y483158D01*
X555061Y483091D01*
X555040Y483036D01*
X555010Y482986D01*
X554989Y482904D01*
X554959Y482825D01*
X554954Y482767D01*
X554940Y482710D01*
X554943Y482626D01*
X554936Y482542D01*
X554947Y482484D01*
X554949Y482426D01*
X554975Y482346D01*
X554992Y482263D01*
X555019Y482211D01*
X555037Y482155D01*
X555077Y482099D01*
X555123Y482011D01*
X555191Y481938D01*
X555231Y481882D01*
X557277Y479837D01*
X557277Y475838D01*
X554449Y473011D01*
X550451Y473011D01*
G37*
%LPD*%
%LPC*%
G36*
X105951Y158686D02*
X105951Y158686D01*
X103123Y161513D01*
X103123Y165512D01*
X103581Y165970D01*
X103616Y166016D01*
X103659Y166057D01*
X103701Y166129D01*
X103752Y166197D01*
X103773Y166251D01*
X103802Y166302D01*
X103823Y166383D01*
X103853Y166462D01*
X103858Y166521D01*
X103872Y166577D01*
X103870Y166662D01*
X103877Y166746D01*
X103865Y166803D01*
X103863Y166862D01*
X103837Y166942D01*
X103821Y167024D01*
X103794Y167076D01*
X103776Y167132D01*
X103736Y167188D01*
X103690Y167277D01*
X103621Y167349D01*
X103581Y167405D01*
X103123Y167863D01*
X103123Y171862D01*
X103581Y172320D01*
X103616Y172366D01*
X103659Y172407D01*
X103701Y172480D01*
X103752Y172547D01*
X103773Y172601D01*
X103802Y172652D01*
X103823Y172734D01*
X103853Y172812D01*
X103858Y172871D01*
X103872Y172927D01*
X103870Y173012D01*
X103877Y173096D01*
X103865Y173153D01*
X103863Y173212D01*
X103837Y173292D01*
X103821Y173375D01*
X103794Y173426D01*
X103776Y173482D01*
X103736Y173538D01*
X103690Y173627D01*
X103621Y173699D01*
X103581Y173755D01*
X103123Y174213D01*
X103123Y178212D01*
X105951Y181039D01*
X109949Y181039D01*
X112777Y178212D01*
X112777Y174213D01*
X112319Y173755D01*
X112284Y173709D01*
X112241Y173668D01*
X112199Y173596D01*
X112148Y173528D01*
X112127Y173474D01*
X112098Y173423D01*
X112077Y173342D01*
X112047Y173263D01*
X112042Y173204D01*
X112028Y173148D01*
X112030Y173063D01*
X112023Y172979D01*
X112035Y172922D01*
X112037Y172863D01*
X112063Y172783D01*
X112079Y172701D01*
X112106Y172649D01*
X112124Y172593D01*
X112164Y172537D01*
X112210Y172448D01*
X112279Y172376D01*
X112319Y172320D01*
X112777Y171862D01*
X112777Y167863D01*
X112319Y167405D01*
X112284Y167359D01*
X112241Y167318D01*
X112199Y167245D01*
X112148Y167178D01*
X112127Y167124D01*
X112098Y167073D01*
X112077Y166991D01*
X112047Y166913D01*
X112042Y166854D01*
X112028Y166798D01*
X112030Y166713D01*
X112023Y166629D01*
X112035Y166572D01*
X112037Y166513D01*
X112063Y166433D01*
X112079Y166350D01*
X112106Y166299D01*
X112124Y166243D01*
X112164Y166187D01*
X112210Y166098D01*
X112279Y166026D01*
X112319Y165970D01*
X112777Y165512D01*
X112777Y161513D01*
X109949Y158686D01*
X105951Y158686D01*
G37*
%LPD*%
%LPC*%
G36*
X369476Y633348D02*
X369476Y633348D01*
X366648Y636176D01*
X366648Y640174D01*
X369487Y643013D01*
X369522Y643060D01*
X369565Y643100D01*
X369608Y643173D01*
X369658Y643241D01*
X369679Y643295D01*
X369709Y643346D01*
X369729Y643427D01*
X369759Y643506D01*
X369764Y643565D01*
X369779Y643621D01*
X369776Y643705D01*
X369783Y643789D01*
X369772Y643847D01*
X369770Y643905D01*
X369744Y643986D01*
X369727Y644068D01*
X369700Y644120D01*
X369682Y644176D01*
X369642Y644232D01*
X369596Y644321D01*
X369527Y644393D01*
X369487Y644449D01*
X366648Y647288D01*
X366648Y651287D01*
X369476Y654114D01*
X373474Y654114D01*
X376302Y651287D01*
X376302Y647288D01*
X373463Y644449D01*
X373428Y644402D01*
X373385Y644362D01*
X373342Y644289D01*
X373292Y644222D01*
X373271Y644167D01*
X373241Y644117D01*
X373221Y644035D01*
X373191Y643956D01*
X373186Y643898D01*
X373171Y643841D01*
X373174Y643757D01*
X373167Y643673D01*
X373178Y643616D01*
X373180Y643557D01*
X373206Y643477D01*
X373223Y643394D01*
X373250Y643342D01*
X373268Y643287D01*
X373308Y643230D01*
X373354Y643142D01*
X373423Y643070D01*
X373463Y643013D01*
X376302Y640174D01*
X376302Y636176D01*
X373474Y633348D01*
X369476Y633348D01*
G37*
%LPD*%
%LPC*%
G36*
X252001Y314261D02*
X252001Y314261D01*
X249173Y317088D01*
X249173Y321087D01*
X252001Y323914D01*
X255999Y323914D01*
X258838Y321075D01*
X258885Y321040D01*
X258925Y320998D01*
X258998Y320955D01*
X259066Y320904D01*
X259120Y320883D01*
X259171Y320854D01*
X259252Y320833D01*
X259331Y320803D01*
X259390Y320798D01*
X259446Y320784D01*
X259530Y320786D01*
X259615Y320779D01*
X259672Y320791D01*
X259730Y320793D01*
X259811Y320819D01*
X259893Y320835D01*
X259945Y320862D01*
X260001Y320880D01*
X260057Y320920D01*
X260146Y320966D01*
X260218Y321035D01*
X260274Y321075D01*
X263113Y323914D01*
X267112Y323914D01*
X269939Y321087D01*
X269939Y317088D01*
X267112Y314261D01*
X263113Y314261D01*
X260274Y317100D01*
X260227Y317135D01*
X260187Y317177D01*
X260114Y317220D01*
X260047Y317271D01*
X259992Y317292D01*
X259942Y317321D01*
X259860Y317342D01*
X259781Y317372D01*
X259723Y317377D01*
X259666Y317391D01*
X259582Y317389D01*
X259498Y317396D01*
X259441Y317384D01*
X259382Y317382D01*
X259302Y317356D01*
X259219Y317340D01*
X259167Y317313D01*
X259112Y317295D01*
X259056Y317255D01*
X258967Y317209D01*
X258895Y317140D01*
X258838Y317100D01*
X255999Y314261D01*
X252001Y314261D01*
G37*
%LPD*%
%LPC*%
G36*
X226601Y399986D02*
X226601Y399986D01*
X223773Y402813D01*
X223773Y406812D01*
X226612Y409651D01*
X226647Y409698D01*
X226690Y409738D01*
X226733Y409811D01*
X226783Y409878D01*
X226804Y409933D01*
X226834Y409983D01*
X226854Y410065D01*
X226884Y410144D01*
X226889Y410202D01*
X226904Y410259D01*
X226901Y410343D01*
X226908Y410427D01*
X226897Y410484D01*
X226895Y410543D01*
X226869Y410623D01*
X226852Y410706D01*
X226825Y410758D01*
X226807Y410813D01*
X226767Y410869D01*
X226721Y410958D01*
X226652Y411030D01*
X226612Y411087D01*
X223773Y413926D01*
X223773Y417924D01*
X226601Y420752D01*
X230599Y420752D01*
X233427Y417924D01*
X233427Y413926D01*
X230588Y411087D01*
X230553Y411040D01*
X230510Y411000D01*
X230467Y410927D01*
X230417Y410859D01*
X230396Y410805D01*
X230366Y410754D01*
X230346Y410673D01*
X230316Y410594D01*
X230311Y410535D01*
X230296Y410479D01*
X230299Y410395D01*
X230292Y410310D01*
X230303Y410253D01*
X230305Y410195D01*
X230331Y410114D01*
X230348Y410032D01*
X230375Y409980D01*
X230393Y409924D01*
X230433Y409868D01*
X230479Y409779D01*
X230548Y409707D01*
X230588Y409651D01*
X233427Y406812D01*
X233427Y402813D01*
X230599Y399986D01*
X226601Y399986D01*
G37*
%LPD*%
%LPC*%
G36*
X661576Y363473D02*
X661576Y363473D01*
X658748Y366301D01*
X658748Y370299D01*
X661576Y373127D01*
X665574Y373127D01*
X668413Y370288D01*
X668460Y370253D01*
X668500Y370210D01*
X668573Y370167D01*
X668641Y370117D01*
X668695Y370096D01*
X668746Y370066D01*
X668827Y370046D01*
X668906Y370016D01*
X668965Y370011D01*
X669021Y369996D01*
X669105Y369999D01*
X669190Y369992D01*
X669247Y370003D01*
X669305Y370005D01*
X669386Y370031D01*
X669468Y370048D01*
X669520Y370075D01*
X669576Y370093D01*
X669632Y370133D01*
X669721Y370179D01*
X669793Y370248D01*
X669849Y370288D01*
X672688Y373127D01*
X676687Y373127D01*
X679514Y370299D01*
X679514Y366301D01*
X676687Y363473D01*
X672688Y363473D01*
X669849Y366312D01*
X669802Y366347D01*
X669762Y366390D01*
X669689Y366433D01*
X669622Y366483D01*
X669567Y366504D01*
X669517Y366534D01*
X669435Y366554D01*
X669356Y366584D01*
X669298Y366589D01*
X669241Y366604D01*
X669157Y366601D01*
X669073Y366608D01*
X669016Y366597D01*
X668957Y366595D01*
X668877Y366569D01*
X668794Y366552D01*
X668742Y366525D01*
X668687Y366507D01*
X668631Y366467D01*
X668542Y366421D01*
X668470Y366352D01*
X668413Y366312D01*
X665574Y363473D01*
X661576Y363473D01*
G37*
%LPD*%
%LPC*%
G36*
X661576Y376173D02*
X661576Y376173D01*
X658748Y379001D01*
X658748Y382999D01*
X661576Y385827D01*
X665574Y385827D01*
X668413Y382988D01*
X668460Y382953D01*
X668500Y382910D01*
X668573Y382867D01*
X668641Y382817D01*
X668695Y382796D01*
X668746Y382766D01*
X668827Y382746D01*
X668906Y382716D01*
X668965Y382711D01*
X669021Y382696D01*
X669105Y382699D01*
X669190Y382692D01*
X669247Y382703D01*
X669305Y382705D01*
X669386Y382731D01*
X669468Y382748D01*
X669520Y382775D01*
X669576Y382793D01*
X669632Y382833D01*
X669721Y382879D01*
X669793Y382948D01*
X669849Y382988D01*
X672688Y385827D01*
X676687Y385827D01*
X679514Y382999D01*
X679514Y379001D01*
X676687Y376173D01*
X672688Y376173D01*
X669849Y379012D01*
X669802Y379047D01*
X669762Y379090D01*
X669689Y379133D01*
X669622Y379183D01*
X669567Y379204D01*
X669517Y379234D01*
X669435Y379254D01*
X669356Y379284D01*
X669298Y379289D01*
X669241Y379304D01*
X669157Y379301D01*
X669073Y379308D01*
X669016Y379297D01*
X668957Y379295D01*
X668877Y379269D01*
X668794Y379252D01*
X668742Y379225D01*
X668687Y379207D01*
X668631Y379167D01*
X668542Y379121D01*
X668470Y379052D01*
X668413Y379012D01*
X665574Y376173D01*
X661576Y376173D01*
G37*
%LPD*%
%LPC*%
G36*
X350426Y439673D02*
X350426Y439673D01*
X347598Y442501D01*
X347598Y443096D01*
X347594Y443125D01*
X347597Y443155D01*
X347574Y443266D01*
X347558Y443378D01*
X347546Y443404D01*
X347541Y443433D01*
X347488Y443534D01*
X347442Y443637D01*
X347423Y443660D01*
X347410Y443686D01*
X347332Y443768D01*
X347259Y443854D01*
X347234Y443870D01*
X347214Y443892D01*
X347116Y443949D01*
X347022Y444012D01*
X346994Y444021D01*
X346969Y444035D01*
X346859Y444063D01*
X346751Y444098D01*
X346721Y444098D01*
X346693Y444105D01*
X346580Y444102D01*
X346467Y444105D01*
X346438Y444097D01*
X346409Y444096D01*
X346301Y444062D01*
X346192Y444033D01*
X346166Y444018D01*
X346138Y444009D01*
X346075Y443963D01*
X345947Y443888D01*
X345904Y443842D01*
X345865Y443814D01*
X343312Y441261D01*
X339313Y441261D01*
X336486Y444088D01*
X336486Y448087D01*
X339313Y450914D01*
X343312Y450914D01*
X346139Y448087D01*
X346139Y447491D01*
X346143Y447462D01*
X346141Y447433D01*
X346163Y447322D01*
X346179Y447210D01*
X346191Y447183D01*
X346197Y447154D01*
X346249Y447054D01*
X346295Y446950D01*
X346314Y446928D01*
X346328Y446902D01*
X346406Y446820D01*
X346479Y446733D01*
X346503Y446717D01*
X346524Y446696D01*
X346621Y446639D01*
X346716Y446576D01*
X346744Y446567D01*
X346769Y446552D01*
X346878Y446524D01*
X346987Y446490D01*
X347016Y446489D01*
X347044Y446482D01*
X347157Y446486D01*
X347271Y446483D01*
X347299Y446490D01*
X347329Y446491D01*
X347436Y446526D01*
X347546Y446555D01*
X347571Y446569D01*
X347599Y446579D01*
X347663Y446624D01*
X347790Y446700D01*
X347833Y446745D01*
X347872Y446773D01*
X350426Y449327D01*
X354424Y449327D01*
X357252Y446499D01*
X357252Y442501D01*
X354424Y439673D01*
X350426Y439673D01*
G37*
%LPD*%
%LPC*%
G36*
X572676Y428561D02*
X572676Y428561D01*
X569848Y431388D01*
X569848Y435387D01*
X570814Y436353D01*
X570832Y436376D01*
X570854Y436395D01*
X570917Y436489D01*
X570985Y436580D01*
X570995Y436607D01*
X571012Y436632D01*
X571046Y436740D01*
X571086Y436845D01*
X571089Y436875D01*
X571098Y436903D01*
X571100Y437016D01*
X571110Y437129D01*
X571104Y437157D01*
X571105Y437187D01*
X571076Y437296D01*
X571054Y437408D01*
X571040Y437434D01*
X571033Y437462D01*
X570975Y437559D01*
X570923Y437660D01*
X570903Y437681D01*
X570888Y437706D01*
X570805Y437784D01*
X570727Y437866D01*
X570702Y437881D01*
X570680Y437901D01*
X570580Y437952D01*
X570482Y438010D01*
X570453Y438017D01*
X570427Y438030D01*
X570350Y438043D01*
X570206Y438080D01*
X570144Y438078D01*
X570096Y438086D01*
X566326Y438086D01*
X563498Y440913D01*
X563498Y444912D01*
X566326Y447739D01*
X570324Y447739D01*
X573152Y444912D01*
X573152Y440913D01*
X572186Y439947D01*
X572168Y439924D01*
X572146Y439905D01*
X572083Y439811D01*
X572015Y439720D01*
X572005Y439693D01*
X571988Y439668D01*
X571954Y439560D01*
X571914Y439455D01*
X571911Y439425D01*
X571902Y439397D01*
X571900Y439284D01*
X571890Y439171D01*
X571896Y439143D01*
X571895Y439113D01*
X571924Y439004D01*
X571946Y438892D01*
X571960Y438866D01*
X571967Y438838D01*
X572025Y438741D01*
X572077Y438640D01*
X572097Y438619D01*
X572112Y438594D01*
X572195Y438516D01*
X572273Y438434D01*
X572298Y438419D01*
X572320Y438399D01*
X572420Y438348D01*
X572518Y438290D01*
X572547Y438283D01*
X572573Y438270D01*
X572650Y438257D01*
X572794Y438220D01*
X572856Y438222D01*
X572904Y438214D01*
X576674Y438214D01*
X579502Y435387D01*
X579502Y431388D01*
X576674Y428561D01*
X572676Y428561D01*
G37*
%LPD*%
%LPC*%
G36*
X518701Y522223D02*
X518701Y522223D01*
X515873Y525051D01*
X515873Y529049D01*
X518701Y531877D01*
X522796Y531877D01*
X522853Y531885D01*
X522912Y531883D01*
X522993Y531905D01*
X523077Y531917D01*
X523130Y531940D01*
X523187Y531955D01*
X523259Y531998D01*
X523336Y532033D01*
X523381Y532071D01*
X523431Y532100D01*
X523489Y532162D01*
X523553Y532216D01*
X523586Y532265D01*
X523626Y532308D01*
X523664Y532383D01*
X523711Y532453D01*
X523729Y532509D01*
X523755Y532561D01*
X523767Y532629D01*
X523797Y532724D01*
X523799Y532824D01*
X523811Y532892D01*
X523811Y535399D01*
X526638Y538227D01*
X530637Y538227D01*
X533464Y535399D01*
X533464Y531401D01*
X530637Y528573D01*
X526542Y528573D01*
X526484Y528565D01*
X526426Y528567D01*
X526344Y528545D01*
X526260Y528533D01*
X526207Y528510D01*
X526151Y528495D01*
X526078Y528452D01*
X526001Y528417D01*
X525956Y528379D01*
X525906Y528350D01*
X525848Y528288D01*
X525784Y528234D01*
X525752Y528185D01*
X525712Y528142D01*
X525673Y528067D01*
X525626Y527997D01*
X525609Y527941D01*
X525582Y527889D01*
X525571Y527821D01*
X525541Y527726D01*
X525538Y527626D01*
X525527Y527558D01*
X525527Y525051D01*
X522699Y522223D01*
X518701Y522223D01*
G37*
%LPD*%
%LPC*%
G36*
X532988Y411098D02*
X532988Y411098D01*
X530161Y413926D01*
X530161Y418021D01*
X530153Y418078D01*
X530154Y418137D01*
X530133Y418218D01*
X530121Y418302D01*
X530097Y418355D01*
X530082Y418412D01*
X530039Y418484D01*
X530005Y418561D01*
X529967Y418606D01*
X529937Y418656D01*
X529875Y418714D01*
X529821Y418778D01*
X529772Y418811D01*
X529730Y418851D01*
X529655Y418889D01*
X529584Y418936D01*
X529529Y418954D01*
X529477Y418980D01*
X529409Y418992D01*
X529313Y419022D01*
X529214Y419024D01*
X529146Y419036D01*
X528226Y419036D01*
X525398Y421863D01*
X525398Y425862D01*
X528226Y428689D01*
X532224Y428689D01*
X535052Y425862D01*
X535052Y421767D01*
X535060Y421709D01*
X535058Y421651D01*
X535080Y421569D01*
X535092Y421485D01*
X535115Y421432D01*
X535130Y421376D01*
X535173Y421303D01*
X535208Y421226D01*
X535246Y421181D01*
X535275Y421131D01*
X535337Y421073D01*
X535391Y421009D01*
X535440Y420977D01*
X535483Y420937D01*
X535558Y420898D01*
X535628Y420851D01*
X535684Y420834D01*
X535736Y420807D01*
X535804Y420796D01*
X535899Y420766D01*
X535999Y420763D01*
X536067Y420752D01*
X536987Y420752D01*
X539814Y417924D01*
X539814Y413926D01*
X536987Y411098D01*
X532988Y411098D01*
G37*
%LPD*%
%LPC*%
G36*
X263043Y368209D02*
X263043Y368209D01*
X263034Y368237D01*
X262988Y368300D01*
X262913Y368428D01*
X262867Y368471D01*
X262839Y368510D01*
X260286Y371063D01*
X260286Y375062D01*
X262331Y377107D01*
X262342Y377121D01*
X262349Y377127D01*
X262367Y377155D01*
X262409Y377194D01*
X262451Y377267D01*
X262502Y377334D01*
X262523Y377389D01*
X262552Y377439D01*
X262573Y377521D01*
X262603Y377600D01*
X262608Y377658D01*
X262622Y377715D01*
X262620Y377799D01*
X262627Y377883D01*
X262615Y377941D01*
X262613Y377999D01*
X262587Y378079D01*
X262571Y378162D01*
X262544Y378214D01*
X262526Y378270D01*
X262486Y378326D01*
X262440Y378414D01*
X262371Y378487D01*
X262331Y378543D01*
X260286Y380588D01*
X260286Y384587D01*
X263113Y387414D01*
X267112Y387414D01*
X269939Y384587D01*
X269939Y380588D01*
X267894Y378543D01*
X267859Y378496D01*
X267816Y378456D01*
X267774Y378383D01*
X267723Y378316D01*
X267702Y378261D01*
X267673Y378211D01*
X267652Y378129D01*
X267622Y378050D01*
X267617Y377992D01*
X267603Y377935D01*
X267605Y377851D01*
X267598Y377767D01*
X267610Y377709D01*
X267612Y377651D01*
X267638Y377571D01*
X267654Y377488D01*
X267681Y377436D01*
X267699Y377380D01*
X267739Y377324D01*
X267785Y377236D01*
X267829Y377189D01*
X267842Y377167D01*
X267869Y377142D01*
X267894Y377107D01*
X269939Y375062D01*
X269939Y371063D01*
X267112Y368236D01*
X263341Y368236D01*
X263312Y368232D01*
X263283Y368234D01*
X263172Y368212D01*
X263060Y368196D01*
X263052Y368193D01*
X263043Y368209D01*
G37*
%LPD*%
%LPC*%
G36*
X559976Y111061D02*
X559976Y111061D01*
X557148Y113888D01*
X557148Y117887D01*
X559976Y120714D01*
X563974Y120714D01*
X566020Y118669D01*
X566066Y118634D01*
X566107Y118591D01*
X566179Y118549D01*
X566247Y118498D01*
X566301Y118477D01*
X566352Y118448D01*
X566434Y118427D01*
X566512Y118397D01*
X566571Y118392D01*
X566627Y118378D01*
X566712Y118380D01*
X566796Y118373D01*
X566853Y118385D01*
X566912Y118387D01*
X566992Y118413D01*
X567075Y118429D01*
X567126Y118456D01*
X567182Y118474D01*
X567238Y118514D01*
X567327Y118560D01*
X567399Y118629D01*
X567455Y118669D01*
X569501Y120714D01*
X573499Y120714D01*
X576327Y117887D01*
X576327Y113888D01*
X573499Y111061D01*
X569501Y111061D01*
X567455Y113106D01*
X567409Y113141D01*
X567368Y113184D01*
X567296Y113226D01*
X567228Y113277D01*
X567174Y113298D01*
X567123Y113327D01*
X567041Y113348D01*
X566963Y113378D01*
X566904Y113383D01*
X566848Y113397D01*
X566763Y113395D01*
X566679Y113402D01*
X566622Y113390D01*
X566563Y113388D01*
X566483Y113362D01*
X566401Y113346D01*
X566349Y113319D01*
X566293Y113301D01*
X566237Y113261D01*
X566148Y113215D01*
X566076Y113146D01*
X566020Y113106D01*
X563974Y111061D01*
X559976Y111061D01*
G37*
%LPD*%
%LPC*%
G36*
X521876Y379348D02*
X521876Y379348D01*
X519048Y382176D01*
X519048Y386174D01*
X521876Y389002D01*
X525874Y389002D01*
X527920Y386956D01*
X527966Y386921D01*
X528007Y386879D01*
X528079Y386836D01*
X528147Y386786D01*
X528201Y386765D01*
X528252Y386735D01*
X528334Y386714D01*
X528412Y386684D01*
X528471Y386679D01*
X528527Y386665D01*
X528612Y386668D01*
X528696Y386661D01*
X528753Y386672D01*
X528812Y386674D01*
X528892Y386700D01*
X528974Y386717D01*
X529026Y386744D01*
X529082Y386762D01*
X529138Y386802D01*
X529227Y386848D01*
X529299Y386916D01*
X529355Y386956D01*
X531401Y389002D01*
X535399Y389002D01*
X538227Y386174D01*
X538227Y382176D01*
X535399Y379348D01*
X531401Y379348D01*
X529355Y381394D01*
X529309Y381429D01*
X529268Y381471D01*
X529196Y381514D01*
X529128Y381564D01*
X529074Y381585D01*
X529023Y381615D01*
X528941Y381636D01*
X528863Y381666D01*
X528804Y381671D01*
X528748Y381685D01*
X528663Y381682D01*
X528579Y381689D01*
X528522Y381678D01*
X528463Y381676D01*
X528383Y381650D01*
X528300Y381633D01*
X528249Y381606D01*
X528193Y381588D01*
X528137Y381548D01*
X528048Y381502D01*
X527976Y381434D01*
X527920Y381394D01*
X525874Y379348D01*
X521876Y379348D01*
G37*
%LPD*%
%LPC*%
G36*
X77376Y474598D02*
X77376Y474598D01*
X74548Y477426D01*
X74548Y481424D01*
X76594Y483470D01*
X76629Y483516D01*
X76671Y483557D01*
X76714Y483629D01*
X76764Y483697D01*
X76785Y483751D01*
X76815Y483802D01*
X76836Y483884D01*
X76866Y483962D01*
X76871Y484021D01*
X76885Y484077D01*
X76882Y484162D01*
X76889Y484246D01*
X76878Y484303D01*
X76876Y484362D01*
X76850Y484442D01*
X76833Y484525D01*
X76806Y484576D01*
X76788Y484632D01*
X76748Y484688D01*
X76702Y484777D01*
X76634Y484849D01*
X76594Y484905D01*
X74548Y486951D01*
X74548Y490949D01*
X77376Y493777D01*
X81374Y493777D01*
X84202Y490949D01*
X84202Y486951D01*
X82156Y484905D01*
X82121Y484859D01*
X82079Y484818D01*
X82036Y484746D01*
X81986Y484678D01*
X81965Y484624D01*
X81935Y484573D01*
X81914Y484491D01*
X81884Y484413D01*
X81879Y484354D01*
X81865Y484298D01*
X81868Y484213D01*
X81861Y484129D01*
X81872Y484072D01*
X81874Y484013D01*
X81900Y483933D01*
X81917Y483851D01*
X81944Y483799D01*
X81962Y483743D01*
X82002Y483687D01*
X82048Y483598D01*
X82116Y483526D01*
X82156Y483470D01*
X84202Y481424D01*
X84202Y477426D01*
X81374Y474598D01*
X77376Y474598D01*
G37*
%LPD*%
%LPC*%
G36*
X534576Y476186D02*
X534576Y476186D01*
X531748Y479013D01*
X531748Y483012D01*
X533794Y485057D01*
X533829Y485104D01*
X533871Y485144D01*
X533914Y485217D01*
X533964Y485284D01*
X533985Y485339D01*
X534015Y485389D01*
X534036Y485471D01*
X534066Y485550D01*
X534071Y485608D01*
X534085Y485665D01*
X534082Y485749D01*
X534089Y485833D01*
X534078Y485891D01*
X534076Y485949D01*
X534050Y486029D01*
X534033Y486112D01*
X534006Y486164D01*
X533988Y486220D01*
X533948Y486276D01*
X533902Y486364D01*
X533834Y486437D01*
X533794Y486493D01*
X531748Y488538D01*
X531748Y492537D01*
X534576Y495364D01*
X538574Y495364D01*
X541402Y492537D01*
X541402Y488538D01*
X539356Y486493D01*
X539321Y486446D01*
X539279Y486406D01*
X539236Y486333D01*
X539186Y486266D01*
X539165Y486211D01*
X539135Y486161D01*
X539114Y486079D01*
X539084Y486000D01*
X539079Y485942D01*
X539065Y485885D01*
X539068Y485801D01*
X539061Y485717D01*
X539072Y485659D01*
X539074Y485601D01*
X539100Y485521D01*
X539117Y485438D01*
X539144Y485386D01*
X539162Y485330D01*
X539202Y485274D01*
X539248Y485186D01*
X539316Y485113D01*
X539356Y485057D01*
X541402Y483012D01*
X541402Y479013D01*
X538574Y476186D01*
X534576Y476186D01*
G37*
%LPD*%
%LPC*%
G36*
X299626Y490473D02*
X299626Y490473D01*
X296798Y493301D01*
X296798Y497299D01*
X299626Y500127D01*
X303624Y500127D01*
X305670Y498081D01*
X305716Y498046D01*
X305757Y498004D01*
X305829Y497961D01*
X305897Y497911D01*
X305951Y497890D01*
X306002Y497860D01*
X306084Y497839D01*
X306162Y497809D01*
X306221Y497804D01*
X306277Y497790D01*
X306362Y497793D01*
X306446Y497786D01*
X306503Y497797D01*
X306562Y497799D01*
X306642Y497825D01*
X306725Y497842D01*
X306776Y497869D01*
X306832Y497887D01*
X306888Y497927D01*
X306977Y497973D01*
X307049Y498041D01*
X307105Y498081D01*
X309151Y500127D01*
X313149Y500127D01*
X315977Y497299D01*
X315977Y493301D01*
X313149Y490473D01*
X309151Y490473D01*
X307105Y492519D01*
X307059Y492554D01*
X307018Y492596D01*
X306946Y492639D01*
X306878Y492689D01*
X306824Y492710D01*
X306773Y492740D01*
X306691Y492761D01*
X306613Y492791D01*
X306554Y492796D01*
X306498Y492810D01*
X306413Y492807D01*
X306329Y492814D01*
X306272Y492803D01*
X306213Y492801D01*
X306133Y492775D01*
X306051Y492758D01*
X305999Y492731D01*
X305943Y492713D01*
X305887Y492673D01*
X305798Y492627D01*
X305726Y492559D01*
X305670Y492519D01*
X303624Y490473D01*
X299626Y490473D01*
G37*
%LPD*%
%LPC*%
G36*
X263113Y587311D02*
X263113Y587311D01*
X260286Y590138D01*
X260286Y594137D01*
X263113Y596964D01*
X267112Y596964D01*
X269157Y594919D01*
X269204Y594884D01*
X269244Y594841D01*
X269317Y594799D01*
X269384Y594748D01*
X269439Y594727D01*
X269489Y594698D01*
X269571Y594677D01*
X269650Y594647D01*
X269708Y594642D01*
X269765Y594628D01*
X269849Y594630D01*
X269933Y594623D01*
X269991Y594635D01*
X270049Y594637D01*
X270129Y594663D01*
X270212Y594679D01*
X270264Y594706D01*
X270320Y594724D01*
X270376Y594764D01*
X270464Y594810D01*
X270537Y594879D01*
X270593Y594919D01*
X272638Y596964D01*
X276637Y596964D01*
X279464Y594137D01*
X279464Y590138D01*
X276637Y587311D01*
X272638Y587311D01*
X270593Y589356D01*
X270546Y589391D01*
X270506Y589434D01*
X270433Y589476D01*
X270366Y589527D01*
X270311Y589548D01*
X270261Y589577D01*
X270179Y589598D01*
X270100Y589628D01*
X270042Y589633D01*
X269985Y589647D01*
X269901Y589645D01*
X269817Y589652D01*
X269759Y589640D01*
X269701Y589638D01*
X269621Y589612D01*
X269538Y589596D01*
X269486Y589569D01*
X269430Y589551D01*
X269374Y589511D01*
X269286Y589465D01*
X269213Y589396D01*
X269157Y589356D01*
X267112Y587311D01*
X263113Y587311D01*
G37*
%LPD*%
%LPC*%
G36*
X263113Y512698D02*
X263113Y512698D01*
X260286Y515526D01*
X260286Y519524D01*
X263113Y522352D01*
X267112Y522352D01*
X269157Y520306D01*
X269204Y520271D01*
X269244Y520229D01*
X269317Y520186D01*
X269384Y520136D01*
X269439Y520115D01*
X269489Y520085D01*
X269571Y520064D01*
X269650Y520034D01*
X269708Y520029D01*
X269765Y520015D01*
X269849Y520018D01*
X269933Y520011D01*
X269991Y520022D01*
X270049Y520024D01*
X270129Y520050D01*
X270212Y520067D01*
X270264Y520094D01*
X270320Y520112D01*
X270376Y520152D01*
X270464Y520198D01*
X270537Y520266D01*
X270593Y520306D01*
X272638Y522352D01*
X276637Y522352D01*
X279464Y519524D01*
X279464Y515526D01*
X276637Y512698D01*
X272638Y512698D01*
X270593Y514744D01*
X270546Y514779D01*
X270506Y514821D01*
X270433Y514864D01*
X270366Y514914D01*
X270311Y514935D01*
X270261Y514965D01*
X270179Y514986D01*
X270100Y515016D01*
X270042Y515021D01*
X269985Y515035D01*
X269901Y515032D01*
X269817Y515039D01*
X269759Y515028D01*
X269701Y515026D01*
X269621Y515000D01*
X269538Y514983D01*
X269486Y514956D01*
X269430Y514938D01*
X269374Y514898D01*
X269286Y514852D01*
X269213Y514784D01*
X269157Y514744D01*
X267112Y512698D01*
X263113Y512698D01*
G37*
%LPD*%
%LPC*%
G36*
X585376Y463486D02*
X585376Y463486D01*
X582548Y466313D01*
X582548Y468821D01*
X582540Y468878D01*
X582542Y468937D01*
X582520Y469018D01*
X582508Y469102D01*
X582485Y469155D01*
X582470Y469212D01*
X582427Y469284D01*
X582392Y469361D01*
X582354Y469406D01*
X582325Y469456D01*
X582263Y469514D01*
X582209Y469578D01*
X582160Y469611D01*
X582117Y469651D01*
X582042Y469689D01*
X581972Y469736D01*
X581916Y469754D01*
X581864Y469780D01*
X581796Y469792D01*
X581701Y469822D01*
X581601Y469824D01*
X581533Y469836D01*
X579026Y469836D01*
X576198Y472663D01*
X576198Y476662D01*
X579026Y479489D01*
X583024Y479489D01*
X585852Y476662D01*
X585852Y474154D01*
X585860Y474097D01*
X585858Y474038D01*
X585880Y473957D01*
X585892Y473873D01*
X585915Y473820D01*
X585930Y473763D01*
X585973Y473691D01*
X586008Y473614D01*
X586046Y473569D01*
X586075Y473519D01*
X586137Y473461D01*
X586191Y473397D01*
X586240Y473364D01*
X586283Y473324D01*
X586358Y473286D01*
X586428Y473239D01*
X586484Y473221D01*
X586536Y473195D01*
X586604Y473183D01*
X586699Y473153D01*
X586799Y473151D01*
X586867Y473139D01*
X589374Y473139D01*
X592202Y470312D01*
X592202Y466313D01*
X589374Y463486D01*
X585376Y463486D01*
G37*
%LPD*%
%LPC*%
G36*
X585376Y233298D02*
X585376Y233298D01*
X582548Y236126D01*
X582548Y240124D01*
X585376Y242952D01*
X587883Y242952D01*
X587941Y242960D01*
X587999Y242958D01*
X588081Y242980D01*
X588165Y242992D01*
X588218Y243015D01*
X588274Y243030D01*
X588347Y243073D01*
X588424Y243108D01*
X588469Y243146D01*
X588519Y243175D01*
X588577Y243237D01*
X588641Y243291D01*
X588673Y243340D01*
X588713Y243383D01*
X588752Y243458D01*
X588799Y243528D01*
X588816Y243584D01*
X588843Y243636D01*
X588854Y243704D01*
X588884Y243799D01*
X588887Y243899D01*
X588898Y243967D01*
X588898Y246474D01*
X591726Y249302D01*
X595724Y249302D01*
X598552Y246474D01*
X598552Y242476D01*
X595724Y239648D01*
X593217Y239648D01*
X593159Y239640D01*
X593101Y239642D01*
X593019Y239620D01*
X592935Y239608D01*
X592882Y239585D01*
X592826Y239570D01*
X592753Y239527D01*
X592676Y239492D01*
X592631Y239454D01*
X592581Y239425D01*
X592523Y239363D01*
X592459Y239309D01*
X592427Y239260D01*
X592387Y239217D01*
X592348Y239142D01*
X592301Y239072D01*
X592284Y239016D01*
X592257Y238964D01*
X592246Y238896D01*
X592216Y238801D01*
X592213Y238701D01*
X592202Y238633D01*
X592202Y236126D01*
X589374Y233298D01*
X585376Y233298D01*
G37*
%LPD*%
%LPC*%
G36*
X607601Y376173D02*
X607601Y376173D01*
X604773Y379001D01*
X604773Y382999D01*
X607601Y385827D01*
X610108Y385827D01*
X610166Y385835D01*
X610224Y385833D01*
X610306Y385855D01*
X610390Y385867D01*
X610443Y385890D01*
X610499Y385905D01*
X610572Y385948D01*
X610649Y385983D01*
X610694Y386021D01*
X610744Y386050D01*
X610802Y386112D01*
X610866Y386166D01*
X610898Y386215D01*
X610938Y386258D01*
X610977Y386333D01*
X611024Y386403D01*
X611041Y386459D01*
X611068Y386511D01*
X611079Y386579D01*
X611109Y386674D01*
X611112Y386774D01*
X611123Y386842D01*
X611123Y389349D01*
X613951Y392177D01*
X617949Y392177D01*
X620777Y389349D01*
X620777Y385351D01*
X617949Y382523D01*
X615442Y382523D01*
X615384Y382515D01*
X615326Y382517D01*
X615244Y382495D01*
X615160Y382483D01*
X615107Y382460D01*
X615051Y382445D01*
X614978Y382402D01*
X614901Y382367D01*
X614856Y382329D01*
X614806Y382300D01*
X614748Y382238D01*
X614684Y382184D01*
X614652Y382135D01*
X614612Y382092D01*
X614573Y382017D01*
X614526Y381947D01*
X614509Y381891D01*
X614482Y381839D01*
X614471Y381771D01*
X614441Y381676D01*
X614438Y381576D01*
X614427Y381508D01*
X614427Y379001D01*
X611599Y376173D01*
X607601Y376173D01*
G37*
%LPD*%
%LPC*%
G36*
X525051Y350773D02*
X525051Y350773D01*
X522223Y353601D01*
X522223Y356108D01*
X522215Y356166D01*
X522217Y356224D01*
X522195Y356306D01*
X522183Y356390D01*
X522160Y356443D01*
X522145Y356499D01*
X522102Y356572D01*
X522067Y356649D01*
X522029Y356694D01*
X522000Y356744D01*
X521938Y356802D01*
X521884Y356866D01*
X521835Y356898D01*
X521792Y356938D01*
X521717Y356977D01*
X521647Y357024D01*
X521591Y357041D01*
X521539Y357068D01*
X521471Y357079D01*
X521376Y357109D01*
X521276Y357112D01*
X521208Y357123D01*
X518701Y357123D01*
X515873Y359951D01*
X515873Y363949D01*
X518701Y366777D01*
X522699Y366777D01*
X525527Y363949D01*
X525527Y361442D01*
X525535Y361384D01*
X525533Y361326D01*
X525555Y361244D01*
X525567Y361160D01*
X525590Y361107D01*
X525605Y361051D01*
X525648Y360978D01*
X525683Y360901D01*
X525721Y360856D01*
X525750Y360806D01*
X525812Y360748D01*
X525866Y360684D01*
X525915Y360652D01*
X525958Y360612D01*
X526033Y360573D01*
X526103Y360526D01*
X526159Y360509D01*
X526211Y360482D01*
X526279Y360471D01*
X526374Y360441D01*
X526474Y360438D01*
X526542Y360427D01*
X529049Y360427D01*
X531877Y357599D01*
X531877Y353601D01*
X529049Y350773D01*
X525051Y350773D01*
G37*
%LPD*%
%LPC*%
G36*
X320263Y498411D02*
X320263Y498411D01*
X317436Y501238D01*
X317436Y505237D01*
X318687Y506488D01*
X318722Y506535D01*
X318765Y506575D01*
X318808Y506648D01*
X318858Y506716D01*
X318879Y506770D01*
X318909Y506821D01*
X318929Y506902D01*
X318959Y506981D01*
X318964Y507040D01*
X318979Y507096D01*
X318976Y507180D01*
X318983Y507265D01*
X318972Y507322D01*
X318970Y507380D01*
X318944Y507461D01*
X318927Y507543D01*
X318900Y507595D01*
X318882Y507651D01*
X318842Y507707D01*
X318796Y507796D01*
X318727Y507868D01*
X318687Y507924D01*
X317436Y509176D01*
X317436Y513174D01*
X320263Y516002D01*
X324262Y516002D01*
X327089Y513174D01*
X327089Y509176D01*
X325838Y507924D01*
X325803Y507877D01*
X325760Y507837D01*
X325717Y507764D01*
X325667Y507697D01*
X325646Y507642D01*
X325616Y507592D01*
X325596Y507510D01*
X325566Y507431D01*
X325561Y507373D01*
X325546Y507316D01*
X325549Y507232D01*
X325542Y507148D01*
X325553Y507091D01*
X325555Y507032D01*
X325581Y506952D01*
X325598Y506869D01*
X325625Y506817D01*
X325643Y506762D01*
X325683Y506706D01*
X325729Y506617D01*
X325798Y506544D01*
X325838Y506488D01*
X327089Y505237D01*
X327089Y501238D01*
X324262Y498411D01*
X320263Y498411D01*
G37*
%LPD*%
%LPC*%
G36*
X352013Y612711D02*
X352013Y612711D01*
X349186Y615538D01*
X349186Y619537D01*
X349644Y619995D01*
X349679Y620041D01*
X349721Y620082D01*
X349764Y620155D01*
X349814Y620222D01*
X349835Y620276D01*
X349865Y620327D01*
X349886Y620409D01*
X349916Y620487D01*
X349921Y620546D01*
X349935Y620602D01*
X349932Y620687D01*
X349939Y620771D01*
X349928Y620828D01*
X349926Y620887D01*
X349900Y620967D01*
X349883Y621050D01*
X349856Y621101D01*
X349838Y621157D01*
X349798Y621213D01*
X349752Y621302D01*
X349684Y621374D01*
X349644Y621430D01*
X349186Y621888D01*
X349186Y625887D01*
X352013Y628714D01*
X356012Y628714D01*
X358839Y625887D01*
X358839Y621888D01*
X358381Y621430D01*
X358346Y621384D01*
X358304Y621343D01*
X358261Y621271D01*
X358211Y621203D01*
X358190Y621149D01*
X358160Y621098D01*
X358139Y621017D01*
X358109Y620938D01*
X358104Y620879D01*
X358090Y620823D01*
X358093Y620738D01*
X358086Y620654D01*
X358097Y620597D01*
X358099Y620538D01*
X358125Y620458D01*
X358142Y620376D01*
X358169Y620324D01*
X358187Y620268D01*
X358227Y620212D01*
X358273Y620123D01*
X358341Y620051D01*
X358381Y619995D01*
X358839Y619537D01*
X358839Y615538D01*
X356012Y612711D01*
X352013Y612711D01*
G37*
%LPD*%
%LPC*%
G36*
X267876Y644461D02*
X267876Y644461D01*
X265048Y647288D01*
X265048Y651287D01*
X265506Y651745D01*
X265541Y651791D01*
X265584Y651832D01*
X265626Y651905D01*
X265677Y651972D01*
X265698Y652026D01*
X265727Y652077D01*
X265748Y652159D01*
X265778Y652237D01*
X265783Y652296D01*
X265797Y652352D01*
X265795Y652437D01*
X265802Y652521D01*
X265790Y652578D01*
X265788Y652637D01*
X265762Y652717D01*
X265746Y652800D01*
X265719Y652851D01*
X265701Y652907D01*
X265661Y652963D01*
X265615Y653052D01*
X265546Y653124D01*
X265506Y653180D01*
X265048Y653638D01*
X265048Y657637D01*
X267876Y660464D01*
X271874Y660464D01*
X274702Y657637D01*
X274702Y653638D01*
X274244Y653180D01*
X274209Y653134D01*
X274166Y653093D01*
X274124Y653021D01*
X274073Y652953D01*
X274052Y652899D01*
X274023Y652848D01*
X274002Y652767D01*
X273972Y652688D01*
X273967Y652629D01*
X273953Y652573D01*
X273955Y652488D01*
X273948Y652404D01*
X273960Y652347D01*
X273962Y652288D01*
X273988Y652208D01*
X274004Y652126D01*
X274031Y652074D01*
X274049Y652018D01*
X274089Y651962D01*
X274135Y651873D01*
X274204Y651801D01*
X274244Y651745D01*
X274702Y651287D01*
X274702Y647288D01*
X271874Y644461D01*
X267876Y644461D01*
G37*
%LPD*%
%LPC*%
G36*
X299626Y644461D02*
X299626Y644461D01*
X296798Y647288D01*
X296798Y651287D01*
X297256Y651745D01*
X297291Y651791D01*
X297334Y651832D01*
X297376Y651905D01*
X297427Y651972D01*
X297448Y652026D01*
X297477Y652077D01*
X297498Y652159D01*
X297528Y652237D01*
X297533Y652296D01*
X297547Y652352D01*
X297545Y652437D01*
X297552Y652521D01*
X297540Y652578D01*
X297538Y652637D01*
X297512Y652717D01*
X297496Y652800D01*
X297469Y652851D01*
X297451Y652907D01*
X297411Y652963D01*
X297365Y653052D01*
X297296Y653124D01*
X297256Y653180D01*
X296798Y653638D01*
X296798Y657637D01*
X299626Y660464D01*
X303624Y660464D01*
X306452Y657637D01*
X306452Y653638D01*
X305994Y653180D01*
X305959Y653134D01*
X305916Y653093D01*
X305874Y653021D01*
X305823Y652953D01*
X305802Y652899D01*
X305773Y652848D01*
X305752Y652767D01*
X305722Y652688D01*
X305717Y652629D01*
X305703Y652573D01*
X305705Y652488D01*
X305698Y652404D01*
X305710Y652347D01*
X305712Y652288D01*
X305738Y652208D01*
X305754Y652126D01*
X305781Y652074D01*
X305799Y652018D01*
X305839Y651962D01*
X305885Y651873D01*
X305954Y651801D01*
X305994Y651745D01*
X306452Y651287D01*
X306452Y647288D01*
X303624Y644461D01*
X299626Y644461D01*
G37*
%LPD*%
%LPC*%
G36*
X388526Y663511D02*
X388526Y663511D01*
X385698Y666338D01*
X385698Y670337D01*
X386156Y670795D01*
X386191Y670841D01*
X386234Y670882D01*
X386276Y670954D01*
X386327Y671022D01*
X386348Y671076D01*
X386377Y671127D01*
X386398Y671208D01*
X386428Y671287D01*
X386433Y671346D01*
X386447Y671402D01*
X386445Y671487D01*
X386452Y671571D01*
X386440Y671628D01*
X386438Y671687D01*
X386412Y671767D01*
X386396Y671849D01*
X386369Y671901D01*
X386351Y671957D01*
X386311Y672013D01*
X386265Y672102D01*
X386196Y672174D01*
X386156Y672230D01*
X385698Y672688D01*
X385698Y676687D01*
X388526Y679514D01*
X392524Y679514D01*
X395352Y676687D01*
X395352Y672688D01*
X394894Y672230D01*
X394859Y672184D01*
X394816Y672143D01*
X394774Y672070D01*
X394723Y672003D01*
X394702Y671949D01*
X394673Y671898D01*
X394652Y671816D01*
X394622Y671738D01*
X394617Y671679D01*
X394603Y671623D01*
X394605Y671538D01*
X394598Y671454D01*
X394610Y671397D01*
X394612Y671338D01*
X394638Y671258D01*
X394654Y671175D01*
X394681Y671124D01*
X394699Y671068D01*
X394739Y671012D01*
X394785Y670923D01*
X394854Y670851D01*
X394894Y670795D01*
X395352Y670337D01*
X395352Y666338D01*
X392524Y663511D01*
X388526Y663511D01*
G37*
%LPD*%
%LPC*%
G36*
X591726Y679386D02*
X591726Y679386D01*
X588898Y682213D01*
X588898Y686212D01*
X591726Y689039D01*
X595724Y689039D01*
X596182Y688581D01*
X596229Y688546D01*
X596269Y688504D01*
X596342Y688461D01*
X596409Y688411D01*
X596464Y688390D01*
X596514Y688360D01*
X596596Y688339D01*
X596675Y688309D01*
X596733Y688304D01*
X596790Y688290D01*
X596874Y688293D01*
X596958Y688286D01*
X597016Y688297D01*
X597074Y688299D01*
X597154Y688325D01*
X597237Y688342D01*
X597289Y688369D01*
X597345Y688387D01*
X597401Y688427D01*
X597489Y688473D01*
X597562Y688541D01*
X597618Y688581D01*
X598076Y689039D01*
X602074Y689039D01*
X604902Y686212D01*
X604902Y682213D01*
X602074Y679386D01*
X598076Y679386D01*
X597618Y679844D01*
X597571Y679879D01*
X597531Y679921D01*
X597458Y679964D01*
X597391Y680014D01*
X597336Y680035D01*
X597286Y680065D01*
X597204Y680086D01*
X597125Y680116D01*
X597067Y680121D01*
X597010Y680135D01*
X596926Y680132D01*
X596842Y680139D01*
X596784Y680128D01*
X596726Y680126D01*
X596646Y680100D01*
X596563Y680083D01*
X596511Y680056D01*
X596455Y680038D01*
X596399Y679998D01*
X596311Y679952D01*
X596238Y679884D01*
X596182Y679844D01*
X595724Y679386D01*
X591726Y679386D01*
G37*
%LPD*%
%LPC*%
G36*
X571088Y679386D02*
X571088Y679386D01*
X568261Y682213D01*
X568261Y686212D01*
X571088Y689039D01*
X575087Y689039D01*
X575545Y688581D01*
X575591Y688546D01*
X575632Y688504D01*
X575705Y688461D01*
X575772Y688411D01*
X575826Y688390D01*
X575877Y688360D01*
X575959Y688339D01*
X576037Y688309D01*
X576096Y688304D01*
X576152Y688290D01*
X576237Y688293D01*
X576321Y688286D01*
X576378Y688297D01*
X576437Y688299D01*
X576517Y688325D01*
X576600Y688342D01*
X576651Y688369D01*
X576707Y688387D01*
X576763Y688427D01*
X576852Y688473D01*
X576924Y688541D01*
X576980Y688581D01*
X577438Y689039D01*
X581437Y689039D01*
X584264Y686212D01*
X584264Y682213D01*
X581437Y679386D01*
X577438Y679386D01*
X576980Y679844D01*
X576934Y679879D01*
X576893Y679921D01*
X576821Y679964D01*
X576753Y680014D01*
X576699Y680035D01*
X576648Y680065D01*
X576567Y680086D01*
X576488Y680116D01*
X576429Y680121D01*
X576373Y680135D01*
X576288Y680132D01*
X576204Y680139D01*
X576147Y680128D01*
X576088Y680126D01*
X576008Y680100D01*
X575926Y680083D01*
X575874Y680056D01*
X575818Y680038D01*
X575762Y679998D01*
X575673Y679952D01*
X575601Y679884D01*
X575545Y679844D01*
X575087Y679386D01*
X571088Y679386D01*
G37*
%LPD*%
%LPC*%
G36*
X423451Y612711D02*
X423451Y612711D01*
X420623Y615538D01*
X420623Y619537D01*
X421081Y619995D01*
X421116Y620041D01*
X421159Y620082D01*
X421201Y620155D01*
X421252Y620222D01*
X421273Y620276D01*
X421302Y620327D01*
X421323Y620409D01*
X421353Y620487D01*
X421358Y620546D01*
X421372Y620602D01*
X421370Y620687D01*
X421377Y620771D01*
X421365Y620828D01*
X421363Y620887D01*
X421337Y620967D01*
X421321Y621050D01*
X421294Y621101D01*
X421276Y621157D01*
X421236Y621213D01*
X421190Y621302D01*
X421121Y621374D01*
X421081Y621430D01*
X420623Y621888D01*
X420623Y625887D01*
X423451Y628714D01*
X427449Y628714D01*
X430277Y625887D01*
X430277Y621888D01*
X429819Y621430D01*
X429784Y621384D01*
X429741Y621343D01*
X429699Y621271D01*
X429648Y621203D01*
X429627Y621149D01*
X429598Y621098D01*
X429577Y621017D01*
X429547Y620938D01*
X429542Y620879D01*
X429528Y620823D01*
X429530Y620738D01*
X429523Y620654D01*
X429535Y620597D01*
X429537Y620538D01*
X429563Y620458D01*
X429579Y620376D01*
X429606Y620324D01*
X429624Y620268D01*
X429664Y620212D01*
X429710Y620123D01*
X429779Y620051D01*
X429819Y619995D01*
X430277Y619537D01*
X430277Y615538D01*
X427449Y612711D01*
X423451Y612711D01*
G37*
%LPD*%
%LPC*%
G36*
X663163Y542861D02*
X663163Y542861D01*
X660336Y545688D01*
X660336Y549687D01*
X660794Y550145D01*
X660829Y550191D01*
X660871Y550232D01*
X660914Y550305D01*
X660964Y550372D01*
X660985Y550426D01*
X661015Y550477D01*
X661036Y550559D01*
X661066Y550637D01*
X661071Y550696D01*
X661085Y550752D01*
X661082Y550837D01*
X661089Y550921D01*
X661078Y550978D01*
X661076Y551037D01*
X661050Y551117D01*
X661033Y551200D01*
X661006Y551251D01*
X660988Y551307D01*
X660948Y551363D01*
X660902Y551452D01*
X660834Y551524D01*
X660794Y551580D01*
X660336Y552038D01*
X660336Y556037D01*
X663163Y558864D01*
X667162Y558864D01*
X669989Y556037D01*
X669989Y552038D01*
X669531Y551580D01*
X669496Y551534D01*
X669454Y551493D01*
X669411Y551421D01*
X669361Y551353D01*
X669340Y551299D01*
X669310Y551248D01*
X669289Y551167D01*
X669259Y551088D01*
X669254Y551029D01*
X669240Y550973D01*
X669243Y550888D01*
X669236Y550804D01*
X669247Y550747D01*
X669249Y550688D01*
X669275Y550608D01*
X669292Y550526D01*
X669319Y550474D01*
X669337Y550418D01*
X669377Y550362D01*
X669423Y550273D01*
X669491Y550201D01*
X669531Y550145D01*
X669989Y549687D01*
X669989Y545688D01*
X667162Y542861D01*
X663163Y542861D01*
G37*
%LPD*%
%LPC*%
G36*
X637763Y542861D02*
X637763Y542861D01*
X634936Y545688D01*
X634936Y549687D01*
X635394Y550145D01*
X635429Y550191D01*
X635471Y550232D01*
X635514Y550305D01*
X635564Y550372D01*
X635585Y550426D01*
X635615Y550477D01*
X635636Y550559D01*
X635666Y550637D01*
X635671Y550696D01*
X635685Y550752D01*
X635682Y550837D01*
X635689Y550921D01*
X635678Y550978D01*
X635676Y551037D01*
X635650Y551117D01*
X635633Y551200D01*
X635606Y551251D01*
X635588Y551307D01*
X635548Y551363D01*
X635502Y551452D01*
X635434Y551524D01*
X635394Y551580D01*
X634936Y552038D01*
X634936Y556037D01*
X637763Y558864D01*
X641762Y558864D01*
X644589Y556037D01*
X644589Y552038D01*
X644131Y551580D01*
X644096Y551534D01*
X644054Y551493D01*
X644011Y551421D01*
X643961Y551353D01*
X643940Y551299D01*
X643910Y551248D01*
X643889Y551167D01*
X643859Y551088D01*
X643854Y551029D01*
X643840Y550973D01*
X643843Y550888D01*
X643836Y550804D01*
X643847Y550747D01*
X643849Y550688D01*
X643875Y550608D01*
X643892Y550526D01*
X643919Y550474D01*
X643937Y550418D01*
X643977Y550362D01*
X644023Y550273D01*
X644091Y550201D01*
X644131Y550145D01*
X644589Y549687D01*
X644589Y545688D01*
X641762Y542861D01*
X637763Y542861D01*
G37*
%LPD*%
%LPC*%
G36*
X385351Y612711D02*
X385351Y612711D01*
X382523Y615538D01*
X382523Y619537D01*
X382981Y619995D01*
X383016Y620041D01*
X383059Y620082D01*
X383101Y620155D01*
X383152Y620222D01*
X383173Y620276D01*
X383202Y620327D01*
X383223Y620409D01*
X383253Y620487D01*
X383258Y620546D01*
X383272Y620602D01*
X383270Y620687D01*
X383277Y620771D01*
X383265Y620828D01*
X383263Y620887D01*
X383237Y620967D01*
X383221Y621050D01*
X383194Y621101D01*
X383176Y621157D01*
X383136Y621213D01*
X383090Y621302D01*
X383021Y621374D01*
X382981Y621430D01*
X382523Y621888D01*
X382523Y625887D01*
X385351Y628714D01*
X389349Y628714D01*
X392177Y625887D01*
X392177Y621888D01*
X391719Y621430D01*
X391684Y621384D01*
X391641Y621343D01*
X391599Y621271D01*
X391548Y621203D01*
X391527Y621149D01*
X391498Y621098D01*
X391477Y621017D01*
X391447Y620938D01*
X391442Y620879D01*
X391428Y620823D01*
X391430Y620738D01*
X391423Y620654D01*
X391435Y620597D01*
X391437Y620538D01*
X391463Y620458D01*
X391479Y620376D01*
X391506Y620324D01*
X391524Y620268D01*
X391564Y620212D01*
X391610Y620123D01*
X391679Y620051D01*
X391719Y619995D01*
X392177Y619537D01*
X392177Y615538D01*
X389349Y612711D01*
X385351Y612711D01*
G37*
%LPD*%
%LPC*%
G36*
X388526Y688911D02*
X388526Y688911D01*
X385698Y691738D01*
X385698Y695737D01*
X386156Y696195D01*
X386191Y696241D01*
X386234Y696282D01*
X386276Y696354D01*
X386327Y696422D01*
X386348Y696476D01*
X386377Y696527D01*
X386398Y696608D01*
X386428Y696687D01*
X386433Y696746D01*
X386447Y696802D01*
X386445Y696887D01*
X386452Y696971D01*
X386440Y697028D01*
X386438Y697087D01*
X386412Y697167D01*
X386396Y697249D01*
X386369Y697301D01*
X386351Y697357D01*
X386311Y697413D01*
X386265Y697502D01*
X386196Y697574D01*
X386156Y697630D01*
X385698Y698088D01*
X385698Y702087D01*
X388526Y704914D01*
X392524Y704914D01*
X395352Y702087D01*
X395352Y698088D01*
X394894Y697630D01*
X394859Y697584D01*
X394816Y697543D01*
X394774Y697470D01*
X394723Y697403D01*
X394702Y697349D01*
X394673Y697298D01*
X394652Y697216D01*
X394622Y697138D01*
X394617Y697079D01*
X394603Y697023D01*
X394605Y696938D01*
X394598Y696854D01*
X394610Y696797D01*
X394612Y696738D01*
X394638Y696658D01*
X394654Y696575D01*
X394681Y696524D01*
X394699Y696468D01*
X394739Y696412D01*
X394785Y696323D01*
X394854Y696251D01*
X394894Y696195D01*
X395352Y695737D01*
X395352Y691738D01*
X392524Y688911D01*
X388526Y688911D01*
G37*
%LPD*%
%LPC*%
G36*
X388526Y638111D02*
X388526Y638111D01*
X385698Y640938D01*
X385698Y644937D01*
X386156Y645395D01*
X386191Y645441D01*
X386234Y645482D01*
X386276Y645555D01*
X386327Y645622D01*
X386348Y645676D01*
X386377Y645727D01*
X386398Y645809D01*
X386428Y645887D01*
X386433Y645946D01*
X386447Y646002D01*
X386445Y646087D01*
X386452Y646171D01*
X386440Y646228D01*
X386438Y646287D01*
X386412Y646367D01*
X386396Y646450D01*
X386369Y646501D01*
X386351Y646557D01*
X386311Y646613D01*
X386265Y646702D01*
X386196Y646774D01*
X386156Y646830D01*
X385698Y647288D01*
X385698Y651287D01*
X388526Y654114D01*
X392524Y654114D01*
X395352Y651287D01*
X395352Y647288D01*
X394894Y646830D01*
X394859Y646784D01*
X394816Y646743D01*
X394774Y646671D01*
X394723Y646603D01*
X394702Y646549D01*
X394673Y646498D01*
X394652Y646417D01*
X394622Y646338D01*
X394617Y646279D01*
X394603Y646223D01*
X394605Y646138D01*
X394598Y646054D01*
X394610Y645997D01*
X394612Y645938D01*
X394638Y645858D01*
X394654Y645776D01*
X394681Y645724D01*
X394699Y645668D01*
X394739Y645612D01*
X394785Y645523D01*
X394854Y645451D01*
X394894Y645395D01*
X395352Y644937D01*
X395352Y640938D01*
X392524Y638111D01*
X388526Y638111D01*
G37*
%LPD*%
%LPC*%
G36*
X331376Y631761D02*
X331376Y631761D01*
X328548Y634588D01*
X328548Y638587D01*
X329006Y639045D01*
X329016Y639057D01*
X329021Y639062D01*
X329036Y639085D01*
X329041Y639091D01*
X329084Y639132D01*
X329126Y639205D01*
X329177Y639272D01*
X329198Y639326D01*
X329227Y639377D01*
X329248Y639459D01*
X329278Y639537D01*
X329283Y639596D01*
X329297Y639652D01*
X329295Y639737D01*
X329302Y639821D01*
X329290Y639878D01*
X329288Y639937D01*
X329262Y640017D01*
X329246Y640100D01*
X329219Y640151D01*
X329201Y640207D01*
X329161Y640263D01*
X329115Y640352D01*
X329046Y640424D01*
X329006Y640480D01*
X328548Y640938D01*
X328548Y644937D01*
X331376Y647764D01*
X335374Y647764D01*
X338202Y644937D01*
X338202Y640938D01*
X337744Y640480D01*
X337709Y640434D01*
X337666Y640393D01*
X337624Y640321D01*
X337573Y640253D01*
X337552Y640199D01*
X337523Y640148D01*
X337502Y640067D01*
X337472Y639988D01*
X337467Y639929D01*
X337453Y639873D01*
X337455Y639788D01*
X337448Y639704D01*
X337460Y639647D01*
X337462Y639588D01*
X337488Y639508D01*
X337504Y639426D01*
X337531Y639374D01*
X337549Y639318D01*
X337589Y639262D01*
X337635Y639173D01*
X337682Y639123D01*
X337695Y639102D01*
X337719Y639079D01*
X337744Y639045D01*
X338202Y638587D01*
X338202Y634588D01*
X335374Y631761D01*
X331376Y631761D01*
G37*
%LPD*%
%LPC*%
G36*
X247238Y631761D02*
X247238Y631761D01*
X244411Y634588D01*
X244411Y638587D01*
X244869Y639045D01*
X244878Y639057D01*
X244884Y639062D01*
X244899Y639085D01*
X244904Y639091D01*
X244946Y639132D01*
X244989Y639205D01*
X245039Y639272D01*
X245060Y639326D01*
X245090Y639377D01*
X245111Y639459D01*
X245141Y639537D01*
X245146Y639596D01*
X245160Y639652D01*
X245157Y639737D01*
X245164Y639821D01*
X245153Y639878D01*
X245151Y639937D01*
X245125Y640017D01*
X245108Y640100D01*
X245081Y640151D01*
X245063Y640207D01*
X245023Y640263D01*
X244977Y640352D01*
X244909Y640424D01*
X244869Y640480D01*
X244411Y640938D01*
X244411Y644937D01*
X247238Y647764D01*
X251237Y647764D01*
X254064Y644937D01*
X254064Y640938D01*
X253606Y640480D01*
X253571Y640434D01*
X253529Y640393D01*
X253486Y640321D01*
X253436Y640253D01*
X253415Y640199D01*
X253385Y640148D01*
X253364Y640067D01*
X253334Y639988D01*
X253329Y639929D01*
X253315Y639873D01*
X253318Y639788D01*
X253311Y639704D01*
X253322Y639647D01*
X253324Y639588D01*
X253350Y639508D01*
X253367Y639426D01*
X253394Y639374D01*
X253412Y639318D01*
X253452Y639262D01*
X253498Y639173D01*
X253545Y639123D01*
X253558Y639102D01*
X253582Y639079D01*
X253606Y639045D01*
X254064Y638587D01*
X254064Y634588D01*
X251237Y631761D01*
X247238Y631761D01*
G37*
%LPD*%
%LPC*%
G36*
X258351Y357123D02*
X258351Y357123D01*
X255523Y359951D01*
X255523Y363949D01*
X258351Y366777D01*
X262121Y366777D01*
X262150Y366781D01*
X262180Y366778D01*
X262291Y366801D01*
X262403Y366817D01*
X262410Y366820D01*
X262419Y366804D01*
X262429Y366776D01*
X262474Y366712D01*
X262550Y366585D01*
X262595Y366542D01*
X262623Y366503D01*
X265177Y363949D01*
X265177Y359951D01*
X262349Y357123D01*
X258351Y357123D01*
G37*
%LPD*%
%LPC*%
G36*
X379001Y136461D02*
X379001Y136461D01*
X376173Y139288D01*
X376173Y143287D01*
X379001Y146114D01*
X382999Y146114D01*
X385827Y143287D01*
X385827Y139288D01*
X382999Y136461D01*
X379001Y136461D01*
G37*
%LPD*%
%LPC*%
G36*
X693326Y347598D02*
X693326Y347598D01*
X690498Y350426D01*
X690498Y354424D01*
X693326Y357252D01*
X697324Y357252D01*
X700152Y354424D01*
X700152Y350426D01*
X697324Y347598D01*
X693326Y347598D01*
G37*
%LPD*%
%LPC*%
G36*
X598076Y312673D02*
X598076Y312673D01*
X595248Y315501D01*
X595248Y319499D01*
X598076Y322327D01*
X602074Y322327D01*
X604902Y319499D01*
X604902Y315501D01*
X602074Y312673D01*
X598076Y312673D01*
G37*
%LPD*%
%LPC*%
G36*
X532988Y88836D02*
X532988Y88836D01*
X530161Y91663D01*
X530161Y95662D01*
X532988Y98489D01*
X536987Y98489D01*
X539814Y95662D01*
X539814Y91663D01*
X536987Y88836D01*
X532988Y88836D01*
G37*
%LPD*%
%LPC*%
G36*
X228188Y374586D02*
X228188Y374586D01*
X225361Y377413D01*
X225361Y381412D01*
X228188Y384239D01*
X232187Y384239D01*
X235014Y381412D01*
X235014Y377413D01*
X232187Y374586D01*
X228188Y374586D01*
G37*
%LPD*%
%LPC*%
G36*
X452026Y365061D02*
X452026Y365061D01*
X449198Y367888D01*
X449198Y371887D01*
X452026Y374714D01*
X456024Y374714D01*
X458852Y371887D01*
X458852Y367888D01*
X456024Y365061D01*
X452026Y365061D01*
G37*
%LPD*%
%LPC*%
G36*
X375826Y365061D02*
X375826Y365061D01*
X372998Y367888D01*
X372998Y371887D01*
X375826Y374714D01*
X379824Y374714D01*
X382652Y371887D01*
X382652Y367888D01*
X379824Y365061D01*
X375826Y365061D01*
G37*
%LPD*%
%LPC*%
G36*
X661576Y312673D02*
X661576Y312673D01*
X658748Y315501D01*
X658748Y319499D01*
X661576Y322327D01*
X665574Y322327D01*
X668402Y319499D01*
X668402Y315501D01*
X665574Y312673D01*
X661576Y312673D01*
G37*
%LPD*%
%LPC*%
G36*
X688563Y363473D02*
X688563Y363473D01*
X685736Y366301D01*
X685736Y370299D01*
X688563Y373127D01*
X692562Y373127D01*
X695389Y370299D01*
X695389Y366301D01*
X692562Y363473D01*
X688563Y363473D01*
G37*
%LPD*%
%LPC*%
G36*
X417101Y136461D02*
X417101Y136461D01*
X414273Y139288D01*
X414273Y143287D01*
X417101Y146114D01*
X421099Y146114D01*
X423927Y143287D01*
X423927Y139288D01*
X421099Y136461D01*
X417101Y136461D01*
G37*
%LPD*%
%LPC*%
G36*
X275813Y357123D02*
X275813Y357123D01*
X272986Y359951D01*
X272986Y363949D01*
X275813Y366777D01*
X279812Y366777D01*
X282639Y363949D01*
X282639Y359951D01*
X279812Y357123D01*
X275813Y357123D01*
G37*
%LPD*%
%LPC*%
G36*
X447263Y317436D02*
X447263Y317436D01*
X444436Y320263D01*
X444436Y324262D01*
X447263Y327089D01*
X451262Y327089D01*
X454089Y324262D01*
X454089Y320263D01*
X451262Y317436D01*
X447263Y317436D01*
G37*
%LPD*%
%LPC*%
G36*
X639351Y323786D02*
X639351Y323786D01*
X636523Y326613D01*
X636523Y330612D01*
X639351Y333439D01*
X643349Y333439D01*
X646177Y330612D01*
X646177Y326613D01*
X643349Y323786D01*
X639351Y323786D01*
G37*
%LPD*%
%LPC*%
G36*
X440913Y355536D02*
X440913Y355536D01*
X438086Y358363D01*
X438086Y362362D01*
X440913Y365189D01*
X444912Y365189D01*
X447739Y362362D01*
X447739Y358363D01*
X444912Y355536D01*
X440913Y355536D01*
G37*
%LPD*%
%LPC*%
G36*
X723488Y325373D02*
X723488Y325373D01*
X720661Y328201D01*
X720661Y332199D01*
X723488Y335027D01*
X727487Y335027D01*
X730314Y332199D01*
X730314Y328201D01*
X727487Y325373D01*
X723488Y325373D01*
G37*
%LPD*%
%LPC*%
G36*
X621888Y330136D02*
X621888Y330136D01*
X619061Y332963D01*
X619061Y336962D01*
X621888Y339789D01*
X625887Y339789D01*
X628714Y336962D01*
X628714Y332963D01*
X625887Y330136D01*
X621888Y330136D01*
G37*
%LPD*%
%LPC*%
G36*
X644113Y352361D02*
X644113Y352361D01*
X641286Y355188D01*
X641286Y359187D01*
X644113Y362014D01*
X648112Y362014D01*
X650939Y359187D01*
X650939Y355188D01*
X648112Y352361D01*
X644113Y352361D01*
G37*
%LPD*%
%LPC*%
G36*
X198026Y339661D02*
X198026Y339661D01*
X195198Y342488D01*
X195198Y346487D01*
X198026Y349314D01*
X202024Y349314D01*
X204852Y346487D01*
X204852Y342488D01*
X202024Y339661D01*
X198026Y339661D01*
G37*
%LPD*%
%LPC*%
G36*
X264701Y346011D02*
X264701Y346011D01*
X261873Y348838D01*
X261873Y352837D01*
X264701Y355664D01*
X268699Y355664D01*
X271527Y352837D01*
X271527Y348838D01*
X268699Y346011D01*
X264701Y346011D01*
G37*
%LPD*%
%LPC*%
G36*
X715551Y163448D02*
X715551Y163448D01*
X712723Y166276D01*
X712723Y170274D01*
X715551Y173102D01*
X719549Y173102D01*
X722377Y170274D01*
X722377Y166276D01*
X719549Y163448D01*
X715551Y163448D01*
G37*
%LPD*%
%LPC*%
G36*
X615538Y187261D02*
X615538Y187261D01*
X612711Y190088D01*
X612711Y194087D01*
X615538Y196914D01*
X619537Y196914D01*
X622364Y194087D01*
X622364Y190088D01*
X619537Y187261D01*
X615538Y187261D01*
G37*
%LPD*%
%LPC*%
G36*
X556801Y198373D02*
X556801Y198373D01*
X553973Y201201D01*
X553973Y205199D01*
X556801Y208027D01*
X560799Y208027D01*
X563627Y205199D01*
X563627Y201201D01*
X560799Y198373D01*
X556801Y198373D01*
G37*
%LPD*%
%LPC*%
G36*
X645701Y203136D02*
X645701Y203136D01*
X642873Y205963D01*
X642873Y209962D01*
X645701Y212789D01*
X649699Y212789D01*
X652527Y209962D01*
X652527Y205963D01*
X649699Y203136D01*
X645701Y203136D01*
G37*
%LPD*%
%LPC*%
G36*
X601251Y214248D02*
X601251Y214248D01*
X598423Y217076D01*
X598423Y221074D01*
X601251Y223902D01*
X605249Y223902D01*
X608077Y221074D01*
X608077Y217076D01*
X605249Y214248D01*
X601251Y214248D01*
G37*
%LPD*%
%LPC*%
G36*
X577438Y177736D02*
X577438Y177736D01*
X574611Y180563D01*
X574611Y184562D01*
X577438Y187389D01*
X581437Y187389D01*
X584264Y184562D01*
X584264Y180563D01*
X581437Y177736D01*
X577438Y177736D01*
G37*
%LPD*%
%LPC*%
G36*
X459963Y217423D02*
X459963Y217423D01*
X457136Y220251D01*
X457136Y224249D01*
X459963Y227077D01*
X463962Y227077D01*
X466789Y224249D01*
X466789Y220251D01*
X463962Y217423D01*
X459963Y217423D01*
G37*
%LPD*%
%LPC*%
G36*
X628238Y222186D02*
X628238Y222186D01*
X625411Y225013D01*
X625411Y229012D01*
X628238Y231839D01*
X632237Y231839D01*
X635064Y229012D01*
X635064Y225013D01*
X632237Y222186D01*
X628238Y222186D01*
G37*
%LPD*%
%LPC*%
G36*
X417101Y225361D02*
X417101Y225361D01*
X414273Y228188D01*
X414273Y232187D01*
X417101Y235014D01*
X421099Y235014D01*
X423927Y232187D01*
X423927Y228188D01*
X421099Y225361D01*
X417101Y225361D01*
G37*
%LPD*%
%LPC*%
G36*
X391701Y225361D02*
X391701Y225361D01*
X388873Y228188D01*
X388873Y232187D01*
X391701Y235014D01*
X395699Y235014D01*
X398527Y232187D01*
X398527Y228188D01*
X395699Y225361D01*
X391701Y225361D01*
G37*
%LPD*%
%LPC*%
G36*
X379001Y225361D02*
X379001Y225361D01*
X376173Y228188D01*
X376173Y232187D01*
X379001Y235014D01*
X382999Y235014D01*
X385827Y232187D01*
X385827Y228188D01*
X382999Y225361D01*
X379001Y225361D01*
G37*
%LPD*%
%LPC*%
G36*
X404401Y225361D02*
X404401Y225361D01*
X401573Y228188D01*
X401573Y232187D01*
X404401Y235014D01*
X408399Y235014D01*
X411227Y232187D01*
X411227Y228188D01*
X408399Y225361D01*
X404401Y225361D01*
G37*
%LPD*%
%LPC*%
G36*
X510763Y168211D02*
X510763Y168211D01*
X507936Y171038D01*
X507936Y175037D01*
X510763Y177864D01*
X514762Y177864D01*
X517589Y175037D01*
X517589Y171038D01*
X514762Y168211D01*
X510763Y168211D01*
G37*
%LPD*%
%LPC*%
G36*
X618713Y231711D02*
X618713Y231711D01*
X615886Y234538D01*
X615886Y238537D01*
X618713Y241364D01*
X622712Y241364D01*
X625539Y238537D01*
X625539Y234538D01*
X622712Y231711D01*
X618713Y231711D01*
G37*
%LPD*%
%LPC*%
G36*
X677451Y163448D02*
X677451Y163448D01*
X674623Y166276D01*
X674623Y170274D01*
X677451Y173102D01*
X681449Y173102D01*
X684277Y170274D01*
X684277Y166276D01*
X681449Y163448D01*
X677451Y163448D01*
G37*
%LPD*%
%LPC*%
G36*
X690151Y163448D02*
X690151Y163448D01*
X687323Y166276D01*
X687323Y170274D01*
X690151Y173102D01*
X694149Y173102D01*
X696977Y170274D01*
X696977Y166276D01*
X694149Y163448D01*
X690151Y163448D01*
G37*
%LPD*%
%LPC*%
G36*
X391701Y136461D02*
X391701Y136461D01*
X388873Y139288D01*
X388873Y143287D01*
X391701Y146114D01*
X395699Y146114D01*
X398527Y143287D01*
X398527Y139288D01*
X395699Y136461D01*
X391701Y136461D01*
G37*
%LPD*%
%LPC*%
G36*
X458376Y160273D02*
X458376Y160273D01*
X455548Y163101D01*
X455548Y167099D01*
X458376Y169927D01*
X462374Y169927D01*
X465202Y167099D01*
X465202Y163101D01*
X462374Y160273D01*
X458376Y160273D01*
G37*
%LPD*%
%LPC*%
G36*
X677451Y252348D02*
X677451Y252348D01*
X674623Y255176D01*
X674623Y259174D01*
X677451Y262002D01*
X681449Y262002D01*
X684277Y259174D01*
X684277Y255176D01*
X681449Y252348D01*
X677451Y252348D01*
G37*
%LPD*%
%LPC*%
G36*
X690151Y252348D02*
X690151Y252348D01*
X687323Y255176D01*
X687323Y259174D01*
X690151Y262002D01*
X694149Y262002D01*
X696977Y259174D01*
X696977Y255176D01*
X694149Y252348D01*
X690151Y252348D01*
G37*
%LPD*%
%LPC*%
G36*
X702851Y252348D02*
X702851Y252348D01*
X700023Y255176D01*
X700023Y259174D01*
X702851Y262002D01*
X706849Y262002D01*
X709677Y259174D01*
X709677Y255176D01*
X706849Y252348D01*
X702851Y252348D01*
G37*
%LPD*%
%LPC*%
G36*
X715551Y252348D02*
X715551Y252348D01*
X712723Y255176D01*
X712723Y259174D01*
X715551Y262002D01*
X719549Y262002D01*
X722377Y259174D01*
X722377Y255176D01*
X719549Y252348D01*
X715551Y252348D01*
G37*
%LPD*%
%LPC*%
G36*
X634588Y253936D02*
X634588Y253936D01*
X631761Y256763D01*
X631761Y260762D01*
X634588Y263589D01*
X638587Y263589D01*
X641414Y260762D01*
X641414Y256763D01*
X638587Y253936D01*
X634588Y253936D01*
G37*
%LPD*%
%LPC*%
G36*
X572676Y157098D02*
X572676Y157098D01*
X569848Y159926D01*
X569848Y163924D01*
X572676Y166752D01*
X576674Y166752D01*
X579502Y163924D01*
X579502Y159926D01*
X576674Y157098D01*
X572676Y157098D01*
G37*
%LPD*%
%LPC*%
G36*
X559976Y155511D02*
X559976Y155511D01*
X557148Y158338D01*
X557148Y162337D01*
X559976Y165164D01*
X563974Y165164D01*
X566802Y162337D01*
X566802Y158338D01*
X563974Y155511D01*
X559976Y155511D01*
G37*
%LPD*%
%LPC*%
G36*
X488538Y147573D02*
X488538Y147573D01*
X485711Y150401D01*
X485711Y154399D01*
X488538Y157227D01*
X492537Y157227D01*
X495364Y154399D01*
X495364Y150401D01*
X492537Y147573D01*
X488538Y147573D01*
G37*
%LPD*%
%LPC*%
G36*
X466313Y277748D02*
X466313Y277748D01*
X463486Y280576D01*
X463486Y284574D01*
X466313Y287402D01*
X470312Y287402D01*
X473139Y284574D01*
X473139Y280576D01*
X470312Y277748D01*
X466313Y277748D01*
G37*
%LPD*%
%LPC*%
G36*
X548863Y145986D02*
X548863Y145986D01*
X546036Y148813D01*
X546036Y152812D01*
X548863Y155639D01*
X552862Y155639D01*
X555689Y152812D01*
X555689Y148813D01*
X552862Y145986D01*
X548863Y145986D01*
G37*
%LPD*%
%LPC*%
G36*
X585376Y190436D02*
X585376Y190436D01*
X582548Y193263D01*
X582548Y197262D01*
X585376Y200089D01*
X589374Y200089D01*
X592202Y197262D01*
X592202Y193263D01*
X589374Y190436D01*
X585376Y190436D01*
G37*
%LPD*%
%LPC*%
G36*
X618713Y290448D02*
X618713Y290448D01*
X615886Y293276D01*
X615886Y297274D01*
X618713Y300102D01*
X622712Y300102D01*
X625539Y297274D01*
X625539Y293276D01*
X622712Y290448D01*
X618713Y290448D01*
G37*
%LPD*%
%LPC*%
G36*
X548863Y301561D02*
X548863Y301561D01*
X546036Y304388D01*
X546036Y308387D01*
X548863Y311214D01*
X552862Y311214D01*
X555689Y308387D01*
X555689Y304388D01*
X552862Y301561D01*
X548863Y301561D01*
G37*
%LPD*%
%LPC*%
G36*
X299626Y538098D02*
X299626Y538098D01*
X296798Y540926D01*
X296798Y544924D01*
X299626Y547752D01*
X303624Y547752D01*
X306452Y544924D01*
X306452Y540926D01*
X303624Y538098D01*
X299626Y538098D01*
G37*
%LPD*%
%LPC*%
G36*
X674276Y566673D02*
X674276Y566673D01*
X671448Y569501D01*
X671448Y573499D01*
X674276Y576327D01*
X678274Y576327D01*
X681102Y573499D01*
X681102Y569501D01*
X678274Y566673D01*
X674276Y566673D01*
G37*
%LPD*%
%LPC*%
G36*
X361538Y553973D02*
X361538Y553973D01*
X358711Y556801D01*
X358711Y560799D01*
X361538Y563627D01*
X365537Y563627D01*
X368364Y560799D01*
X368364Y556801D01*
X365537Y553973D01*
X361538Y553973D01*
G37*
%LPD*%
%LPC*%
G36*
X213901Y552386D02*
X213901Y552386D01*
X211073Y555213D01*
X211073Y559212D01*
X213901Y562039D01*
X217899Y562039D01*
X220727Y559212D01*
X220727Y555213D01*
X217899Y552386D01*
X213901Y552386D01*
G37*
%LPD*%
%LPC*%
G36*
X537751Y547623D02*
X537751Y547623D01*
X534923Y550451D01*
X534923Y554449D01*
X537751Y557277D01*
X541749Y557277D01*
X544577Y554449D01*
X544577Y550451D01*
X541749Y547623D01*
X537751Y547623D01*
G37*
%LPD*%
%LPC*%
G36*
X555213Y546036D02*
X555213Y546036D01*
X552386Y548863D01*
X552386Y552862D01*
X555213Y555689D01*
X559212Y555689D01*
X562039Y552862D01*
X562039Y548863D01*
X559212Y546036D01*
X555213Y546036D01*
G37*
%LPD*%
%LPC*%
G36*
X439326Y546036D02*
X439326Y546036D01*
X436498Y548863D01*
X436498Y552862D01*
X439326Y555689D01*
X443324Y555689D01*
X446152Y552862D01*
X446152Y548863D01*
X443324Y546036D01*
X439326Y546036D01*
G37*
%LPD*%
%LPC*%
G36*
X125001Y538098D02*
X125001Y538098D01*
X122173Y540926D01*
X122173Y544924D01*
X125001Y547752D01*
X128999Y547752D01*
X131827Y544924D01*
X131827Y540926D01*
X128999Y538098D01*
X125001Y538098D01*
G37*
%LPD*%
%LPC*%
G36*
X137701Y538098D02*
X137701Y538098D01*
X134873Y540926D01*
X134873Y544924D01*
X137701Y547752D01*
X141699Y547752D01*
X144527Y544924D01*
X144527Y540926D01*
X141699Y538098D01*
X137701Y538098D01*
G37*
%LPD*%
%LPC*%
G36*
X648876Y566673D02*
X648876Y566673D01*
X646048Y569501D01*
X646048Y573499D01*
X648876Y576327D01*
X652874Y576327D01*
X655702Y573499D01*
X655702Y569501D01*
X652874Y566673D01*
X648876Y566673D01*
G37*
%LPD*%
%LPC*%
G36*
X571088Y523811D02*
X571088Y523811D01*
X568261Y526638D01*
X568261Y530637D01*
X571088Y533464D01*
X575087Y533464D01*
X577914Y530637D01*
X577914Y526638D01*
X575087Y523811D01*
X571088Y523811D01*
G37*
%LPD*%
%LPC*%
G36*
X607601Y519048D02*
X607601Y519048D01*
X604773Y521876D01*
X604773Y525874D01*
X607601Y528702D01*
X611599Y528702D01*
X614427Y525874D01*
X614427Y521876D01*
X611599Y519048D01*
X607601Y519048D01*
G37*
%LPD*%
%LPC*%
G36*
X288513Y519048D02*
X288513Y519048D01*
X285686Y521876D01*
X285686Y525874D01*
X288513Y528702D01*
X292512Y528702D01*
X295339Y525874D01*
X295339Y521876D01*
X292512Y519048D01*
X288513Y519048D01*
G37*
%LPD*%
%LPC*%
G36*
X515526Y503173D02*
X515526Y503173D01*
X512698Y506001D01*
X512698Y509999D01*
X515526Y512827D01*
X519524Y512827D01*
X522352Y509999D01*
X522352Y506001D01*
X519524Y503173D01*
X515526Y503173D01*
G37*
%LPD*%
%LPC*%
G36*
X364713Y499998D02*
X364713Y499998D01*
X361886Y502826D01*
X361886Y506824D01*
X364713Y509652D01*
X368712Y509652D01*
X371539Y506824D01*
X371539Y502826D01*
X368712Y499998D01*
X364713Y499998D01*
G37*
%LPD*%
%LPC*%
G36*
X596488Y498411D02*
X596488Y498411D01*
X593661Y501238D01*
X593661Y505237D01*
X596488Y508064D01*
X600487Y508064D01*
X603314Y505237D01*
X603314Y501238D01*
X600487Y498411D01*
X596488Y498411D01*
G37*
%LPD*%
%LPC*%
G36*
X221838Y496823D02*
X221838Y496823D01*
X219011Y499651D01*
X219011Y503649D01*
X221838Y506477D01*
X225837Y506477D01*
X228664Y503649D01*
X228664Y499651D01*
X225837Y496823D01*
X221838Y496823D01*
G37*
%LPD*%
%LPC*%
G36*
X282163Y493648D02*
X282163Y493648D01*
X279336Y496476D01*
X279336Y500474D01*
X282163Y503302D01*
X286162Y503302D01*
X288989Y500474D01*
X288989Y496476D01*
X286162Y493648D01*
X282163Y493648D01*
G37*
%LPD*%
%LPC*%
G36*
X488538Y593661D02*
X488538Y593661D01*
X485711Y596488D01*
X485711Y600487D01*
X488538Y603314D01*
X492537Y603314D01*
X495364Y600487D01*
X495364Y596488D01*
X492537Y593661D01*
X488538Y593661D01*
G37*
%LPD*%
%LPC*%
G36*
X472663Y671448D02*
X472663Y671448D01*
X469836Y674276D01*
X469836Y678274D01*
X472663Y681102D01*
X476662Y681102D01*
X479489Y678274D01*
X479489Y674276D01*
X476662Y671448D01*
X472663Y671448D01*
G37*
%LPD*%
%LPC*%
G36*
X261526Y663511D02*
X261526Y663511D01*
X258698Y666338D01*
X258698Y670337D01*
X261526Y673164D01*
X265524Y673164D01*
X268352Y670337D01*
X268352Y666338D01*
X265524Y663511D01*
X261526Y663511D01*
G37*
%LPD*%
%LPC*%
G36*
X305976Y663511D02*
X305976Y663511D01*
X303148Y666338D01*
X303148Y670337D01*
X305976Y673164D01*
X309974Y673164D01*
X312802Y670337D01*
X312802Y666338D01*
X309974Y663511D01*
X305976Y663511D01*
G37*
%LPD*%
%LPC*%
G36*
X337726Y650811D02*
X337726Y650811D01*
X334898Y653638D01*
X334898Y657637D01*
X337726Y660464D01*
X341724Y660464D01*
X344552Y657637D01*
X344552Y653638D01*
X341724Y650811D01*
X337726Y650811D01*
G37*
%LPD*%
%LPC*%
G36*
X239301Y650811D02*
X239301Y650811D01*
X236473Y653638D01*
X236473Y657637D01*
X239301Y660464D01*
X243299Y660464D01*
X246127Y657637D01*
X246127Y653638D01*
X243299Y650811D01*
X239301Y650811D01*
G37*
%LPD*%
%LPC*%
G36*
X459963Y647636D02*
X459963Y647636D01*
X457136Y650463D01*
X457136Y654462D01*
X459963Y657289D01*
X463962Y657289D01*
X466789Y654462D01*
X466789Y650463D01*
X463962Y647636D01*
X459963Y647636D01*
G37*
%LPD*%
%LPC*%
G36*
X356776Y633348D02*
X356776Y633348D01*
X353948Y636176D01*
X353948Y640174D01*
X356776Y643002D01*
X360774Y643002D01*
X363602Y640174D01*
X363602Y636176D01*
X360774Y633348D01*
X356776Y633348D01*
G37*
%LPD*%
%LPC*%
G36*
X282163Y600011D02*
X282163Y600011D01*
X279336Y602838D01*
X279336Y606837D01*
X282163Y609664D01*
X286162Y609664D01*
X288989Y606837D01*
X288989Y602838D01*
X286162Y600011D01*
X282163Y600011D01*
G37*
%LPD*%
%LPC*%
G36*
X337726Y482536D02*
X337726Y482536D01*
X334898Y485363D01*
X334898Y489362D01*
X337726Y492189D01*
X341724Y492189D01*
X344552Y489362D01*
X344552Y485363D01*
X341724Y482536D01*
X337726Y482536D01*
G37*
%LPD*%
%LPC*%
G36*
X226601Y587311D02*
X226601Y587311D01*
X223773Y590138D01*
X223773Y594137D01*
X226601Y596964D01*
X230599Y596964D01*
X233427Y594137D01*
X233427Y590138D01*
X230599Y587311D01*
X226601Y587311D01*
G37*
%LPD*%
%LPC*%
G36*
X313913Y587311D02*
X313913Y587311D01*
X311086Y590138D01*
X311086Y594137D01*
X313913Y596964D01*
X317912Y596964D01*
X320739Y594137D01*
X320739Y590138D01*
X317912Y587311D01*
X313913Y587311D01*
G37*
%LPD*%
%LPC*%
G36*
X337726Y587311D02*
X337726Y587311D01*
X334898Y590138D01*
X334898Y594137D01*
X337726Y596964D01*
X341724Y596964D01*
X344552Y594137D01*
X344552Y590138D01*
X341724Y587311D01*
X337726Y587311D01*
G37*
%LPD*%
%LPC*%
G36*
X461551Y585723D02*
X461551Y585723D01*
X458723Y588551D01*
X458723Y592549D01*
X461551Y595377D01*
X465549Y595377D01*
X468377Y592549D01*
X468377Y588551D01*
X465549Y585723D01*
X461551Y585723D01*
G37*
%LPD*%
%LPC*%
G36*
X280576Y574611D02*
X280576Y574611D01*
X277748Y577438D01*
X277748Y581437D01*
X280576Y584264D01*
X284574Y584264D01*
X287402Y581437D01*
X287402Y577438D01*
X284574Y574611D01*
X280576Y574611D01*
G37*
%LPD*%
%LPC*%
G36*
X232951Y573023D02*
X232951Y573023D01*
X230123Y575851D01*
X230123Y579849D01*
X232951Y582677D01*
X236949Y582677D01*
X239777Y579849D01*
X239777Y575851D01*
X236949Y573023D01*
X232951Y573023D01*
G37*
%LPD*%
%LPC*%
G36*
X371063Y569848D02*
X371063Y569848D01*
X368236Y572676D01*
X368236Y576674D01*
X371063Y579502D01*
X375062Y579502D01*
X377889Y576674D01*
X377889Y572676D01*
X375062Y569848D01*
X371063Y569848D01*
G37*
%LPD*%
%LPC*%
G36*
X499651Y401573D02*
X499651Y401573D01*
X496823Y404401D01*
X496823Y408399D01*
X499651Y411227D01*
X503649Y411227D01*
X506477Y408399D01*
X506477Y404401D01*
X503649Y401573D01*
X499651Y401573D01*
G37*
%LPD*%
%LPC*%
G36*
X293276Y420623D02*
X293276Y420623D01*
X290448Y423451D01*
X290448Y427449D01*
X293276Y430277D01*
X297274Y430277D01*
X300102Y427449D01*
X300102Y423451D01*
X297274Y420623D01*
X293276Y420623D01*
G37*
%LPD*%
%LPC*%
G36*
X336138Y414273D02*
X336138Y414273D01*
X333311Y417101D01*
X333311Y421099D01*
X336138Y423927D01*
X340137Y423927D01*
X342964Y421099D01*
X342964Y417101D01*
X340137Y414273D01*
X336138Y414273D01*
G37*
%LPD*%
%LPC*%
G36*
X304388Y411098D02*
X304388Y411098D01*
X301561Y413926D01*
X301561Y417924D01*
X304388Y420752D01*
X308387Y420752D01*
X311214Y417924D01*
X311214Y413926D01*
X308387Y411098D01*
X304388Y411098D01*
G37*
%LPD*%
%LPC*%
G36*
X515526Y409511D02*
X515526Y409511D01*
X512698Y412338D01*
X512698Y416337D01*
X515526Y419164D01*
X519524Y419164D01*
X522352Y416337D01*
X522352Y412338D01*
X519524Y409511D01*
X515526Y409511D01*
G37*
%LPD*%
%LPC*%
G36*
X291688Y407923D02*
X291688Y407923D01*
X288861Y410751D01*
X288861Y414749D01*
X291688Y417577D01*
X295687Y417577D01*
X298514Y414749D01*
X298514Y410751D01*
X295687Y407923D01*
X291688Y407923D01*
G37*
%LPD*%
%LPC*%
G36*
X702851Y406336D02*
X702851Y406336D01*
X700023Y409163D01*
X700023Y413162D01*
X702851Y415989D01*
X706849Y415989D01*
X709677Y413162D01*
X709677Y409163D01*
X706849Y406336D01*
X702851Y406336D01*
G37*
%LPD*%
%LPC*%
G36*
X348838Y404748D02*
X348838Y404748D01*
X346011Y407576D01*
X346011Y411574D01*
X348838Y414402D01*
X352837Y414402D01*
X355664Y411574D01*
X355664Y407576D01*
X352837Y404748D01*
X348838Y404748D01*
G37*
%LPD*%
%LPC*%
G36*
X661576Y403161D02*
X661576Y403161D01*
X658748Y405988D01*
X658748Y409987D01*
X661576Y412814D01*
X665574Y412814D01*
X668402Y409987D01*
X668402Y405988D01*
X665574Y403161D01*
X661576Y403161D01*
G37*
%LPD*%
%LPC*%
G36*
X499651Y420623D02*
X499651Y420623D01*
X496823Y423451D01*
X496823Y427449D01*
X499651Y430277D01*
X503649Y430277D01*
X506477Y427449D01*
X506477Y423451D01*
X503649Y420623D01*
X499651Y420623D01*
G37*
%LPD*%
%LPC*%
G36*
X313913Y401573D02*
X313913Y401573D01*
X311086Y404401D01*
X311086Y408399D01*
X313913Y411227D01*
X317912Y411227D01*
X320739Y408399D01*
X320739Y404401D01*
X317912Y401573D01*
X313913Y401573D01*
G37*
%LPD*%
%LPC*%
G36*
X475838Y398398D02*
X475838Y398398D01*
X473011Y401226D01*
X473011Y405224D01*
X475838Y408052D01*
X479837Y408052D01*
X482664Y405224D01*
X482664Y401226D01*
X479837Y398398D01*
X475838Y398398D01*
G37*
%LPD*%
%LPC*%
G36*
X688563Y392048D02*
X688563Y392048D01*
X685736Y394876D01*
X685736Y398874D01*
X688563Y401702D01*
X692562Y401702D01*
X695389Y398874D01*
X695389Y394876D01*
X692562Y392048D01*
X688563Y392048D01*
G37*
%LPD*%
%LPC*%
G36*
X326613Y392048D02*
X326613Y392048D01*
X323786Y394876D01*
X323786Y398874D01*
X326613Y401702D01*
X330612Y401702D01*
X333439Y398874D01*
X333439Y394876D01*
X330612Y392048D01*
X326613Y392048D01*
G37*
%LPD*%
%LPC*%
G36*
X380588Y390461D02*
X380588Y390461D01*
X377761Y393288D01*
X377761Y397287D01*
X380588Y400114D01*
X384587Y400114D01*
X387414Y397287D01*
X387414Y393288D01*
X384587Y390461D01*
X380588Y390461D01*
G37*
%LPD*%
%LPC*%
G36*
X213901Y388873D02*
X213901Y388873D01*
X211073Y391701D01*
X211073Y395699D01*
X213901Y398527D01*
X217899Y398527D01*
X220727Y395699D01*
X220727Y391701D01*
X217899Y388873D01*
X213901Y388873D01*
G37*
%LPD*%
%LPC*%
G36*
X309151Y382523D02*
X309151Y382523D01*
X306323Y385351D01*
X306323Y389349D01*
X309151Y392177D01*
X313149Y392177D01*
X315977Y389349D01*
X315977Y385351D01*
X313149Y382523D01*
X309151Y382523D01*
G37*
%LPD*%
%LPC*%
G36*
X466313Y453961D02*
X466313Y453961D01*
X463486Y456788D01*
X463486Y460787D01*
X466313Y463614D01*
X470312Y463614D01*
X473139Y460787D01*
X473139Y456788D01*
X470312Y453961D01*
X466313Y453961D01*
G37*
%LPD*%
%LPC*%
G36*
X520288Y468248D02*
X520288Y468248D01*
X517461Y471076D01*
X517461Y475074D01*
X520288Y477902D01*
X524287Y477902D01*
X527114Y475074D01*
X527114Y471076D01*
X524287Y468248D01*
X520288Y468248D01*
G37*
%LPD*%
%LPC*%
G36*
X658401Y460311D02*
X658401Y460311D01*
X655573Y463138D01*
X655573Y467137D01*
X658401Y469964D01*
X662399Y469964D01*
X665227Y467137D01*
X665227Y463138D01*
X662399Y460311D01*
X658401Y460311D01*
G37*
%LPD*%
%LPC*%
G36*
X644113Y460311D02*
X644113Y460311D01*
X641286Y463138D01*
X641286Y467137D01*
X644113Y469964D01*
X648112Y469964D01*
X650939Y467137D01*
X650939Y463138D01*
X648112Y460311D01*
X644113Y460311D01*
G37*
%LPD*%
%LPC*%
G36*
X382176Y460311D02*
X382176Y460311D01*
X379348Y463138D01*
X379348Y467137D01*
X382176Y469964D01*
X386174Y469964D01*
X389002Y467137D01*
X389002Y463138D01*
X386174Y460311D01*
X382176Y460311D01*
G37*
%LPD*%
%LPC*%
G36*
X361538Y458723D02*
X361538Y458723D01*
X358711Y461551D01*
X358711Y465549D01*
X361538Y468377D01*
X365537Y468377D01*
X368364Y465549D01*
X368364Y461551D01*
X365537Y458723D01*
X361538Y458723D01*
G37*
%LPD*%
%LPC*%
G36*
X285338Y458723D02*
X285338Y458723D01*
X282511Y461551D01*
X282511Y465549D01*
X285338Y468377D01*
X289337Y468377D01*
X292164Y465549D01*
X292164Y461551D01*
X289337Y458723D01*
X285338Y458723D01*
G37*
%LPD*%
%LPC*%
G36*
X448851Y455548D02*
X448851Y455548D01*
X446023Y458376D01*
X446023Y462374D01*
X448851Y465202D01*
X452849Y465202D01*
X455677Y462374D01*
X455677Y458376D01*
X452849Y455548D01*
X448851Y455548D01*
G37*
%LPD*%
%LPC*%
G36*
X263113Y453961D02*
X263113Y453961D01*
X260286Y456788D01*
X260286Y460787D01*
X263113Y463614D01*
X267112Y463614D01*
X269939Y460787D01*
X269939Y456788D01*
X267112Y453961D01*
X263113Y453961D01*
G37*
%LPD*%
%LPC*%
G36*
X448851Y379348D02*
X448851Y379348D01*
X446023Y382176D01*
X446023Y386174D01*
X448851Y389002D01*
X452849Y389002D01*
X455677Y386174D01*
X455677Y382176D01*
X452849Y379348D01*
X448851Y379348D01*
G37*
%LPD*%
%LPC*%
G36*
X704438Y453961D02*
X704438Y453961D01*
X701611Y456788D01*
X701611Y460787D01*
X704438Y463614D01*
X708437Y463614D01*
X711264Y460787D01*
X711264Y456788D01*
X708437Y453961D01*
X704438Y453961D01*
G37*
%LPD*%
%LPC*%
G36*
X326613Y442848D02*
X326613Y442848D01*
X323786Y445676D01*
X323786Y449674D01*
X326613Y452502D01*
X330612Y452502D01*
X333439Y449674D01*
X333439Y445676D01*
X330612Y442848D01*
X326613Y442848D01*
G37*
%LPD*%
%LPC*%
G36*
X667926Y441261D02*
X667926Y441261D01*
X665098Y444088D01*
X665098Y448087D01*
X667926Y450914D01*
X671924Y450914D01*
X674752Y448087D01*
X674752Y444088D01*
X671924Y441261D01*
X667926Y441261D01*
G37*
%LPD*%
%LPC*%
G36*
X590138Y439673D02*
X590138Y439673D01*
X587311Y442501D01*
X587311Y446499D01*
X590138Y449327D01*
X594137Y449327D01*
X596964Y446499D01*
X596964Y442501D01*
X594137Y439673D01*
X590138Y439673D01*
G37*
%LPD*%
%LPC*%
G36*
X294863Y436498D02*
X294863Y436498D01*
X292036Y439326D01*
X292036Y443324D01*
X294863Y446152D01*
X298862Y446152D01*
X301689Y443324D01*
X301689Y439326D01*
X298862Y436498D01*
X294863Y436498D01*
G37*
%LPD*%
%LPC*%
G36*
X101188Y425386D02*
X101188Y425386D01*
X98361Y428213D01*
X98361Y432212D01*
X101188Y435039D01*
X105187Y435039D01*
X108014Y432212D01*
X108014Y428213D01*
X105187Y425386D01*
X101188Y425386D01*
G37*
%LPD*%
%LPC*%
G36*
X326613Y423798D02*
X326613Y423798D01*
X323786Y426626D01*
X323786Y430624D01*
X326613Y433452D01*
X330612Y433452D01*
X333439Y430624D01*
X333439Y426626D01*
X330612Y423798D01*
X326613Y423798D01*
G37*
%LPD*%
D10*
X430213Y523875D03*
X404813Y523875D03*
X430213Y498475D03*
X404813Y498475D03*
X430213Y473075D03*
X404813Y473075D03*
X430213Y447675D03*
X404813Y447675D03*
X430213Y422275D03*
X404813Y422275D03*
X430213Y396875D03*
X404813Y396875D03*
D11*
X251500Y785000D03*
X251500Y810000D03*
X251500Y835000D03*
X251500Y860000D03*
X288500Y785000D03*
X288500Y810000D03*
X288500Y835000D03*
X288500Y860000D03*
X323500Y785000D03*
X323500Y810000D03*
X323500Y835000D03*
X323500Y860000D03*
X348500Y785000D03*
X348500Y810000D03*
X348500Y835000D03*
X348500Y860000D03*
X373500Y785000D03*
X373500Y810000D03*
X373500Y835000D03*
X373500Y860000D03*
X398500Y785000D03*
X398500Y810000D03*
X398500Y835000D03*
X398500Y860000D03*
X423500Y785000D03*
X423500Y810000D03*
X423500Y835000D03*
X423500Y860000D03*
X448500Y785000D03*
X448500Y810000D03*
X448500Y835000D03*
X448500Y860000D03*
X473500Y785000D03*
X473500Y810000D03*
X473500Y835000D03*
X473500Y860000D03*
X498500Y785000D03*
X498500Y810000D03*
X498500Y835000D03*
X498500Y860000D03*
X523500Y785000D03*
X523500Y810000D03*
X523500Y835000D03*
X523500Y860000D03*
X548500Y785000D03*
X548500Y810000D03*
X548500Y835000D03*
X548500Y860000D03*
D10*
X361950Y273050D03*
X387350Y273050D03*
X412750Y273050D03*
X438150Y273050D03*
X361950Y95250D03*
X387350Y95250D03*
X412750Y95250D03*
X438150Y95250D03*
D12*
X290513Y554038D03*
X306388Y592138D03*
X349250Y496888D03*
X247650Y406400D03*
X323850Y315913D03*
X249238Y581025D03*
X339725Y581025D03*
X223838Y534988D03*
X215900Y404813D03*
X200025Y295275D03*
X200025Y285750D03*
X200025Y304800D03*
X231775Y428625D03*
X412750Y587375D03*
X317500Y642938D03*
X285750Y642938D03*
X285750Y649288D03*
X317500Y649288D03*
X349250Y638175D03*
X285750Y655638D03*
X317500Y655638D03*
X412750Y593725D03*
X412750Y600075D03*
X223838Y523875D03*
X320675Y387350D03*
X704850Y168275D03*
X449263Y481013D03*
X508000Y517525D03*
X693738Y458788D03*
X550863Y293688D03*
X450850Y396875D03*
X458788Y449263D03*
X482600Y439738D03*
X663575Y395288D03*
X638175Y407988D03*
X641350Y295275D03*
X561975Y590550D03*
X612775Y584200D03*
X612775Y590550D03*
X663575Y584200D03*
X663575Y590550D03*
X652463Y498475D03*
X561975Y571500D03*
X654050Y479425D03*
X598488Y515938D03*
X582613Y519113D03*
X612775Y571500D03*
X703263Y666750D03*
X696913Y666750D03*
X652463Y492125D03*
X509588Y500063D03*
X527050Y517525D03*
X527050Y481013D03*
X636541Y365172D03*
X663575Y571500D03*
X219075Y361950D03*
X290513Y706438D03*
X290513Y712788D03*
X290513Y719138D03*
X317500Y719138D03*
X317500Y712788D03*
X317500Y706438D03*
X349250Y706438D03*
X349250Y712788D03*
X349250Y719138D03*
X376238Y703263D03*
X376238Y696913D03*
X652463Y376238D03*
D13*
X74000Y733000D03*
X726000Y733000D03*
X667000Y106000D03*
X133000Y106000D03*
D14*
X15875Y781050D03*
X34925Y781050D03*
X34925Y762000D03*
X15875Y762000D03*
X15875Y742950D03*
X34925Y742950D03*
X34925Y723900D03*
X15875Y723900D03*
X15875Y704850D03*
X34925Y704850D03*
X34925Y685800D03*
X15875Y685800D03*
X15875Y666750D03*
X31750Y666750D03*
X30163Y647700D03*
X15875Y647700D03*
X15875Y628650D03*
X34925Y628650D03*
X34925Y609600D03*
X15875Y609600D03*
X15875Y590550D03*
X34925Y590550D03*
X34925Y571500D03*
X15875Y571500D03*
X15875Y552450D03*
X34925Y552450D03*
X34925Y533400D03*
X15875Y533400D03*
X15875Y514350D03*
X34925Y514350D03*
X34925Y495300D03*
X15875Y495300D03*
X15875Y476250D03*
X34925Y476250D03*
X34925Y457200D03*
X15875Y457200D03*
X15875Y438150D03*
X34925Y438150D03*
X34925Y419100D03*
X15875Y419100D03*
X15875Y400050D03*
X34925Y400050D03*
X34925Y381000D03*
X15875Y381000D03*
X15875Y361950D03*
X34925Y361950D03*
X34925Y342900D03*
X15875Y342900D03*
X15875Y323850D03*
X34925Y323850D03*
X34925Y304800D03*
X15875Y304800D03*
X15875Y285750D03*
X34925Y285750D03*
X34925Y266700D03*
X15875Y266700D03*
X15875Y247650D03*
X34925Y247650D03*
X34925Y228600D03*
X15875Y228600D03*
X15875Y209550D03*
X34925Y209550D03*
X34925Y190500D03*
X15875Y190500D03*
X765175Y781050D03*
X784225Y762000D03*
X765175Y762000D03*
X765175Y742950D03*
X784225Y742950D03*
X784225Y723900D03*
X765175Y723900D03*
X765175Y704850D03*
X784225Y704850D03*
X784225Y685800D03*
X765175Y685800D03*
X765175Y666750D03*
X784225Y666750D03*
X784225Y647700D03*
X765175Y647700D03*
X765175Y628650D03*
X784225Y628650D03*
X784225Y609600D03*
X765175Y609600D03*
X765175Y590550D03*
X784225Y590550D03*
X784225Y571500D03*
X765175Y571500D03*
X765175Y552450D03*
X784225Y552450D03*
X784225Y533400D03*
X765175Y533400D03*
X765175Y514350D03*
X784225Y514350D03*
X784225Y495300D03*
X765175Y495300D03*
X765175Y476250D03*
X784225Y476250D03*
X784225Y457200D03*
X765175Y457200D03*
X765175Y438150D03*
X784225Y438150D03*
X784225Y419100D03*
X765175Y419100D03*
X765175Y400050D03*
X784225Y400050D03*
X784225Y381000D03*
X765175Y381000D03*
X765175Y361950D03*
X784225Y361950D03*
X784225Y342900D03*
X765175Y342900D03*
X765175Y323850D03*
X784225Y323850D03*
X784225Y304800D03*
X765175Y304800D03*
X765175Y285750D03*
X784225Y285750D03*
X784225Y266700D03*
X765175Y266700D03*
X765175Y247650D03*
X784225Y247650D03*
X784225Y228600D03*
X765175Y228600D03*
X765175Y209550D03*
X784225Y209550D03*
X784225Y190500D03*
X765175Y190500D03*
X152400Y34925D03*
X152400Y15875D03*
X171450Y15875D03*
X171450Y34925D03*
X190500Y34925D03*
X190500Y15875D03*
X209550Y15875D03*
X209550Y34925D03*
X228600Y34925D03*
X228600Y15875D03*
X247650Y15875D03*
X247650Y34925D03*
X266700Y34925D03*
X266700Y15875D03*
X285750Y15875D03*
X285750Y34925D03*
X304800Y34925D03*
X304800Y15875D03*
X323850Y15875D03*
X323850Y34925D03*
X342900Y34925D03*
X342900Y15875D03*
X361950Y15875D03*
X361950Y34925D03*
X381000Y34925D03*
X381000Y15875D03*
X400050Y15875D03*
X400050Y34925D03*
X419100Y34925D03*
X419100Y15875D03*
X438150Y15875D03*
X438150Y34925D03*
X457200Y34925D03*
X457200Y15875D03*
X476250Y15875D03*
X476250Y34925D03*
X495300Y34925D03*
X495300Y15875D03*
X514350Y15875D03*
X514350Y34925D03*
X533400Y34925D03*
X533400Y15875D03*
X552450Y15875D03*
X552450Y34925D03*
X571500Y34925D03*
X571500Y15875D03*
X590550Y15875D03*
X590550Y34925D03*
X609600Y34925D03*
X609600Y15875D03*
X628650Y15875D03*
X628650Y34925D03*
X647700Y34925D03*
X647700Y15875D03*
X15875Y171450D03*
X34925Y171450D03*
X34925Y152400D03*
X15875Y152400D03*
X765175Y171450D03*
X784225Y171450D03*
X784225Y152400D03*
X765175Y152400D03*
X44450Y133350D03*
X57150Y120650D03*
X69850Y107950D03*
X82550Y95250D03*
X95250Y82550D03*
X107950Y69850D03*
X120650Y57150D03*
X136525Y44450D03*
X666750Y44450D03*
X679450Y57150D03*
X692150Y69850D03*
X704850Y82550D03*
X717550Y95250D03*
X730250Y107950D03*
X742950Y120650D03*
X755650Y136525D03*
X679450Y31750D03*
X692150Y44450D03*
X704850Y57150D03*
X717550Y69850D03*
X730250Y82550D03*
X742950Y95250D03*
X755650Y107950D03*
X768350Y123825D03*
X781050Y136525D03*
X666750Y19050D03*
X31750Y120650D03*
X44450Y107950D03*
X57150Y95250D03*
X69850Y82550D03*
X82550Y69850D03*
X95250Y57150D03*
X107950Y44450D03*
X123825Y31750D03*
X136525Y19050D03*
X19050Y133350D03*
D12*
X588963Y571500D03*
X628650Y479425D03*
X638175Y571500D03*
X536575Y571500D03*
D14*
X784225Y781050D03*
D12*
X461963Y703263D03*
X461963Y696913D03*
X461963Y690563D03*
X469900Y644525D03*
X469900Y631825D03*
X469900Y638175D03*
X406400Y141288D03*
X366713Y493713D03*
X501650Y311150D03*
X515938Y296863D03*
X457200Y254000D03*
X519113Y258763D03*
X479425Y254000D03*
X501650Y295275D03*
X461963Y234950D03*
X612775Y228600D03*
X477838Y188913D03*
X477838Y177800D03*
X479425Y165100D03*
X561975Y173038D03*
X511175Y147638D03*
X576263Y149225D03*
X600075Y198438D03*
X544513Y239713D03*
X460375Y152400D03*
X249238Y592138D03*
X255588Y592138D03*
X257175Y658813D03*
X257175Y652463D03*
X561975Y584200D03*
X619125Y257175D03*
X635000Y241300D03*
X681038Y522288D03*
X704850Y568325D03*
X369888Y530225D03*
X449263Y298450D03*
X230188Y388938D03*
X512763Y203200D03*
X317500Y315913D03*
X330200Y315913D03*
X566738Y261938D03*
X519113Y222250D03*
X500063Y598488D03*
X215900Y415925D03*
X342900Y474663D03*
X319088Y447675D03*
X346075Y360363D03*
X390525Y369888D03*
X346075Y325438D03*
X403225Y311150D03*
X263525Y444500D03*
X360363Y479425D03*
X382588Y444500D03*
X509588Y598488D03*
X511175Y569913D03*
X492125Y569913D03*
X479425Y569913D03*
X523875Y569913D03*
X561975Y292100D03*
D14*
X263525Y127000D03*
X276225Y127000D03*
X288925Y127000D03*
X301625Y127000D03*
X314325Y127000D03*
X263525Y139700D03*
X263525Y152400D03*
X263525Y165100D03*
X263525Y177800D03*
X263525Y190500D03*
X276225Y139700D03*
X276225Y152400D03*
X276225Y165100D03*
X276225Y177800D03*
X276225Y190500D03*
X288925Y190500D03*
X288925Y177800D03*
X288925Y165100D03*
X288925Y152400D03*
X288925Y139700D03*
X301625Y139700D03*
X301625Y152400D03*
X301625Y165100D03*
X301625Y177800D03*
X301625Y190500D03*
X314325Y190500D03*
X314325Y177800D03*
X314325Y165100D03*
X314325Y152400D03*
X314325Y139700D03*
D12*
X117475Y593725D03*
X127000Y593725D03*
X117475Y584200D03*
X117475Y574675D03*
X127000Y574675D03*
X127000Y584200D03*
X136525Y593725D03*
X146050Y593725D03*
X155575Y593725D03*
X155575Y584200D03*
X146050Y584200D03*
X146050Y574675D03*
X155575Y574675D03*
X136525Y584200D03*
X136525Y574675D03*
X123825Y679450D03*
X117475Y679450D03*
X149225Y679450D03*
X155575Y679450D03*
X93663Y601663D03*
X319088Y303213D03*
D14*
X98425Y300038D03*
X98425Y312738D03*
X85725Y300038D03*
X73025Y300038D03*
X85725Y312738D03*
X73025Y312738D03*
X161925Y198438D03*
X161925Y211138D03*
X150813Y198438D03*
X139700Y198438D03*
X150813Y211138D03*
X139700Y211138D03*
D12*
X230188Y268288D03*
X111919Y638175D03*
X84138Y530225D03*
X177800Y568325D03*
X161131Y638175D03*
X561524Y89989D03*
X561524Y76519D03*
X574994Y76519D03*
X574994Y89989D03*
X495300Y85725D03*
X498475Y69850D03*
X498475Y58738D03*
X203200Y590550D03*
X209550Y590550D03*
X63500Y546100D03*
X69850Y546100D03*
X209550Y479425D03*
X322263Y511175D03*
X265113Y517525D03*
X322263Y503238D03*
X354013Y623888D03*
X311150Y387350D03*
X266700Y350838D03*
X703263Y623888D03*
X696913Y630238D03*
X696913Y611188D03*
X703263Y611188D03*
X696913Y623888D03*
X703263Y630238D03*
X223838Y501650D03*
X393700Y141288D03*
X107950Y163513D03*
X107950Y176213D03*
X107950Y169863D03*
X603250Y219075D03*
X620713Y236538D03*
X579438Y182563D03*
X354013Y617538D03*
X703263Y617538D03*
X696913Y617538D03*
X230188Y379413D03*
X558800Y203200D03*
X512763Y173038D03*
X461963Y222250D03*
X328613Y447675D03*
X377825Y369888D03*
X328613Y428625D03*
X338138Y419100D03*
X306388Y415925D03*
X315913Y406400D03*
X328613Y396875D03*
X350838Y409575D03*
X296863Y441325D03*
X490538Y598488D03*
X449263Y322263D03*
X198438Y271463D03*
X204788Y271463D03*
X211138Y271463D03*
X211138Y265113D03*
X204788Y265113D03*
X198438Y265113D03*
X198438Y258763D03*
X204788Y258763D03*
X211138Y258763D03*
X211138Y252413D03*
X211138Y246063D03*
X204788Y246063D03*
X204788Y252413D03*
X198438Y252413D03*
X198438Y246063D03*
X211138Y239713D03*
X204788Y239713D03*
X198438Y239713D03*
X690563Y396875D03*
X690563Y368300D03*
X217488Y239713D03*
X217488Y246063D03*
X217488Y252413D03*
X217488Y258763D03*
X217488Y265113D03*
X217488Y271463D03*
X647700Y207963D03*
X692150Y168275D03*
X647700Y171450D03*
X282575Y579438D03*
X277813Y361950D03*
X366713Y504825D03*
X279400Y534988D03*
X265113Y592138D03*
X274638Y592138D03*
X261938Y544513D03*
X234950Y577850D03*
X352425Y444500D03*
X284163Y498475D03*
X215900Y557213D03*
X274638Y517525D03*
X249238Y642938D03*
X249238Y636588D03*
X268288Y536575D03*
X290513Y523875D03*
X311150Y495300D03*
X287338Y463550D03*
X339725Y487363D03*
X293688Y412750D03*
X301625Y495300D03*
X341313Y446088D03*
X301625Y542925D03*
X228600Y404813D03*
X265113Y382588D03*
X228600Y415925D03*
X265113Y458788D03*
X215900Y393700D03*
X265113Y373063D03*
X638175Y174625D03*
X571500Y115888D03*
X650875Y180975D03*
X561975Y115888D03*
X593725Y244475D03*
X674688Y368300D03*
X574675Y161925D03*
X460375Y165100D03*
X419100Y141288D03*
X241300Y655638D03*
X517525Y414338D03*
X284163Y604838D03*
X534988Y415925D03*
X269875Y655638D03*
X269875Y649288D03*
X371475Y638175D03*
X425450Y623888D03*
X425450Y617538D03*
X665163Y554038D03*
X665163Y547688D03*
X600075Y684213D03*
X593725Y684213D03*
X454025Y369888D03*
X568325Y442913D03*
X442913Y360363D03*
X574675Y433388D03*
X373063Y574675D03*
X546100Y423863D03*
X441325Y550863D03*
X546100Y436563D03*
X363538Y558800D03*
X552450Y430213D03*
X315913Y592138D03*
X530225Y423863D03*
X339725Y592138D03*
X552450Y417513D03*
X301625Y655638D03*
X301625Y649288D03*
X333375Y642938D03*
X333375Y636588D03*
X557213Y550863D03*
X587375Y238125D03*
X663575Y368300D03*
X358775Y638175D03*
X463550Y590550D03*
X536575Y490538D03*
X461963Y652463D03*
X536575Y481013D03*
X490538Y152400D03*
X717550Y168275D03*
X250825Y293688D03*
X258763Y300038D03*
X250825Y287338D03*
X258763Y287338D03*
X387350Y623888D03*
X250825Y300038D03*
X390525Y668338D03*
X390525Y674688D03*
X390525Y693738D03*
X390525Y700088D03*
X258763Y293688D03*
X387350Y617538D03*
X390525Y649288D03*
X390525Y642938D03*
X474663Y676275D03*
X198438Y695325D03*
X204788Y695325D03*
X211138Y695325D03*
X211138Y688975D03*
X204788Y688975D03*
X198438Y688975D03*
X239713Y287338D03*
X239713Y295275D03*
X239713Y303213D03*
X231775Y295275D03*
X231775Y287338D03*
X231775Y303213D03*
X260350Y361950D03*
X77788Y238125D03*
X77788Y225425D03*
X477838Y403225D03*
X620713Y295275D03*
X706438Y458788D03*
X609600Y523875D03*
X669925Y446088D03*
X573088Y528638D03*
X522288Y473075D03*
X517525Y508000D03*
X468313Y458788D03*
X550863Y306388D03*
X663575Y317500D03*
X663575Y407988D03*
X539750Y552450D03*
X450850Y384175D03*
X646113Y357188D03*
X71438Y225425D03*
X77788Y231775D03*
X71438Y238125D03*
X71438Y231775D03*
X84138Y225425D03*
X84138Y231775D03*
X84138Y238125D03*
X90488Y225425D03*
X90488Y231775D03*
X90488Y238125D03*
X96838Y238125D03*
X96838Y231775D03*
X96838Y225425D03*
X725488Y330200D03*
X704850Y411163D03*
X501650Y425450D03*
X501650Y406400D03*
X695325Y352425D03*
X598488Y503238D03*
X450850Y460375D03*
X534988Y93663D03*
X468313Y282575D03*
X523875Y384175D03*
X623888Y334963D03*
X639763Y554038D03*
X639763Y547688D03*
X579438Y684213D03*
X573088Y684213D03*
X650875Y571500D03*
X646113Y465138D03*
X676275Y571500D03*
X660400Y465138D03*
X307975Y668338D03*
X552450Y477838D03*
X263525Y668338D03*
X555625Y442913D03*
X630238Y227013D03*
X587375Y195263D03*
X561975Y160338D03*
X382588Y395288D03*
X384175Y465138D03*
X550863Y150813D03*
X617538Y192088D03*
X228600Y592138D03*
X636588Y258763D03*
X533400Y384175D03*
X674688Y381000D03*
X528638Y533400D03*
X600075Y317500D03*
X587375Y468313D03*
X641350Y328613D03*
X581025Y474663D03*
X663575Y381000D03*
X520700Y527050D03*
X592138Y444500D03*
X363538Y463550D03*
X295275Y425450D03*
X520700Y361950D03*
X139700Y542925D03*
X527050Y355600D03*
X127000Y542925D03*
X381000Y141288D03*
X381000Y230188D03*
X393700Y230188D03*
X406400Y230188D03*
X419100Y230188D03*
X679450Y168275D03*
X692150Y257175D03*
X679450Y257175D03*
X704850Y257175D03*
X717550Y257175D03*
X552450Y487363D03*
X339725Y655638D03*
X552450Y496888D03*
X371475Y649288D03*
X620713Y436563D03*
X103188Y430213D03*
X614363Y430213D03*
X79375Y423863D03*
X620713Y423863D03*
X79375Y412750D03*
X615950Y387350D03*
X79375Y488950D03*
X265113Y319088D03*
X609600Y381000D03*
X79375Y479425D03*
X254000Y319088D03*
X614363Y442913D03*
X79375Y434975D03*
X200025Y344488D03*
M02*
