M48
;GenerationSoftware,Autodesk,EAGLE,9.6.2*%
;CreationDate,2022-12-02T15:17:38Z*%
FMAT,2
ICI,OFF
METRIC,TZ,000.000
T9C0.305
T8C0.600
T7C1.016
T6C1.150
T5C2.200
T4C3.300
T3C3.600
T2C4.000
%
G90
M71
T2
X14600Y81350
X65400Y81350
T3
X7400Y73300
X13300Y10600
X72600Y73300
X66700Y10600
T4
X5500Y65400
X61600Y15500
T5
X18700Y77500
X61300Y77500
T6
X34850Y78500
X39850Y83500
X34850Y81000
X34850Y83500
X34850Y86000
X37350Y78500
X37350Y81000
X37350Y83500
X37350Y86000
X39850Y78500
X39850Y81000
X42350Y78500
X32350Y86000
X32350Y83500
X32350Y81000
X32350Y78500
X28850Y86000
X28850Y83500
X28850Y81000
X28850Y78500
X25150Y86000
X25150Y83500
X25150Y81000
X25150Y78500
X39850Y86000
X54850Y86000
X54850Y83500
X54850Y81000
X54850Y78500
X52350Y86000
X52350Y83500
X52350Y81000
X52350Y78500
X49850Y86000
X49850Y83500
X49850Y81000
X49850Y78500
X47350Y86000
X47350Y83500
X47350Y81000
X47350Y78500
X44850Y86000
X44850Y83500
X44850Y81000
X44850Y78500
X42350Y86000
X42350Y83500
X42350Y81000
T7
X43021Y47307
X40481Y49847
X43021Y49847
X40481Y52387
X43021Y52387
X36195Y25400
X43021Y44767
X38735Y27940
X41275Y25400
X41275Y27940
X43815Y25400
X38735Y25400
X36195Y27940
X40481Y47307
X40481Y44767
X43021Y42228
X40481Y42228
X43021Y39688
X40481Y39688
X43815Y27940
T8
X76518Y15240
X62865Y3492
X71755Y6985
X5715Y12065
X4445Y13335
X78423Y15240
X78423Y17145
X76518Y17145
X1587Y15240
X3492Y15240
X3492Y17145
X1587Y17145
X64770Y1587
X64770Y3492
X70485Y8255
X28575Y1587
X70485Y5715
X69215Y4445
X67945Y3175
X75565Y13652
X74295Y12065
X73025Y10795
X71755Y9525
X6985Y10795
X69215Y6985
X67945Y5715
X66675Y4445
X13652Y4445
X10795Y6985
X9525Y8255
X8255Y9525
X36195Y1587
X43815Y3492
X43815Y1587
X41910Y1587
X41910Y3492
X40005Y3492
X40005Y1587
X38100Y1587
X38100Y3492
X36195Y3492
X45720Y3492
X34290Y1587
X34290Y3492
X32385Y3492
X32385Y1587
X30480Y1587
X30480Y3492
X28575Y3492
X12065Y5715
X53340Y1587
X60960Y1587
X60960Y3492
X59055Y3492
X59055Y1587
X57150Y1587
X57150Y3492
X55245Y3492
X55245Y1587
X62865Y1587
X53340Y3492
X51435Y3492
X51435Y1587
X49530Y1587
X49530Y3492
X47625Y3492
X47625Y1587
X45720Y1587
X30162Y19050
X8573Y30004
X9843Y31274
X9843Y30004
X31432Y13970
X31432Y15240
X31432Y16510
X31432Y17780
X31432Y19050
X7302Y30004
X30162Y17780
X30162Y16510
X30162Y15240
X30162Y13970
X28892Y13970
X28892Y15240
X28892Y16510
X13970Y21114
X15399Y59055
X14287Y59055
X13017Y59055
X11906Y59055
X11906Y57626
X13017Y57626
X14287Y57626
X15399Y57626
X28892Y17780
X15081Y21114
X13970Y19844
X15081Y19844
X16192Y21114
X16192Y19844
X7302Y31274
X8573Y31274
X5715Y9525
X78423Y78105
X1905Y13335
X13652Y1905
X12382Y3175
X10795Y4445
X9525Y5715
X8255Y6985
X6985Y8255
X26352Y12700
X4445Y10795
X3175Y12065
X66675Y1905
X78105Y13652
X76835Y12382
X75565Y10795
X74295Y9525
X73025Y8255
X27622Y12700
X28892Y12700
X30162Y12700
X31432Y12700
X26352Y13970
X26352Y15240
X26352Y16510
X26352Y17780
X26352Y19050
X27622Y13970
X27622Y15240
X27622Y16510
X27622Y17780
X27622Y19050
X28892Y19050
X1587Y38100
X1587Y30480
X3492Y30480
X3492Y32385
X1587Y32385
X1587Y34290
X3492Y34290
X3492Y36195
X1587Y36195
X1587Y28575
X3492Y38100
X3492Y40005
X1587Y40005
X1587Y41910
X3492Y41910
X3492Y43815
X1587Y43815
X1587Y45720
X3492Y20955
X78423Y72390
X78423Y74295
X76518Y74295
X76518Y76200
X78423Y76200
X76518Y78105
X1587Y19050
X3492Y19050
X3492Y45720
X1587Y20955
X1587Y22860
X3492Y22860
X3492Y24765
X1587Y24765
X1587Y26670
X3492Y26670
X3492Y28575
X1587Y70485
X1587Y62865
X1587Y64770
X3016Y64770
X3175Y66675
X1587Y66675
X1587Y68580
X3492Y68580
X3492Y70485
X3492Y62865
X1587Y72390
X3492Y72390
X3492Y74295
X1587Y74295
X1587Y76200
X3492Y76200
X3492Y78105
X1587Y78105
X3492Y55245
X3492Y47625
X1587Y47625
X1587Y49530
X3492Y49530
X3492Y51435
X1587Y51435
X1587Y53340
X3492Y53340
X26670Y3492
X1587Y55245
X1587Y57150
X3492Y57150
X3492Y59055
X1587Y59055
X1587Y60960
X3492Y60960
X76518Y41910
X76518Y30480
X78423Y30480
X78423Y32385
X76518Y32385
X76518Y34290
X78423Y34290
X78423Y36195
X76518Y36195
X76518Y38100
X78423Y38100
X78423Y40005
X76518Y40005
X76518Y28575
X78423Y41910
X78423Y43815
X76518Y43815
X76518Y45720
X78423Y45720
X78423Y47625
X76518Y47625
X76518Y49530
X78423Y49530
X78423Y51435
X76518Y51435
X76518Y53340
X15240Y3492
X26670Y1587
X24765Y3492
X24765Y1587
X22860Y1587
X22860Y3492
X20955Y3492
X20955Y1587
X19050Y1587
X19050Y3492
X17145Y3492
X17145Y1587
X15240Y1587
X76518Y70485
X76518Y19050
X78423Y19050
X78423Y20955
X76518Y20955
X76518Y22860
X78423Y22860
X78423Y24765
X76518Y24765
X76518Y26670
X78423Y26670
X78423Y28575
X78423Y70485
X76518Y60960
X76518Y59055
X78423Y59055
X78423Y57150
X76518Y57150
X76518Y64770
X78423Y64770
X78423Y66675
X76518Y66675
X76518Y68580
X78423Y68580
X76518Y72390
X76518Y55245
X78423Y55245
X78423Y53340
X78423Y60960
X78423Y62865
X76518Y62865
T9
X23971Y28734
X21114Y68898
X20479Y68898
X19844Y68898
X23177Y30321
X21114Y69533
X20479Y69533
X19844Y69533
X47466Y67628
X39053Y64294
X39053Y64929
X57467Y16192
X66993Y44609
X64611Y35719
X45085Y38418
X53975Y55245
X66358Y40799
X66358Y31750
X55086Y30639
X46831Y45879
X51752Y50800
X52229Y47307
X57309Y52864
X67469Y36830
X23971Y29527
X60960Y52387
X70644Y45879
X62071Y29527
X47784Y40323
X7779Y22542
X7779Y23812
X26035Y36195
X46037Y16510
X23177Y28734
X23177Y29527
X23971Y30321
X71755Y16828
X55245Y41751
X38735Y61754
X25876Y29369
X39053Y70009
X39053Y69374
X39053Y67469
X39053Y66834
X25082Y30004
X38735Y62389
X25876Y28734
X25082Y28734
X25876Y30004
X25082Y29369
X33973Y59214
X49054Y15240
X53657Y48101
X46196Y65246
X53657Y49054
X46355Y59055
X35878Y63817
X66358Y36830
X58737Y23812
X55721Y55086
X33338Y63659
X33338Y64294
X30162Y64929
X59372Y68421
X38100Y18256
X24130Y65564
X51752Y41434
X28416Y60484
X53499Y41593
X26987Y65564
X26987Y64929
X37148Y63817
X42545Y62389
X42545Y61754
X66516Y55404
X66516Y54769
X60007Y68421
X30162Y65564
X45402Y36989
X56832Y44291
X44291Y36036
X57467Y43339
X37306Y57467
X54610Y42386
X44132Y55245
X54610Y43656
X36354Y55880
X55245Y43021
X31591Y59214
X53022Y42386
X29527Y42545
X69215Y25717
X67945Y16828
X41910Y9684
X40640Y9684
X39370Y9684
X38100Y9684
X41910Y18256
X12700Y54292
X52705Y35560
X13970Y54292
X52070Y36195
X67945Y25717
X36354Y46355
X59214Y44450
X52070Y52705
X66358Y38100
X58102Y47466
X64135Y32861
X58737Y46831
X60007Y31750
X52864Y53340
X67469Y38100
X62071Y42386
X15557Y67945
X20003Y34449
X7937Y43498
X61436Y44291
X25400Y31909
X7937Y47942
X60960Y38100
X26511Y31909
X7937Y48895
X61595Y38735
X7937Y41275
X53340Y38418
X7937Y42386
X61436Y43021
X10319Y43021
X62071Y43656
X37148Y64929
X55245Y49689
X33973Y65564
X55245Y48736
X71755Y25717
X70485Y25717
X9684Y23177
X52387Y38418
X46831Y28257
X54451Y11271
X45085Y46037
X59849Y50324
X69533Y35243
X50165Y40640
X50165Y42545
X70485Y41116
X72549Y33020
X9684Y22542
X62389Y33496
X9684Y23812
X9049Y23812
X9049Y23177
X9049Y22542
X8414Y23812
X8414Y23177
X8414Y22542
X7144Y23177
X7144Y23812
X7779Y23177
X26352Y66834
X63659Y25876
X22860Y59214
X61754Y19209
X55086Y15081
X38418Y46514
X38259Y39529
X56197Y16034
X58737Y19526
X63024Y22701
X55562Y44291
X7144Y22542
X55245Y47784
X30797Y66834
X66040Y46514
X67628Y57150
X64611Y46514
X65087Y57150
X57309Y68421
X57944Y68421
X63976Y54769
X63976Y55404
X36671Y49371
X60007Y19844
X57626Y14922
X51117Y14764
X56197Y17304
X47942Y16510
X47784Y17780
X47784Y18891
X61277Y22860
X46196Y23495
X50165Y29527
X47942Y25400
X51911Y25876
X45720Y25400
X51594Y29686
X50165Y31115
X54451Y23971
X39370Y18256
X46990Y63817
X46990Y63182
X46990Y64452
X46196Y69056
X46196Y69691
X46196Y70326
X53657Y57150
X63817Y57150
X62865Y47942
X58896Y57150
X65246Y37624
X37624Y69691
X37624Y70326
X34925Y71914
X33020Y31591
X51117Y56991
X50959Y59849
X38259Y44450
X36036Y47942
X26352Y44450
X40323Y31115
X34608Y32544
X39053Y36989
X34608Y36036
X31909Y44767
X34290Y47466
X21590Y41593
X50006Y59849
X51911Y22225
X56674Y26194
X34925Y71279
X31750Y31591
X51276Y20320
X23019Y38894
X44926Y29845
X36989Y53022
X70485Y56832
X68104Y52229
X63500Y24130
X61912Y25717
X56197Y58420
X25717Y65246
X25717Y65881
X25559Y59214
X24924Y59214
X46037Y15240
X28575Y64929
X45879Y44926
X45085Y39688
X55086Y29369
X69374Y45879
X50800Y51752
X44926Y48101
X70485Y16828
X32067Y38735
X22384Y52387
X41275Y60007
X41275Y59372
X31750Y65564
X28575Y65564
X34925Y63817
X31750Y64929
X48260Y43974
X28575Y64294
X31750Y64294
X41275Y58737
X23177Y42863
X20003Y30480
X20003Y28575
X20003Y29527
X21590Y40481
X22384Y53499
X33973Y58102
X24924Y58102
X32385Y31591
X24765Y40640
X34925Y49689
X30639Y59214
X70326Y66675
X34925Y70644
X31750Y70644
X31750Y71279
X31750Y71914
X29051Y71914
X29051Y71279
X29051Y70644
X21907Y36195
X66358Y57150
X63654Y36517
X52705Y48101
X52705Y51752
X50959Y50006
X65246Y49212
X69691Y66675
X49212Y56991
X61277Y57150
X58261Y51911
X59849Y51594
X65405Y47942
X56197Y57150
X65246Y49847
X66358Y59055
X66358Y58420
X61277Y59055
X61277Y58420
X56197Y59055
X64135Y29527
X63817Y40799
X66358Y39529
X19844Y24606
X28257Y57944
X64770Y17145
X69215Y16828
X64770Y20796
X21749Y27146
X21749Y26511
X21749Y25876
X21749Y25241
X21749Y24606
X21749Y23971
X69056Y36830
X69056Y39688
X19844Y23971
X20479Y23971
X21114Y23971
X27781Y36195
X19844Y25241
X20479Y25241
X20479Y24606
X21114Y24606
X21114Y25241
X21114Y25876
X20479Y25876
X19844Y25876
X19844Y26511
X20479Y26511
X21114Y26511
X21114Y27146
X20479Y27146
X19844Y27146
X44926Y32226
X28734Y46355
X57150Y13494
X65087Y18098
X58102Y13494
X63817Y17463
X26511Y37306
X21590Y39370
X26511Y45879
X22860Y41593
X26511Y38259
X22860Y40481
X30162Y54292
X34131Y44609
X30162Y49530
X29369Y41275
X33973Y48736
X49054Y59849
X31115Y49530
X29051Y52387
X26829Y53657
X24924Y63659
X24924Y64294
X27464Y51752
X21590Y55721
X28416Y49847
X35243Y44450
X23495Y57785
X26194Y54451
X27464Y59214
X26511Y59214
X27940Y53499
X36671Y50482
X57105Y9557
X31115Y38735
X35401Y62389
X32226Y50324
X26511Y51752
X32226Y51117
X20955Y47942
X6985Y54610
X6350Y54610
X20955Y59055
X20320Y59055
X50800Y7779
X50800Y8890
X50482Y10478
X58452Y10904
X58452Y9557
X26670Y35084
X57105Y10904
X16113Y63817
X17780Y56832
X8414Y53022
X11192Y63817
X23019Y26829
X31909Y30321
X9366Y60166
X29051Y55404
X14922Y67945
X11747Y67945
X12382Y67945
X56197Y29210
X52387Y56991
X47942Y56991
X35401Y61754
X29686Y44132
X35084Y40958
X32861Y39688
X31591Y40640
X30639Y41593
X33814Y41910
X32861Y42863
X37783Y36989
X32861Y44767
X46196Y22225
X51276Y17304
X55880Y20320
X23019Y37941
X69691Y61754
X70326Y61754
X59372Y24447
X57944Y18256
X62071Y23654
X60325Y21907
X10795Y16986
X10795Y17621
X10795Y16351
X40640Y18256
X22384Y50165
X70326Y63024
X69691Y62389
X70326Y61119
X69691Y61119
X69691Y63024
X70326Y62389
M30