G04 EAGLE Gerber RS-274X export*
G75*
%MOMM*%
%FSLAX34Y34*%
%LPD*%
%INSoldermask Top*%
%IPPOS*%
%AMOC8*
5,1,8,0,0,1.08239X$1,22.5*%
G01*
%ADD10C,3.503200*%
%ADD11R,0.903200X1.103200*%
%ADD12R,1.103200X0.903200*%
%ADD13R,0.903200X1.203200*%
%ADD14R,1.203200X1.303200*%
%ADD15R,1.473200X0.762000*%
%ADD16R,0.762000X1.473200*%
%ADD17R,1.983200X2.363200*%
%ADD18R,1.003200X1.003200*%
%ADD19R,1.403200X3.003200*%
%ADD20R,1.403200X1.603200*%
%ADD21R,2.003200X2.603200*%
%ADD22R,1.203200X1.603200*%
%ADD23R,1.703200X1.503200*%
%ADD24R,1.703200X2.303200*%
%ADD25R,0.889000X2.743200*%
%ADD26R,1.103200X0.503200*%
%ADD27R,0.503200X1.103200*%
%ADD28R,1.903200X2.603200*%
%ADD29R,0.803200X2.403200*%
%ADD30R,1.422200X2.438200*%
%ADD31R,3.803200X2.403200*%
%ADD32R,2.403200X0.838200*%
%ADD33P,1.869504X8X292.500000*%
%ADD34C,1.928200*%
%ADD35C,2.403200*%
%ADD36C,4.203200*%
%ADD37R,1.303200X1.203200*%
%ADD38R,0.753200X1.403200*%
%ADD39R,1.403200X0.753200*%
%ADD40R,1.193800X0.508000*%
%ADD41R,0.508000X1.193800*%
%ADD42R,1.203200X3.603200*%
%ADD43R,7.003200X9.803200*%
%ADD44R,4.503200X2.703200*%
%ADD45R,3.703200X2.703200*%
%ADD46R,2.603200X2.003200*%
%ADD47R,1.371600X1.803400*%
%ADD48R,0.152400X1.828800*%
%ADD49R,0.600000X0.300000*%
%ADD50R,0.300000X0.600000*%
%ADD51R,3.300000X3.300000*%
%ADD52R,1.003200X0.603200*%
%ADD53R,0.953200X1.203200*%
%ADD54R,1.803400X1.371600*%
%ADD55R,1.828800X0.152400*%
%ADD56R,2.203200X0.903200*%
%ADD57R,2.803200X1.703200*%
%ADD58R,2.803200X1.203200*%
%ADD59R,1.403200X1.403200*%
%ADD60R,1.403200X2.903200*%
%ADD61R,0.583200X2.203200*%
%ADD62P,1.869504X8X202.500000*%
%ADD63C,6.045200*%
%ADD64C,1.209600*%

G36*
X158776Y569980D02*
X158776Y569980D01*
X158802Y569978D01*
X158949Y570000D01*
X159096Y570017D01*
X159121Y570025D01*
X159147Y570029D01*
X159285Y570084D01*
X159424Y570134D01*
X159446Y570148D01*
X159471Y570158D01*
X159592Y570243D01*
X159717Y570323D01*
X159735Y570342D01*
X159757Y570357D01*
X159856Y570467D01*
X159959Y570574D01*
X159973Y570596D01*
X159990Y570616D01*
X160062Y570746D01*
X160138Y570873D01*
X160146Y570898D01*
X160159Y570921D01*
X160199Y571064D01*
X160244Y571205D01*
X160246Y571231D01*
X160254Y571256D01*
X160273Y571500D01*
X160273Y596900D01*
X160270Y596926D01*
X160272Y596952D01*
X160250Y597099D01*
X160233Y597246D01*
X160225Y597271D01*
X160221Y597297D01*
X160166Y597435D01*
X160116Y597574D01*
X160102Y597596D01*
X160092Y597621D01*
X160007Y597742D01*
X159927Y597867D01*
X159908Y597885D01*
X159893Y597907D01*
X159783Y598006D01*
X159676Y598109D01*
X159654Y598123D01*
X159634Y598140D01*
X159504Y598212D01*
X159377Y598288D01*
X159352Y598296D01*
X159329Y598309D01*
X159186Y598349D01*
X159045Y598394D01*
X159019Y598396D01*
X158994Y598404D01*
X158750Y598423D01*
X114300Y598423D01*
X114274Y598420D01*
X114248Y598422D01*
X114101Y598400D01*
X113954Y598383D01*
X113929Y598375D01*
X113903Y598371D01*
X113765Y598316D01*
X113626Y598266D01*
X113604Y598252D01*
X113579Y598242D01*
X113458Y598157D01*
X113333Y598077D01*
X113315Y598058D01*
X113293Y598043D01*
X113194Y597933D01*
X113091Y597826D01*
X113077Y597804D01*
X113060Y597784D01*
X112988Y597654D01*
X112912Y597527D01*
X112904Y597502D01*
X112891Y597479D01*
X112851Y597336D01*
X112806Y597195D01*
X112804Y597169D01*
X112796Y597144D01*
X112777Y596900D01*
X112777Y571500D01*
X112780Y571474D01*
X112778Y571448D01*
X112800Y571301D01*
X112817Y571154D01*
X112825Y571129D01*
X112829Y571103D01*
X112884Y570965D01*
X112934Y570826D01*
X112948Y570804D01*
X112958Y570779D01*
X113043Y570658D01*
X113123Y570533D01*
X113142Y570515D01*
X113157Y570493D01*
X113267Y570394D01*
X113374Y570291D01*
X113396Y570277D01*
X113416Y570260D01*
X113546Y570188D01*
X113673Y570112D01*
X113698Y570104D01*
X113721Y570091D01*
X113864Y570051D01*
X114005Y570006D01*
X114031Y570004D01*
X114056Y569996D01*
X114300Y569977D01*
X158750Y569977D01*
X158776Y569980D01*
G37*
D10*
X55000Y654000D03*
X616000Y155000D03*
D11*
X236688Y523875D03*
X223688Y523875D03*
D12*
X349250Y509738D03*
X349250Y496738D03*
D11*
X297013Y592138D03*
X284013Y592138D03*
X250975Y458788D03*
X237975Y458788D03*
X339875Y581025D03*
X326875Y581025D03*
D13*
X228600Y325550D03*
X219100Y347550D03*
X238100Y347550D03*
D11*
X250975Y481013D03*
X237975Y481013D03*
D14*
X249800Y568325D03*
X232800Y568325D03*
D11*
X223688Y534988D03*
X236688Y534988D03*
X250975Y469900D03*
X237975Y469900D03*
X312888Y581025D03*
X299888Y581025D03*
D12*
X349250Y565300D03*
X349250Y552300D03*
X349250Y538313D03*
X349250Y525313D03*
D11*
X236688Y546100D03*
X223688Y546100D03*
X266850Y350838D03*
X253850Y350838D03*
D12*
X228600Y604988D03*
X228600Y591988D03*
X215900Y570063D03*
X215900Y557063D03*
D11*
X252563Y604838D03*
X239563Y604838D03*
D15*
X249174Y551875D03*
X249174Y543875D03*
X249174Y535875D03*
X249174Y527875D03*
X249174Y519875D03*
X249174Y511875D03*
X249174Y503875D03*
X249174Y495875D03*
D16*
X264100Y480949D03*
X272100Y480949D03*
X280100Y480949D03*
X288100Y480949D03*
X296100Y480949D03*
X304100Y480949D03*
X312100Y480949D03*
X320100Y480949D03*
D15*
X335026Y495875D03*
X335026Y503875D03*
X335026Y511875D03*
X335026Y519875D03*
X335026Y527875D03*
X335026Y535875D03*
X335026Y543875D03*
X335026Y551875D03*
D16*
X320100Y566801D03*
X312100Y566801D03*
X304100Y566801D03*
X296100Y566801D03*
X288100Y566801D03*
X280100Y566801D03*
X272100Y566801D03*
X264100Y566801D03*
D11*
X247500Y406400D03*
X260500Y406400D03*
D12*
X231775Y428475D03*
X231775Y441475D03*
D11*
X223688Y501650D03*
X236688Y501650D03*
X215750Y415925D03*
X228750Y415925D03*
X215750Y404813D03*
X228750Y404813D03*
D17*
X282913Y331788D03*
X323613Y331788D03*
D11*
X690713Y407988D03*
X677713Y407988D03*
D18*
X693300Y419100D03*
X678300Y419100D03*
D19*
X200988Y295275D03*
X233988Y295275D03*
D11*
X258613Y581025D03*
X271613Y581025D03*
D20*
X262500Y422388D03*
X262500Y444388D03*
X245500Y444388D03*
X245500Y422388D03*
D21*
X294888Y293688D03*
X254388Y293688D03*
D22*
X238125Y639650D03*
X247625Y617650D03*
X228625Y617650D03*
D11*
X260500Y361950D03*
X247500Y361950D03*
X231925Y361950D03*
X218925Y361950D03*
X358625Y638175D03*
X371625Y638175D03*
D23*
X596900Y685825D03*
X596900Y704825D03*
D11*
X628500Y479425D03*
X641500Y479425D03*
X653900Y479425D03*
X666900Y479425D03*
D23*
X576263Y685825D03*
X576263Y704825D03*
X534988Y685825D03*
X534988Y704825D03*
D11*
X536425Y571500D03*
X549425Y571500D03*
X561825Y571500D03*
X574825Y571500D03*
D23*
X555625Y685825D03*
X555625Y704825D03*
D11*
X228450Y655638D03*
X241450Y655638D03*
X241450Y666750D03*
X228450Y666750D03*
D22*
X238125Y703150D03*
X247625Y681150D03*
X228625Y681150D03*
D11*
X263375Y604838D03*
X276375Y604838D03*
X276375Y615950D03*
X263375Y615950D03*
D22*
X269875Y652350D03*
X279375Y630350D03*
X260375Y630350D03*
D11*
X376388Y558800D03*
X363388Y558800D03*
X400200Y558800D03*
X387200Y558800D03*
D22*
X396875Y596788D03*
X406375Y574788D03*
X387375Y574788D03*
D11*
X420538Y549275D03*
X433538Y549275D03*
X433538Y560388D03*
X420538Y560388D03*
D22*
X428625Y596788D03*
X438125Y574788D03*
X419125Y574788D03*
D11*
X360213Y574675D03*
X373213Y574675D03*
X373213Y585788D03*
X360213Y585788D03*
D22*
X365125Y620600D03*
X374625Y598600D03*
X355625Y598600D03*
D11*
X295125Y604838D03*
X308125Y604838D03*
X308125Y615950D03*
X295125Y615950D03*
D22*
X301625Y652350D03*
X311125Y630350D03*
X292125Y630350D03*
D11*
X326875Y592138D03*
X339875Y592138D03*
X339875Y603250D03*
X326875Y603250D03*
D22*
X333375Y639650D03*
X342875Y617650D03*
X323875Y617650D03*
D24*
X425988Y646113D03*
X389988Y646113D03*
X425988Y620713D03*
X389988Y620713D03*
D11*
X585638Y533400D03*
X598638Y533400D03*
X450700Y590550D03*
X463700Y590550D03*
X463700Y601663D03*
X450700Y601663D03*
D22*
X450850Y638063D03*
X460350Y616063D03*
X441350Y616063D03*
D24*
X425988Y671513D03*
X389988Y671513D03*
D11*
X449113Y652463D03*
X462113Y652463D03*
X462113Y663575D03*
X449113Y663575D03*
D22*
X450850Y699975D03*
X460350Y677975D03*
X441350Y677975D03*
D24*
X425988Y696913D03*
X389988Y696913D03*
D12*
X382588Y431650D03*
X382588Y444650D03*
D18*
X382588Y420250D03*
X382588Y405250D03*
D25*
X679450Y261938D03*
X717550Y261938D03*
X692150Y261938D03*
X704850Y261938D03*
X679450Y163513D03*
X717550Y163513D03*
X692150Y163513D03*
X704850Y163513D03*
D23*
X700088Y666725D03*
X700088Y647725D03*
D12*
X609600Y523725D03*
X609600Y536725D03*
D11*
G36*
X572547Y521378D02*
X566161Y527764D01*
X573961Y535564D01*
X580347Y529178D01*
X572547Y521378D01*
G37*
G36*
X581739Y512186D02*
X575353Y518572D01*
X583153Y526372D01*
X589539Y519986D01*
X581739Y512186D01*
G37*
G36*
X519791Y518066D02*
X526177Y524452D01*
X533977Y516652D01*
X527591Y510266D01*
X519791Y518066D01*
G37*
G36*
X510598Y508873D02*
X516984Y515259D01*
X524784Y507459D01*
X518398Y501073D01*
X510598Y508873D01*
G37*
D12*
X598488Y503088D03*
X598488Y516088D03*
D11*
G36*
X480103Y478378D02*
X486489Y484764D01*
X494289Y476964D01*
X487903Y470578D01*
X480103Y478378D01*
G37*
G36*
X470911Y469186D02*
X477297Y475572D01*
X485097Y467772D01*
X478711Y461386D01*
X470911Y469186D01*
G37*
D12*
X539750Y295125D03*
X539750Y308125D03*
X652463Y376088D03*
X652463Y389088D03*
X663575Y408138D03*
X663575Y395138D03*
X550863Y306538D03*
X550863Y293538D03*
X450850Y397025D03*
X450850Y384025D03*
D11*
G36*
X502328Y500603D02*
X508714Y506989D01*
X516514Y499189D01*
X510128Y492803D01*
X502328Y500603D01*
G37*
G36*
X493136Y491411D02*
X499522Y497797D01*
X507322Y489997D01*
X500936Y483611D01*
X493136Y491411D01*
G37*
D26*
G36*
X545584Y510436D02*
X537784Y518236D01*
X541342Y521794D01*
X549142Y513994D01*
X545584Y510436D01*
G37*
G36*
X542048Y506901D02*
X534248Y514701D01*
X537806Y518259D01*
X545606Y510459D01*
X542048Y506901D01*
G37*
G36*
X538513Y503365D02*
X530713Y511165D01*
X534271Y514723D01*
X542071Y506923D01*
X538513Y503365D01*
G37*
G36*
X534977Y499829D02*
X527177Y507629D01*
X530735Y511187D01*
X538535Y503387D01*
X534977Y499829D01*
G37*
G36*
X531442Y496294D02*
X523642Y504094D01*
X527200Y507652D01*
X535000Y499852D01*
X531442Y496294D01*
G37*
G36*
X527906Y492758D02*
X520106Y500558D01*
X523664Y504116D01*
X531464Y496316D01*
X527906Y492758D01*
G37*
G36*
X524371Y489223D02*
X516571Y497023D01*
X520129Y500581D01*
X527929Y492781D01*
X524371Y489223D01*
G37*
G36*
X520835Y485687D02*
X513035Y493487D01*
X516593Y497045D01*
X524393Y489245D01*
X520835Y485687D01*
G37*
G36*
X517299Y482152D02*
X509499Y489952D01*
X513057Y493510D01*
X520857Y485710D01*
X517299Y482152D01*
G37*
G36*
X513764Y478616D02*
X505964Y486416D01*
X509522Y489974D01*
X517322Y482174D01*
X513764Y478616D01*
G37*
G36*
X510228Y475081D02*
X502428Y482881D01*
X505986Y486439D01*
X513786Y478639D01*
X510228Y475081D01*
G37*
G36*
X506693Y471545D02*
X498893Y479345D01*
X502451Y482903D01*
X510251Y475103D01*
X506693Y471545D01*
G37*
G36*
X503157Y468010D02*
X495357Y475810D01*
X498915Y479368D01*
X506715Y471568D01*
X503157Y468010D01*
G37*
G36*
X499622Y464474D02*
X491822Y472274D01*
X495380Y475832D01*
X503180Y468032D01*
X499622Y464474D01*
G37*
G36*
X496086Y460939D02*
X488286Y468739D01*
X491844Y472297D01*
X499644Y464497D01*
X496086Y460939D01*
G37*
G36*
X492551Y457403D02*
X484751Y465203D01*
X488309Y468761D01*
X496109Y460961D01*
X492551Y457403D01*
G37*
G36*
X489015Y453868D02*
X481215Y461668D01*
X484773Y465226D01*
X492573Y457426D01*
X489015Y453868D01*
G37*
G36*
X485480Y450332D02*
X477680Y458132D01*
X481238Y461690D01*
X489038Y453890D01*
X485480Y450332D01*
G37*
G36*
X481944Y446796D02*
X474144Y454596D01*
X477702Y458154D01*
X485502Y450354D01*
X481944Y446796D01*
G37*
G36*
X478409Y443261D02*
X470609Y451061D01*
X474167Y454619D01*
X481967Y446819D01*
X478409Y443261D01*
G37*
G36*
X474873Y439725D02*
X467073Y447525D01*
X470631Y451083D01*
X478431Y443283D01*
X474873Y439725D01*
G37*
G36*
X471338Y436190D02*
X463538Y443990D01*
X467096Y447548D01*
X474896Y439748D01*
X471338Y436190D01*
G37*
G36*
X467802Y432654D02*
X460002Y440454D01*
X463560Y444012D01*
X471360Y436212D01*
X467802Y432654D01*
G37*
G36*
X464266Y429119D02*
X456466Y436919D01*
X460024Y440477D01*
X467824Y432677D01*
X464266Y429119D01*
G37*
G36*
X460731Y425583D02*
X452931Y433383D01*
X456489Y436941D01*
X464289Y429141D01*
X460731Y425583D01*
G37*
D27*
G36*
X456489Y401259D02*
X452931Y404817D01*
X460731Y412617D01*
X464289Y409059D01*
X456489Y401259D01*
G37*
G36*
X460024Y397723D02*
X456466Y401281D01*
X464266Y409081D01*
X467824Y405523D01*
X460024Y397723D01*
G37*
G36*
X463560Y394188D02*
X460002Y397746D01*
X467802Y405546D01*
X471360Y401988D01*
X463560Y394188D01*
G37*
G36*
X467096Y390652D02*
X463538Y394210D01*
X471338Y402010D01*
X474896Y398452D01*
X467096Y390652D01*
G37*
G36*
X470631Y387117D02*
X467073Y390675D01*
X474873Y398475D01*
X478431Y394917D01*
X470631Y387117D01*
G37*
G36*
X474167Y383581D02*
X470609Y387139D01*
X478409Y394939D01*
X481967Y391381D01*
X474167Y383581D01*
G37*
G36*
X477702Y380046D02*
X474144Y383604D01*
X481944Y391404D01*
X485502Y387846D01*
X477702Y380046D01*
G37*
G36*
X481238Y376510D02*
X477680Y380068D01*
X485480Y387868D01*
X489038Y384310D01*
X481238Y376510D01*
G37*
G36*
X484773Y372974D02*
X481215Y376532D01*
X489015Y384332D01*
X492573Y380774D01*
X484773Y372974D01*
G37*
G36*
X488309Y369439D02*
X484751Y372997D01*
X492551Y380797D01*
X496109Y377239D01*
X488309Y369439D01*
G37*
G36*
X491844Y365903D02*
X488286Y369461D01*
X496086Y377261D01*
X499644Y373703D01*
X491844Y365903D01*
G37*
G36*
X495380Y362368D02*
X491822Y365926D01*
X499622Y373726D01*
X503180Y370168D01*
X495380Y362368D01*
G37*
G36*
X498915Y358832D02*
X495357Y362390D01*
X503157Y370190D01*
X506715Y366632D01*
X498915Y358832D01*
G37*
G36*
X502451Y355297D02*
X498893Y358855D01*
X506693Y366655D01*
X510251Y363097D01*
X502451Y355297D01*
G37*
G36*
X505986Y351761D02*
X502428Y355319D01*
X510228Y363119D01*
X513786Y359561D01*
X505986Y351761D01*
G37*
G36*
X509522Y348226D02*
X505964Y351784D01*
X513764Y359584D01*
X517322Y356026D01*
X509522Y348226D01*
G37*
G36*
X513057Y344690D02*
X509499Y348248D01*
X517299Y356048D01*
X520857Y352490D01*
X513057Y344690D01*
G37*
G36*
X516593Y341155D02*
X513035Y344713D01*
X520835Y352513D01*
X524393Y348955D01*
X516593Y341155D01*
G37*
G36*
X520129Y337619D02*
X516571Y341177D01*
X524371Y348977D01*
X527929Y345419D01*
X520129Y337619D01*
G37*
G36*
X523664Y334084D02*
X520106Y337642D01*
X527906Y345442D01*
X531464Y341884D01*
X523664Y334084D01*
G37*
G36*
X527200Y330548D02*
X523642Y334106D01*
X531442Y341906D01*
X535000Y338348D01*
X527200Y330548D01*
G37*
G36*
X530735Y327013D02*
X527177Y330571D01*
X534977Y338371D01*
X538535Y334813D01*
X530735Y327013D01*
G37*
G36*
X534271Y323477D02*
X530713Y327035D01*
X538513Y334835D01*
X542071Y331277D01*
X534271Y323477D01*
G37*
G36*
X537806Y319941D02*
X534248Y323499D01*
X542048Y331299D01*
X545606Y327741D01*
X537806Y319941D01*
G37*
G36*
X541342Y316406D02*
X537784Y319964D01*
X545584Y327764D01*
X549142Y324206D01*
X541342Y316406D01*
G37*
D26*
G36*
X569908Y316406D02*
X562108Y324206D01*
X565666Y327764D01*
X573466Y319964D01*
X569908Y316406D01*
G37*
G36*
X573444Y319941D02*
X565644Y327741D01*
X569202Y331299D01*
X577002Y323499D01*
X573444Y319941D01*
G37*
G36*
X576979Y323477D02*
X569179Y331277D01*
X572737Y334835D01*
X580537Y327035D01*
X576979Y323477D01*
G37*
G36*
X580515Y327013D02*
X572715Y334813D01*
X576273Y338371D01*
X584073Y330571D01*
X580515Y327013D01*
G37*
G36*
X584050Y330548D02*
X576250Y338348D01*
X579808Y341906D01*
X587608Y334106D01*
X584050Y330548D01*
G37*
G36*
X587586Y334084D02*
X579786Y341884D01*
X583344Y345442D01*
X591144Y337642D01*
X587586Y334084D01*
G37*
G36*
X591121Y337619D02*
X583321Y345419D01*
X586879Y348977D01*
X594679Y341177D01*
X591121Y337619D01*
G37*
G36*
X594657Y341155D02*
X586857Y348955D01*
X590415Y352513D01*
X598215Y344713D01*
X594657Y341155D01*
G37*
G36*
X598193Y344690D02*
X590393Y352490D01*
X593951Y356048D01*
X601751Y348248D01*
X598193Y344690D01*
G37*
G36*
X601728Y348226D02*
X593928Y356026D01*
X597486Y359584D01*
X605286Y351784D01*
X601728Y348226D01*
G37*
G36*
X605264Y351761D02*
X597464Y359561D01*
X601022Y363119D01*
X608822Y355319D01*
X605264Y351761D01*
G37*
G36*
X608799Y355297D02*
X600999Y363097D01*
X604557Y366655D01*
X612357Y358855D01*
X608799Y355297D01*
G37*
G36*
X612335Y358832D02*
X604535Y366632D01*
X608093Y370190D01*
X615893Y362390D01*
X612335Y358832D01*
G37*
G36*
X615870Y362368D02*
X608070Y370168D01*
X611628Y373726D01*
X619428Y365926D01*
X615870Y362368D01*
G37*
G36*
X619406Y365903D02*
X611606Y373703D01*
X615164Y377261D01*
X622964Y369461D01*
X619406Y365903D01*
G37*
G36*
X622941Y369439D02*
X615141Y377239D01*
X618699Y380797D01*
X626499Y372997D01*
X622941Y369439D01*
G37*
G36*
X626477Y372974D02*
X618677Y380774D01*
X622235Y384332D01*
X630035Y376532D01*
X626477Y372974D01*
G37*
G36*
X630012Y376510D02*
X622212Y384310D01*
X625770Y387868D01*
X633570Y380068D01*
X630012Y376510D01*
G37*
G36*
X633548Y380046D02*
X625748Y387846D01*
X629306Y391404D01*
X637106Y383604D01*
X633548Y380046D01*
G37*
G36*
X637083Y383581D02*
X629283Y391381D01*
X632841Y394939D01*
X640641Y387139D01*
X637083Y383581D01*
G37*
G36*
X640619Y387117D02*
X632819Y394917D01*
X636377Y398475D01*
X644177Y390675D01*
X640619Y387117D01*
G37*
G36*
X644154Y390652D02*
X636354Y398452D01*
X639912Y402010D01*
X647712Y394210D01*
X644154Y390652D01*
G37*
G36*
X647690Y394188D02*
X639890Y401988D01*
X643448Y405546D01*
X651248Y397746D01*
X647690Y394188D01*
G37*
G36*
X651226Y397723D02*
X643426Y405523D01*
X646984Y409081D01*
X654784Y401281D01*
X651226Y397723D01*
G37*
G36*
X654761Y401259D02*
X646961Y409059D01*
X650519Y412617D01*
X658319Y404817D01*
X654761Y401259D01*
G37*
D27*
G36*
X650519Y425583D02*
X646961Y429141D01*
X654761Y436941D01*
X658319Y433383D01*
X650519Y425583D01*
G37*
G36*
X646984Y429119D02*
X643426Y432677D01*
X651226Y440477D01*
X654784Y436919D01*
X646984Y429119D01*
G37*
G36*
X643448Y432654D02*
X639890Y436212D01*
X647690Y444012D01*
X651248Y440454D01*
X643448Y432654D01*
G37*
G36*
X639912Y436190D02*
X636354Y439748D01*
X644154Y447548D01*
X647712Y443990D01*
X639912Y436190D01*
G37*
G36*
X636377Y439725D02*
X632819Y443283D01*
X640619Y451083D01*
X644177Y447525D01*
X636377Y439725D01*
G37*
G36*
X632841Y443261D02*
X629283Y446819D01*
X637083Y454619D01*
X640641Y451061D01*
X632841Y443261D01*
G37*
G36*
X629306Y446796D02*
X625748Y450354D01*
X633548Y458154D01*
X637106Y454596D01*
X629306Y446796D01*
G37*
G36*
X625770Y450332D02*
X622212Y453890D01*
X630012Y461690D01*
X633570Y458132D01*
X625770Y450332D01*
G37*
G36*
X622235Y453868D02*
X618677Y457426D01*
X626477Y465226D01*
X630035Y461668D01*
X622235Y453868D01*
G37*
G36*
X618699Y457403D02*
X615141Y460961D01*
X622941Y468761D01*
X626499Y465203D01*
X618699Y457403D01*
G37*
G36*
X615164Y460939D02*
X611606Y464497D01*
X619406Y472297D01*
X622964Y468739D01*
X615164Y460939D01*
G37*
G36*
X611628Y464474D02*
X608070Y468032D01*
X615870Y475832D01*
X619428Y472274D01*
X611628Y464474D01*
G37*
G36*
X608093Y468010D02*
X604535Y471568D01*
X612335Y479368D01*
X615893Y475810D01*
X608093Y468010D01*
G37*
G36*
X604557Y471545D02*
X600999Y475103D01*
X608799Y482903D01*
X612357Y479345D01*
X604557Y471545D01*
G37*
G36*
X601022Y475081D02*
X597464Y478639D01*
X605264Y486439D01*
X608822Y482881D01*
X601022Y475081D01*
G37*
G36*
X597486Y478616D02*
X593928Y482174D01*
X601728Y489974D01*
X605286Y486416D01*
X597486Y478616D01*
G37*
G36*
X593951Y482152D02*
X590393Y485710D01*
X598193Y493510D01*
X601751Y489952D01*
X593951Y482152D01*
G37*
G36*
X590415Y485687D02*
X586857Y489245D01*
X594657Y497045D01*
X598215Y493487D01*
X590415Y485687D01*
G37*
G36*
X586879Y489223D02*
X583321Y492781D01*
X591121Y500581D01*
X594679Y497023D01*
X586879Y489223D01*
G37*
G36*
X583344Y492758D02*
X579786Y496316D01*
X587586Y504116D01*
X591144Y500558D01*
X583344Y492758D01*
G37*
G36*
X579808Y496294D02*
X576250Y499852D01*
X584050Y507652D01*
X587608Y504094D01*
X579808Y496294D01*
G37*
G36*
X576273Y499829D02*
X572715Y503387D01*
X580515Y511187D01*
X584073Y507629D01*
X576273Y499829D01*
G37*
G36*
X572737Y503365D02*
X569179Y506923D01*
X576979Y514723D01*
X580537Y511165D01*
X572737Y503365D01*
G37*
G36*
X569202Y506901D02*
X565644Y510459D01*
X573444Y518259D01*
X577002Y514701D01*
X569202Y506901D01*
G37*
G36*
X565666Y510436D02*
X562108Y513994D01*
X569908Y521794D01*
X573466Y518236D01*
X565666Y510436D01*
G37*
D11*
G36*
X508541Y524784D02*
X514927Y518398D01*
X507127Y510598D01*
X500741Y516984D01*
X508541Y524784D01*
G37*
G36*
X499348Y533977D02*
X505734Y527591D01*
X497934Y519791D01*
X491548Y526177D01*
X499348Y533977D01*
G37*
G36*
X448722Y473753D02*
X442336Y480139D01*
X450136Y487939D01*
X456522Y481553D01*
X448722Y473753D01*
G37*
G36*
X457914Y464561D02*
X451528Y470947D01*
X459328Y478747D01*
X465714Y472361D01*
X457914Y464561D01*
G37*
G36*
X464459Y510634D02*
X458073Y504248D01*
X450273Y512048D01*
X456659Y518434D01*
X464459Y510634D01*
G37*
G36*
X473652Y519827D02*
X467266Y513441D01*
X459466Y521241D01*
X465852Y527627D01*
X473652Y519827D01*
G37*
D28*
G36*
X474987Y515618D02*
X488445Y529076D01*
X506851Y510670D01*
X493393Y497212D01*
X474987Y515618D01*
G37*
G36*
X448824Y489455D02*
X462282Y502913D01*
X480688Y484507D01*
X467230Y471049D01*
X448824Y489455D01*
G37*
D12*
X669925Y445938D03*
X669925Y458938D03*
D11*
X706588Y446088D03*
X693588Y446088D03*
D29*
X693738Y464538D03*
X693738Y516538D03*
X681038Y464538D03*
X706438Y464538D03*
X719138Y464538D03*
X681038Y516538D03*
X706438Y516538D03*
X719138Y516538D03*
D30*
X61028Y169035D03*
X84138Y169035D03*
X107248Y169035D03*
D31*
X84138Y231015D03*
D23*
X58738Y274613D03*
X58738Y255613D03*
D32*
G36*
X650129Y330665D02*
X667122Y347658D01*
X673049Y341731D01*
X656056Y324738D01*
X650129Y330665D01*
G37*
G36*
X641149Y339645D02*
X658142Y356638D01*
X664069Y350711D01*
X647076Y333718D01*
X641149Y339645D01*
G37*
G36*
X632168Y348626D02*
X649161Y365619D01*
X655088Y359692D01*
X638095Y342699D01*
X632168Y348626D01*
G37*
G36*
X623188Y357606D02*
X640181Y374599D01*
X646108Y368672D01*
X629115Y351679D01*
X623188Y357606D01*
G37*
G36*
X571551Y305969D02*
X588544Y322962D01*
X594471Y317035D01*
X577478Y300042D01*
X571551Y305969D01*
G37*
G36*
X580531Y296989D02*
X597524Y313982D01*
X603451Y308055D01*
X586458Y291062D01*
X580531Y296989D01*
G37*
G36*
X589512Y288008D02*
X606505Y305001D01*
X612432Y299074D01*
X595439Y282081D01*
X589512Y288008D01*
G37*
G36*
X598492Y279028D02*
X615485Y296021D01*
X621412Y290094D01*
X604419Y273101D01*
X598492Y279028D01*
G37*
D11*
G36*
X639084Y285209D02*
X632698Y278823D01*
X624898Y286623D01*
X631284Y293009D01*
X639084Y285209D01*
G37*
G36*
X648277Y294402D02*
X641891Y288016D01*
X634091Y295816D01*
X640477Y302202D01*
X648277Y294402D01*
G37*
G36*
X665841Y327566D02*
X672227Y333952D01*
X680027Y326152D01*
X673641Y319766D01*
X665841Y327566D01*
G37*
G36*
X656648Y318373D02*
X663034Y324759D01*
X670834Y316959D01*
X664448Y310573D01*
X656648Y318373D01*
G37*
D33*
X430213Y523875D03*
X404813Y523875D03*
X430213Y498475D03*
X404813Y498475D03*
X430213Y473075D03*
X404813Y473075D03*
X430213Y447675D03*
X404813Y447675D03*
X430213Y422275D03*
X404813Y422275D03*
X430213Y396875D03*
X404813Y396875D03*
D11*
G36*
X466047Y448722D02*
X459661Y442336D01*
X451861Y450136D01*
X458247Y456522D01*
X466047Y448722D01*
G37*
G36*
X475239Y457914D02*
X468853Y451528D01*
X461053Y459328D01*
X467439Y465714D01*
X475239Y457914D01*
G37*
D23*
X617538Y685825D03*
X617538Y704825D03*
D11*
X588813Y571500D03*
X601813Y571500D03*
X612625Y571500D03*
X625625Y571500D03*
D23*
X638175Y685825D03*
X638175Y704825D03*
X679450Y666775D03*
X679450Y685775D03*
D11*
X638025Y571500D03*
X651025Y571500D03*
X663425Y571500D03*
X676425Y571500D03*
D23*
X658813Y666775D03*
X658813Y685775D03*
D11*
X358625Y649288D03*
X371625Y649288D03*
X371625Y660400D03*
X358625Y660400D03*
D22*
X365125Y696800D03*
X374625Y674800D03*
X355625Y674800D03*
D11*
X326875Y655638D03*
X339875Y655638D03*
X339875Y666750D03*
X326875Y666750D03*
D22*
X333375Y703150D03*
X342875Y681150D03*
X323875Y681150D03*
D11*
X295125Y668338D03*
X308125Y668338D03*
X308125Y679450D03*
X295125Y679450D03*
D22*
X301625Y715850D03*
X311125Y693850D03*
X292125Y693850D03*
D11*
X276375Y668338D03*
X263375Y668338D03*
X276375Y679450D03*
X263375Y679450D03*
D22*
X269875Y715850D03*
X279375Y693850D03*
X260375Y693850D03*
D34*
X251500Y785000D03*
X251500Y810000D03*
X251500Y835000D03*
X251500Y860000D03*
X288500Y785000D03*
X288500Y810000D03*
X288500Y835000D03*
X288500Y860000D03*
X323500Y785000D03*
X323500Y810000D03*
X323500Y835000D03*
X323500Y860000D03*
X348500Y785000D03*
X348500Y810000D03*
X348500Y835000D03*
X348500Y860000D03*
X373500Y785000D03*
X373500Y810000D03*
X373500Y835000D03*
X373500Y860000D03*
X398500Y785000D03*
X398500Y810000D03*
X398500Y835000D03*
X398500Y860000D03*
X423500Y785000D03*
X423500Y810000D03*
X423500Y835000D03*
X423500Y860000D03*
X448500Y785000D03*
X448500Y810000D03*
X448500Y835000D03*
X448500Y860000D03*
X473500Y785000D03*
X473500Y810000D03*
X473500Y835000D03*
X473500Y860000D03*
X498500Y785000D03*
X498500Y810000D03*
X498500Y835000D03*
X498500Y860000D03*
X523500Y785000D03*
X523500Y810000D03*
X523500Y835000D03*
X523500Y860000D03*
X548500Y785000D03*
X548500Y810000D03*
X548500Y835000D03*
X548500Y860000D03*
D35*
X187000Y775000D03*
X613000Y775000D03*
D36*
X146000Y813500D03*
X654000Y813500D03*
D25*
X419100Y90488D03*
X381000Y90488D03*
X406400Y90488D03*
X393700Y90488D03*
X419100Y188913D03*
X381000Y188913D03*
X406400Y188913D03*
X393700Y188913D03*
D12*
X539750Y539600D03*
X539750Y552600D03*
X468313Y266850D03*
X468313Y253850D03*
X457200Y253850D03*
X457200Y266850D03*
X461963Y222100D03*
X461963Y235100D03*
D11*
G36*
X610509Y218534D02*
X604123Y212148D01*
X596323Y219948D01*
X602709Y226334D01*
X610509Y218534D01*
G37*
G36*
X619702Y227727D02*
X613316Y221341D01*
X605516Y229141D01*
X611902Y235527D01*
X619702Y227727D01*
G37*
D12*
X501650Y295425D03*
X501650Y282425D03*
D11*
X515788Y296863D03*
X528788Y296863D03*
X531963Y258763D03*
X518963Y258763D03*
D12*
X501650Y324000D03*
X501650Y311000D03*
X479425Y266850D03*
X479425Y253850D03*
X501650Y253850D03*
X501650Y266850D03*
D11*
X528788Y285750D03*
X515788Y285750D03*
X518963Y269875D03*
X531963Y269875D03*
D12*
X512763Y311000D03*
X512763Y324000D03*
X490538Y266850D03*
X490538Y253850D03*
D11*
X366563Y504825D03*
X379563Y504825D03*
X379563Y493713D03*
X366563Y493713D03*
G36*
X543972Y232453D02*
X537586Y238839D01*
X545386Y246639D01*
X551772Y240253D01*
X543972Y232453D01*
G37*
G36*
X553164Y223261D02*
X546778Y229647D01*
X554578Y237447D01*
X560964Y231061D01*
X553164Y223261D01*
G37*
G36*
X600616Y205697D02*
X607002Y199311D01*
X599202Y191511D01*
X592816Y197897D01*
X600616Y205697D01*
G37*
G36*
X591423Y214889D02*
X597809Y208503D01*
X590009Y200703D01*
X583623Y207089D01*
X591423Y214889D01*
G37*
G36*
X620172Y229278D02*
X613786Y235664D01*
X621586Y243464D01*
X627972Y237078D01*
X620172Y229278D01*
G37*
G36*
X629364Y220086D02*
X622978Y226472D01*
X630778Y234272D01*
X637164Y227886D01*
X629364Y220086D01*
G37*
G36*
X586697Y182022D02*
X580311Y175636D01*
X572511Y183436D01*
X578897Y189822D01*
X586697Y182022D01*
G37*
G36*
X595889Y191214D02*
X589503Y184828D01*
X581703Y192628D01*
X588089Y199014D01*
X595889Y191214D01*
G37*
X551013Y173038D03*
X538013Y173038D03*
G36*
X594634Y174084D02*
X588248Y167698D01*
X580448Y175498D01*
X586834Y181884D01*
X594634Y174084D01*
G37*
G36*
X603827Y183277D02*
X597441Y176891D01*
X589641Y184691D01*
X596027Y191077D01*
X603827Y183277D01*
G37*
G36*
X616859Y207422D02*
X610473Y201036D01*
X602673Y208836D01*
X609059Y215222D01*
X616859Y207422D01*
G37*
G36*
X626052Y216614D02*
X619666Y210228D01*
X611866Y218028D01*
X618252Y224414D01*
X626052Y216614D01*
G37*
X538013Y161925D03*
X551013Y161925D03*
D12*
X490538Y165250D03*
X490538Y152250D03*
X460375Y190650D03*
X460375Y177650D03*
D11*
X477688Y177800D03*
X490688Y177800D03*
X477688Y188913D03*
X490688Y188913D03*
D12*
X460375Y165250D03*
X460375Y152250D03*
X479425Y152250D03*
X479425Y165250D03*
X561975Y160188D03*
X561975Y173188D03*
D11*
X511025Y147638D03*
X524025Y147638D03*
X538013Y150813D03*
X551013Y150813D03*
X563413Y149225D03*
X576413Y149225D03*
X373213Y479425D03*
X360213Y479425D03*
D18*
X384175Y480575D03*
X384175Y465575D03*
D37*
X486800Y650875D03*
X503800Y650875D03*
D29*
X639763Y497875D03*
X639763Y549875D03*
X627063Y497875D03*
X652463Y497875D03*
X665163Y497875D03*
X627063Y549875D03*
X652463Y549875D03*
X665163Y549875D03*
X549275Y589950D03*
X549275Y641950D03*
X536575Y589950D03*
X561975Y589950D03*
X574675Y589950D03*
X536575Y641950D03*
X561975Y641950D03*
X574675Y641950D03*
X600075Y589950D03*
X600075Y641950D03*
X587375Y589950D03*
X612775Y589950D03*
X625475Y589950D03*
X587375Y641950D03*
X612775Y641950D03*
X625475Y641950D03*
X650875Y589950D03*
X650875Y641950D03*
X638175Y589950D03*
X663575Y589950D03*
X676275Y589950D03*
X638175Y641950D03*
X663575Y641950D03*
X676275Y641950D03*
D11*
G36*
X613453Y275178D02*
X619839Y281564D01*
X627639Y273764D01*
X621253Y267378D01*
X613453Y275178D01*
G37*
G36*
X604261Y265986D02*
X610647Y272372D01*
X618447Y264572D01*
X612061Y258186D01*
X604261Y265986D01*
G37*
G36*
X629328Y259303D02*
X635714Y265689D01*
X643514Y257889D01*
X637128Y251503D01*
X629328Y259303D01*
G37*
G36*
X620136Y250111D02*
X626522Y256497D01*
X634322Y248697D01*
X627936Y242311D01*
X620136Y250111D01*
G37*
G36*
X626384Y256634D02*
X619998Y250248D01*
X612198Y258048D01*
X618584Y264434D01*
X626384Y256634D01*
G37*
G36*
X635577Y265827D02*
X629191Y259441D01*
X621391Y267241D01*
X627777Y273627D01*
X635577Y265827D01*
G37*
G36*
X637266Y251366D02*
X643652Y257752D01*
X651452Y249952D01*
X645066Y243566D01*
X637266Y251366D01*
G37*
G36*
X628073Y242173D02*
X634459Y248559D01*
X642259Y240759D01*
X635873Y234373D01*
X628073Y242173D01*
G37*
D12*
X663575Y381150D03*
X663575Y368150D03*
X674688Y381150D03*
X674688Y368150D03*
D38*
X439763Y309263D03*
X449263Y309263D03*
X458763Y309263D03*
X458763Y335263D03*
X449263Y335263D03*
X439763Y335263D03*
D12*
X442913Y347513D03*
X442913Y360513D03*
X454025Y347513D03*
X454025Y360513D03*
D38*
X363563Y518813D03*
X373063Y518813D03*
X382563Y518813D03*
X382563Y544813D03*
X373063Y544813D03*
X363563Y544813D03*
X522263Y187625D03*
X512763Y187625D03*
X503263Y187625D03*
X503263Y161625D03*
X512763Y161625D03*
X522263Y161625D03*
X549300Y187025D03*
X558800Y187025D03*
X568300Y187025D03*
X568300Y213025D03*
X558800Y213025D03*
X549300Y213025D03*
D39*
X243188Y374675D03*
X243188Y384175D03*
X243188Y393675D03*
X217188Y393675D03*
X217188Y384175D03*
X217188Y374675D03*
D23*
X514350Y704825D03*
X514350Y685825D03*
X493713Y704825D03*
X493713Y685825D03*
D11*
X488800Y635000D03*
X501800Y635000D03*
X498325Y669925D03*
X511325Y669925D03*
D24*
X594263Y550863D03*
X558263Y550863D03*
D40*
X476060Y241300D03*
X476060Y234950D03*
X476060Y228600D03*
X476060Y222250D03*
X476060Y215900D03*
X476060Y209550D03*
X476060Y203200D03*
X530416Y241300D03*
X530416Y234950D03*
X530416Y228600D03*
X530416Y222250D03*
X530416Y215900D03*
X530416Y209550D03*
X530416Y203200D03*
D41*
G36*
X589613Y215713D02*
X586021Y212121D01*
X577581Y220561D01*
X581173Y224153D01*
X589613Y215713D01*
G37*
G36*
X594103Y220203D02*
X590511Y216611D01*
X582071Y225051D01*
X585663Y228643D01*
X594103Y220203D01*
G37*
G36*
X598594Y224693D02*
X595002Y221101D01*
X586562Y229541D01*
X590154Y233133D01*
X598594Y224693D01*
G37*
G36*
X603084Y229183D02*
X599492Y225591D01*
X591052Y234031D01*
X594644Y237623D01*
X603084Y229183D01*
G37*
G36*
X607574Y233673D02*
X603982Y230081D01*
X595542Y238521D01*
X599134Y242113D01*
X607574Y233673D01*
G37*
G36*
X612064Y238164D02*
X608472Y234572D01*
X600032Y243012D01*
X603624Y246604D01*
X612064Y238164D01*
G37*
G36*
X616554Y242654D02*
X612962Y239062D01*
X604522Y247502D01*
X608114Y251094D01*
X616554Y242654D01*
G37*
G36*
X551178Y254148D02*
X547586Y250556D01*
X539146Y258996D01*
X542738Y262588D01*
X551178Y254148D01*
G37*
G36*
X555668Y258638D02*
X552076Y255046D01*
X543636Y263486D01*
X547228Y267078D01*
X555668Y258638D01*
G37*
G36*
X560158Y263129D02*
X556566Y259537D01*
X548126Y267977D01*
X551718Y271569D01*
X560158Y263129D01*
G37*
G36*
X564648Y267619D02*
X561056Y264027D01*
X552616Y272467D01*
X556208Y276059D01*
X564648Y267619D01*
G37*
G36*
X569138Y272109D02*
X565546Y268517D01*
X557106Y276957D01*
X560698Y280549D01*
X569138Y272109D01*
G37*
G36*
X573629Y276599D02*
X570037Y273007D01*
X561597Y281447D01*
X565189Y285039D01*
X573629Y276599D01*
G37*
G36*
X578119Y281089D02*
X574527Y277497D01*
X566087Y285937D01*
X569679Y289529D01*
X578119Y281089D01*
G37*
D11*
X343050Y474663D03*
X330050Y474663D03*
X346225Y360363D03*
X333225Y360363D03*
X306238Y360363D03*
X319238Y360363D03*
D16*
X351850Y460439D03*
X343850Y460439D03*
X335850Y460439D03*
X327850Y460439D03*
X319850Y460439D03*
X311850Y460439D03*
X303850Y460439D03*
X295850Y460439D03*
D15*
X280924Y445513D03*
X280924Y437513D03*
X280924Y429513D03*
X280924Y421513D03*
X280924Y413513D03*
X280924Y405513D03*
X280924Y397513D03*
X280924Y389513D03*
D16*
X295850Y374587D03*
X303850Y374587D03*
X311850Y374587D03*
X319850Y374587D03*
X327850Y374587D03*
X335850Y374587D03*
X343850Y374587D03*
X351850Y374587D03*
D15*
X366776Y389513D03*
X366776Y397513D03*
X366776Y405513D03*
X366776Y413513D03*
X366776Y421513D03*
X366776Y429513D03*
X366776Y437513D03*
X366776Y445513D03*
D29*
X390525Y365725D03*
X390525Y313725D03*
X403225Y365725D03*
X377825Y365725D03*
X365125Y365725D03*
X403225Y313725D03*
X377825Y313725D03*
X365125Y313725D03*
D12*
X417513Y358625D03*
X417513Y371625D03*
X346075Y338288D03*
X346075Y325288D03*
X474663Y689125D03*
X474663Y676125D03*
D22*
X704850Y566625D03*
X714350Y544625D03*
X695350Y544625D03*
D14*
X319088Y285188D03*
X319088Y302188D03*
D12*
X125413Y163363D03*
X125413Y176363D03*
X561975Y304950D03*
X561975Y291950D03*
D42*
X314325Y253325D03*
X263525Y253325D03*
D43*
X288925Y152325D03*
D44*
X168500Y306388D03*
X85500Y306388D03*
D45*
X215063Y204788D03*
X150063Y204788D03*
D41*
X178775Y613378D03*
X172275Y613378D03*
X165775Y613378D03*
X159275Y613378D03*
X152775Y613378D03*
X146275Y613378D03*
X139775Y613378D03*
X133275Y613378D03*
X126775Y613378D03*
X120275Y613378D03*
X113775Y613378D03*
X107275Y613378D03*
X100775Y613378D03*
X94275Y613378D03*
X94275Y555022D03*
X100775Y555022D03*
X107275Y555022D03*
X113775Y555022D03*
X120275Y555022D03*
X126775Y555022D03*
X133275Y555022D03*
X139775Y555022D03*
X146275Y555022D03*
X152775Y555022D03*
X159275Y555022D03*
X165775Y555022D03*
X172275Y555022D03*
X178775Y555022D03*
D11*
X100163Y625475D03*
X87163Y625475D03*
D12*
X80963Y592288D03*
X80963Y579288D03*
D11*
X111275Y542925D03*
X98275Y542925D03*
X98275Y531813D03*
X111275Y531813D03*
D23*
X152400Y677838D03*
X152400Y658838D03*
X120650Y677838D03*
X120650Y658838D03*
D12*
X161131Y638325D03*
X161131Y625325D03*
X84138Y530075D03*
X84138Y543075D03*
D11*
X174475Y625475D03*
X187475Y625475D03*
X187475Y636588D03*
X174475Y636588D03*
D12*
X111919Y638325D03*
X111919Y625325D03*
D46*
X204788Y651263D03*
X204788Y691763D03*
D37*
X229625Y268288D03*
X246625Y268288D03*
D11*
X690713Y396875D03*
X677713Y396875D03*
D12*
X690563Y368150D03*
X690563Y381150D03*
X184150Y650725D03*
X184150Y663725D03*
D23*
X420688Y341288D03*
X420688Y322288D03*
D47*
X619907Y192552D03*
X635147Y192552D03*
D48*
X627527Y192552D03*
D11*
G36*
X635678Y224378D02*
X642064Y230764D01*
X649864Y222964D01*
X643478Y216578D01*
X635678Y224378D01*
G37*
G36*
X626486Y215186D02*
X632872Y221572D01*
X640672Y213772D01*
X634286Y207386D01*
X626486Y215186D01*
G37*
D47*
X518795Y584200D03*
X503555Y584200D03*
D48*
X511175Y584200D03*
D11*
X520850Y77788D03*
X507850Y77788D03*
D23*
X488950Y80400D03*
X488950Y97400D03*
D12*
X534988Y89050D03*
X534988Y76050D03*
D37*
X505850Y104775D03*
X522850Y104775D03*
D11*
X507850Y88900D03*
X520850Y88900D03*
D12*
X544513Y125563D03*
X544513Y112563D03*
D49*
X554784Y117304D03*
X554784Y112304D03*
X554784Y107304D03*
X554784Y102304D03*
X554784Y97304D03*
X554784Y92304D03*
X554784Y87304D03*
D50*
X562784Y79304D03*
X567784Y79304D03*
X572784Y79304D03*
X577784Y79304D03*
X582784Y79304D03*
X587784Y79304D03*
X592784Y79304D03*
D49*
X600784Y87304D03*
X600784Y92304D03*
X600784Y97304D03*
X600784Y102304D03*
X600784Y107304D03*
X600784Y112304D03*
X600784Y117304D03*
D50*
X592784Y125304D03*
X587784Y125304D03*
X582784Y125304D03*
X577784Y125304D03*
X572784Y125304D03*
X567784Y125304D03*
X562784Y125304D03*
D51*
X577784Y102304D03*
D52*
X522350Y120500D03*
X522350Y127000D03*
X522350Y133500D03*
X506350Y133500D03*
X506350Y127000D03*
X506350Y120500D03*
D53*
X726200Y340675D03*
X726200Y300675D03*
X696200Y340675D03*
X696200Y300675D03*
D23*
X206375Y590575D03*
X206375Y609575D03*
D12*
X69850Y592288D03*
X69850Y579288D03*
D54*
X66675Y563245D03*
X66675Y548005D03*
D55*
X66675Y555625D03*
D56*
X63975Y412750D03*
X63975Y423750D03*
X63975Y434750D03*
X63975Y445750D03*
X63975Y456750D03*
X63975Y467750D03*
X63975Y478750D03*
X63975Y489750D03*
D57*
X68975Y377250D03*
D58*
X68975Y510750D03*
D59*
X191975Y396250D03*
D60*
X191975Y426750D03*
X191975Y475750D03*
D61*
X479425Y552675D03*
X485775Y552675D03*
X492125Y552675D03*
X498475Y552675D03*
X504825Y552675D03*
X511175Y552675D03*
X517525Y552675D03*
X523875Y552675D03*
X523875Y615725D03*
X517525Y615725D03*
X511175Y615725D03*
X504825Y615725D03*
X498475Y615725D03*
X492125Y615725D03*
X485775Y615725D03*
X479425Y615725D03*
D12*
X704850Y411013D03*
X704850Y424013D03*
X715963Y411013D03*
X715963Y424013D03*
X200025Y358925D03*
X200025Y345925D03*
X727075Y411013D03*
X727075Y424013D03*
X254000Y333525D03*
X254000Y320525D03*
X265113Y333525D03*
X265113Y320525D03*
D62*
X438150Y279400D03*
X438150Y254000D03*
X412750Y279400D03*
X412750Y254000D03*
X387350Y279400D03*
X387350Y254000D03*
X361950Y279400D03*
X361950Y254000D03*
D63*
X74000Y733000D03*
X726000Y733000D03*
X667000Y106000D03*
X133000Y106000D03*
D64*
X15875Y781050D03*
X34925Y781050D03*
X34925Y762000D03*
X15875Y762000D03*
X15875Y742950D03*
X34925Y742950D03*
X34925Y723900D03*
X15875Y723900D03*
X15875Y704850D03*
X34925Y704850D03*
X34925Y685800D03*
X15875Y685800D03*
X15875Y666750D03*
X31750Y666750D03*
X30163Y647700D03*
X15875Y647700D03*
X15875Y628650D03*
X34925Y628650D03*
X34925Y609600D03*
X15875Y609600D03*
X15875Y590550D03*
X34925Y590550D03*
X34925Y571500D03*
X15875Y571500D03*
X15875Y552450D03*
X34925Y552450D03*
X34925Y533400D03*
X15875Y533400D03*
X15875Y514350D03*
X34925Y514350D03*
X34925Y495300D03*
X15875Y495300D03*
X15875Y476250D03*
X34925Y476250D03*
X34925Y457200D03*
X15875Y457200D03*
X15875Y438150D03*
X34925Y438150D03*
X34925Y419100D03*
X15875Y419100D03*
X15875Y400050D03*
X34925Y400050D03*
X34925Y381000D03*
X15875Y381000D03*
X15875Y361950D03*
X34925Y361950D03*
X34925Y342900D03*
X15875Y342900D03*
X15875Y323850D03*
X34925Y323850D03*
X34925Y304800D03*
X15875Y304800D03*
X15875Y285750D03*
X34925Y285750D03*
X34925Y266700D03*
X15875Y266700D03*
X15875Y247650D03*
X34925Y247650D03*
X34925Y228600D03*
X15875Y228600D03*
X15875Y209550D03*
X34925Y209550D03*
X34925Y190500D03*
X15875Y190500D03*
X765175Y781050D03*
X784225Y762000D03*
X765175Y762000D03*
X765175Y742950D03*
X784225Y742950D03*
X784225Y723900D03*
X765175Y723900D03*
X765175Y704850D03*
X784225Y704850D03*
X784225Y685800D03*
X765175Y685800D03*
X765175Y666750D03*
X784225Y666750D03*
X784225Y647700D03*
X765175Y647700D03*
X765175Y628650D03*
X784225Y628650D03*
X784225Y609600D03*
X765175Y609600D03*
X765175Y590550D03*
X784225Y590550D03*
X784225Y571500D03*
X765175Y571500D03*
X765175Y552450D03*
X784225Y552450D03*
X784225Y533400D03*
X765175Y533400D03*
X765175Y514350D03*
X784225Y514350D03*
X784225Y495300D03*
X765175Y495300D03*
X765175Y476250D03*
X784225Y476250D03*
X784225Y457200D03*
X765175Y457200D03*
X765175Y438150D03*
X784225Y438150D03*
X784225Y419100D03*
X765175Y419100D03*
X765175Y400050D03*
X784225Y400050D03*
X784225Y381000D03*
X765175Y381000D03*
X765175Y361950D03*
X784225Y361950D03*
X784225Y342900D03*
X765175Y342900D03*
X765175Y323850D03*
X784225Y323850D03*
X784225Y304800D03*
X765175Y304800D03*
X765175Y285750D03*
X784225Y285750D03*
X784225Y266700D03*
X765175Y266700D03*
X765175Y247650D03*
X784225Y247650D03*
X784225Y228600D03*
X765175Y228600D03*
X765175Y209550D03*
X784225Y209550D03*
X784225Y190500D03*
X765175Y190500D03*
X152400Y34925D03*
X152400Y15875D03*
X171450Y15875D03*
X171450Y34925D03*
X190500Y34925D03*
X190500Y15875D03*
X209550Y15875D03*
X209550Y34925D03*
X228600Y34925D03*
X228600Y15875D03*
X247650Y15875D03*
X247650Y34925D03*
X266700Y34925D03*
X266700Y15875D03*
X285750Y15875D03*
X285750Y34925D03*
X304800Y34925D03*
X304800Y15875D03*
X323850Y15875D03*
X323850Y34925D03*
X342900Y34925D03*
X342900Y15875D03*
X361950Y15875D03*
X361950Y34925D03*
X381000Y34925D03*
X381000Y15875D03*
X400050Y15875D03*
X400050Y34925D03*
X419100Y34925D03*
X419100Y15875D03*
X438150Y15875D03*
X438150Y34925D03*
X457200Y34925D03*
X457200Y15875D03*
X476250Y15875D03*
X476250Y34925D03*
X495300Y34925D03*
X495300Y15875D03*
X514350Y15875D03*
X514350Y34925D03*
X533400Y34925D03*
X533400Y15875D03*
X552450Y15875D03*
X552450Y34925D03*
X571500Y34925D03*
X571500Y15875D03*
X590550Y15875D03*
X590550Y34925D03*
X609600Y34925D03*
X609600Y15875D03*
X628650Y15875D03*
X628650Y34925D03*
X647700Y34925D03*
X647700Y15875D03*
X15875Y171450D03*
X34925Y171450D03*
X34925Y152400D03*
X15875Y152400D03*
X765175Y171450D03*
X784225Y171450D03*
X784225Y152400D03*
X765175Y152400D03*
X44450Y133350D03*
X57150Y120650D03*
X69850Y107950D03*
X82550Y95250D03*
X95250Y82550D03*
X107950Y69850D03*
X120650Y57150D03*
X136525Y44450D03*
X666750Y44450D03*
X679450Y57150D03*
X692150Y69850D03*
X704850Y82550D03*
X717550Y95250D03*
X730250Y107950D03*
X742950Y120650D03*
X755650Y136525D03*
X679450Y31750D03*
X692150Y44450D03*
X704850Y57150D03*
X717550Y69850D03*
X730250Y82550D03*
X742950Y95250D03*
X755650Y107950D03*
X768350Y123825D03*
X781050Y136525D03*
X666750Y19050D03*
X31750Y120650D03*
X44450Y107950D03*
X57150Y95250D03*
X69850Y82550D03*
X82550Y69850D03*
X95250Y57150D03*
X107950Y44450D03*
X123825Y31750D03*
X136525Y19050D03*
X19050Y133350D03*
X784225Y781050D03*
X263525Y127000D03*
X276225Y127000D03*
X288925Y127000D03*
X301625Y127000D03*
X314325Y127000D03*
X263525Y139700D03*
X263525Y152400D03*
X263525Y165100D03*
X263525Y177800D03*
X263525Y190500D03*
X276225Y139700D03*
X276225Y152400D03*
X276225Y165100D03*
X276225Y177800D03*
X276225Y190500D03*
X288925Y190500D03*
X288925Y177800D03*
X288925Y165100D03*
X288925Y152400D03*
X288925Y139700D03*
X301625Y139700D03*
X301625Y152400D03*
X301625Y165100D03*
X301625Y177800D03*
X301625Y190500D03*
X314325Y190500D03*
X314325Y177800D03*
X314325Y165100D03*
X314325Y152400D03*
X314325Y139700D03*
X98425Y300038D03*
X98425Y312738D03*
X85725Y300038D03*
X73025Y300038D03*
X85725Y312738D03*
X73025Y312738D03*
X161925Y198438D03*
X161925Y211138D03*
X150813Y198438D03*
X139700Y198438D03*
X150813Y211138D03*
X139700Y211138D03*
X153988Y576263D03*
X142875Y576263D03*
X130175Y576263D03*
X119063Y576263D03*
X119063Y590550D03*
X130175Y590550D03*
X142875Y590550D03*
X153988Y590550D03*
M02*
