G04 EAGLE Gerber RS-274X export*
G75*
%MOMM*%
%FSLAX34Y34*%
%LPD*%
%INSolderpaste Top*%
%IPPOS*%
%AMOC8*
5,1,8,0,0,1.08239X$1,22.5*%
G01*
%ADD10R,0.700000X0.900000*%
%ADD11R,0.900000X0.700000*%
%ADD12R,0.700000X1.000000*%
%ADD13R,1.000000X1.100000*%
%ADD14R,1.270000X0.558800*%
%ADD15R,0.558800X1.270000*%
%ADD16R,1.780000X2.160000*%
%ADD17R,0.800000X0.800000*%
%ADD18R,1.200000X2.800000*%
%ADD19R,1.200000X1.400000*%
%ADD20R,1.800000X2.400000*%
%ADD21R,1.000000X1.400000*%
%ADD22R,1.500000X1.300000*%
%ADD23R,1.500000X2.100000*%
%ADD24R,0.685800X2.540000*%
%ADD25R,0.900000X0.300000*%
%ADD26R,0.300000X0.900000*%
%ADD27R,1.700000X2.400000*%
%ADD28R,0.600000X2.200000*%
%ADD29R,1.219000X2.235000*%
%ADD30R,3.600000X2.200000*%
%ADD31R,2.200000X0.635000*%
%ADD32R,1.100000X1.000000*%
%ADD33R,0.550000X1.200000*%
%ADD34R,1.200000X0.550000*%
%ADD35R,0.990600X0.304800*%
%ADD36R,0.304800X0.990600*%
%ADD37R,1.000000X3.400000*%
%ADD38R,6.800000X9.600000*%
%ADD39R,4.300000X2.500000*%
%ADD40R,3.500000X2.500000*%
%ADD41R,2.400000X1.800000*%
%ADD42R,1.168400X1.600200*%
%ADD43R,0.560000X0.260000*%
%ADD44R,0.260000X0.560000*%
%ADD45R,0.400000X0.400000*%
%ADD46R,0.800000X0.400000*%
%ADD47R,0.750000X1.000000*%
%ADD48R,1.600200X1.168400*%
%ADD49R,2.000000X0.700000*%
%ADD50R,2.600000X1.500000*%
%ADD51R,2.600000X1.000000*%
%ADD52R,1.200000X1.200000*%
%ADD53R,1.200000X2.700000*%
%ADD54R,0.380000X2.000000*%


D10*
X236688Y523875D03*
X223688Y523875D03*
D11*
X349250Y509738D03*
X349250Y496738D03*
D10*
X297013Y592138D03*
X284013Y592138D03*
X250975Y458788D03*
X237975Y458788D03*
X339875Y581025D03*
X326875Y581025D03*
D12*
X228600Y325550D03*
X219100Y347550D03*
X238100Y347550D03*
D10*
X250975Y481013D03*
X237975Y481013D03*
D13*
X249800Y568325D03*
X232800Y568325D03*
D10*
X223688Y534988D03*
X236688Y534988D03*
X250975Y469900D03*
X237975Y469900D03*
X312888Y581025D03*
X299888Y581025D03*
D11*
X349250Y565300D03*
X349250Y552300D03*
X349250Y538313D03*
X349250Y525313D03*
D10*
X236688Y546100D03*
X223688Y546100D03*
X266850Y350838D03*
X253850Y350838D03*
D11*
X228600Y604988D03*
X228600Y591988D03*
X215900Y570063D03*
X215900Y557063D03*
D10*
X252563Y604838D03*
X239563Y604838D03*
D14*
X249174Y551875D03*
X249174Y543875D03*
X249174Y535875D03*
X249174Y527875D03*
X249174Y519875D03*
X249174Y511875D03*
X249174Y503875D03*
X249174Y495875D03*
D15*
X264100Y480949D03*
X272100Y480949D03*
X280100Y480949D03*
X288100Y480949D03*
X296100Y480949D03*
X304100Y480949D03*
X312100Y480949D03*
X320100Y480949D03*
D14*
X335026Y495875D03*
X335026Y503875D03*
X335026Y511875D03*
X335026Y519875D03*
X335026Y527875D03*
X335026Y535875D03*
X335026Y543875D03*
X335026Y551875D03*
D15*
X320100Y566801D03*
X312100Y566801D03*
X304100Y566801D03*
X296100Y566801D03*
X288100Y566801D03*
X280100Y566801D03*
X272100Y566801D03*
X264100Y566801D03*
D10*
X247500Y406400D03*
X260500Y406400D03*
D11*
X231775Y428475D03*
X231775Y441475D03*
D10*
X223688Y501650D03*
X236688Y501650D03*
X215750Y415925D03*
X228750Y415925D03*
X215750Y404813D03*
X228750Y404813D03*
D16*
X282913Y331788D03*
X323613Y331788D03*
D10*
X690713Y407988D03*
X677713Y407988D03*
D17*
X693300Y419100D03*
X678300Y419100D03*
D18*
X200988Y295275D03*
X233988Y295275D03*
D10*
X258613Y581025D03*
X271613Y581025D03*
D19*
X262500Y422388D03*
X262500Y444388D03*
X245500Y444388D03*
X245500Y422388D03*
D20*
X294888Y293688D03*
X254388Y293688D03*
D21*
X238125Y639650D03*
X247625Y617650D03*
X228625Y617650D03*
D10*
X260500Y361950D03*
X247500Y361950D03*
X231925Y361950D03*
X218925Y361950D03*
X358625Y638175D03*
X371625Y638175D03*
D22*
X596900Y685825D03*
X596900Y704825D03*
D10*
X628500Y479425D03*
X641500Y479425D03*
X653900Y479425D03*
X666900Y479425D03*
D22*
X576263Y685825D03*
X576263Y704825D03*
X534988Y685825D03*
X534988Y704825D03*
D10*
X536425Y571500D03*
X549425Y571500D03*
X561825Y571500D03*
X574825Y571500D03*
D22*
X555625Y685825D03*
X555625Y704825D03*
D10*
X228450Y655638D03*
X241450Y655638D03*
X241450Y666750D03*
X228450Y666750D03*
D21*
X238125Y703150D03*
X247625Y681150D03*
X228625Y681150D03*
D10*
X263375Y604838D03*
X276375Y604838D03*
X276375Y615950D03*
X263375Y615950D03*
D21*
X269875Y652350D03*
X279375Y630350D03*
X260375Y630350D03*
D10*
X376388Y558800D03*
X363388Y558800D03*
X400200Y558800D03*
X387200Y558800D03*
D21*
X396875Y596788D03*
X406375Y574788D03*
X387375Y574788D03*
D10*
X420538Y549275D03*
X433538Y549275D03*
X433538Y560388D03*
X420538Y560388D03*
D21*
X428625Y596788D03*
X438125Y574788D03*
X419125Y574788D03*
D10*
X360213Y574675D03*
X373213Y574675D03*
X373213Y585788D03*
X360213Y585788D03*
D21*
X365125Y620600D03*
X374625Y598600D03*
X355625Y598600D03*
D10*
X295125Y604838D03*
X308125Y604838D03*
X308125Y615950D03*
X295125Y615950D03*
D21*
X301625Y652350D03*
X311125Y630350D03*
X292125Y630350D03*
D10*
X326875Y592138D03*
X339875Y592138D03*
X339875Y603250D03*
X326875Y603250D03*
D21*
X333375Y639650D03*
X342875Y617650D03*
X323875Y617650D03*
D23*
X425988Y646113D03*
X389988Y646113D03*
X425988Y620713D03*
X389988Y620713D03*
D10*
X585638Y533400D03*
X598638Y533400D03*
X450700Y590550D03*
X463700Y590550D03*
X463700Y601663D03*
X450700Y601663D03*
D21*
X450850Y638063D03*
X460350Y616063D03*
X441350Y616063D03*
D23*
X425988Y671513D03*
X389988Y671513D03*
D10*
X449113Y652463D03*
X462113Y652463D03*
X462113Y663575D03*
X449113Y663575D03*
D21*
X450850Y699975D03*
X460350Y677975D03*
X441350Y677975D03*
D23*
X425988Y696913D03*
X389988Y696913D03*
D11*
X382588Y431650D03*
X382588Y444650D03*
D17*
X382588Y420250D03*
X382588Y405250D03*
D24*
X679450Y261938D03*
X717550Y261938D03*
X692150Y261938D03*
X704850Y261938D03*
X679450Y163513D03*
X717550Y163513D03*
X692150Y163513D03*
X704850Y163513D03*
D22*
X700088Y666725D03*
X700088Y647725D03*
D11*
X609600Y523725D03*
X609600Y536725D03*
D10*
G36*
X572547Y522815D02*
X567598Y527764D01*
X573961Y534127D01*
X578910Y529178D01*
X572547Y522815D01*
G37*
G36*
X581739Y513623D02*
X576790Y518572D01*
X583153Y524935D01*
X588102Y519986D01*
X581739Y513623D01*
G37*
G36*
X521228Y518066D02*
X526177Y523015D01*
X532540Y516652D01*
X527591Y511703D01*
X521228Y518066D01*
G37*
G36*
X512035Y508873D02*
X516984Y513822D01*
X523347Y507459D01*
X518398Y502510D01*
X512035Y508873D01*
G37*
D11*
X598488Y503088D03*
X598488Y516088D03*
D10*
G36*
X481540Y478378D02*
X486489Y483327D01*
X492852Y476964D01*
X487903Y472015D01*
X481540Y478378D01*
G37*
G36*
X472348Y469186D02*
X477297Y474135D01*
X483660Y467772D01*
X478711Y462823D01*
X472348Y469186D01*
G37*
D11*
X539750Y295125D03*
X539750Y308125D03*
X652463Y376088D03*
X652463Y389088D03*
X663575Y408138D03*
X663575Y395138D03*
X550863Y306538D03*
X550863Y293538D03*
X450850Y397025D03*
X450850Y384025D03*
D10*
G36*
X503765Y500603D02*
X508714Y505552D01*
X515077Y499189D01*
X510128Y494240D01*
X503765Y500603D01*
G37*
G36*
X494573Y491411D02*
X499522Y496360D01*
X505885Y489997D01*
X500936Y485048D01*
X494573Y491411D01*
G37*
D25*
G36*
X545584Y511873D02*
X539221Y518236D01*
X541342Y520357D01*
X547705Y513994D01*
X545584Y511873D01*
G37*
G36*
X542048Y508338D02*
X535685Y514701D01*
X537806Y516822D01*
X544169Y510459D01*
X542048Y508338D01*
G37*
G36*
X538513Y504802D02*
X532150Y511165D01*
X534271Y513286D01*
X540634Y506923D01*
X538513Y504802D01*
G37*
G36*
X534977Y501266D02*
X528614Y507629D01*
X530735Y509750D01*
X537098Y503387D01*
X534977Y501266D01*
G37*
G36*
X531442Y497731D02*
X525079Y504094D01*
X527200Y506215D01*
X533563Y499852D01*
X531442Y497731D01*
G37*
G36*
X527906Y494195D02*
X521543Y500558D01*
X523664Y502679D01*
X530027Y496316D01*
X527906Y494195D01*
G37*
G36*
X524371Y490660D02*
X518008Y497023D01*
X520129Y499144D01*
X526492Y492781D01*
X524371Y490660D01*
G37*
G36*
X520835Y487124D02*
X514472Y493487D01*
X516593Y495608D01*
X522956Y489245D01*
X520835Y487124D01*
G37*
G36*
X517299Y483589D02*
X510936Y489952D01*
X513057Y492073D01*
X519420Y485710D01*
X517299Y483589D01*
G37*
G36*
X513764Y480053D02*
X507401Y486416D01*
X509522Y488537D01*
X515885Y482174D01*
X513764Y480053D01*
G37*
G36*
X510228Y476518D02*
X503865Y482881D01*
X505986Y485002D01*
X512349Y478639D01*
X510228Y476518D01*
G37*
G36*
X506693Y472982D02*
X500330Y479345D01*
X502451Y481466D01*
X508814Y475103D01*
X506693Y472982D01*
G37*
G36*
X503157Y469447D02*
X496794Y475810D01*
X498915Y477931D01*
X505278Y471568D01*
X503157Y469447D01*
G37*
G36*
X499622Y465911D02*
X493259Y472274D01*
X495380Y474395D01*
X501743Y468032D01*
X499622Y465911D01*
G37*
G36*
X496086Y462376D02*
X489723Y468739D01*
X491844Y470860D01*
X498207Y464497D01*
X496086Y462376D01*
G37*
G36*
X492551Y458840D02*
X486188Y465203D01*
X488309Y467324D01*
X494672Y460961D01*
X492551Y458840D01*
G37*
G36*
X489015Y455305D02*
X482652Y461668D01*
X484773Y463789D01*
X491136Y457426D01*
X489015Y455305D01*
G37*
G36*
X485480Y451769D02*
X479117Y458132D01*
X481238Y460253D01*
X487601Y453890D01*
X485480Y451769D01*
G37*
G36*
X481944Y448233D02*
X475581Y454596D01*
X477702Y456717D01*
X484065Y450354D01*
X481944Y448233D01*
G37*
G36*
X478409Y444698D02*
X472046Y451061D01*
X474167Y453182D01*
X480530Y446819D01*
X478409Y444698D01*
G37*
G36*
X474873Y441162D02*
X468510Y447525D01*
X470631Y449646D01*
X476994Y443283D01*
X474873Y441162D01*
G37*
G36*
X471338Y437627D02*
X464975Y443990D01*
X467096Y446111D01*
X473459Y439748D01*
X471338Y437627D01*
G37*
G36*
X467802Y434091D02*
X461439Y440454D01*
X463560Y442575D01*
X469923Y436212D01*
X467802Y434091D01*
G37*
G36*
X464266Y430556D02*
X457903Y436919D01*
X460024Y439040D01*
X466387Y432677D01*
X464266Y430556D01*
G37*
G36*
X460731Y427020D02*
X454368Y433383D01*
X456489Y435504D01*
X462852Y429141D01*
X460731Y427020D01*
G37*
D26*
G36*
X456489Y402696D02*
X454368Y404817D01*
X460731Y411180D01*
X462852Y409059D01*
X456489Y402696D01*
G37*
G36*
X460024Y399160D02*
X457903Y401281D01*
X464266Y407644D01*
X466387Y405523D01*
X460024Y399160D01*
G37*
G36*
X463560Y395625D02*
X461439Y397746D01*
X467802Y404109D01*
X469923Y401988D01*
X463560Y395625D01*
G37*
G36*
X467096Y392089D02*
X464975Y394210D01*
X471338Y400573D01*
X473459Y398452D01*
X467096Y392089D01*
G37*
G36*
X470631Y388554D02*
X468510Y390675D01*
X474873Y397038D01*
X476994Y394917D01*
X470631Y388554D01*
G37*
G36*
X474167Y385018D02*
X472046Y387139D01*
X478409Y393502D01*
X480530Y391381D01*
X474167Y385018D01*
G37*
G36*
X477702Y381483D02*
X475581Y383604D01*
X481944Y389967D01*
X484065Y387846D01*
X477702Y381483D01*
G37*
G36*
X481238Y377947D02*
X479117Y380068D01*
X485480Y386431D01*
X487601Y384310D01*
X481238Y377947D01*
G37*
G36*
X484773Y374411D02*
X482652Y376532D01*
X489015Y382895D01*
X491136Y380774D01*
X484773Y374411D01*
G37*
G36*
X488309Y370876D02*
X486188Y372997D01*
X492551Y379360D01*
X494672Y377239D01*
X488309Y370876D01*
G37*
G36*
X491844Y367340D02*
X489723Y369461D01*
X496086Y375824D01*
X498207Y373703D01*
X491844Y367340D01*
G37*
G36*
X495380Y363805D02*
X493259Y365926D01*
X499622Y372289D01*
X501743Y370168D01*
X495380Y363805D01*
G37*
G36*
X498915Y360269D02*
X496794Y362390D01*
X503157Y368753D01*
X505278Y366632D01*
X498915Y360269D01*
G37*
G36*
X502451Y356734D02*
X500330Y358855D01*
X506693Y365218D01*
X508814Y363097D01*
X502451Y356734D01*
G37*
G36*
X505986Y353198D02*
X503865Y355319D01*
X510228Y361682D01*
X512349Y359561D01*
X505986Y353198D01*
G37*
G36*
X509522Y349663D02*
X507401Y351784D01*
X513764Y358147D01*
X515885Y356026D01*
X509522Y349663D01*
G37*
G36*
X513057Y346127D02*
X510936Y348248D01*
X517299Y354611D01*
X519420Y352490D01*
X513057Y346127D01*
G37*
G36*
X516593Y342592D02*
X514472Y344713D01*
X520835Y351076D01*
X522956Y348955D01*
X516593Y342592D01*
G37*
G36*
X520129Y339056D02*
X518008Y341177D01*
X524371Y347540D01*
X526492Y345419D01*
X520129Y339056D01*
G37*
G36*
X523664Y335521D02*
X521543Y337642D01*
X527906Y344005D01*
X530027Y341884D01*
X523664Y335521D01*
G37*
G36*
X527200Y331985D02*
X525079Y334106D01*
X531442Y340469D01*
X533563Y338348D01*
X527200Y331985D01*
G37*
G36*
X530735Y328450D02*
X528614Y330571D01*
X534977Y336934D01*
X537098Y334813D01*
X530735Y328450D01*
G37*
G36*
X534271Y324914D02*
X532150Y327035D01*
X538513Y333398D01*
X540634Y331277D01*
X534271Y324914D01*
G37*
G36*
X537806Y321378D02*
X535685Y323499D01*
X542048Y329862D01*
X544169Y327741D01*
X537806Y321378D01*
G37*
G36*
X541342Y317843D02*
X539221Y319964D01*
X545584Y326327D01*
X547705Y324206D01*
X541342Y317843D01*
G37*
D25*
G36*
X569908Y317843D02*
X563545Y324206D01*
X565666Y326327D01*
X572029Y319964D01*
X569908Y317843D01*
G37*
G36*
X573444Y321378D02*
X567081Y327741D01*
X569202Y329862D01*
X575565Y323499D01*
X573444Y321378D01*
G37*
G36*
X576979Y324914D02*
X570616Y331277D01*
X572737Y333398D01*
X579100Y327035D01*
X576979Y324914D01*
G37*
G36*
X580515Y328450D02*
X574152Y334813D01*
X576273Y336934D01*
X582636Y330571D01*
X580515Y328450D01*
G37*
G36*
X584050Y331985D02*
X577687Y338348D01*
X579808Y340469D01*
X586171Y334106D01*
X584050Y331985D01*
G37*
G36*
X587586Y335521D02*
X581223Y341884D01*
X583344Y344005D01*
X589707Y337642D01*
X587586Y335521D01*
G37*
G36*
X591121Y339056D02*
X584758Y345419D01*
X586879Y347540D01*
X593242Y341177D01*
X591121Y339056D01*
G37*
G36*
X594657Y342592D02*
X588294Y348955D01*
X590415Y351076D01*
X596778Y344713D01*
X594657Y342592D01*
G37*
G36*
X598193Y346127D02*
X591830Y352490D01*
X593951Y354611D01*
X600314Y348248D01*
X598193Y346127D01*
G37*
G36*
X601728Y349663D02*
X595365Y356026D01*
X597486Y358147D01*
X603849Y351784D01*
X601728Y349663D01*
G37*
G36*
X605264Y353198D02*
X598901Y359561D01*
X601022Y361682D01*
X607385Y355319D01*
X605264Y353198D01*
G37*
G36*
X608799Y356734D02*
X602436Y363097D01*
X604557Y365218D01*
X610920Y358855D01*
X608799Y356734D01*
G37*
G36*
X612335Y360269D02*
X605972Y366632D01*
X608093Y368753D01*
X614456Y362390D01*
X612335Y360269D01*
G37*
G36*
X615870Y363805D02*
X609507Y370168D01*
X611628Y372289D01*
X617991Y365926D01*
X615870Y363805D01*
G37*
G36*
X619406Y367340D02*
X613043Y373703D01*
X615164Y375824D01*
X621527Y369461D01*
X619406Y367340D01*
G37*
G36*
X622941Y370876D02*
X616578Y377239D01*
X618699Y379360D01*
X625062Y372997D01*
X622941Y370876D01*
G37*
G36*
X626477Y374411D02*
X620114Y380774D01*
X622235Y382895D01*
X628598Y376532D01*
X626477Y374411D01*
G37*
G36*
X630012Y377947D02*
X623649Y384310D01*
X625770Y386431D01*
X632133Y380068D01*
X630012Y377947D01*
G37*
G36*
X633548Y381483D02*
X627185Y387846D01*
X629306Y389967D01*
X635669Y383604D01*
X633548Y381483D01*
G37*
G36*
X637083Y385018D02*
X630720Y391381D01*
X632841Y393502D01*
X639204Y387139D01*
X637083Y385018D01*
G37*
G36*
X640619Y388554D02*
X634256Y394917D01*
X636377Y397038D01*
X642740Y390675D01*
X640619Y388554D01*
G37*
G36*
X644154Y392089D02*
X637791Y398452D01*
X639912Y400573D01*
X646275Y394210D01*
X644154Y392089D01*
G37*
G36*
X647690Y395625D02*
X641327Y401988D01*
X643448Y404109D01*
X649811Y397746D01*
X647690Y395625D01*
G37*
G36*
X651226Y399160D02*
X644863Y405523D01*
X646984Y407644D01*
X653347Y401281D01*
X651226Y399160D01*
G37*
G36*
X654761Y402696D02*
X648398Y409059D01*
X650519Y411180D01*
X656882Y404817D01*
X654761Y402696D01*
G37*
D26*
G36*
X650519Y427020D02*
X648398Y429141D01*
X654761Y435504D01*
X656882Y433383D01*
X650519Y427020D01*
G37*
G36*
X646984Y430556D02*
X644863Y432677D01*
X651226Y439040D01*
X653347Y436919D01*
X646984Y430556D01*
G37*
G36*
X643448Y434091D02*
X641327Y436212D01*
X647690Y442575D01*
X649811Y440454D01*
X643448Y434091D01*
G37*
G36*
X639912Y437627D02*
X637791Y439748D01*
X644154Y446111D01*
X646275Y443990D01*
X639912Y437627D01*
G37*
G36*
X636377Y441162D02*
X634256Y443283D01*
X640619Y449646D01*
X642740Y447525D01*
X636377Y441162D01*
G37*
G36*
X632841Y444698D02*
X630720Y446819D01*
X637083Y453182D01*
X639204Y451061D01*
X632841Y444698D01*
G37*
G36*
X629306Y448233D02*
X627185Y450354D01*
X633548Y456717D01*
X635669Y454596D01*
X629306Y448233D01*
G37*
G36*
X625770Y451769D02*
X623649Y453890D01*
X630012Y460253D01*
X632133Y458132D01*
X625770Y451769D01*
G37*
G36*
X622235Y455305D02*
X620114Y457426D01*
X626477Y463789D01*
X628598Y461668D01*
X622235Y455305D01*
G37*
G36*
X618699Y458840D02*
X616578Y460961D01*
X622941Y467324D01*
X625062Y465203D01*
X618699Y458840D01*
G37*
G36*
X615164Y462376D02*
X613043Y464497D01*
X619406Y470860D01*
X621527Y468739D01*
X615164Y462376D01*
G37*
G36*
X611628Y465911D02*
X609507Y468032D01*
X615870Y474395D01*
X617991Y472274D01*
X611628Y465911D01*
G37*
G36*
X608093Y469447D02*
X605972Y471568D01*
X612335Y477931D01*
X614456Y475810D01*
X608093Y469447D01*
G37*
G36*
X604557Y472982D02*
X602436Y475103D01*
X608799Y481466D01*
X610920Y479345D01*
X604557Y472982D01*
G37*
G36*
X601022Y476518D02*
X598901Y478639D01*
X605264Y485002D01*
X607385Y482881D01*
X601022Y476518D01*
G37*
G36*
X597486Y480053D02*
X595365Y482174D01*
X601728Y488537D01*
X603849Y486416D01*
X597486Y480053D01*
G37*
G36*
X593951Y483589D02*
X591830Y485710D01*
X598193Y492073D01*
X600314Y489952D01*
X593951Y483589D01*
G37*
G36*
X590415Y487124D02*
X588294Y489245D01*
X594657Y495608D01*
X596778Y493487D01*
X590415Y487124D01*
G37*
G36*
X586879Y490660D02*
X584758Y492781D01*
X591121Y499144D01*
X593242Y497023D01*
X586879Y490660D01*
G37*
G36*
X583344Y494195D02*
X581223Y496316D01*
X587586Y502679D01*
X589707Y500558D01*
X583344Y494195D01*
G37*
G36*
X579808Y497731D02*
X577687Y499852D01*
X584050Y506215D01*
X586171Y504094D01*
X579808Y497731D01*
G37*
G36*
X576273Y501266D02*
X574152Y503387D01*
X580515Y509750D01*
X582636Y507629D01*
X576273Y501266D01*
G37*
G36*
X572737Y504802D02*
X570616Y506923D01*
X576979Y513286D01*
X579100Y511165D01*
X572737Y504802D01*
G37*
G36*
X569202Y508338D02*
X567081Y510459D01*
X573444Y516822D01*
X575565Y514701D01*
X569202Y508338D01*
G37*
G36*
X565666Y511873D02*
X563545Y513994D01*
X569908Y520357D01*
X572029Y518236D01*
X565666Y511873D01*
G37*
D10*
G36*
X508541Y523347D02*
X513490Y518398D01*
X507127Y512035D01*
X502178Y516984D01*
X508541Y523347D01*
G37*
G36*
X499348Y532540D02*
X504297Y527591D01*
X497934Y521228D01*
X492985Y526177D01*
X499348Y532540D01*
G37*
G36*
X448722Y475190D02*
X443773Y480139D01*
X450136Y486502D01*
X455085Y481553D01*
X448722Y475190D01*
G37*
G36*
X457914Y465998D02*
X452965Y470947D01*
X459328Y477310D01*
X464277Y472361D01*
X457914Y465998D01*
G37*
G36*
X463022Y510634D02*
X458073Y505685D01*
X451710Y512048D01*
X456659Y516997D01*
X463022Y510634D01*
G37*
G36*
X472215Y519827D02*
X467266Y514878D01*
X460903Y521241D01*
X465852Y526190D01*
X472215Y519827D01*
G37*
D27*
G36*
X476424Y515618D02*
X488445Y527639D01*
X505414Y510670D01*
X493393Y498649D01*
X476424Y515618D01*
G37*
G36*
X450261Y489455D02*
X462282Y501476D01*
X479251Y484507D01*
X467230Y472486D01*
X450261Y489455D01*
G37*
D11*
X669925Y445938D03*
X669925Y458938D03*
D10*
X706588Y446088D03*
X693588Y446088D03*
D28*
X693738Y464538D03*
X693738Y516538D03*
X681038Y464538D03*
X706438Y464538D03*
X719138Y464538D03*
X681038Y516538D03*
X706438Y516538D03*
X719138Y516538D03*
D29*
X61028Y169035D03*
X84138Y169035D03*
X107248Y169035D03*
D30*
X84138Y231015D03*
D22*
X58738Y274613D03*
X58738Y255613D03*
D31*
G36*
X651566Y330665D02*
X667122Y346221D01*
X671612Y341731D01*
X656056Y326175D01*
X651566Y330665D01*
G37*
G36*
X642586Y339645D02*
X658142Y355201D01*
X662632Y350711D01*
X647076Y335155D01*
X642586Y339645D01*
G37*
G36*
X633605Y348626D02*
X649161Y364182D01*
X653651Y359692D01*
X638095Y344136D01*
X633605Y348626D01*
G37*
G36*
X624625Y357606D02*
X640181Y373162D01*
X644671Y368672D01*
X629115Y353116D01*
X624625Y357606D01*
G37*
G36*
X572988Y305969D02*
X588544Y321525D01*
X593034Y317035D01*
X577478Y301479D01*
X572988Y305969D01*
G37*
G36*
X581968Y296989D02*
X597524Y312545D01*
X602014Y308055D01*
X586458Y292499D01*
X581968Y296989D01*
G37*
G36*
X590949Y288008D02*
X606505Y303564D01*
X610995Y299074D01*
X595439Y283518D01*
X590949Y288008D01*
G37*
G36*
X599929Y279028D02*
X615485Y294584D01*
X619975Y290094D01*
X604419Y274538D01*
X599929Y279028D01*
G37*
D10*
G36*
X637647Y285209D02*
X632698Y280260D01*
X626335Y286623D01*
X631284Y291572D01*
X637647Y285209D01*
G37*
G36*
X646840Y294402D02*
X641891Y289453D01*
X635528Y295816D01*
X640477Y300765D01*
X646840Y294402D01*
G37*
G36*
X667278Y327566D02*
X672227Y332515D01*
X678590Y326152D01*
X673641Y321203D01*
X667278Y327566D01*
G37*
G36*
X658085Y318373D02*
X663034Y323322D01*
X669397Y316959D01*
X664448Y312010D01*
X658085Y318373D01*
G37*
G36*
X464610Y448722D02*
X459661Y443773D01*
X453298Y450136D01*
X458247Y455085D01*
X464610Y448722D01*
G37*
G36*
X473802Y457914D02*
X468853Y452965D01*
X462490Y459328D01*
X467439Y464277D01*
X473802Y457914D01*
G37*
D22*
X617538Y685825D03*
X617538Y704825D03*
D10*
X588813Y571500D03*
X601813Y571500D03*
X612625Y571500D03*
X625625Y571500D03*
D22*
X638175Y685825D03*
X638175Y704825D03*
X679450Y666775D03*
X679450Y685775D03*
D10*
X638025Y571500D03*
X651025Y571500D03*
X663425Y571500D03*
X676425Y571500D03*
D22*
X658813Y666775D03*
X658813Y685775D03*
D10*
X358625Y649288D03*
X371625Y649288D03*
X371625Y660400D03*
X358625Y660400D03*
D21*
X365125Y696800D03*
X374625Y674800D03*
X355625Y674800D03*
D10*
X326875Y655638D03*
X339875Y655638D03*
X339875Y666750D03*
X326875Y666750D03*
D21*
X333375Y703150D03*
X342875Y681150D03*
X323875Y681150D03*
D10*
X295125Y668338D03*
X308125Y668338D03*
X308125Y679450D03*
X295125Y679450D03*
D21*
X301625Y715850D03*
X311125Y693850D03*
X292125Y693850D03*
D10*
X276375Y668338D03*
X263375Y668338D03*
X276375Y679450D03*
X263375Y679450D03*
D21*
X269875Y715850D03*
X279375Y693850D03*
X260375Y693850D03*
D24*
X419100Y90488D03*
X381000Y90488D03*
X406400Y90488D03*
X393700Y90488D03*
X419100Y188913D03*
X381000Y188913D03*
X406400Y188913D03*
X393700Y188913D03*
D11*
X539750Y539600D03*
X539750Y552600D03*
X468313Y266850D03*
X468313Y253850D03*
X457200Y253850D03*
X457200Y266850D03*
X461963Y222100D03*
X461963Y235100D03*
D10*
G36*
X609072Y218534D02*
X604123Y213585D01*
X597760Y219948D01*
X602709Y224897D01*
X609072Y218534D01*
G37*
G36*
X618265Y227727D02*
X613316Y222778D01*
X606953Y229141D01*
X611902Y234090D01*
X618265Y227727D01*
G37*
D11*
X501650Y295425D03*
X501650Y282425D03*
D10*
X515788Y296863D03*
X528788Y296863D03*
X531963Y258763D03*
X518963Y258763D03*
D11*
X501650Y324000D03*
X501650Y311000D03*
X479425Y266850D03*
X479425Y253850D03*
X501650Y253850D03*
X501650Y266850D03*
D10*
X528788Y285750D03*
X515788Y285750D03*
X518963Y269875D03*
X531963Y269875D03*
D11*
X512763Y311000D03*
X512763Y324000D03*
X490538Y266850D03*
X490538Y253850D03*
D10*
X366563Y504825D03*
X379563Y504825D03*
X379563Y493713D03*
X366563Y493713D03*
G36*
X543972Y233890D02*
X539023Y238839D01*
X545386Y245202D01*
X550335Y240253D01*
X543972Y233890D01*
G37*
G36*
X553164Y224698D02*
X548215Y229647D01*
X554578Y236010D01*
X559527Y231061D01*
X553164Y224698D01*
G37*
G36*
X600616Y204260D02*
X605565Y199311D01*
X599202Y192948D01*
X594253Y197897D01*
X600616Y204260D01*
G37*
G36*
X591423Y213452D02*
X596372Y208503D01*
X590009Y202140D01*
X585060Y207089D01*
X591423Y213452D01*
G37*
G36*
X620172Y230715D02*
X615223Y235664D01*
X621586Y242027D01*
X626535Y237078D01*
X620172Y230715D01*
G37*
G36*
X629364Y221523D02*
X624415Y226472D01*
X630778Y232835D01*
X635727Y227886D01*
X629364Y221523D01*
G37*
G36*
X585260Y182022D02*
X580311Y177073D01*
X573948Y183436D01*
X578897Y188385D01*
X585260Y182022D01*
G37*
G36*
X594452Y191214D02*
X589503Y186265D01*
X583140Y192628D01*
X588089Y197577D01*
X594452Y191214D01*
G37*
X551013Y173038D03*
X538013Y173038D03*
G36*
X593197Y174084D02*
X588248Y169135D01*
X581885Y175498D01*
X586834Y180447D01*
X593197Y174084D01*
G37*
G36*
X602390Y183277D02*
X597441Y178328D01*
X591078Y184691D01*
X596027Y189640D01*
X602390Y183277D01*
G37*
G36*
X615422Y207422D02*
X610473Y202473D01*
X604110Y208836D01*
X609059Y213785D01*
X615422Y207422D01*
G37*
G36*
X624615Y216614D02*
X619666Y211665D01*
X613303Y218028D01*
X618252Y222977D01*
X624615Y216614D01*
G37*
X538013Y161925D03*
X551013Y161925D03*
D11*
X490538Y165250D03*
X490538Y152250D03*
X460375Y190650D03*
X460375Y177650D03*
D10*
X477688Y177800D03*
X490688Y177800D03*
X477688Y188913D03*
X490688Y188913D03*
D11*
X460375Y165250D03*
X460375Y152250D03*
X479425Y152250D03*
X479425Y165250D03*
X561975Y160188D03*
X561975Y173188D03*
D10*
X511025Y147638D03*
X524025Y147638D03*
X538013Y150813D03*
X551013Y150813D03*
X563413Y149225D03*
X576413Y149225D03*
X373213Y479425D03*
X360213Y479425D03*
D17*
X384175Y480575D03*
X384175Y465575D03*
D32*
X486800Y650875D03*
X503800Y650875D03*
D28*
X639763Y497875D03*
X639763Y549875D03*
X627063Y497875D03*
X652463Y497875D03*
X665163Y497875D03*
X627063Y549875D03*
X652463Y549875D03*
X665163Y549875D03*
X549275Y589950D03*
X549275Y641950D03*
X536575Y589950D03*
X561975Y589950D03*
X574675Y589950D03*
X536575Y641950D03*
X561975Y641950D03*
X574675Y641950D03*
X600075Y589950D03*
X600075Y641950D03*
X587375Y589950D03*
X612775Y589950D03*
X625475Y589950D03*
X587375Y641950D03*
X612775Y641950D03*
X625475Y641950D03*
X650875Y589950D03*
X650875Y641950D03*
X638175Y589950D03*
X663575Y589950D03*
X676275Y589950D03*
X638175Y641950D03*
X663575Y641950D03*
X676275Y641950D03*
D10*
G36*
X614890Y275178D02*
X619839Y280127D01*
X626202Y273764D01*
X621253Y268815D01*
X614890Y275178D01*
G37*
G36*
X605698Y265986D02*
X610647Y270935D01*
X617010Y264572D01*
X612061Y259623D01*
X605698Y265986D01*
G37*
G36*
X630765Y259303D02*
X635714Y264252D01*
X642077Y257889D01*
X637128Y252940D01*
X630765Y259303D01*
G37*
G36*
X621573Y250111D02*
X626522Y255060D01*
X632885Y248697D01*
X627936Y243748D01*
X621573Y250111D01*
G37*
G36*
X624947Y256634D02*
X619998Y251685D01*
X613635Y258048D01*
X618584Y262997D01*
X624947Y256634D01*
G37*
G36*
X634140Y265827D02*
X629191Y260878D01*
X622828Y267241D01*
X627777Y272190D01*
X634140Y265827D01*
G37*
G36*
X638703Y251366D02*
X643652Y256315D01*
X650015Y249952D01*
X645066Y245003D01*
X638703Y251366D01*
G37*
G36*
X629510Y242173D02*
X634459Y247122D01*
X640822Y240759D01*
X635873Y235810D01*
X629510Y242173D01*
G37*
D11*
X663575Y381150D03*
X663575Y368150D03*
X674688Y381150D03*
X674688Y368150D03*
D33*
X439763Y309263D03*
X449263Y309263D03*
X458763Y309263D03*
X458763Y335263D03*
X449263Y335263D03*
X439763Y335263D03*
D11*
X442913Y347513D03*
X442913Y360513D03*
X454025Y347513D03*
X454025Y360513D03*
D33*
X363563Y518813D03*
X373063Y518813D03*
X382563Y518813D03*
X382563Y544813D03*
X373063Y544813D03*
X363563Y544813D03*
X522263Y187625D03*
X512763Y187625D03*
X503263Y187625D03*
X503263Y161625D03*
X512763Y161625D03*
X522263Y161625D03*
X549300Y187025D03*
X558800Y187025D03*
X568300Y187025D03*
X568300Y213025D03*
X558800Y213025D03*
X549300Y213025D03*
D34*
X243188Y374675D03*
X243188Y384175D03*
X243188Y393675D03*
X217188Y393675D03*
X217188Y384175D03*
X217188Y374675D03*
D22*
X514350Y704825D03*
X514350Y685825D03*
X493713Y704825D03*
X493713Y685825D03*
D10*
X488800Y635000D03*
X501800Y635000D03*
X498325Y669925D03*
X511325Y669925D03*
D23*
X594263Y550863D03*
X558263Y550863D03*
D35*
X476060Y241300D03*
X476060Y234950D03*
X476060Y228600D03*
X476060Y222250D03*
X476060Y215900D03*
X476060Y209550D03*
X476060Y203200D03*
X530416Y241300D03*
X530416Y234950D03*
X530416Y228600D03*
X530416Y222250D03*
X530416Y215900D03*
X530416Y209550D03*
X530416Y203200D03*
D36*
G36*
X588176Y215713D02*
X586021Y213558D01*
X579018Y220561D01*
X581173Y222716D01*
X588176Y215713D01*
G37*
G36*
X592666Y220203D02*
X590511Y218048D01*
X583508Y225051D01*
X585663Y227206D01*
X592666Y220203D01*
G37*
G36*
X597157Y224693D02*
X595002Y222538D01*
X587999Y229541D01*
X590154Y231696D01*
X597157Y224693D01*
G37*
G36*
X601647Y229183D02*
X599492Y227028D01*
X592489Y234031D01*
X594644Y236186D01*
X601647Y229183D01*
G37*
G36*
X606137Y233673D02*
X603982Y231518D01*
X596979Y238521D01*
X599134Y240676D01*
X606137Y233673D01*
G37*
G36*
X610627Y238164D02*
X608472Y236009D01*
X601469Y243012D01*
X603624Y245167D01*
X610627Y238164D01*
G37*
G36*
X615117Y242654D02*
X612962Y240499D01*
X605959Y247502D01*
X608114Y249657D01*
X615117Y242654D01*
G37*
G36*
X549741Y254148D02*
X547586Y251993D01*
X540583Y258996D01*
X542738Y261151D01*
X549741Y254148D01*
G37*
G36*
X554231Y258638D02*
X552076Y256483D01*
X545073Y263486D01*
X547228Y265641D01*
X554231Y258638D01*
G37*
G36*
X558721Y263129D02*
X556566Y260974D01*
X549563Y267977D01*
X551718Y270132D01*
X558721Y263129D01*
G37*
G36*
X563211Y267619D02*
X561056Y265464D01*
X554053Y272467D01*
X556208Y274622D01*
X563211Y267619D01*
G37*
G36*
X567701Y272109D02*
X565546Y269954D01*
X558543Y276957D01*
X560698Y279112D01*
X567701Y272109D01*
G37*
G36*
X572192Y276599D02*
X570037Y274444D01*
X563034Y281447D01*
X565189Y283602D01*
X572192Y276599D01*
G37*
G36*
X576682Y281089D02*
X574527Y278934D01*
X567524Y285937D01*
X569679Y288092D01*
X576682Y281089D01*
G37*
D10*
X343050Y474663D03*
X330050Y474663D03*
X346225Y360363D03*
X333225Y360363D03*
X306238Y360363D03*
X319238Y360363D03*
D15*
X351850Y460439D03*
X343850Y460439D03*
X335850Y460439D03*
X327850Y460439D03*
X319850Y460439D03*
X311850Y460439D03*
X303850Y460439D03*
X295850Y460439D03*
D14*
X280924Y445513D03*
X280924Y437513D03*
X280924Y429513D03*
X280924Y421513D03*
X280924Y413513D03*
X280924Y405513D03*
X280924Y397513D03*
X280924Y389513D03*
D15*
X295850Y374587D03*
X303850Y374587D03*
X311850Y374587D03*
X319850Y374587D03*
X327850Y374587D03*
X335850Y374587D03*
X343850Y374587D03*
X351850Y374587D03*
D14*
X366776Y389513D03*
X366776Y397513D03*
X366776Y405513D03*
X366776Y413513D03*
X366776Y421513D03*
X366776Y429513D03*
X366776Y437513D03*
X366776Y445513D03*
D28*
X390525Y365725D03*
X390525Y313725D03*
X403225Y365725D03*
X377825Y365725D03*
X365125Y365725D03*
X403225Y313725D03*
X377825Y313725D03*
X365125Y313725D03*
D11*
X417513Y358625D03*
X417513Y371625D03*
X346075Y338288D03*
X346075Y325288D03*
X474663Y689125D03*
X474663Y676125D03*
D21*
X704850Y566625D03*
X714350Y544625D03*
X695350Y544625D03*
D13*
X319088Y285188D03*
X319088Y302188D03*
D11*
X125413Y163363D03*
X125413Y176363D03*
X561975Y304950D03*
X561975Y291950D03*
D37*
X314325Y253325D03*
X263525Y253325D03*
D38*
X288925Y152325D03*
D39*
X168500Y306388D03*
X85500Y306388D03*
D40*
X215063Y204788D03*
X150063Y204788D03*
D36*
X178775Y613378D03*
X172275Y613378D03*
X165775Y613378D03*
X159275Y613378D03*
X152775Y613378D03*
X146275Y613378D03*
X139775Y613378D03*
X133275Y613378D03*
X126775Y613378D03*
X120275Y613378D03*
X113775Y613378D03*
X107275Y613378D03*
X100775Y613378D03*
X94275Y613378D03*
X94275Y555022D03*
X100775Y555022D03*
X107275Y555022D03*
X113775Y555022D03*
X120275Y555022D03*
X126775Y555022D03*
X133275Y555022D03*
X139775Y555022D03*
X146275Y555022D03*
X152775Y555022D03*
X159275Y555022D03*
X165775Y555022D03*
X172275Y555022D03*
X178775Y555022D03*
D10*
X100163Y625475D03*
X87163Y625475D03*
D11*
X80963Y592288D03*
X80963Y579288D03*
D10*
X111275Y542925D03*
X98275Y542925D03*
X98275Y531813D03*
X111275Y531813D03*
D22*
X152400Y677838D03*
X152400Y658838D03*
X120650Y677838D03*
X120650Y658838D03*
D11*
X161131Y638325D03*
X161131Y625325D03*
X84138Y530075D03*
X84138Y543075D03*
D10*
X174475Y625475D03*
X187475Y625475D03*
X187475Y636588D03*
X174475Y636588D03*
D11*
X111919Y638325D03*
X111919Y625325D03*
D41*
X204788Y651263D03*
X204788Y691763D03*
D32*
X229625Y268288D03*
X246625Y268288D03*
D10*
X690713Y396875D03*
X677713Y396875D03*
D11*
X690563Y368150D03*
X690563Y381150D03*
X184150Y650725D03*
X184150Y663725D03*
D22*
X420688Y341288D03*
X420688Y322288D03*
D42*
X619907Y192552D03*
X635147Y192552D03*
D10*
G36*
X637115Y224378D02*
X642064Y229327D01*
X648427Y222964D01*
X643478Y218015D01*
X637115Y224378D01*
G37*
G36*
X627923Y215186D02*
X632872Y220135D01*
X639235Y213772D01*
X634286Y208823D01*
X627923Y215186D01*
G37*
D42*
X518795Y584200D03*
X503555Y584200D03*
D10*
X520850Y77788D03*
X507850Y77788D03*
D22*
X488950Y80400D03*
X488950Y97400D03*
D11*
X534988Y89050D03*
X534988Y76050D03*
D32*
X505850Y104775D03*
X522850Y104775D03*
D10*
X507850Y88900D03*
X520850Y88900D03*
D11*
X544513Y125563D03*
X544513Y112563D03*
D43*
X554784Y117304D03*
X554784Y112304D03*
X554784Y107304D03*
X554784Y102304D03*
X554784Y97304D03*
X554784Y92304D03*
X554784Y87304D03*
D44*
X562784Y79304D03*
X567784Y79304D03*
X572784Y79304D03*
X577784Y79304D03*
X582784Y79304D03*
X587784Y79304D03*
X592784Y79304D03*
D43*
X600784Y87304D03*
X600784Y92304D03*
X600784Y97304D03*
X600784Y102304D03*
X600784Y107304D03*
X600784Y112304D03*
X600784Y117304D03*
D44*
X592784Y125304D03*
X587784Y125304D03*
X582784Y125304D03*
X577784Y125304D03*
X572784Y125304D03*
X567784Y125304D03*
X562784Y125304D03*
D45*
X556784Y123304D03*
D46*
X522350Y120500D03*
X522350Y127000D03*
X522350Y133500D03*
X506350Y133500D03*
X506350Y127000D03*
X506350Y120500D03*
D47*
X726200Y340675D03*
X726200Y300675D03*
X696200Y340675D03*
X696200Y300675D03*
D22*
X206375Y590575D03*
X206375Y609575D03*
D11*
X69850Y592288D03*
X69850Y579288D03*
D48*
X66675Y563245D03*
X66675Y548005D03*
D49*
X63975Y412750D03*
X63975Y423750D03*
X63975Y434750D03*
X63975Y445750D03*
X63975Y456750D03*
X63975Y467750D03*
X63975Y478750D03*
X63975Y489750D03*
D50*
X68975Y377250D03*
D51*
X68975Y510750D03*
D52*
X191975Y396250D03*
D53*
X191975Y426750D03*
X191975Y475750D03*
D54*
X479425Y552675D03*
X485775Y552675D03*
X492125Y552675D03*
X498475Y552675D03*
X504825Y552675D03*
X511175Y552675D03*
X517525Y552675D03*
X523875Y552675D03*
X523875Y615725D03*
X517525Y615725D03*
X511175Y615725D03*
X504825Y615725D03*
X498475Y615725D03*
X492125Y615725D03*
X485775Y615725D03*
X479425Y615725D03*
D11*
X704850Y411013D03*
X704850Y424013D03*
X715963Y411013D03*
X715963Y424013D03*
X200025Y358925D03*
X200025Y345925D03*
X727075Y411013D03*
X727075Y424013D03*
X254000Y333525D03*
X254000Y320525D03*
X265113Y333525D03*
X265113Y320525D03*
M02*
