G04 EAGLE Gerber RS-274X export*
G75*
%MOMM*%
%FSLAX34Y34*%
%LPD*%
%INSoldermask Bottom*%
%IPPOS*%
%AMOC8*
5,1,8,0,0,1.08239X$1,22.5*%
G01*
%ADD10C,3.503200*%
%ADD11R,1.371600X1.803400*%
%ADD12P,1.869504X8X292.500000*%
%ADD13C,1.928200*%
%ADD14C,2.403200*%
%ADD15C,4.203200*%
%ADD16P,1.869504X8X202.500000*%
%ADD17C,6.045200*%
%ADD18C,1.209600*%

G36*
X676365Y-747D02*
X676365Y-747D01*
X676456Y-739D01*
X676486Y-727D01*
X676518Y-722D01*
X676598Y-679D01*
X676682Y-643D01*
X676714Y-617D01*
X676735Y-606D01*
X676757Y-583D01*
X676813Y-538D01*
X800638Y123287D01*
X800691Y123361D01*
X800751Y123430D01*
X800763Y123460D01*
X800782Y123486D01*
X800809Y123573D01*
X800843Y123658D01*
X800847Y123699D01*
X800854Y123722D01*
X800853Y123754D01*
X800861Y123825D01*
X800861Y796925D01*
X800858Y796945D01*
X800860Y796964D01*
X800838Y797066D01*
X800822Y797168D01*
X800812Y797185D01*
X800808Y797205D01*
X800755Y797294D01*
X800706Y797385D01*
X800692Y797399D01*
X800682Y797416D01*
X800603Y797483D01*
X800528Y797555D01*
X800510Y797563D01*
X800495Y797576D01*
X800399Y797615D01*
X800305Y797658D01*
X800285Y797660D01*
X800267Y797668D01*
X800100Y797686D01*
X752475Y797686D01*
X752455Y797683D01*
X752436Y797685D01*
X752334Y797663D01*
X752232Y797647D01*
X752215Y797637D01*
X752195Y797633D01*
X752106Y797580D01*
X752015Y797531D01*
X752001Y797517D01*
X751984Y797507D01*
X751917Y797428D01*
X751846Y797353D01*
X751837Y797335D01*
X751824Y797320D01*
X751785Y797224D01*
X751742Y797130D01*
X751740Y797110D01*
X751732Y797092D01*
X751714Y796925D01*
X751714Y149540D01*
X650560Y48386D01*
X149540Y48386D01*
X48386Y149540D01*
X48386Y796925D01*
X48383Y796945D01*
X48385Y796964D01*
X48363Y797066D01*
X48347Y797168D01*
X48337Y797185D01*
X48333Y797205D01*
X48280Y797294D01*
X48231Y797385D01*
X48217Y797399D01*
X48207Y797416D01*
X48128Y797483D01*
X48053Y797555D01*
X48035Y797563D01*
X48020Y797576D01*
X47924Y797615D01*
X47830Y797658D01*
X47810Y797660D01*
X47792Y797668D01*
X47625Y797686D01*
X0Y797686D01*
X-20Y797683D01*
X-39Y797685D01*
X-141Y797663D01*
X-243Y797647D01*
X-260Y797637D01*
X-280Y797633D01*
X-369Y797580D01*
X-460Y797531D01*
X-474Y797517D01*
X-491Y797507D01*
X-558Y797428D01*
X-630Y797353D01*
X-638Y797335D01*
X-651Y797320D01*
X-690Y797224D01*
X-733Y797130D01*
X-735Y797110D01*
X-743Y797092D01*
X-761Y796925D01*
X-761Y123825D01*
X-747Y123735D01*
X-739Y123644D01*
X-727Y123614D01*
X-722Y123582D01*
X-679Y123502D01*
X-643Y123418D01*
X-617Y123386D01*
X-606Y123365D01*
X-583Y123343D01*
X-538Y123287D01*
X123287Y-538D01*
X123361Y-591D01*
X123430Y-651D01*
X123460Y-663D01*
X123486Y-682D01*
X123573Y-709D01*
X123658Y-743D01*
X123699Y-747D01*
X123722Y-754D01*
X123754Y-753D01*
X123825Y-761D01*
X676275Y-761D01*
X676365Y-747D01*
G37*
D10*
X55000Y654000D03*
X616000Y155000D03*
D11*
X354648Y620713D03*
X369888Y620713D03*
X385128Y620713D03*
D12*
X430213Y523875D03*
X404813Y523875D03*
X430213Y498475D03*
X404813Y498475D03*
X430213Y473075D03*
X404813Y473075D03*
X430213Y447675D03*
X404813Y447675D03*
X430213Y422275D03*
X404813Y422275D03*
X430213Y396875D03*
X404813Y396875D03*
D13*
X251500Y785000D03*
X251500Y810000D03*
X251500Y835000D03*
X251500Y860000D03*
X288500Y785000D03*
X288500Y810000D03*
X288500Y835000D03*
X288500Y860000D03*
X323500Y785000D03*
X323500Y810000D03*
X323500Y835000D03*
X323500Y860000D03*
X348500Y785000D03*
X348500Y810000D03*
X348500Y835000D03*
X348500Y860000D03*
X373500Y785000D03*
X373500Y810000D03*
X373500Y835000D03*
X373500Y860000D03*
X398500Y785000D03*
X398500Y810000D03*
X398500Y835000D03*
X398500Y860000D03*
X423500Y785000D03*
X423500Y810000D03*
X423500Y835000D03*
X423500Y860000D03*
X448500Y785000D03*
X448500Y810000D03*
X448500Y835000D03*
X448500Y860000D03*
X473500Y785000D03*
X473500Y810000D03*
X473500Y835000D03*
X473500Y860000D03*
X498500Y785000D03*
X498500Y810000D03*
X498500Y835000D03*
X498500Y860000D03*
X523500Y785000D03*
X523500Y810000D03*
X523500Y835000D03*
X523500Y860000D03*
X548500Y785000D03*
X548500Y810000D03*
X548500Y835000D03*
X548500Y860000D03*
D14*
X187000Y775000D03*
X613000Y775000D03*
D15*
X146000Y813500D03*
X654000Y813500D03*
D16*
X438150Y279400D03*
X438150Y254000D03*
X412750Y279400D03*
X412750Y254000D03*
X387350Y279400D03*
X387350Y254000D03*
X361950Y279400D03*
X361950Y254000D03*
D17*
X74000Y733000D03*
X726000Y733000D03*
X667000Y106000D03*
X133000Y106000D03*
D18*
X15875Y781050D03*
X34925Y781050D03*
X34925Y762000D03*
X15875Y762000D03*
X15875Y742950D03*
X34925Y742950D03*
X34925Y723900D03*
X15875Y723900D03*
X15875Y704850D03*
X34925Y704850D03*
X34925Y685800D03*
X15875Y685800D03*
X15875Y666750D03*
X31750Y666750D03*
X30163Y647700D03*
X15875Y647700D03*
X15875Y628650D03*
X34925Y628650D03*
X34925Y609600D03*
X15875Y609600D03*
X15875Y590550D03*
X34925Y590550D03*
X34925Y571500D03*
X15875Y571500D03*
X15875Y552450D03*
X34925Y552450D03*
X34925Y533400D03*
X15875Y533400D03*
X15875Y514350D03*
X34925Y514350D03*
X34925Y495300D03*
X15875Y495300D03*
X15875Y476250D03*
X34925Y476250D03*
X34925Y457200D03*
X15875Y457200D03*
X15875Y438150D03*
X34925Y438150D03*
X34925Y419100D03*
X15875Y419100D03*
X15875Y400050D03*
X34925Y400050D03*
X34925Y381000D03*
X15875Y381000D03*
X15875Y361950D03*
X34925Y361950D03*
X34925Y342900D03*
X15875Y342900D03*
X15875Y323850D03*
X34925Y323850D03*
X34925Y304800D03*
X15875Y304800D03*
X15875Y285750D03*
X34925Y285750D03*
X34925Y266700D03*
X15875Y266700D03*
X15875Y247650D03*
X34925Y247650D03*
X34925Y228600D03*
X15875Y228600D03*
X15875Y209550D03*
X34925Y209550D03*
X34925Y190500D03*
X15875Y190500D03*
X765175Y781050D03*
X784225Y762000D03*
X765175Y762000D03*
X765175Y742950D03*
X784225Y742950D03*
X784225Y723900D03*
X765175Y723900D03*
X765175Y704850D03*
X784225Y704850D03*
X784225Y685800D03*
X765175Y685800D03*
X765175Y666750D03*
X784225Y666750D03*
X784225Y647700D03*
X765175Y647700D03*
X765175Y628650D03*
X784225Y628650D03*
X784225Y609600D03*
X765175Y609600D03*
X765175Y590550D03*
X784225Y590550D03*
X784225Y571500D03*
X765175Y571500D03*
X765175Y552450D03*
X784225Y552450D03*
X784225Y533400D03*
X765175Y533400D03*
X765175Y514350D03*
X784225Y514350D03*
X784225Y495300D03*
X765175Y495300D03*
X765175Y476250D03*
X784225Y476250D03*
X784225Y457200D03*
X765175Y457200D03*
X765175Y438150D03*
X784225Y438150D03*
X784225Y419100D03*
X765175Y419100D03*
X765175Y400050D03*
X784225Y400050D03*
X784225Y381000D03*
X765175Y381000D03*
X765175Y361950D03*
X784225Y361950D03*
X784225Y342900D03*
X765175Y342900D03*
X765175Y323850D03*
X784225Y323850D03*
X784225Y304800D03*
X765175Y304800D03*
X765175Y285750D03*
X784225Y285750D03*
X784225Y266700D03*
X765175Y266700D03*
X765175Y247650D03*
X784225Y247650D03*
X784225Y228600D03*
X765175Y228600D03*
X765175Y209550D03*
X784225Y209550D03*
X784225Y190500D03*
X765175Y190500D03*
X152400Y34925D03*
X152400Y15875D03*
X171450Y15875D03*
X171450Y34925D03*
X190500Y34925D03*
X190500Y15875D03*
X209550Y15875D03*
X209550Y34925D03*
X228600Y34925D03*
X228600Y15875D03*
X247650Y15875D03*
X247650Y34925D03*
X266700Y34925D03*
X266700Y15875D03*
X285750Y15875D03*
X285750Y34925D03*
X304800Y34925D03*
X304800Y15875D03*
X323850Y15875D03*
X323850Y34925D03*
X342900Y34925D03*
X342900Y15875D03*
X361950Y15875D03*
X361950Y34925D03*
X381000Y34925D03*
X381000Y15875D03*
X400050Y15875D03*
X400050Y34925D03*
X419100Y34925D03*
X419100Y15875D03*
X438150Y15875D03*
X438150Y34925D03*
X457200Y34925D03*
X457200Y15875D03*
X476250Y15875D03*
X476250Y34925D03*
X495300Y34925D03*
X495300Y15875D03*
X514350Y15875D03*
X514350Y34925D03*
X533400Y34925D03*
X533400Y15875D03*
X552450Y15875D03*
X552450Y34925D03*
X571500Y34925D03*
X571500Y15875D03*
X590550Y15875D03*
X590550Y34925D03*
X609600Y34925D03*
X609600Y15875D03*
X628650Y15875D03*
X628650Y34925D03*
X647700Y34925D03*
X647700Y15875D03*
X15875Y171450D03*
X34925Y171450D03*
X34925Y152400D03*
X15875Y152400D03*
X765175Y171450D03*
X784225Y171450D03*
X784225Y152400D03*
X765175Y152400D03*
X44450Y133350D03*
X57150Y120650D03*
X69850Y107950D03*
X82550Y95250D03*
X95250Y82550D03*
X107950Y69850D03*
X120650Y57150D03*
X136525Y44450D03*
X666750Y44450D03*
X679450Y57150D03*
X692150Y69850D03*
X704850Y82550D03*
X717550Y95250D03*
X730250Y107950D03*
X742950Y120650D03*
X755650Y136525D03*
X679450Y31750D03*
X692150Y44450D03*
X704850Y57150D03*
X717550Y69850D03*
X730250Y82550D03*
X742950Y95250D03*
X755650Y107950D03*
X768350Y123825D03*
X781050Y136525D03*
X666750Y19050D03*
X31750Y120650D03*
X44450Y107950D03*
X57150Y95250D03*
X69850Y82550D03*
X82550Y69850D03*
X95250Y57150D03*
X107950Y44450D03*
X123825Y31750D03*
X136525Y19050D03*
X19050Y133350D03*
X784225Y781050D03*
X263525Y127000D03*
X276225Y127000D03*
X288925Y127000D03*
X301625Y127000D03*
X314325Y127000D03*
X263525Y139700D03*
X263525Y152400D03*
X263525Y165100D03*
X263525Y177800D03*
X263525Y190500D03*
X276225Y139700D03*
X276225Y152400D03*
X276225Y165100D03*
X276225Y177800D03*
X276225Y190500D03*
X288925Y190500D03*
X288925Y177800D03*
X288925Y165100D03*
X288925Y152400D03*
X288925Y139700D03*
X301625Y139700D03*
X301625Y152400D03*
X301625Y165100D03*
X301625Y177800D03*
X301625Y190500D03*
X314325Y190500D03*
X314325Y177800D03*
X314325Y165100D03*
X314325Y152400D03*
X314325Y139700D03*
X98425Y300038D03*
X98425Y312738D03*
X85725Y300038D03*
X73025Y300038D03*
X85725Y312738D03*
X73025Y312738D03*
X161925Y198438D03*
X161925Y211138D03*
X150813Y198438D03*
X139700Y198438D03*
X150813Y211138D03*
X139700Y211138D03*
X153988Y576263D03*
X142875Y576263D03*
X130175Y576263D03*
X119063Y576263D03*
X119063Y590550D03*
X130175Y590550D03*
X142875Y590550D03*
X153988Y590550D03*
M02*
